<svg width="50" height="50" viewBox="0 0 50 50" fill="none" xmlns="http://www.w3.org/2000/svg">
<g clip-path="url(#clip0_1441_3)">
<path d="M45.8333 0H4.16667C1.86548 0 0 1.86548 0 4.16667V45.8333C0 48.1345 1.86548 50 4.16667 50H45.8333C48.1345 50 50 48.1345 50 45.8333V4.16667C50 1.86548 48.1345 0 45.8333 0Z" fill="#F5F5F7"/>
<path d="M29.1281 23.7423C29.0786 23.8172 29.0272 23.8909 28.9799 23.9673C28.1727 25.2719 27.3706 26.5796 26.5568 27.8801C26.3521 28.2072 26.1245 28.5219 25.8831 28.8229C25.6707 29.0876 25.3998 29.2927 25.0776 29.4168C24.4621 29.6539 23.8204 29.4528 23.4486 28.9067C23.1992 28.5404 23.0972 28.1241 23.0574 27.6916C23.0337 27.4348 23.0251 27.1763 23.0241 26.9184C23.0204 25.9646 23.0226 25.0109 23.0226 24.0571C23.0226 23.9807 23.0226 23.9041 23.0226 23.8083C22.8756 23.9433 18.6876 30.6134 18.4133 31.1384C18.5228 31.2562 18.6345 31.3844 18.7548 31.5043C20.19 32.9358 21.9073 33.8079 23.9237 34.042C26.5975 34.3523 28.9383 33.585 30.9431 31.7911C31.0834 31.6654 31.2265 31.5497 31.4124 31.4984C31.8576 31.3753 32.3121 31.558 32.5403 31.9535C32.7678 32.3478 32.7011 32.8555 32.365 33.1792C31.9456 33.5826 31.4905 33.9434 31.0081 34.269C29.6424 35.1902 28.145 35.7888 26.5131 36.0008C23.2347 36.4266 20.329 35.5534 17.8481 33.3655C16.02 31.7532 14.8696 29.7256 14.3883 27.3363C13.5913 23.3799 14.9772 19.3884 17.9826 16.7945C19.5351 15.4544 21.3227 14.5993 23.3503 14.2978C26.2822 13.8619 28.9719 14.5113 31.3592 16.2733C33.6156 17.9388 35.0157 20.1751 35.6021 22.9173C35.7903 23.7978 35.8572 24.6923 35.8256 25.5904C35.7925 26.5358 35.5395 27.4168 34.9382 28.1686C34.41 28.8294 33.7412 29.2787 32.8984 29.4289C31.4688 29.6834 30.1369 28.9578 29.5525 27.6273C29.279 27.0045 29.1806 26.3504 29.1746 25.678C29.1694 25.1043 29.174 24.5307 29.1731 23.9568C29.1731 23.8888 29.1666 23.8208 29.1632 23.7528C29.1514 23.7493 29.1397 23.7459 29.1281 23.7423ZM24.9966 26.5415C25.0125 26.5486 25.0284 26.5557 25.0446 26.5628C25.093 26.4868 25.1425 26.4118 25.1898 26.3351C25.9169 25.1581 26.6422 23.9803 27.371 22.8043C27.6133 22.4136 27.8796 22.0403 28.2126 21.7194C28.4151 21.5243 28.6347 21.3532 28.8914 21.2338C29.5716 20.9175 30.306 21.1195 30.7303 21.7397C30.8861 21.9673 31.0023 22.2167 31.0486 22.4863C31.1004 22.7888 31.1406 23.0968 31.1458 23.4029C31.1591 24.1987 31.1484 24.9948 31.1514 25.7908C31.1529 26.1671 31.2073 26.5342 31.3823 26.8741C31.6762 27.4454 32.314 27.647 32.8831 27.3475C33.1835 27.1893 33.4101 26.9559 33.5711 26.6573C33.7657 26.2955 33.8488 25.9052 33.8581 25.4994C33.874 24.7953 33.8243 24.0963 33.6906 23.4028C32.8452 19.0145 28.7875 15.7213 24.0784 16.2144C22.4637 16.3835 20.9997 16.952 19.7173 17.9433C17.5431 19.6237 16.3547 21.8468 16.1606 24.5916C16.0619 25.9891 16.3051 27.3333 16.8382 28.6258C16.9359 28.8626 17.0523 29.0915 17.1737 29.3532C17.2326 29.2645 17.2729 29.207 17.3099 29.1477C18.2474 27.6458 19.1845 26.1436 20.1218 24.6415C20.8428 23.486 21.5631 22.3301 22.2856 21.1759C22.4894 20.8503 22.7321 20.5594 23.0757 20.3713C23.6453 20.0596 24.3377 20.2358 24.6723 20.7916C24.7743 20.9608 24.8567 21.1531 24.8967 21.3454C24.9546 21.6243 24.9903 21.9127 24.9925 22.1971C25.002 23.5667 24.9968 24.9363 24.9968 26.3058C24.9966 26.3844 24.9966 26.4629 24.9966 26.5415Z" fill="#060707"/>
</g>
<defs>
<clipPath id="clip0_1441_3">
<rect width="50" height="50" fill="white"/>
</clipPath>
</defs>
</svg>
