<?xml version="1.0" encoding="UTF-8"?>
<svg xmlns="http://www.w3.org/2000/svg" xmlns:xlink="http://www.w3.org/1999/xlink" width="120px" height="135px" viewBox="0 0 120 135" version="1.1">
<g id="surface1">
<path style=" stroke:none;fill-rule:nonzero;fill:rgb(0%,77.254903%,96.470588%);fill-opacity:1;" d="M 116.96875 63.875 C 118.765625 61.53125 118.824219 58.691406 117.042969 56.703125 C 118.945312 54.117188 118.789062 50.957031 116.390625 49.003906 L 68.507812 9.976562 C 65.605469 7.613281 60.535156 7.902344 57.183594 10.636719 L 40.613281 24.152344 C 37.542969 26.648438 36.988281 30.339844 39.15625 32.753906 C 37.421875 35.097656 37.398438 37.9375 39.226562 39.910156 C 37.242188 42.492188 37.359375 45.722656 39.792969 47.695312 L 87.679688 86.703125 C 90.582031 89.066406 95.652344 88.777344 99 86.042969 L 115.574219 72.546875 C 118.679688 70.011719 119.222656 66.289062 116.96875 63.875 Z M 116.96875 63.875 "/>
<path style=" stroke:none;fill-rule:nonzero;fill:rgb(2.352941%,2.352941%,2.745098%);fill-opacity:1;" d="M 116.96875 63.773438 C 118.765625 61.429688 118.824219 58.589844 117.042969 56.601562 C 118.945312 54.015625 118.789062 50.855469 116.390625 48.902344 L 114.667969 47.488281 L 92.605469 66.304688 L 92.605469 88.183594 C 94.832031 88.183594 97.183594 87.453125 99.011719 85.957031 L 115.585938 72.460938 C 118.691406 69.925781 119.222656 66.1875 116.96875 63.773438 Z M 116.96875 63.773438 "/>
<path style=" stroke:none;fill-rule:nonzero;fill:rgb(0%,77.254903%,96.470588%);fill-opacity:1;" d="M 115.320312 71.933594 L 98.746094 85.429688 C 96.988281 86.855469 94.738281 87.570312 92.605469 87.570312 L 92.605469 89.035156 C 94.929688 89.035156 97.363281 88.234375 99.265625 86.6875 L 115.839844 73.191406 C 117.765625 71.628906 118.871094 69.484375 118.871094 67.34375 C 118.871094 66.050781 118.453125 64.863281 117.714844 63.859375 C 118.464844 62.6875 118.886719 61.394531 118.886719 60.085938 C 118.886719 58.828125 118.488281 57.671875 117.777344 56.6875 C 118.488281 55.546875 118.871094 54.289062 118.871094 53.03125 C 118.871094 51.519531 118.332031 50.140625 117.332031 49.054688 C 117.101562 49.410156 116.847656 49.75 116.5625 50.074219 C 117.378906 50.90625 117.847656 51.941406 117.847656 53.03125 C 117.847656 54.644531 116.933594 56.328125 115.332031 57.621094 L 98.761719 71.117188 C 97 72.546875 94.75 73.257812 92.617188 73.257812 L 92.617188 74.722656 C 94.941406 74.722656 97.375 73.921875 99.277344 72.375 L 115.851562 58.878906 C 116.296875 58.523438 116.691406 58.113281 117.042969 57.707031 C 117.558594 58.417969 117.863281 59.234375 117.863281 60.101562 C 117.863281 61.71875 116.945312 63.398438 115.34375 64.691406 L 98.773438 78.1875 C 97.015625 79.617188 94.761719 80.332031 92.628906 80.332031 L 92.628906 81.792969 C 94.953125 81.792969 97.386719 80.992188 99.289062 79.445312 L 115.863281 65.949219 C 116.269531 65.609375 116.632812 65.253906 116.96875 64.878906 C 117.535156 65.609375 117.863281 66.460938 117.863281 67.359375 C 117.824219 68.941406 116.910156 70.625 115.320312 71.933594 Z M 115.320312 71.933594 "/>
<path style=" stroke:none;fill-rule:nonzero;fill:rgb(2.352941%,2.352941%,2.745098%);fill-opacity:1;" d="M 92.605469 87.570312 C 90.847656 87.570312 89.171875 87.113281 87.933594 86.09375 L 40.046875 47.066406 C 38.949219 46.164062 38.347656 44.976562 38.347656 43.683594 C 38.347656 42.730469 38.699219 41.746094 39.300781 40.84375 C 39.382812 40.910156 39.457031 40.996094 39.554688 41.066406 L 87.4375 80.074219 C 88.824219 81.199219 90.679688 81.757812 92.617188 81.757812 L 92.617188 80.296875 C 90.871094 80.296875 89.199219 79.835938 87.957031 78.816406 L 40.058594 39.824219 C 38.964844 38.921875 38.359375 37.734375 38.359375 36.441406 C 38.359375 35.523438 38.675781 34.589844 39.226562 33.722656 C 39.335938 33.824219 39.433594 33.925781 39.554688 34.011719 L 87.4375 73.019531 C 88.824219 74.144531 90.679688 74.703125 92.617188 74.703125 L 92.628906 74.703125 L 92.628906 73.242188 C 90.871094 73.242188 89.199219 72.785156 87.957031 71.761719 L 40.046875 32.753906 C 38.949219 31.851562 38.347656 30.664062 38.347656 29.371094 C 38.347656 28.230469 38.820312 27.058594 39.660156 26.003906 C 39.347656 25.734375 39.058594 25.425781 38.832031 25.121094 C 37.867188 26.414062 37.324219 27.890625 37.324219 29.371094 C 37.324219 30.644531 37.710938 31.816406 38.433594 32.820312 C 37.734375 33.960938 37.335938 35.183594 37.335938 36.441406 C 37.335938 37.75 37.746094 38.957031 38.492188 39.960938 C 37.757812 41.117188 37.324219 42.390625 37.324219 43.683594 C 37.324219 45.5 38.109375 47.148438 39.542969 48.324219 L 87.425781 87.332031 C 88.8125 88.457031 90.667969 89.015625 92.605469 89.015625 L 92.617188 89.015625 L 92.617188 87.570312 Z M 92.605469 87.570312 "/>
<path style=" stroke:none;fill-rule:nonzero;fill:rgb(0%,77.254903%,96.470588%);fill-opacity:1;" d="M 87.679688 64.710938 L 39.792969 25.699219 C 36.890625 23.335938 37.265625 19.207031 40.613281 16.46875 L 57.183594 2.972656 C 60.535156 0.234375 65.605469 -0.0546875 68.507812 2.308594 L 116.390625 41.320312 C 119.292969 43.683594 118.933594 47.8125 115.574219 50.550781 L 99 64.046875 C 95.652344 66.78125 90.582031 67.089844 87.679688 64.710938 Z M 87.679688 64.710938 "/>
<path style=" stroke:none;fill-rule:nonzero;fill:rgb(98.431373%,98.431373%,99.215686%);fill-opacity:1;" d="M 116.066406 44.261719 L 68.179688 5.234375 C 65.277344 2.871094 60.207031 3.160156 56.859375 5.894531 L 40.289062 19.410156 C 39.082031 20.394531 38.265625 21.550781 37.855469 22.757812 C 38.097656 23.863281 38.699219 24.898438 39.699219 25.714844 L 87.582031 64.726562 C 90.484375 67.089844 95.554688 66.800781 98.90625 64.0625 L 115.476562 50.566406 C 116.683594 49.582031 117.5 48.425781 117.910156 47.21875 C 117.667969 46.097656 117.066406 45.074219 116.066406 44.261719 Z M 116.066406 44.261719 "/>
<path style=" stroke:none;fill-rule:nonzero;fill:rgb(2.352941%,2.352941%,2.745098%);fill-opacity:1;" d="M 92.59375 67.019531 C 90.65625 67.019531 88.800781 66.460938 87.414062 65.339844 L 39.542969 26.328125 C 38.109375 25.171875 37.324219 23.523438 37.324219 21.6875 C 37.324219 19.546875 38.433594 17.402344 40.359375 15.839844 L 56.933594 2.34375 C 60.425781 -0.496094 65.734375 -0.800781 68.769531 1.679688 L 116.65625 40.691406 C 118.089844 41.847656 118.871094 43.496094 118.871094 45.332031 C 118.871094 47.472656 117.765625 49.613281 115.839844 51.179688 L 99.265625 64.675781 C 97.363281 66.238281 94.917969 67.019531 92.59375 67.019531 Z M 87.933594 64.097656 C 90.691406 66.339844 95.542969 66.050781 98.746094 63.433594 L 115.320312 49.9375 C 116.921875 48.628906 117.835938 46.964844 117.835938 45.347656 C 117.835938 44.054688 117.234375 42.867188 116.140625 41.964844 L 68.253906 2.9375 C 65.496094 0.695312 60.640625 0.984375 57.4375 3.601562 L 40.867188 17.097656 C 39.265625 18.40625 38.347656 20.070312 38.347656 21.6875 C 38.347656 22.980469 38.949219 24.167969 40.046875 25.070312 Z M 87.933594 64.097656 "/>
<path style=" stroke:none;fill-rule:nonzero;fill:rgb(0%,77.254903%,96.470588%);fill-opacity:1;" d="M 106.371094 47.984375 C 103.902344 45.960938 103.902344 42.695312 106.371094 40.691406 C 106.625 40.488281 106.890625 40.316406 107.167969 40.164062 L 69.578125 9.550781 C 69.386719 9.773438 69.179688 9.992188 68.941406 10.195312 C 66.472656 12.21875 62.460938 12.21875 59.992188 10.195312 C 59.558594 9.839844 59.21875 9.433594 58.929688 9.007812 L 47.949219 17.964844 C 48.464844 18.203125 48.960938 18.457031 49.40625 18.832031 C 51.875 20.855469 51.875 24.117188 49.40625 26.125 C 49.175781 26.292969 48.933594 26.429688 48.695312 26.582031 L 86.257812 57.195312 C 86.4375 56.992188 86.621094 56.804688 86.835938 56.617188 C 89.304688 54.597656 93.316406 54.597656 95.785156 56.617188 C 96.21875 56.976562 96.554688 57.382812 96.84375 57.808594 L 107.828125 48.867188 C 107.300781 48.613281 106.804688 48.339844 106.371094 47.984375 Z M 106.371094 47.984375 "/>
<path style=" stroke:none;fill-rule:nonzero;fill:rgb(2.352941%,2.352941%,2.745098%);fill-opacity:1;" d="M 96.738281 58.710938 L 96.460938 58.285156 C 96.171875 57.84375 95.871094 57.503906 95.519531 57.230469 C 93.195312 55.328125 89.402344 55.34375 87.078125 57.230469 C 86.898438 57.367188 86.753906 57.535156 86.609375 57.6875 L 86.332031 57.996094 L 85.980469 57.808594 L 47.550781 26.480469 L 48.488281 25.902344 C 48.765625 25.734375 48.960938 25.613281 49.140625 25.476562 C 50.164062 24.644531 50.742188 23.574219 50.742188 22.453125 C 50.742188 21.347656 50.175781 20.277344 49.140625 19.425781 C 48.777344 19.136719 48.355469 18.882812 47.792969 18.628906 L 46.683594 18.136719 L 59.027344 8.070312 L 59.304688 8.496094 C 59.59375 8.9375 59.894531 9.277344 60.246094 9.550781 C 62.570312 11.453125 66.351562 11.453125 68.6875 9.550781 C 68.914062 9.363281 69.097656 9.160156 69.277344 8.972656 L 69.53125 8.667969 L 108.308594 40.265625 L 107.347656 40.828125 C 107.09375 40.980469 106.839844 41.132812 106.613281 41.320312 C 105.578125 42.152344 105.011719 43.242188 105.011719 44.347656 C 105.011719 45.449219 105.578125 46.523438 106.613281 47.371094 C 106.972656 47.660156 107.394531 47.914062 107.960938 48.171875 L 109.082031 48.664062 Z M 91.304688 54.390625 C 93.015625 54.390625 94.738281 54.917969 96.039062 55.988281 C 96.363281 56.246094 96.640625 56.550781 96.917969 56.90625 L 106.625 49.003906 C 106.445312 48.882812 106.277344 48.765625 106.117188 48.628906 C 104.757812 47.523438 104.011719 45.996094 104.011719 44.347656 C 104.011719 42.714844 104.746094 41.21875 106.070312 40.113281 L 69.625 10.417969 C 69.492188 10.554688 69.347656 10.691406 69.191406 10.824219 C 66.578125 12.949219 62.339844 12.949219 59.726562 10.824219 C 59.402344 10.570312 59.125 10.265625 58.847656 9.90625 L 49.140625 17.8125 C 49.320312 17.929688 49.488281 18.050781 49.65625 18.1875 C 51.019531 19.289062 51.765625 20.820312 51.765625 22.46875 C 51.765625 24.066406 51.066406 25.527344 49.777344 26.632812 L 86.210938 56.3125 C 86.332031 56.195312 86.4375 56.074219 86.570312 55.972656 C 87.871094 54.917969 89.59375 54.390625 91.304688 54.390625 Z M 91.304688 54.390625 "/>
<path style=" stroke:none;fill-rule:nonzero;fill:rgb(0%,77.254903%,96.470588%);fill-opacity:1;" d="M 85.308594 38.398438 C 81.320312 41.644531 74.851562 41.644531 70.878906 38.398438 C 66.890625 35.148438 66.890625 29.878906 70.878906 26.632812 C 74.867188 23.386719 81.332031 23.386719 85.308594 26.632812 C 89.292969 29.878906 89.292969 35.148438 85.308594 38.398438 Z M 85.308594 38.398438 "/>
<path style=" stroke:none;fill-rule:nonzero;fill:rgb(98.431373%,98.431373%,99.215686%);fill-opacity:1;" d="M 85.308594 41.097656 C 81.320312 44.34375 74.851562 44.34375 70.878906 41.097656 C 66.890625 37.851562 66.890625 32.582031 70.878906 29.335938 C 74.867188 26.089844 81.332031 26.089844 85.308594 29.335938 C 89.292969 32.582031 89.292969 37.851562 85.308594 41.097656 Z M 85.308594 41.097656 "/>
<path style=" stroke:none;fill-rule:nonzero;fill:rgb(2.352941%,2.352941%,2.745098%);fill-opacity:1;" d="M 78.09375 41.539062 C 75.382812 41.539062 72.683594 40.707031 70.613281 39.023438 C 68.519531 37.324219 67.363281 35.011719 67.363281 32.515625 C 67.363281 30.015625 68.519531 27.703125 70.613281 26.003906 C 74.734375 22.636719 81.441406 22.636719 85.558594 26.003906 C 87.65625 27.703125 88.8125 30.015625 88.8125 32.515625 C 88.8125 35.011719 87.65625 37.324219 85.558594 39.023438 C 83.5 40.707031 80.789062 41.539062 78.09375 41.539062 Z M 78.09375 24.917969 C 75.574219 24.917969 73.046875 25.699219 71.132812 27.261719 C 69.375 28.707031 68.398438 30.558594 68.398438 32.515625 C 68.398438 34.46875 69.375 36.339844 71.132812 37.765625 C 74.972656 40.894531 81.210938 40.894531 85.054688 37.765625 C 86.8125 36.320312 87.789062 34.46875 87.789062 32.515625 C 87.789062 30.558594 86.8125 28.691406 85.054688 27.261719 C 83.128906 25.699219 80.609375 24.917969 78.09375 24.917969 Z M 78.09375 24.917969 "/>
<path style=" stroke:none;fill-rule:nonzero;fill:rgb(2.352941%,2.352941%,2.745098%);fill-opacity:1;" d="M 96.316406 99.640625 C 96.980469 99.640625 97.519531 99.199219 97.519531 98.652344 C 97.519531 98.109375 96.980469 97.667969 96.316406 97.667969 C 95.652344 97.667969 95.109375 98.109375 95.109375 98.652344 C 95.109375 99.199219 95.652344 99.640625 96.316406 99.640625 Z M 96.316406 99.640625 "/>
<path style=" stroke:none;fill-rule:nonzero;fill:rgb(2.352941%,2.352941%,2.745098%);fill-opacity:1;" d="M 101.640625 94.300781 C 102.109375 94.691406 102.109375 95.304688 101.640625 95.695312 C 101.167969 96.085938 100.398438 96.085938 99.929688 95.695312 C 99.460938 95.304688 99.460938 94.691406 99.929688 94.300781 C 100.410156 93.929688 101.167969 93.929688 101.640625 94.300781 Z M 101.640625 94.300781 "/>
<path style=" stroke:none;fill-rule:nonzero;fill:rgb(2.352941%,2.352941%,2.745098%);fill-opacity:1;" d="M 106.117188 90.664062 C 106.589844 91.054688 106.589844 91.667969 106.117188 92.058594 C 105.648438 92.449219 104.878906 92.449219 104.410156 92.058594 C 103.9375 91.667969 103.9375 91.054688 104.410156 90.664062 C 104.878906 90.273438 105.636719 90.273438 106.117188 90.664062 Z M 106.117188 90.664062 "/>
<path style=" stroke:none;fill-rule:nonzero;fill:rgb(2.352941%,2.352941%,2.745098%);fill-opacity:1;" d="M 110.585938 87.027344 C 111.058594 87.417969 111.058594 88.03125 110.585938 88.421875 C 110.117188 88.8125 109.347656 88.8125 108.878906 88.421875 C 108.40625 88.03125 108.40625 87.417969 108.878906 87.027344 C 109.347656 86.636719 110.117188 86.636719 110.585938 87.027344 Z M 110.585938 87.027344 "/>
<path style=" stroke:none;fill-rule:nonzero;fill:rgb(2.352941%,2.352941%,2.745098%);fill-opacity:1;" d="M 115.054688 83.375 C 115.523438 83.765625 115.523438 84.375 115.054688 84.765625 C 114.585938 85.15625 113.816406 85.15625 113.34375 84.765625 C 112.875 84.375 112.875 83.765625 113.34375 83.375 C 113.828125 83 114.585938 83 115.054688 83.375 Z M 115.054688 83.375 "/>
<path style=" stroke:none;fill-rule:nonzero;fill:rgb(2.352941%,2.352941%,2.745098%);fill-opacity:1;" d="M 119.535156 79.734375 C 120.003906 80.125 120.003906 80.738281 119.535156 81.128906 C 119.066406 81.519531 118.296875 81.519531 117.824219 81.128906 C 117.355469 80.738281 117.355469 80.125 117.824219 79.734375 C 118.296875 79.34375 119.054688 79.34375 119.535156 79.734375 Z M 119.535156 79.734375 "/>
<path style=" stroke:none;fill-rule:nonzero;fill:rgb(2.352941%,2.352941%,2.745098%);fill-opacity:1;" d="M 87.367188 99.640625 C 88.03125 99.640625 88.570312 99.199219 88.570312 98.652344 C 88.570312 98.109375 88.03125 97.667969 87.367188 97.667969 C 86.703125 97.667969 86.164062 98.109375 86.164062 98.652344 C 86.164062 99.199219 86.703125 99.640625 87.367188 99.640625 Z M 87.367188 99.640625 "/>
<path style=" stroke:none;fill-rule:nonzero;fill:rgb(2.352941%,2.352941%,2.745098%);fill-opacity:1;" d="M 92.703125 94.300781 C 93.171875 94.691406 93.171875 95.304688 92.703125 95.695312 C 92.230469 96.085938 91.460938 96.085938 90.992188 95.695312 C 90.523438 95.304688 90.523438 94.691406 90.992188 94.300781 C 91.460938 93.929688 92.230469 93.929688 92.703125 94.300781 Z M 92.703125 94.300781 "/>
<path style=" stroke:none;fill-rule:nonzero;fill:rgb(2.352941%,2.352941%,2.745098%);fill-opacity:1;" d="M 97.171875 90.664062 C 97.640625 91.054688 97.640625 91.667969 97.171875 92.058594 C 96.699219 92.449219 95.929688 92.449219 95.460938 92.058594 C 94.992188 91.667969 94.992188 91.054688 95.460938 90.664062 C 95.929688 90.273438 96.699219 90.273438 97.171875 90.664062 Z M 97.171875 90.664062 "/>
<path style=" stroke:none;fill-rule:nonzero;fill:rgb(2.352941%,2.352941%,2.745098%);fill-opacity:1;" d="M 101.640625 87.027344 C 102.109375 87.417969 102.109375 88.03125 101.640625 88.421875 C 101.167969 88.8125 100.398438 88.8125 99.929688 88.421875 C 99.460938 88.03125 99.460938 87.417969 99.929688 87.027344 C 100.410156 86.636719 101.167969 86.636719 101.640625 87.027344 Z M 101.640625 87.027344 "/>
<path style=" stroke:none;fill-rule:nonzero;fill:rgb(2.352941%,2.352941%,2.745098%);fill-opacity:1;" d="M 106.117188 83.375 C 106.589844 83.765625 106.589844 84.375 106.117188 84.765625 C 105.648438 85.15625 104.878906 85.15625 104.410156 84.765625 C 103.9375 84.375 103.9375 83.765625 104.410156 83.375 C 104.878906 83 105.636719 83 106.117188 83.375 Z M 106.117188 83.375 "/>
<path style=" stroke:none;fill-rule:nonzero;fill:rgb(2.352941%,2.352941%,2.745098%);fill-opacity:1;" d="M 110.585938 79.734375 C 111.058594 80.125 111.058594 80.738281 110.585938 81.128906 C 110.117188 81.519531 109.347656 81.519531 108.878906 81.128906 C 108.40625 80.738281 108.40625 80.125 108.878906 79.734375 C 109.347656 79.34375 110.117188 79.34375 110.585938 79.734375 Z M 110.585938 79.734375 "/>
<path style=" stroke:none;fill-rule:nonzero;fill:rgb(2.352941%,2.352941%,2.745098%);fill-opacity:1;" d="M 115.054688 76.082031 C 115.523438 76.472656 115.523438 77.085938 115.054688 77.476562 C 114.585938 77.867188 113.816406 77.867188 113.34375 77.476562 C 112.875 77.085938 112.875 76.472656 113.34375 76.082031 C 113.828125 75.707031 114.585938 75.707031 115.054688 76.082031 Z M 115.054688 76.082031 "/>
<path style=" stroke:none;fill-rule:nonzero;fill:rgb(2.352941%,2.352941%,2.745098%);fill-opacity:1;" d="M 119.535156 72.445312 C 120.003906 72.835938 120.003906 73.445312 119.535156 73.835938 C 119.066406 74.226562 118.296875 74.226562 117.824219 73.835938 C 117.355469 73.445312 117.355469 72.835938 117.824219 72.445312 C 118.296875 72.050781 119.054688 72.050781 119.535156 72.445312 Z M 119.535156 72.445312 "/>
<path style=" stroke:none;fill-rule:nonzero;fill:rgb(2.352941%,2.352941%,2.745098%);fill-opacity:1;" d="M 83.753906 94.300781 C 84.222656 94.691406 84.222656 95.304688 83.753906 95.695312 C 83.285156 96.085938 82.511719 96.085938 82.042969 95.695312 C 81.574219 95.304688 81.574219 94.691406 82.042969 94.300781 C 82.511719 93.929688 83.285156 93.929688 83.753906 94.300781 Z M 83.753906 94.300781 "/>
<path style=" stroke:none;fill-rule:nonzero;fill:rgb(2.352941%,2.352941%,2.745098%);fill-opacity:1;" d="M 87.367188 92.347656 C 88.03125 92.347656 88.570312 91.90625 88.570312 91.363281 C 88.570312 90.816406 88.03125 90.375 87.367188 90.375 C 86.703125 90.375 86.164062 90.816406 86.164062 91.363281 C 86.164062 91.90625 86.703125 92.347656 87.367188 92.347656 Z M 87.367188 92.347656 "/>
<path style=" stroke:none;fill-rule:nonzero;fill:rgb(2.352941%,2.352941%,2.745098%);fill-opacity:1;" d="M 79.25 90.628906 C 79.71875 91.023438 79.71875 91.632812 79.25 92.023438 C 78.78125 92.414062 78.007812 92.414062 77.539062 92.023438 C 77.070312 91.632812 77.070312 91.023438 77.539062 90.628906 C 78.007812 90.238281 78.765625 90.238281 79.25 90.628906 Z M 79.25 90.628906 "/>
<path style=" stroke:none;fill-rule:nonzero;fill:rgb(2.352941%,2.352941%,2.745098%);fill-opacity:1;" d="M 83.71875 86.976562 C 84.1875 87.367188 84.1875 87.980469 83.71875 88.371094 C 83.246094 88.761719 82.476562 88.761719 82.007812 88.371094 C 81.539062 87.980469 81.539062 87.367188 82.007812 86.976562 C 82.476562 86.601562 83.246094 86.601562 83.71875 86.976562 Z M 83.71875 86.976562 "/>
<path style=" stroke:none;fill-rule:nonzero;fill:rgb(2.352941%,2.352941%,2.745098%);fill-opacity:1;" d="M 74.769531 86.976562 C 75.238281 87.367188 75.238281 87.980469 74.769531 88.371094 C 74.300781 88.761719 73.527344 88.761719 73.058594 88.371094 C 72.589844 87.980469 72.589844 87.367188 73.058594 86.976562 C 73.527344 86.601562 74.300781 86.601562 74.769531 86.976562 Z M 74.769531 86.976562 "/>
<path style=" stroke:none;fill-rule:nonzero;fill:rgb(2.352941%,2.352941%,2.745098%);fill-opacity:1;" d="M 79.25 83.339844 C 79.71875 83.730469 79.71875 84.34375 79.25 84.734375 C 78.78125 85.125 78.007812 85.125 77.539062 84.734375 C 77.070312 84.34375 77.070312 83.730469 77.539062 83.339844 C 78.007812 82.949219 78.765625 82.949219 79.25 83.339844 Z M 79.25 83.339844 "/>
<path style=" stroke:none;fill-rule:nonzero;fill:rgb(2.352941%,2.352941%,2.745098%);fill-opacity:1;" d="M 70.300781 83.339844 C 70.769531 83.730469 70.769531 84.34375 70.300781 84.734375 C 69.832031 85.125 69.058594 85.125 68.589844 84.734375 C 68.121094 84.34375 68.121094 83.730469 68.589844 83.339844 C 69.058594 82.949219 69.832031 82.949219 70.300781 83.339844 Z M 70.300781 83.339844 "/>
<path style=" stroke:none;fill-rule:nonzero;fill:rgb(2.352941%,2.352941%,2.745098%);fill-opacity:1;" d="M 74.769531 79.703125 C 75.238281 80.09375 75.238281 80.703125 74.769531 81.09375 C 74.300781 81.488281 73.527344 81.488281 73.058594 81.09375 C 72.589844 80.703125 72.589844 80.09375 73.058594 79.703125 C 73.527344 79.3125 74.300781 79.3125 74.769531 79.703125 Z M 74.769531 79.703125 "/>
<path style=" stroke:none;fill-rule:nonzero;fill:rgb(2.352941%,2.352941%,2.745098%);fill-opacity:1;" d="M 65.832031 79.703125 C 66.300781 80.09375 66.300781 80.703125 65.832031 81.09375 C 65.363281 81.488281 64.59375 81.488281 64.121094 81.09375 C 63.652344 80.703125 63.652344 80.09375 64.121094 79.703125 C 64.59375 79.3125 65.351562 79.3125 65.832031 79.703125 Z M 65.832031 79.703125 "/>
<path style=" stroke:none;fill-rule:nonzero;fill:rgb(2.352941%,2.352941%,2.745098%);fill-opacity:1;" d="M 70.300781 76.046875 C 70.769531 76.4375 70.769531 77.050781 70.300781 77.441406 C 69.832031 77.832031 69.058594 77.832031 68.589844 77.441406 C 68.121094 77.050781 68.121094 76.4375 68.589844 76.046875 C 69.058594 75.671875 69.832031 75.671875 70.300781 76.046875 Z M 70.300781 76.046875 "/>
<path style=" stroke:none;fill-rule:nonzero;fill:rgb(2.352941%,2.352941%,2.745098%);fill-opacity:1;" d="M 61.351562 76.046875 C 61.820312 76.4375 61.820312 77.050781 61.351562 77.441406 C 60.882812 77.832031 60.113281 77.832031 59.640625 77.441406 C 59.171875 77.050781 59.171875 76.4375 59.640625 76.046875 C 60.113281 75.671875 60.882812 75.671875 61.351562 76.046875 Z M 61.351562 76.046875 "/>
<path style=" stroke:none;fill-rule:nonzero;fill:rgb(2.352941%,2.352941%,2.745098%);fill-opacity:1;" d="M 65.832031 72.410156 C 66.300781 72.800781 66.300781 73.410156 65.832031 73.800781 C 65.363281 74.195312 64.59375 74.195312 64.121094 73.800781 C 63.652344 73.410156 63.652344 72.800781 64.121094 72.410156 C 64.59375 72.019531 65.351562 72.019531 65.832031 72.410156 Z M 65.832031 72.410156 "/>
<path style=" stroke:none;fill-rule:nonzero;fill:rgb(2.352941%,2.352941%,2.745098%);fill-opacity:1;" d="M 56.882812 72.410156 C 57.355469 72.800781 57.355469 73.410156 56.882812 73.800781 C 56.414062 74.195312 55.644531 74.195312 55.175781 73.800781 C 54.703125 73.410156 54.703125 72.800781 55.175781 72.410156 C 55.644531 72.019531 56.414062 72.019531 56.882812 72.410156 Z M 56.882812 72.410156 "/>
<path style=" stroke:none;fill-rule:nonzero;fill:rgb(2.352941%,2.352941%,2.745098%);fill-opacity:1;" d="M 61.351562 68.753906 C 61.820312 69.144531 61.820312 69.757812 61.351562 70.148438 C 60.882812 70.539062 60.113281 70.539062 59.640625 70.148438 C 59.171875 69.757812 59.171875 69.144531 59.640625 68.753906 C 60.113281 68.382812 60.882812 68.382812 61.351562 68.753906 Z M 61.351562 68.753906 "/>
<path style=" stroke:none;fill-rule:nonzero;fill:rgb(2.352941%,2.352941%,2.745098%);fill-opacity:1;" d="M 52.414062 68.753906 C 52.886719 69.144531 52.886719 69.757812 52.414062 70.148438 C 51.945312 70.539062 51.175781 70.539062 50.707031 70.148438 C 50.234375 69.757812 50.234375 69.144531 50.707031 68.753906 C 51.175781 68.382812 51.933594 68.382812 52.414062 68.753906 Z M 52.414062 68.753906 "/>
<path style=" stroke:none;fill-rule:nonzero;fill:rgb(2.352941%,2.352941%,2.745098%);fill-opacity:1;" d="M 56.882812 65.117188 C 57.355469 65.507812 57.355469 66.121094 56.882812 66.511719 C 56.414062 66.902344 55.644531 66.902344 55.175781 66.511719 C 54.703125 66.121094 54.703125 65.507812 55.175781 65.117188 C 55.644531 64.726562 56.414062 64.726562 56.882812 65.117188 Z M 56.882812 65.117188 "/>
<path style=" stroke:none;fill-rule:nonzero;fill:rgb(2.352941%,2.352941%,2.745098%);fill-opacity:1;" d="M 47.9375 65.117188 C 48.40625 65.507812 48.40625 66.121094 47.9375 66.511719 C 47.464844 66.902344 46.695312 66.902344 46.226562 66.511719 C 45.753906 66.121094 45.753906 65.507812 46.226562 65.117188 C 46.695312 64.726562 47.464844 64.726562 47.9375 65.117188 Z M 47.9375 65.117188 "/>
<path style=" stroke:none;fill-rule:nonzero;fill:rgb(2.352941%,2.352941%,2.745098%);fill-opacity:1;" d="M 52.414062 61.480469 C 52.886719 61.871094 52.886719 62.480469 52.414062 62.875 C 51.945312 63.265625 51.175781 63.265625 50.707031 62.875 C 50.234375 62.480469 50.234375 61.871094 50.707031 61.480469 C 51.175781 61.089844 51.933594 61.089844 52.414062 61.480469 Z M 52.414062 61.480469 "/>
<path style=" stroke:none;fill-rule:nonzero;fill:rgb(2.352941%,2.352941%,2.745098%);fill-opacity:1;" d="M 43.429688 61.429688 C 43.902344 61.820312 43.902344 62.429688 43.429688 62.820312 C 42.960938 63.214844 42.191406 63.214844 41.722656 62.820312 C 41.25 62.429688 41.25 61.820312 41.722656 61.429688 C 42.191406 61.054688 42.960938 61.054688 43.429688 61.429688 Z M 43.429688 61.429688 "/>
<path style=" stroke:none;fill-rule:nonzero;fill:rgb(2.352941%,2.352941%,2.745098%);fill-opacity:1;" d="M 47.042969 59.472656 C 47.710938 59.472656 48.25 59.03125 48.25 58.488281 C 48.25 57.945312 47.710938 57.503906 47.042969 57.503906 C 46.378906 57.503906 45.839844 57.945312 45.839844 58.488281 C 45.839844 59.03125 46.378906 59.472656 47.042969 59.472656 Z M 47.042969 59.472656 "/>
<path style=" stroke:none;fill-rule:nonzero;fill:rgb(2.352941%,2.352941%,2.745098%);fill-opacity:1;" d="M 38.949219 57.789062 C 39.421875 58.179688 39.421875 58.792969 38.949219 59.183594 C 38.480469 59.574219 37.710938 59.574219 37.242188 59.183594 C 36.769531 58.792969 36.769531 58.179688 37.242188 57.789062 C 37.722656 57.398438 38.480469 57.398438 38.949219 57.789062 Z M 38.949219 57.789062 "/>
<path style=" stroke:none;fill-rule:nonzero;fill:rgb(2.352941%,2.352941%,2.745098%);fill-opacity:1;" d="M 42.578125 55.835938 C 43.242188 55.835938 43.78125 55.394531 43.78125 54.851562 C 43.78125 54.304688 43.242188 53.863281 42.578125 53.863281 C 41.910156 53.863281 41.371094 54.304688 41.371094 54.851562 C 41.371094 55.394531 41.910156 55.835938 42.578125 55.835938 Z M 42.578125 55.835938 "/>
<path style=" stroke:none;fill-rule:nonzero;fill:rgb(2.352941%,2.352941%,2.745098%);fill-opacity:1;" d="M 38.949219 50.5 C 39.421875 50.890625 39.421875 51.503906 38.949219 51.894531 C 38.480469 52.285156 37.710938 52.285156 37.242188 51.894531 C 36.769531 51.503906 36.769531 50.890625 37.242188 50.5 C 37.722656 50.125 38.480469 50.125 38.949219 50.5 Z M 38.949219 50.5 "/>
<path style=" stroke:none;fill-rule:nonzero;fill:rgb(0%,77.254903%,96.470588%);fill-opacity:1;" d="M 79.015625 107.5 C 76.886719 102.304688 71.214844 98.59375 64.527344 98.59375 C 57.839844 98.59375 52.167969 102.304688 50.039062 107.5 L 49.125 107.5 L 49.125 112.027344 C 49.125 119.445312 56.023438 125.460938 64.527344 125.460938 C 73.039062 125.460938 79.929688 119.445312 79.929688 112.027344 L 79.929688 107.5 Z M 79.015625 107.5 "/>
<path style=" stroke:none;fill-rule:nonzero;fill:rgb(8.627451%,6.666667%,5.098039%);fill-opacity:1;" d="M 64.527344 125.8125 C 55.894531 125.8125 48.878906 119.628906 48.878906 112.027344 L 48.878906 107.144531 L 49.902344 107.144531 C 52.1875 101.808594 58.035156 98.242188 64.527344 98.242188 C 71.019531 98.242188 76.867188 101.808594 79.152344 107.144531 L 80.175781 107.144531 L 80.175781 112.027344 C 80.175781 119.628906 73.160156 125.8125 64.527344 125.8125 Z M 49.367188 107.847656 L 49.367188 112.027344 C 49.367188 119.25 56.164062 125.121094 64.527344 125.121094 C 72.882812 125.121094 79.6875 119.25 79.6875 112.027344 L 79.6875 107.847656 L 78.878906 107.847656 L 78.804688 107.679688 C 76.65625 102.460938 70.917969 98.945312 64.527344 98.945312 C 58.136719 98.945312 52.398438 102.460938 50.25 107.679688 L 50.179688 107.847656 Z M 49.367188 107.847656 "/>
<path style=" stroke:none;fill-rule:nonzero;fill:rgb(0%,77.254903%,96.470588%);fill-opacity:1;" d="M 64.527344 120.929688 C 73.03125 120.929688 79.929688 114.914062 79.929688 107.496094 C 79.929688 100.078125 73.03125 94.066406 64.527344 94.066406 C 56.023438 94.066406 49.125 100.078125 49.125 107.496094 C 49.125 114.914062 56.023438 120.929688 64.527344 120.929688 Z M 64.527344 120.929688 "/>
<path style=" stroke:none;fill-rule:nonzero;fill:rgb(98.431373%,98.431373%,99.215686%);fill-opacity:1;" d="M 79.929688 108.566406 C 79.929688 115.984375 73.03125 121.996094 64.527344 121.996094 C 56.015625 121.996094 49.125 115.984375 49.125 108.566406 C 49.125 101.144531 56.023438 95.132812 64.527344 95.132812 C 73.039062 95.132812 79.929688 101.144531 79.929688 108.566406 Z M 79.929688 108.566406 "/>
<path style=" stroke:none;fill-rule:nonzero;fill:rgb(8.627451%,6.666667%,5.098039%);fill-opacity:1;" d="M 64.527344 121.28125 C 55.894531 121.28125 48.878906 115.097656 48.878906 107.496094 C 48.878906 99.894531 55.894531 93.714844 64.527344 93.714844 C 73.160156 93.714844 80.175781 99.894531 80.175781 107.496094 C 80.175781 115.097656 73.160156 121.28125 64.527344 121.28125 Z M 64.527344 94.402344 C 56.171875 94.402344 49.367188 100.273438 49.367188 107.496094 C 49.367188 114.722656 56.164062 120.589844 64.527344 120.589844 C 72.882812 120.589844 79.6875 114.722656 79.6875 107.496094 C 79.6875 100.273438 72.882812 94.402344 64.527344 94.402344 Z M 64.527344 94.402344 "/>
<path style=" stroke:none;fill-rule:nonzero;fill:rgb(0%,77.254903%,96.470588%);fill-opacity:1;" d="M 64.527344 117.011719 C 71.320312 117.011719 76.828125 112.484375 76.828125 106.898438 C 76.828125 101.3125 71.320312 96.785156 64.527344 96.785156 C 57.734375 96.785156 52.226562 101.3125 52.226562 106.898438 C 52.226562 112.484375 57.734375 117.011719 64.527344 117.011719 Z M 64.527344 117.011719 "/>
<path style=" stroke:none;fill-rule:nonzero;fill:rgb(8.627451%,6.666667%,5.098039%);fill-opacity:1;" d="M 64.527344 117.351562 C 57.609375 117.351562 51.976562 112.664062 51.976562 106.898438 C 51.976562 101.132812 57.601562 96.449219 64.527344 96.449219 C 71.445312 96.449219 77.078125 101.132812 77.078125 106.898438 C 77.078125 112.664062 71.445312 117.351562 64.527344 117.351562 Z M 64.527344 97.136719 C 57.878906 97.136719 52.472656 101.511719 52.472656 106.898438 C 52.472656 112.289062 57.878906 116.660156 64.527344 116.660156 C 71.175781 116.660156 76.582031 112.289062 76.582031 106.898438 C 76.582031 101.511719 71.175781 97.136719 64.527344 97.136719 Z M 64.527344 97.136719 "/>
<path style=" stroke:none;fill-rule:nonzero;fill:rgb(0%,77.254903%,96.470588%);fill-opacity:1;" d="M 64.527344 96.785156 C 57.730469 96.785156 52.226562 101.316406 52.226562 106.898438 C 52.226562 107.40625 52.28125 107.886719 52.371094 108.371094 C 53.238281 103.488281 58.347656 99.726562 64.527344 99.726562 C 70.707031 99.726562 75.816406 103.476562 76.683594 108.371094 C 76.765625 107.886719 76.828125 107.394531 76.828125 106.898438 C 76.828125 101.316406 71.324219 96.785156 64.527344 96.785156 Z M 64.527344 96.785156 "/>
<path style=" stroke:none;fill-rule:nonzero;fill:rgb(8.627451%,6.666667%,5.098039%);fill-opacity:1;" d="M 76.535156 109.085938 L 76.441406 108.449219 C 75.59375 103.671875 70.464844 100.078125 64.527344 100.078125 C 58.578125 100.078125 53.460938 103.683594 52.613281 108.449219 L 52.472656 109.230469 L 52.132812 108.460938 C 52.03125 107.875 51.976562 107.378906 51.976562 106.898438 C 51.976562 101.132812 57.601562 96.449219 64.527344 96.449219 C 71.445312 96.449219 77.078125 101.132812 77.078125 106.898438 C 77.078125 107.367188 77.03125 107.863281 76.929688 108.460938 Z M 64.527344 97.136719 C 57.878906 97.136719 52.472656 101.511719 52.472656 106.898438 C 52.472656 106.925781 52.472656 106.9375 52.472656 106.964844 C 53.976562 102.5 58.820312 99.390625 64.527344 99.390625 C 70.234375 99.390625 75.078125 102.5 76.582031 106.964844 C 76.582031 106.9375 76.582031 106.925781 76.582031 106.898438 C 76.582031 101.511719 71.175781 97.136719 64.527344 97.136719 Z M 64.527344 97.136719 "/>
<path style=" stroke:none;fill-rule:nonzero;fill:rgb(9.803922%,7.843138%,6.27451%);fill-opacity:1;" d="M 62.488281 97.019531 L 62.488281 99.871094 L 59.050781 100.78125 L 55.675781 102.824219 L 53.238281 105.84375 L 52.371094 108.371094 L 52.226562 105.84375 L 53.265625 102.824219 L 55.113281 100.390625 L 58.164062 98.242188 L 61.898438 97.019531 Z M 62.488281 97.019531 "/>
<path style=" stroke:none;fill-rule:nonzero;fill:rgb(8.627451%,6.666667%,5.098039%);fill-opacity:1;" d="M 66.261719 120.851562 L 66.261719 125.460938 L 69.914062 124.628906 L 73.425781 123.15625 L 77.078125 119.886719 L 79.320312 115.929688 L 79.929688 113.277344 L 79.882812 109.671875 L 78.15625 114.253906 L 74.726562 117.570312 L 69.5625 120.199219 Z M 66.261719 120.851562 "/>
<path style=" stroke:none;fill-rule:nonzero;fill:rgb(8.627451%,6.666667%,5.098039%);fill-opacity:1;" d="M 63.972656 120.980469 L 63.972656 125.511719 L 62.488281 125.34375 L 62.488281 120.589844 Z M 63.972656 120.980469 "/>
<path style=" stroke:none;fill-rule:nonzero;fill:rgb(8.627451%,6.666667%,5.098039%);fill-opacity:1;" d="M 71.933594 133.671875 C 72.300781 133.972656 72.300781 134.464844 71.933594 134.765625 C 71.5625 135.066406 70.957031 135.066406 70.585938 134.765625 C 70.21875 134.464844 70.21875 133.972656 70.585938 133.671875 C 70.957031 133.371094 71.554688 133.371094 71.933594 133.671875 Z M 71.933594 133.671875 "/>
<path style=" stroke:none;fill-rule:nonzero;fill:rgb(8.627451%,6.666667%,5.098039%);fill-opacity:1;" d="M 75.457031 130.796875 C 75.824219 131.09375 75.824219 131.589844 75.457031 131.890625 C 75.085938 132.1875 74.476562 132.1875 74.109375 131.890625 C 73.742188 131.589844 73.742188 131.09375 74.109375 130.796875 C 74.476562 130.496094 75.078125 130.496094 75.457031 130.796875 Z M 75.457031 130.796875 "/>
<path style=" stroke:none;fill-rule:nonzero;fill:rgb(8.627451%,6.666667%,5.098039%);fill-opacity:1;" d="M 78.304688 129.261719 C 78.828125 129.261719 79.253906 128.910156 79.253906 128.480469 C 79.253906 128.046875 78.828125 127.699219 78.304688 127.699219 C 77.78125 127.699219 77.355469 128.046875 77.355469 128.480469 C 77.355469 128.910156 77.78125 129.261719 78.304688 129.261719 Z M 78.304688 129.261719 "/>
<path style=" stroke:none;fill-rule:nonzero;fill:rgb(8.627451%,6.666667%,5.098039%);fill-opacity:1;" d="M 82.5 125.054688 C 82.871094 125.355469 82.871094 125.847656 82.5 126.148438 C 82.132812 126.449219 81.523438 126.449219 81.15625 126.148438 C 80.785156 125.847656 80.785156 125.355469 81.15625 125.054688 C 81.523438 124.757812 82.125 124.757812 82.5 125.054688 Z M 82.5 125.054688 "/>
<path style=" stroke:none;fill-rule:nonzero;fill:rgb(8.627451%,6.666667%,5.098039%);fill-opacity:1;" d="M 64.878906 133.671875 C 65.246094 133.972656 65.246094 134.464844 64.878906 134.765625 C 64.507812 135.066406 63.902344 135.066406 63.53125 134.765625 C 63.164062 134.464844 63.164062 133.972656 63.53125 133.671875 C 63.910156 133.371094 64.507812 133.371094 64.878906 133.671875 Z M 64.878906 133.671875 "/>
<path style=" stroke:none;fill-rule:nonzero;fill:rgb(8.627451%,6.666667%,5.098039%);fill-opacity:1;" d="M 68.402344 130.796875 C 68.769531 131.09375 68.769531 131.589844 68.402344 131.890625 C 68.03125 132.1875 67.421875 132.1875 67.054688 131.890625 C 66.683594 131.589844 66.683594 131.09375 67.054688 130.796875 C 67.433594 130.496094 68.03125 130.496094 68.402344 130.796875 Z M 68.402344 130.796875 "/>
<path style=" stroke:none;fill-rule:nonzero;fill:rgb(8.627451%,6.666667%,5.098039%);fill-opacity:1;" d="M 71.933594 127.933594 C 72.300781 128.230469 72.300781 128.726562 71.933594 129.027344 C 71.5625 129.324219 70.957031 129.324219 70.585938 129.027344 C 70.21875 128.726562 70.21875 128.230469 70.585938 127.933594 C 70.957031 127.621094 71.554688 127.621094 71.933594 127.933594 Z M 71.933594 127.933594 "/>
<path style=" stroke:none;fill-rule:nonzero;fill:rgb(8.627451%,6.666667%,5.098039%);fill-opacity:1;" d="M 74.78125 126.382812 C 75.308594 126.382812 75.734375 126.035156 75.734375 125.601562 C 75.734375 125.171875 75.308594 124.820312 74.78125 124.820312 C 74.257812 124.820312 73.832031 125.171875 73.832031 125.601562 C 73.832031 126.035156 74.257812 126.382812 74.78125 126.382812 Z M 74.78125 126.382812 "/>
<path style=" stroke:none;fill-rule:nonzero;fill:rgb(8.627451%,6.666667%,5.098039%);fill-opacity:1;" d="M 78.304688 123.519531 C 78.828125 123.519531 79.253906 123.171875 79.253906 122.738281 C 79.253906 122.308594 78.828125 121.957031 78.304688 121.957031 C 77.78125 121.957031 77.355469 122.308594 77.355469 122.738281 C 77.355469 123.171875 77.78125 123.519531 78.304688 123.519531 Z M 78.304688 123.519531 "/>
<path style=" stroke:none;fill-rule:nonzero;fill:rgb(8.627451%,6.666667%,5.098039%);fill-opacity:1;" d="M 81.828125 120.644531 C 82.351562 120.644531 82.777344 120.292969 82.777344 119.863281 C 82.777344 119.429688 82.351562 119.082031 81.828125 119.082031 C 81.304688 119.082031 80.878906 119.429688 80.878906 119.863281 C 80.878906 120.292969 81.304688 120.644531 81.828125 120.644531 Z M 81.828125 120.644531 "/>
<path style=" stroke:none;fill-rule:nonzero;fill:rgb(8.627451%,6.666667%,5.098039%);fill-opacity:1;" d="M 57.160156 135 C 57.683594 135 58.109375 134.648438 58.109375 134.21875 C 58.109375 133.789062 57.683594 133.4375 57.160156 133.4375 C 56.632812 133.4375 56.210938 133.789062 56.210938 134.21875 C 56.210938 134.648438 56.632812 135 57.160156 135 Z M 57.160156 135 "/>
<path style=" stroke:none;fill-rule:nonzero;fill:rgb(8.627451%,6.666667%,5.098039%);fill-opacity:1;" d="M 60.683594 132.136719 C 61.207031 132.136719 61.632812 131.785156 61.632812 131.355469 C 61.632812 130.925781 61.207031 130.574219 60.683594 130.574219 C 60.15625 130.574219 59.730469 130.925781 59.730469 131.355469 C 59.730469 131.785156 60.15625 132.136719 60.683594 132.136719 Z M 60.683594 132.136719 "/>
<path style=" stroke:none;fill-rule:nonzero;fill:rgb(8.627451%,6.666667%,5.098039%);fill-opacity:1;" d="M 64.878906 127.933594 C 65.246094 128.230469 65.246094 128.726562 64.878906 129.027344 C 64.507812 129.324219 63.902344 129.324219 63.53125 129.027344 C 63.164062 128.726562 63.164062 128.230469 63.53125 127.933594 C 63.910156 127.621094 64.507812 127.621094 64.878906 127.933594 Z M 64.878906 127.933594 "/>
<path style=" stroke:none;fill-rule:nonzero;fill:rgb(8.627451%,6.666667%,5.098039%);fill-opacity:1;" d="M 54.308594 130.796875 C 54.679688 131.09375 54.679688 131.589844 54.308594 131.890625 C 53.941406 132.1875 53.332031 132.1875 52.964844 131.890625 C 52.59375 131.589844 52.59375 131.09375 52.964844 130.796875 C 53.332031 130.496094 53.941406 130.496094 54.308594 130.796875 Z M 54.308594 130.796875 "/>
<path style=" stroke:none;fill-rule:nonzero;fill:rgb(8.627451%,6.666667%,5.098039%);fill-opacity:1;" d="M 57.832031 127.933594 C 58.203125 128.230469 58.203125 128.726562 57.832031 129.027344 C 57.464844 129.324219 56.855469 129.324219 56.484375 129.027344 C 56.117188 128.726562 56.117188 128.230469 56.484375 127.933594 C 56.863281 127.621094 57.464844 127.621094 57.832031 127.933594 Z M 57.832031 127.933594 "/>
<path style=" stroke:none;fill-rule:nonzero;fill:rgb(8.627451%,6.666667%,5.098039%);fill-opacity:1;" d="M 50.757812 127.894531 C 51.128906 128.191406 51.128906 128.6875 50.757812 128.988281 C 50.390625 129.285156 49.78125 129.285156 49.414062 128.988281 C 49.042969 128.6875 49.042969 128.191406 49.414062 127.894531 C 49.78125 127.59375 50.390625 127.59375 50.757812 127.894531 Z M 50.757812 127.894531 "/>
<path style=" stroke:none;fill-rule:nonzero;fill:rgb(8.627451%,6.666667%,5.098039%);fill-opacity:1;" d="M 54.28125 125.03125 C 54.652344 125.328125 54.652344 125.824219 54.28125 126.125 C 53.914062 126.421875 53.304688 126.421875 52.933594 126.125 C 52.566406 125.824219 52.566406 125.328125 52.933594 125.03125 C 53.304688 124.730469 53.914062 124.730469 54.28125 125.03125 Z M 54.28125 125.03125 "/>
<path style=" stroke:none;fill-rule:nonzero;fill:rgb(8.627451%,6.666667%,5.098039%);fill-opacity:1;" d="M 50.757812 122.152344 C 51.128906 122.453125 51.128906 122.945312 50.757812 123.246094 C 50.390625 123.546875 49.78125 123.546875 49.414062 123.246094 C 49.042969 122.945312 49.042969 122.453125 49.414062 122.152344 C 49.78125 121.855469 50.390625 121.855469 50.757812 122.152344 Z M 50.757812 122.152344 "/>
<path style=" stroke:none;fill-rule:nonzero;fill:rgb(2.352941%,2.352941%,2.745098%);fill-opacity:1;" d="M 3.980469 79.390625 L 2.433594 80.648438 C 2.28125 80.785156 2.003906 80.765625 1.808594 80.609375 L 0.347656 79.410156 C 0.167969 79.253906 0.140625 79.039062 0.304688 78.898438 L 1.851562 77.644531 C 2.003906 77.503906 2.28125 77.523438 2.464844 77.683594 L 3.925781 78.878906 C 4.121094 79.039062 4.148438 79.253906 3.980469 79.390625 Z M 3.980469 79.390625 "/>
<path style=" stroke:none;fill-rule:nonzero;fill:rgb(2.352941%,2.352941%,2.745098%);fill-opacity:1;" d="M 3.800781 85.421875 L 2.242188 86.679688 C 2.085938 86.816406 1.808594 86.796875 1.613281 86.640625 L 0.152344 85.441406 C -0.0273438 85.285156 -0.0546875 85.066406 0.109375 84.929688 L 1.65625 83.671875 C 1.808594 83.535156 2.085938 83.554688 2.28125 83.710938 L 3.742188 84.910156 C 3.9375 85.066406 3.953125 85.285156 3.800781 85.421875 Z M 3.800781 85.421875 "/>
<path style=" stroke:none;fill-rule:nonzero;fill:rgb(2.352941%,2.352941%,2.745098%);fill-opacity:1;" d="M 7.585938 82.335938 L 6.039062 83.59375 C 5.886719 83.730469 5.609375 83.710938 5.414062 83.554688 L 3.953125 82.355469 C 3.769531 82.199219 3.742188 81.984375 3.910156 81.847656 L 5.453125 80.589844 C 5.609375 80.449219 5.886719 80.46875 6.082031 80.628906 L 7.542969 81.824219 C 7.722656 81.964844 7.75 82.199219 7.585938 82.335938 Z M 7.585938 82.335938 "/>
<path style=" stroke:none;fill-rule:nonzero;fill:rgb(2.352941%,2.352941%,2.745098%);fill-opacity:1;" d="M 7.613281 88.527344 L 6.066406 89.785156 C 5.914062 89.921875 5.636719 89.902344 5.457031 89.742188 L 3.992188 88.546875 C 3.8125 88.386719 3.785156 88.171875 3.953125 88.035156 L 5.496094 86.777344 C 5.648438 86.640625 5.929688 86.660156 6.109375 86.816406 L 7.570312 88.015625 C 7.75 88.171875 7.765625 88.40625 7.613281 88.527344 Z M 7.613281 88.527344 "/>
<path style=" stroke:none;fill-rule:nonzero;fill:rgb(2.352941%,2.352941%,2.745098%);fill-opacity:1;" d="M 11.398438 85.441406 L 9.855469 86.699219 C 9.699219 86.835938 9.421875 86.816406 9.226562 86.660156 L 7.765625 85.460938 C 7.585938 85.304688 7.558594 85.089844 7.722656 84.949219 L 9.269531 83.695312 C 9.421875 83.554688 9.699219 83.574219 9.894531 83.734375 L 11.355469 84.929688 C 11.539062 85.089844 11.566406 85.304688 11.398438 85.441406 Z M 11.398438 85.441406 "/>
<path style=" stroke:none;fill-rule:nonzero;fill:rgb(2.352941%,2.352941%,2.745098%);fill-opacity:1;" d="M 11.21875 91.472656 L 9.671875 92.730469 C 9.519531 92.867188 9.242188 92.847656 9.046875 92.691406 L 7.585938 91.492188 C 7.40625 91.335938 7.378906 91.121094 7.542969 90.980469 L 9.089844 89.726562 C 9.242188 89.585938 9.519531 89.605469 9.714844 89.765625 L 11.175781 90.960938 C 11.34375 91.121094 11.371094 91.335938 11.21875 91.472656 Z M 11.21875 91.472656 "/>
<path style=" stroke:none;fill-rule:nonzero;fill:rgb(2.352941%,2.352941%,2.745098%);fill-opacity:1;" d="M 15.003906 88.367188 L 13.457031 89.625 C 13.304688 89.761719 13.027344 89.742188 12.847656 89.585938 L 11.386719 88.386719 C 11.203125 88.230469 11.175781 88.015625 11.34375 87.875 L 12.886719 86.621094 C 13.042969 86.480469 13.320312 86.5 13.5 86.660156 L 14.960938 87.855469 C 15.144531 88.015625 15.171875 88.25 15.003906 88.367188 Z M 15.003906 88.367188 "/>
<path style=" stroke:none;fill-rule:nonzero;fill:rgb(2.352941%,2.352941%,2.745098%);fill-opacity:1;" d="M 14.808594 94.398438 L 13.261719 95.65625 C 13.109375 95.792969 12.832031 95.773438 12.636719 95.617188 L 11.175781 94.417969 C 11.007812 94.28125 10.980469 94.066406 11.148438 93.929688 L 12.691406 92.671875 C 12.84375 92.535156 13.125 92.554688 13.304688 92.710938 L 14.765625 93.910156 C 14.945312 94.046875 14.976562 94.28125 14.808594 94.398438 Z M 14.808594 94.398438 "/>
<path style=" stroke:none;fill-rule:nonzero;fill:rgb(2.352941%,2.352941%,2.745098%);fill-opacity:1;" d="M 18.609375 91.316406 L 17.0625 92.570312 C 16.910156 92.710938 16.632812 92.691406 16.4375 92.53125 L 14.976562 91.335938 C 14.792969 91.175781 14.765625 90.960938 14.933594 90.824219 L 16.476562 89.566406 C 16.632812 89.429688 16.910156 89.449219 17.089844 89.605469 L 18.550781 90.804688 C 18.746094 90.960938 18.773438 91.175781 18.609375 91.316406 Z M 18.609375 91.316406 "/>
<path style=" stroke:none;fill-rule:nonzero;fill:rgb(2.352941%,2.352941%,2.745098%);fill-opacity:1;" d="M 22.40625 88.210938 L 20.863281 89.46875 C 20.710938 89.605469 20.429688 89.585938 20.25 89.429688 L 18.789062 88.230469 C 18.609375 88.074219 18.582031 87.855469 18.746094 87.71875 L 20.292969 86.460938 C 20.445312 86.324219 20.722656 86.34375 20.90625 86.5 L 22.367188 87.699219 C 22.546875 87.855469 22.5625 88.09375 22.40625 88.210938 Z M 22.40625 88.210938 "/>
<path style=" stroke:none;fill-rule:nonzero;fill:rgb(2.352941%,2.352941%,2.745098%);fill-opacity:1;" d="M 26.207031 85.128906 L 24.664062 86.382812 C 24.507812 86.523438 24.230469 86.503906 24.035156 86.34375 L 22.574219 85.148438 C 22.394531 84.988281 22.367188 84.773438 22.535156 84.636719 L 24.078125 83.378906 C 24.230469 83.242188 24.507812 83.261719 24.703125 83.417969 L 26.164062 84.617188 C 26.347656 84.773438 26.359375 84.988281 26.207031 85.128906 Z M 26.207031 85.128906 "/>
<path style=" stroke:none;fill-rule:nonzero;fill:rgb(2.352941%,2.352941%,2.745098%);fill-opacity:1;" d="M 30.007812 82.023438 L 28.460938 83.28125 C 28.308594 83.417969 28.03125 83.398438 27.835938 83.242188 L 26.375 82.042969 C 26.195312 81.886719 26.164062 81.671875 26.332031 81.53125 L 27.878906 80.277344 C 28.03125 80.136719 28.308594 80.15625 28.492188 80.316406 L 29.953125 81.511719 C 30.148438 81.671875 30.160156 81.90625 30.007812 82.023438 Z M 30.007812 82.023438 "/>
<path style=" stroke:none;fill-rule:nonzero;fill:rgb(2.352941%,2.352941%,2.745098%);fill-opacity:1;" d="M 33.792969 78.9375 L 32.246094 80.195312 C 32.09375 80.332031 31.816406 80.3125 31.621094 80.15625 L 30.160156 78.957031 C 29.980469 78.800781 29.953125 78.585938 30.117188 78.449219 L 31.664062 77.191406 C 31.816406 77.054688 32.09375 77.074219 32.277344 77.230469 L 33.738281 78.429688 C 33.933594 78.585938 33.960938 78.800781 33.792969 78.9375 Z M 33.792969 78.9375 "/>
<path style=" stroke:none;fill-rule:nonzero;fill:rgb(2.352941%,2.352941%,2.745098%);fill-opacity:1;" d="M 22.421875 94.417969 L 20.878906 95.675781 C 20.722656 95.8125 20.445312 95.792969 20.265625 95.636719 L 18.804688 94.4375 C 18.621094 94.28125 18.59375 94.066406 18.761719 93.929688 L 20.304688 92.671875 C 20.460938 92.535156 20.738281 92.554688 20.917969 92.710938 L 22.378906 93.910156 C 22.5625 94.066406 22.589844 94.28125 22.421875 94.417969 Z M 22.421875 94.417969 "/>
<path style=" stroke:none;fill-rule:nonzero;fill:rgb(2.352941%,2.352941%,2.745098%);fill-opacity:1;" d="M 26.222656 91.316406 L 24.675781 92.570312 C 24.523438 92.710938 24.246094 92.691406 24.0625 92.53125 L 22.601562 91.335938 C 22.421875 91.175781 22.394531 90.960938 22.558594 90.824219 L 24.105469 89.566406 C 24.257812 89.429688 24.535156 89.449219 24.71875 89.605469 L 26.179688 90.804688 C 26.359375 90.960938 26.375 91.195312 26.222656 91.316406 Z M 26.222656 91.316406 "/>
<path style=" stroke:none;fill-rule:nonzero;fill:rgb(2.352941%,2.352941%,2.745098%);fill-opacity:1;" d="M 30.023438 88.230469 L 28.476562 89.488281 C 28.324219 89.625 28.046875 89.605469 27.851562 89.449219 L 26.390625 88.25 C 26.207031 88.09375 26.179688 87.878906 26.347656 87.738281 L 27.890625 86.484375 C 28.046875 86.34375 28.324219 86.363281 28.503906 86.523438 L 29.964844 87.71875 C 30.160156 87.878906 30.175781 88.09375 30.023438 88.230469 Z M 30.023438 88.230469 "/>
<path style=" stroke:none;fill-rule:nonzero;fill:rgb(2.352941%,2.352941%,2.745098%);fill-opacity:1;" d="M 33.820312 85.128906 L 32.277344 86.382812 C 32.125 86.523438 31.84375 86.503906 31.648438 86.34375 L 30.1875 85.148438 C 30.007812 84.988281 29.980469 84.773438 30.148438 84.636719 L 31.691406 83.378906 C 31.84375 83.242188 32.125 83.261719 32.316406 83.417969 L 33.78125 84.617188 C 33.960938 84.773438 33.972656 85.007812 33.820312 85.128906 Z M 33.820312 85.128906 "/>
<path style=" stroke:none;fill-rule:nonzero;fill:rgb(0%,77.254903%,96.470588%);fill-opacity:1;" d="M 30.632812 74.109375 C 30.632812 74.089844 30.632812 66.367188 30.632812 65.71875 C 30.632812 65.660156 30.605469 65.601562 30.550781 65.582031 L 18.246094 67.132812 C 18.234375 67.132812 18.234375 67.132812 18.21875 67.113281 L 17.089844 57.527344 C 17.0625 57.507812 17.023438 57.507812 16.980469 57.527344 L 5.664062 66.722656 C 5.636719 66.742188 5.609375 66.742188 5.582031 66.742188 L 3.410156 65.898438 C 3.339844 65.878906 3.269531 65.9375 3.269531 66.035156 C 3.269531 66.820312 3.269531 74.167969 3.285156 74.265625 L 3.285156 74.285156 C 3.328125 74.796875 3.507812 75.285156 3.871094 75.582031 L 15.28125 84.933594 C 16.257812 85.738281 17.453125 85.738281 18.429688 84.933594 L 30.007812 75.5625 C 30.398438 75.246094 30.59375 74.699219 30.605469 74.148438 Z M 30.632812 74.109375 "/>
<path style=" stroke:none;fill-rule:nonzero;fill:rgb(2.352941%,2.352941%,2.745098%);fill-opacity:1;" d="M 16.882812 86.285156 C 16.242188 86.285156 15.601562 86.050781 15.03125 85.578125 L 3.617188 76.226562 C 3.132812 75.835938 2.824219 75.148438 2.753906 74.34375 C 2.742188 74.242188 2.742188 74.203125 2.742188 68.390625 L 2.742188 66.011719 C 2.742188 65.738281 2.824219 65.460938 2.992188 65.285156 C 3.144531 65.109375 3.367188 65.050781 3.5625 65.128906 L 5.554688 65.914062 L 16.730469 56.859375 C 16.925781 56.703125 17.175781 56.703125 17.371094 56.859375 L 17.59375 57.035156 L 18.679688 66.289062 L 30.605469 64.773438 L 30.703125 64.816406 C 30.980469 64.933594 31.175781 65.285156 31.175781 65.699219 L 31.164062 74.203125 C 31.132812 75.007812 30.816406 75.757812 30.300781 76.1875 L 18.71875 85.558594 C 18.164062 86.070312 17.523438 86.285156 16.882812 86.285156 Z M 3.839844 66.859375 L 3.839844 68.410156 C 3.839844 70.765625 3.839844 74.046875 3.839844 74.242188 C 3.855469 74.402344 3.910156 74.734375 4.160156 74.929688 L 15.574219 84.28125 C 16.382812 84.949219 17.371094 84.949219 18.175781 84.28125 L 29.757812 74.910156 C 30.035156 74.675781 30.078125 74.28125 30.089844 74.125 L 30.089844 66.445312 L 18.191406 67.957031 L 17.953125 67.839844 L 17.71875 67.664062 L 16.660156 58.726562 L 5.71875 67.585938 L 5.441406 67.484375 Z M 3.839844 66.859375 "/>
<path style=" stroke:none;fill-rule:nonzero;fill:rgb(2.352941%,2.352941%,2.745098%);fill-opacity:1;" d="M 30.5625 65.601562 L 18.261719 67.152344 C 18.246094 67.152344 18.246094 67.152344 18.230469 67.132812 L 16.796875 73.046875 L 16.796875 85.519531 C 17.371094 85.539062 17.953125 85.363281 18.453125 84.929688 L 30.035156 75.558594 C 30.425781 75.246094 30.621094 74.695312 30.632812 74.144531 L 30.632812 74.125 C 30.632812 74.105469 30.632812 66.386719 30.632812 65.738281 C 30.648438 65.679688 30.605469 65.621094 30.5625 65.601562 Z M 30.5625 65.601562 "/>
<path style=" stroke:none;fill-rule:nonzero;fill:rgb(2.352941%,2.352941%,2.745098%);fill-opacity:1;" d="M 16.882812 86.285156 C 16.839844 86.285156 16.8125 86.285156 16.769531 86.285156 L 16.242188 86.265625 L 16.269531 72.808594 L 17.914062 66.035156 L 18.359375 66.367188 L 30.605469 64.816406 L 30.703125 64.855469 C 30.980469 64.972656 31.175781 65.324219 31.175781 65.738281 L 31.164062 74.246094 C 31.132812 75.050781 30.816406 75.816406 30.300781 76.226562 L 18.71875 85.597656 C 18.164062 86.050781 17.535156 86.285156 16.882812 86.285156 Z M 17.339844 73.183594 L 17.339844 84.695312 C 17.632812 84.617188 17.925781 84.480469 18.191406 84.261719 L 29.769531 74.894531 C 30.050781 74.65625 30.089844 74.265625 30.105469 74.105469 L 30.105469 66.425781 L 18.636719 67.878906 Z M 17.339844 73.183594 "/>
<path style=" stroke:none;fill-rule:nonzero;fill:rgb(2.352941%,2.352941%,2.745098%);fill-opacity:1;" d="M 5.050781 68.074219 C 5.050781 68.074219 5.21875 67.425781 5.429688 66.601562 L 3.421875 65.816406 C 3.355469 65.796875 3.285156 65.855469 3.285156 65.953125 C 3.285156 66.738281 3.285156 74.085938 3.296875 74.183594 L 3.296875 74.203125 C 3.339844 74.714844 3.519531 75.207031 3.882812 75.5 L 5.039062 76.445312 L 5.039062 68.074219 Z M 5.050781 68.074219 "/>
<path style=" stroke:none;fill-rule:nonzero;fill:rgb(2.352941%,2.352941%,2.745098%);fill-opacity:1;" d="M 5.582031 77.78125 L 3.617188 76.171875 C 3.128906 75.777344 2.824219 75.089844 2.769531 74.285156 C 2.753906 74.1875 2.753906 74.148438 2.753906 68.332031 L 2.753906 65.957031 C 2.753906 65.679688 2.851562 65.40625 3.003906 65.226562 C 3.171875 65.050781 3.382812 64.992188 3.578125 65.070312 L 6.136719 66.074219 L 5.941406 66.839844 C 5.789062 67.449219 5.648438 67.976562 5.59375 68.195312 Z M 3.839844 66.78125 L 3.839844 68.332031 C 3.839844 70.6875 3.839844 73.96875 3.839844 74.167969 C 3.855469 74.324219 3.910156 74.65625 4.160156 74.855469 L 4.496094 75.128906 L 4.535156 67.820312 C 4.535156 67.820312 4.605469 67.546875 4.71875 67.113281 Z M 3.839844 66.78125 "/>
<path style=" stroke:none;fill-rule:nonzero;fill:rgb(100%,100%,100%);fill-opacity:1;" d="M 15.363281 76.601562 L 3.894531 67.210938 C 3.089844 66.542969 3.089844 64.914062 3.894531 64.246094 L 15.53125 54.816406 C 16.476562 54.050781 17.632812 54.050781 18.566406 54.816406 L 30.035156 64.207031 C 30.84375 64.875 30.84375 66.523438 30.035156 67.171875 L 18.398438 76.601562 C 17.464844 77.367188 16.296875 77.367188 15.363281 76.601562 Z M 15.363281 76.601562 "/>
<path style=" stroke:none;fill-rule:nonzero;fill:rgb(2.352941%,2.352941%,2.745098%);fill-opacity:1;" d="M 16.882812 77.957031 C 16.257812 77.957031 15.644531 77.722656 15.085938 77.269531 L 3.617188 67.878906 C 3.074219 67.429688 2.742188 66.621094 2.742188 65.738281 C 2.742188 64.835938 3.074219 64.050781 3.617188 63.597656 L 15.253906 54.167969 C 16.355469 53.265625 17.730469 53.265625 18.832031 54.167969 L 30.300781 63.558594 C 30.84375 64.011719 31.175781 64.816406 31.175781 65.699219 C 31.175781 66.601562 30.84375 67.386719 30.300781 67.839844 L 18.664062 77.269531 C 18.121094 77.722656 17.507812 77.957031 16.882812 77.957031 Z M 17.050781 55.011719 C 16.617188 55.011719 16.1875 55.171875 15.8125 55.484375 L 4.175781 64.914062 C 3.867188 65.148438 3.839844 65.5625 3.839844 65.738281 C 3.839844 65.914062 3.867188 66.308594 4.175781 66.5625 L 15.644531 75.953125 C 16.410156 76.582031 17.371094 76.582031 18.136719 75.953125 L 29.769531 66.523438 C 30.078125 66.289062 30.105469 65.875 30.105469 65.699219 C 30.105469 65.542969 30.078125 65.128906 29.769531 64.875 L 18.300781 55.484375 C 17.914062 55.171875 17.480469 55.011719 17.050781 55.011719 Z M 17.050781 55.011719 "/>
<path style=" stroke:none;fill-rule:nonzero;fill:rgb(100%,100%,100%);fill-opacity:1;" d="M 25.164062 49.453125 L 19.695312 44.9375 C 19.457031 44.738281 19.25 44.757812 19.09375 44.894531 L 12.441406 50.75 C 12.316406 50.867188 12.277344 51.085938 12.34375 51.261719 L 18.761719 60.984375 C 18.789062 61.042969 18.804688 61.101562 18.804688 61.179688 L 18.804688 64.324219 C 18.804688 65.246094 21.40625 62.59375 21.894531 62.988281 C 21.933594 63.027344 21.960938 63.066406 21.992188 63.125 L 18.707031 66.011719 C 18.777344 66.191406 18.941406 66.25 19.066406 66.132812 L 25.75 60.257812 C 25.75 60.257812 26.039062 59.765625 26.039062 59.277344 L 26.039062 51.832031 C 26.054688 50.925781 25.652344 49.867188 25.164062 49.453125 Z M 25.164062 49.453125 "/>
<path style=" stroke:none;fill-rule:nonzero;fill:rgb(2.352941%,2.352941%,2.745098%);fill-opacity:1;" d="M 18.941406 66.9375 C 18.875 66.9375 18.816406 66.917969 18.75 66.898438 C 18.539062 66.820312 18.359375 66.640625 18.246094 66.367188 L 17.96875 65.71875 L 18.621094 65.148438 C 18.609375 65.128906 18.582031 65.128906 18.566406 65.109375 C 18.371094 64.933594 18.261719 64.640625 18.261719 64.304688 L 18.261719 61.339844 L 11.886719 51.652344 C 11.664062 51.125 11.773438 50.4375 12.152344 50.101562 L 18.804688 44.25 C 19.136719 43.933594 19.554688 43.933594 19.957031 44.269531 L 25.441406 48.804688 C 26.097656 49.335938 26.597656 50.652344 26.597656 51.851562 L 26.597656 59.257812 C 26.597656 59.984375 26.25 60.613281 26.179688 60.730469 L 26.042969 60.886719 L 19.359375 66.761719 C 19.25 66.878906 19.097656 66.9375 18.941406 66.9375 Z M 13.015625 51.144531 L 19.234375 60.574219 C 19.304688 60.75 19.347656 60.945312 19.347656 61.160156 L 19.347656 63.519531 C 19.570312 63.382812 19.832031 63.203125 20.042969 63.046875 C 21.085938 62.320312 21.710938 61.910156 22.171875 62.300781 C 22.214844 62.320312 22.242188 62.359375 22.269531 62.398438 L 25.386719 59.667969 C 25.457031 59.53125 25.511719 59.355469 25.511719 59.257812 L 25.511719 51.832031 C 25.511719 51.144531 25.191406 50.359375 24.898438 50.121094 L 19.429688 45.605469 Z M 13.015625 51.144531 "/>
<path style=" stroke:none;fill-rule:nonzero;fill:rgb(2.352941%,2.352941%,2.745098%);fill-opacity:1;" d="M 14.058594 59.609375 C 14.058594 59.609375 14.042969 59.847656 14.015625 60.238281 L 18.679688 65.777344 C 18.804688 66.074219 19.082031 66.171875 19.289062 65.996094 L 25.804688 60.257812 C 25.804688 60.257812 26.097656 59.765625 26.097656 59.277344 L 26.097656 52.300781 C 26.097656 52.105469 25.945312 51.988281 25.816406 52.085938 L 19.234375 57.882812 C 19.207031 57.902344 19.191406 57.941406 19.179688 57.980469 Z M 14.058594 59.609375 "/>
<path style=" stroke:none;fill-rule:nonzero;fill:rgb(2.352941%,2.352941%,2.745098%);fill-opacity:1;" d="M 19.054688 66.839844 C 18.96875 66.839844 18.902344 66.820312 18.816406 66.800781 C 18.59375 66.722656 18.398438 66.542969 18.261719 66.289062 L 13.429688 60.554688 L 13.542969 58.980469 L 18.886719 57.273438 C 18.902344 57.253906 18.914062 57.253906 18.929688 57.234375 L 25.511719 51.4375 C 25.734375 51.242188 26.011719 51.222656 26.25 51.417969 C 26.488281 51.59375 26.625 51.949219 26.625 52.300781 L 26.625 59.257812 C 26.625 59.984375 26.277344 60.613281 26.207031 60.730469 L 26.070312 60.886719 L 19.554688 66.621094 C 19.414062 66.78125 19.234375 66.839844 19.054688 66.839844 Z M 14.796875 60.160156 L 19.082031 65.265625 L 25.429688 59.6875 C 25.5 59.550781 25.554688 59.375 25.554688 59.277344 L 25.554688 53.226562 L 19.597656 58.46875 L 19.527344 58.648438 Z M 14.796875 60.160156 "/>
<path style=" stroke:none;fill-rule:nonzero;fill:rgb(0%,77.254903%,96.470588%);fill-opacity:1;" d="M 18.257812 66.269531 L 12.789062 61.75 C 12.300781 61.359375 11.914062 60.296875 11.914062 59.375 L 11.914062 51.949219 C 11.914062 51.027344 12.300781 50.613281 12.789062 51.003906 L 18.257812 55.523438 C 18.746094 55.917969 19.136719 56.976562 19.136719 57.902344 L 19.136719 65.324219 C 19.148438 66.25 18.746094 66.660156 18.257812 66.269531 Z M 18.257812 66.269531 "/>
<path style=" stroke:none;fill-rule:nonzero;fill:rgb(2.352941%,2.352941%,2.745098%);fill-opacity:1;" d="M 18.621094 67.191406 C 18.414062 67.191406 18.203125 67.113281 17.996094 66.9375 L 12.511719 62.398438 C 11.859375 61.871094 11.371094 60.574219 11.371094 59.375 L 11.371094 51.949219 C 11.371094 51.183594 11.578125 50.574219 11.941406 50.28125 C 12.273438 50.003906 12.679688 50.023438 13.054688 50.339844 L 18.539062 54.875 C 19.191406 55.40625 19.695312 56.722656 19.695312 57.921875 L 19.695312 65.347656 C 19.695312 66.113281 19.484375 66.722656 19.121094 67.015625 C 18.957031 67.132812 18.789062 67.191406 18.621094 67.191406 Z M 18.539062 65.601562 C 18.566406 65.621094 18.578125 65.640625 18.59375 65.640625 C 18.578125 65.601562 18.609375 65.503906 18.609375 65.328125 L 18.609375 57.921875 C 18.609375 57.234375 18.289062 56.449219 17.996094 56.210938 L 12.511719 51.675781 C 12.484375 51.65625 12.46875 51.636719 12.457031 51.636719 C 12.46875 51.675781 12.441406 51.773438 12.441406 51.949219 L 12.441406 59.375 C 12.441406 60.0625 12.761719 60.847656 13.054688 61.082031 Z M 18.539062 65.601562 "/>
<path style=" stroke:none;fill-rule:nonzero;fill:rgb(0%,77.254903%,96.470588%);fill-opacity:1;" d="M 25.394531 56.308594 L 19.527344 61.296875 L 19.957031 62.304688 L 25.824219 57.320312 Z M 25.394531 56.308594 "/>
<path style=" stroke:none;fill-rule:nonzero;fill:rgb(100%,100%,100%);fill-opacity:1;" d="M 14.390625 46.804688 L 20.429688 51.714844 L 23.964844 48.804688 L 17.996094 43.835938 Z M 14.390625 46.804688 "/>
<path style=" stroke:none;fill-rule:nonzero;fill:rgb(2.352941%,2.352941%,2.745098%);fill-opacity:1;" d="M 20.433594 52.597656 L 13.304688 46.800781 L 17.996094 42.953125 L 25.050781 48.824219 Z M 15.476562 46.800781 L 20.433594 50.828125 L 22.894531 48.824219 L 17.980469 44.71875 Z M 15.476562 46.800781 "/>
</g>
</svg>
