<svg width="140" height="140" viewBox="0 0 140 140" fill="none" xmlns="http://www.w3.org/2000/svg">
<mask id="mask0_779_6" style="mask-type:luminance" maskUnits="userSpaceOnUse" x="0" y="23" width="140" height="94">
<path d="M140 23H0V116.96H140V23Z" fill="white"/>
</mask>
<g mask="url(#mask0_779_6)">
<path d="M80.5623 99.8704L52.473 116.126C52.0687 116.362 51.566 116.362 51.1617 116.126L0 85.752L30.6451 68.4485L80.5482 97.6099C81.4236 98.1056 81.4306 99.3641 80.5623 99.8704Z" fill="url(#paint0_linear_779_6)"/>
<path d="M49.1826 43.1514C49.5235 40.2195 51.4958 37.1399 54.0973 35.7196L75.9675 23.7175C77.3632 22.9511 78.6252 22.8949 79.5006 23.4504C79.8487 23.6718 80.8787 24.3503 80.8787 24.3503C79.9928 23.8054 78.7378 23.8511 77.3456 24.6175L55.4718 36.6195C52.6278 38.1734 50.5817 41.6292 50.508 44.8565C50.4833 45.9287 50.1388 112.137 50.1388 112.137C50.1388 113.448 50.1598 114.921 51.3235 115.783C51.3728 115.818 49.9947 114.921 49.9454 114.886C48.6412 113.909 48.7607 112.264 48.7607 110.935C48.7642 105.718 48.8063 46.3752 49.1826 43.1514Z" fill="#060607"/>
<path d="M51.3386 115.856C51.3421 115.856 51.3456 115.856 51.3491 115.856L51.3948 115.839L51.4054 115.744L51.3667 115.715C50.2171 114.861 50.2171 113.35 50.2171 112.137C50.2207 111.476 50.5616 45.9178 50.5863 44.8596C50.6601 41.6429 52.7307 38.2082 55.5081 36.693L77.3782 24.6874C78.7036 23.9597 79.9305 23.8648 80.8305 24.4202L80.9184 24.2796C80.9078 24.2726 79.8848 23.5976 79.5403 23.3796C78.6157 22.7925 77.2974 22.891 75.9228 23.6433L54.0491 35.6454C51.4792 37.0481 49.4437 40.1312 49.0921 43.1406C48.6984 46.5154 48.6738 110.284 48.6738 110.927C48.6738 111.029 48.6738 111.131 48.6738 111.237C48.6633 112.541 48.6527 114.017 49.8937 114.946C49.9042 114.953 50.878 115.642 51.2331 115.817C51.2437 115.828 51.2577 115.835 51.2682 115.846L51.2753 115.839C51.2999 115.849 51.3245 115.856 51.3386 115.856ZM79.5087 23.8964C78.8302 23.8964 78.0778 24.1108 77.2974 24.5433L55.4237 36.5419C52.5972 38.0851 50.4914 41.5796 50.414 44.849C50.3894 45.9108 50.0483 111.469 50.0449 112.13C50.0449 113.153 50.0449 114.38 50.7058 115.287C50.3612 115.062 50.0062 114.83 49.9815 114.812C48.8109 113.933 48.8214 112.502 48.8285 111.237C48.8285 111.131 48.8285 111.029 48.8285 110.927C48.8285 110.284 48.8531 46.526 49.2469 43.1616C49.5913 40.2015 51.5952 37.1711 54.1193 35.793L76.0001 23.7909C77.3185 23.0667 78.5771 22.9683 79.4489 23.5202C79.5965 23.6152 79.8708 23.7909 80.1344 23.9632C79.934 23.921 79.7231 23.8964 79.5087 23.8964Z" fill="#060607"/>
<path d="M50.5019 44.775C50.5301 41.7586 52.4811 38.2536 55.4659 36.6118L77.3396 24.6133C80.0571 23.1227 82.2368 24.3602 82.2086 27.3801V95.1387C82.184 98.155 80.8973 101.199 78.1834 102.69L55.0018 115.61C52.3582 117.062 50.2207 115.93 50.1328 113.086C50.1363 113.061 50.5019 44.775 50.5019 44.775Z" fill="white"/>
<path d="M52.8355 116.33C53.5176 116.33 54.2699 116.113 55.0503 115.684L78.2318 102.764C80.7525 101.379 82.2783 98.5277 82.3029 95.1352V27.3765C82.3169 25.9141 81.8177 24.8032 80.9002 24.2547C79.9474 23.6852 78.6713 23.7836 77.3038 24.5325L55.43 36.5311C52.5543 38.1131 50.4485 41.5793 50.4204 44.7714C50.4168 45.4535 50.0547 112.952 50.0547 113.082C50.0969 114.45 50.6102 115.483 51.4961 115.989C51.8934 116.218 52.3468 116.33 52.8355 116.33ZM79.515 24.0684C79.9932 24.0684 80.429 24.1809 80.8087 24.4094C81.6701 24.9262 82.1411 25.9809 82.1271 27.38V95.1387C82.0989 98.4644 80.6119 101.259 78.1474 102.613L54.966 115.532C53.6757 116.239 52.4734 116.348 51.5805 115.838C50.7473 115.364 50.2656 114.383 50.227 113.082C50.227 113.061 50.5575 51.7639 50.5926 44.775C50.6207 41.6427 52.6879 38.2431 55.5108 36.6892L77.3881 24.6907C78.1439 24.2758 78.8646 24.0684 79.515 24.0684Z" fill="#060607"/>
<path d="M56.7578 83.1374L76.7402 73.5996V74.8372L56.7578 84.3783V83.1374Z" fill="#C2C7CB"/>
<path d="M56.6875 84.4938L76.8175 74.8859V73.4832L56.6875 83.0911V84.4938ZM76.6698 74.791L56.8351 84.2583V83.1825L76.6698 73.7151V74.791Z" fill="#060607"/>
<path d="M70.1953 79.5198L76.7412 76.3945V77.632L70.1953 80.7573V79.5198Z" fill="#C2C7CB"/>
<path d="M70.1172 80.8728L76.8108 77.6771V76.2744L70.1172 79.4701V80.8728ZM76.6632 77.5857L70.2613 80.6407V79.565L76.6632 76.51V77.5857Z" fill="#060607"/>
<path d="M67.758 80.6797V81.9207L56.7578 87.1694V85.9319L67.758 80.6797Z" fill="#C2C7CB"/>
<path d="M56.6875 87.2859L67.8318 81.9669V80.5642L56.6875 85.8832V87.2859ZM67.6876 81.8755L56.8351 87.054V85.9782L67.6876 80.7998V81.8755Z" fill="#060607"/>
<path d="M60.9999 72.3537L76.4754 45.7657L73.4555 44.022V44.0254C71.4762 42.8442 68.713 42.9954 65.6545 44.7602C59.6288 48.2406 54.7422 56.6674 54.7422 63.5824C54.7422 66.8167 55.811 69.144 57.5652 70.3533L57.5687 70.3569C57.7832 70.5045 58.0047 70.6311 58.2366 70.7435L60.9999 72.3537Z" fill="#060607"/>
<path d="M61.0263 72.466L61.0685 72.3958L76.5862 45.7373L73.4222 43.9092C71.3304 42.7069 68.5637 42.9812 65.6106 44.6862C59.5709 48.1736 54.6562 56.6461 54.6562 63.5788C54.6562 66.7181 55.6722 69.1474 57.5143 70.42C57.7253 70.5641 57.9538 70.6977 58.1998 70.8172L61.0263 72.466ZM76.3577 45.7971L60.9666 72.2411L58.2773 70.6696C58.0347 70.5501 57.8132 70.4235 57.6128 70.2865C55.8128 69.0454 54.825 66.6654 54.825 63.5788C54.825 56.7023 59.701 48.2896 65.695 44.8303C68.627 43.1393 71.3656 42.8757 73.4116 44.0956L73.4855 44.1377V44.1343L76.3577 45.7971Z" fill="#060607"/>
<path d="M63.6988 73.2718C65.2596 73.2718 66.9401 72.755 68.7014 71.739C74.8641 68.1813 79.8808 59.5295 79.8808 52.4598C79.8808 47.6013 77.5324 44.585 73.7568 44.585C72.1958 44.585 70.5153 45.1017 68.7541 46.1177C62.5913 49.6755 57.5781 58.3272 57.5781 65.397C57.5781 67.8122 58.1688 69.8231 59.2797 71.2117C60.359 72.5617 61.8882 73.2718 63.6988 73.2718Z" fill="#00C5F6"/>
<path d="M73.7547 44.6373C72.2044 44.6373 70.5309 45.1506 68.7767 46.1631C62.628 49.7138 57.6254 58.3445 57.6254 65.4002C57.6254 70.227 59.9527 73.2257 63.7003 73.2257C65.2506 73.2257 66.924 72.7125 68.6782 71.7C74.827 68.1494 79.8296 59.5187 79.8296 52.463C79.8296 47.6326 77.5023 44.6373 73.7547 44.6373ZM73.7547 44.5354C77.4179 44.5354 79.928 47.4357 79.928 52.4594C79.928 59.5609 74.9113 68.2091 68.7239 71.7844C66.917 72.8286 65.2084 73.3242 63.6967 73.3242C60.0335 73.3242 57.5234 70.4238 57.5234 65.3966C57.5234 58.2952 62.5401 49.647 68.7275 46.0752C70.5344 45.031 72.243 44.5354 73.7547 44.5354Z" fill="#060607"/>
<path d="M76.6424 53.3599C76.66 53.3599 76.6776 53.3564 76.6951 53.3529C76.7197 53.3459 76.7478 53.3353 76.7725 53.3177C76.9061 53.2369 76.9729 53.0962 76.9517 53.0189C76.6037 51.6865 75.883 50.6353 74.867 49.978C74.8529 49.9674 74.8319 49.9639 74.8178 49.9639C74.7546 49.9639 74.6596 50.0061 74.5788 50.0975C74.512 50.1783 74.4944 50.2521 74.5014 50.2979C74.5049 50.3295 74.5225 50.3401 74.5261 50.3436C75.5174 50.9869 76.2205 52.0134 76.5615 53.3142C76.572 53.3283 76.5791 53.3599 76.6424 53.3599Z" fill="#060607"/>
<path d="M76.6468 53.4445C76.6714 53.4445 76.6959 53.4409 76.7241 53.4339C76.7557 53.4234 76.7874 53.4093 76.819 53.3917C76.9737 53.3003 77.0721 53.1246 77.037 53.0015C76.6819 51.648 75.9506 50.5793 74.9171 49.9113C74.8222 49.8481 74.6359 49.9113 74.5198 50.0484C74.4461 50.1328 74.4108 50.2347 74.4249 50.3121C74.4284 50.3437 74.446 50.3859 74.4882 50.414C75.4621 51.0434 76.1545 52.0558 76.4886 53.3355C76.5096 53.4058 76.5659 53.4445 76.6468 53.4445ZM74.8257 50.0484C75.8277 50.6918 76.5378 51.7289 76.8788 53.0402C76.8858 53.0718 76.8471 53.1807 76.7346 53.2476C76.7136 53.2582 76.6959 53.2687 76.6784 53.2722C76.6678 53.2757 76.6573 53.2757 76.6503 53.2757C76.3022 51.9609 75.5886 50.9203 74.5832 50.2699C74.5902 50.2629 74.6007 50.2101 74.6534 50.1504C74.7167 50.0766 74.7905 50.0484 74.8257 50.0484Z" fill="#060607"/>
<path d="M76.6855 57.4804C76.8191 57.4417 76.9352 57.3222 76.9562 57.2097C77.0125 56.9425 77.0582 56.6754 77.0969 56.4082C77.2023 55.6453 77.2269 54.9071 77.1637 54.2215C77.1601 54.1933 77.1496 54.1582 77.0863 54.1582C77.0547 54.1582 77.023 54.1687 76.9843 54.1828C76.8472 54.2496 76.7629 54.3938 76.7699 54.4816C76.8297 55.1461 76.8086 55.8597 76.7031 56.598C76.668 56.8547 76.6223 57.1148 76.566 57.3714C76.559 57.4101 76.5625 57.4417 76.5765 57.4629C76.5906 57.4804 76.6187 57.4875 76.6399 57.4875C76.6574 57.4839 76.6714 57.4839 76.6855 57.4804Z" fill="#060607"/>
<path d="M76.6487 57.568C76.6663 57.568 76.6873 57.5646 76.7085 57.561H76.712C76.8737 57.5153 77.0108 57.3747 77.0424 57.2271C77.0987 56.9564 77.1479 56.6857 77.1831 56.422C77.2921 55.6521 77.3131 54.9103 77.2499 54.2177C77.2394 54.0912 77.1057 54.0419 76.9546 54.1123C76.7963 54.1896 76.6804 54.3584 76.6909 54.4955C76.7507 55.1564 76.7295 55.863 76.6241 56.5942C76.589 56.8474 76.5432 57.1076 76.4905 57.3606C76.4764 57.4239 76.487 57.4802 76.5186 57.5188C76.5503 57.547 76.596 57.568 76.6487 57.568ZM76.6698 57.3993C76.6663 57.3993 76.6592 57.3993 76.6558 57.4028C76.6558 57.3993 76.6558 57.3958 76.6592 57.3922C76.7155 57.1321 76.7612 56.8684 76.7963 56.6118C76.9019 55.8665 76.9229 55.1493 76.8631 54.4743C76.8597 54.4216 76.9229 54.3091 77.0319 54.2564C77.06 54.2423 77.0811 54.2389 77.0916 54.2389C77.1514 54.9208 77.1304 55.6451 77.0248 56.3938C76.9897 56.654 76.9405 56.9212 76.8843 57.1884C76.8631 57.2763 76.7682 57.3676 76.6698 57.3993Z" fill="#060607"/>
<path d="M60.3309 62.451C60.3485 62.451 60.366 62.4475 60.3871 62.444C60.5348 62.3877 60.6438 62.2542 60.6473 62.1452C60.6578 61.7972 60.6895 61.4351 60.7422 61.0695C61.034 58.9847 61.9691 56.7734 63.3789 54.8364C63.435 54.7555 63.4457 54.6887 63.435 54.65C63.4281 54.6254 63.414 54.6149 63.4035 54.6113C63.3964 54.6113 63.3894 54.6113 63.3823 54.6113C63.2663 54.6113 63.1679 54.6747 63.1046 54.7625C61.6316 56.7875 60.6507 59.0937 60.3485 61.2627C60.2957 61.639 60.2641 62.0151 60.25 62.3737C60.25 62.3913 60.2535 62.4194 60.2676 62.4335C60.2887 62.4475 60.3132 62.451 60.3309 62.451Z" fill="#060607"/>
<path d="M60.3336 62.5318C60.3582 62.5318 60.3828 62.5283 60.4109 62.5212C60.5902 62.4544 60.7274 62.2892 60.7343 62.1451C60.7449 61.8006 60.7765 61.442 60.8257 61.0799C61.114 59.0092 62.0456 56.8085 63.4483 54.8855C63.5117 54.7976 63.5363 54.7027 63.5186 54.6288C63.5117 54.5972 63.4905 54.5585 63.4378 54.5339L63.3851 54.5269C63.2515 54.5269 63.1249 54.5937 63.0406 54.7097C61.557 56.7452 60.5762 59.0655 60.2703 61.2486C60.2175 61.6318 60.1824 62.0079 60.1719 62.3666C60.1719 62.4158 60.186 62.458 60.2141 62.4896C60.2422 62.5178 60.2843 62.5318 60.3336 62.5318ZM63.3569 54.6921C63.3534 54.7132 63.3429 54.7448 63.3147 54.7836C61.898 56.7312 60.9559 58.9565 60.6606 61.0553C60.6078 61.4243 60.5762 61.79 60.5656 62.1381C60.5621 62.2083 60.4777 62.3173 60.3582 62.363C60.3547 62.363 60.3477 62.3666 60.3406 62.3666C60.3511 62.0045 60.3828 61.6389 60.4355 61.2697C60.7379 59.1147 61.7082 56.819 63.1742 54.8082C63.2057 54.766 63.2656 54.7027 63.3569 54.6921Z" fill="#060607"/>
<path d="M64.5741 53.2611C64.5917 53.2611 64.6093 53.2575 64.6303 53.254C64.6866 53.2365 64.7429 53.2013 64.7921 53.1521C66.3706 51.5244 68.1494 50.3924 69.9353 49.8827C70.6068 49.6928 71.2572 49.5943 71.8689 49.5943C72.3891 49.5943 72.8884 49.6647 73.3595 49.8018C73.363 49.8018 73.3665 49.8018 73.37 49.8018C73.4895 49.8018 73.5985 49.7279 73.6618 49.6296C73.7111 49.5522 73.7145 49.4889 73.7004 49.4572C73.6935 49.4397 73.6829 49.4291 73.6618 49.4221C73.1731 49.278 72.6493 49.2041 72.1079 49.2041C71.4611 49.2041 70.7756 49.306 70.0654 49.51C68.1635 50.0514 66.2722 51.2537 64.5988 52.9833C64.5249 53.0607 64.4968 53.1416 64.5003 53.1908C64.5003 53.2153 64.5073 53.2329 64.5214 53.2435C64.5354 53.2611 64.5566 53.2611 64.5741 53.2611Z" fill="#060607"/>
<path d="M64.5723 53.3461C64.5969 53.3461 64.625 53.3425 64.6496 53.3356C64.7164 53.3179 64.7903 53.2722 64.8465 53.2125C66.4145 51.5953 68.1792 50.4704 69.9546 49.9676C71.1815 49.6161 72.3275 49.5915 73.3295 49.8868L73.3647 49.8902C73.5053 49.8902 73.6459 49.8094 73.7268 49.6793C73.783 49.5915 73.8005 49.5 73.776 49.4332C73.7654 49.4051 73.7408 49.3664 73.6846 49.3489C72.6018 49.029 71.3644 49.0606 70.0424 49.4368C68.1265 49.9817 66.2246 51.191 64.5372 52.9313C64.4563 53.0121 64.4141 53.114 64.4141 53.1984C64.4176 53.2581 64.4422 53.2934 64.4598 53.3109C64.4879 53.332 64.5265 53.3461 64.5723 53.3461ZM71.867 49.5141C71.2483 49.5141 70.5909 49.6126 69.9124 49.8059C68.1124 50.3192 66.3195 51.4582 64.734 53.0964C64.6953 53.1351 64.6496 53.1632 64.6074 53.1773C64.5969 53.1808 64.5899 53.1808 64.5828 53.1808C64.5863 53.1491 64.604 53.0964 64.6567 53.0437C66.323 51.3246 68.2004 50.1294 70.0882 49.5915C71.3749 49.2259 72.5772 49.1942 73.6248 49.5C73.6248 49.5141 73.6178 49.5458 73.5897 49.588C73.5369 49.6688 73.449 49.7215 73.3681 49.7215C72.9042 49.5844 72.3943 49.5141 71.867 49.5141Z" fill="#060607"/>
<path d="M76.3269 59.1156C76.3444 59.1156 76.362 59.1121 76.383 59.1086C76.4393 59.0911 76.4956 59.0558 76.5448 59.0067C76.6221 58.9293 76.6467 58.8485 76.6467 58.7992C76.6467 58.7746 76.6397 58.7571 76.6257 58.7465C76.2108 58.3668 76.0526 57.7621 76.1827 57.038C76.2073 56.9079 76.2249 56.7778 76.2425 56.6512C76.3796 55.6704 76.362 54.7563 76.1933 53.9302C76.1897 53.9162 76.1827 53.8774 76.1194 53.8774C76.0843 53.8774 76.0386 53.8915 75.9964 53.9162C75.8628 53.99 75.7889 54.1341 75.803 54.2149C75.9682 55.013 75.9858 55.8989 75.8522 56.8446C75.8346 56.9677 75.8136 57.0942 75.7924 57.2172C75.6483 58.0223 75.817 58.6938 76.2635 59.1016C76.2847 59.1121 76.3092 59.1156 76.3269 59.1156Z" fill="#060607"/>
<path d="M76.3188 59.1998C76.3435 59.1998 76.3716 59.1963 76.3997 59.1893C76.47 59.1682 76.5403 59.126 76.5966 59.0663C76.6775 58.9819 76.7232 58.8834 76.7196 58.799C76.7196 58.7428 76.6951 58.7076 76.6739 58.69C76.2802 58.3315 76.1325 57.7514 76.2591 57.0553C76.2837 56.9253 76.3013 56.7952 76.3224 56.6651C76.4595 55.6772 76.4419 54.7491 76.2696 53.916C76.245 53.7964 76.0974 53.7613 75.9498 53.8457C75.795 53.9335 75.6931 54.1058 75.7177 54.2323C75.8794 55.0234 75.897 55.8987 75.7669 56.8339C75.7494 56.9569 75.7318 57.08 75.7072 57.2029C75.5595 58.0397 75.7353 58.7358 76.2064 59.1646C76.2345 59.1858 76.2732 59.1998 76.3188 59.1998ZM76.1079 53.9581C76.2732 54.7737 76.2908 55.6772 76.1537 56.6405C76.1361 56.7671 76.115 56.8971 76.0939 57.0237C75.9603 57.776 76.1255 58.4123 76.5615 58.8096C76.5544 58.8237 76.5403 58.8834 76.4771 58.9502C76.4384 58.9888 76.3962 59.017 76.354 59.0276C76.3364 59.0346 76.3118 59.031 76.3118 59.031C75.8935 58.6479 75.7318 58.0045 75.8724 57.2276C75.8935 57.101 75.9145 56.978 75.9321 56.8514C76.0657 55.8952 76.0482 55.0022 75.883 54.1937C75.8759 54.155 75.9252 54.0425 76.0341 53.9828C76.0587 53.9687 76.0869 53.9581 76.1079 53.9581Z" fill="#060607"/>
<path d="M61.1945 62.1979C61.2121 62.1979 61.2297 62.1944 61.2472 62.1909C61.3949 62.1347 61.5074 61.9976 61.5074 61.8886C61.5144 61.544 61.5425 61.1855 61.5953 60.8234C61.7042 60.0359 61.9152 59.2308 62.221 58.4258C62.2422 58.373 62.2422 58.3273 62.2246 58.3027C62.214 58.2851 62.1895 58.2781 62.1613 58.2781C62.0452 58.2816 61.9081 58.3906 61.8589 58.5171C61.5391 59.3574 61.3211 60.1976 61.205 61.0167C61.1523 61.3928 61.1207 61.762 61.1172 62.1206C61.1172 62.1381 61.1207 62.1627 61.1348 62.1803C61.1523 62.1944 61.1769 62.1979 61.1945 62.1979Z" fill="#060607"/>
<path d="M61.193 62.2831C61.2176 62.2831 61.2422 62.2796 61.2703 62.2726C61.4531 62.2022 61.5902 62.0405 61.5937 61.8929C61.6007 61.5519 61.6288 61.1968 61.6781 60.8382C61.7871 60.0578 61.9945 59.2562 62.3004 58.4582C62.3319 58.3773 62.3285 58.307 62.2933 58.2578C62.2792 58.2332 62.2406 58.1946 62.1597 58.1946C62.0085 58.1981 61.8398 58.3281 61.78 58.4863C61.4601 59.3336 61.2386 60.1808 61.1227 61.0035C61.0699 61.3831 61.0383 61.7558 61.0312 62.1179C61.0312 62.1812 61.0523 62.2163 61.0734 62.2374C61.105 62.2656 61.1472 62.2831 61.193 62.2831ZM62.1562 58.3598C62.1527 58.3668 62.1527 58.3809 62.1456 58.3985C61.8398 59.207 61.6254 60.0227 61.5164 60.8136C61.4671 61.1792 61.4355 61.5379 61.4285 61.8859C61.4285 61.9562 61.3406 62.0652 61.2211 62.1108C61.2176 62.1108 61.2105 62.1144 61.2035 62.1144C61.2105 61.7558 61.2386 61.3937 61.2913 61.0246C61.4039 60.2125 61.6219 59.3757 61.9382 58.5426C61.9734 58.4512 62.0753 58.3668 62.1562 58.3598Z" fill="#060607"/>
<path d="M63.0717 56.3519C63.1631 56.3519 63.2792 56.2746 63.3424 56.1691C64.9772 53.5184 67.3923 51.525 69.8075 50.836C70.3911 50.6707 70.9641 50.5864 71.5126 50.5864C73.2809 50.5864 74.7047 51.4723 75.4218 53.0156C75.4253 53.0226 75.4359 53.0508 75.4921 53.0508C75.5097 53.0508 75.5273 53.0473 75.5484 53.0438C75.5836 53.0332 75.6187 53.0156 75.6538 52.9911C75.7734 52.9031 75.8332 52.7626 75.8015 52.6992C75.0633 51.1102 73.5903 50.1997 71.7552 50.1997C71.1751 50.1997 70.5634 50.291 69.9411 50.4668C67.3572 51.2016 64.7803 53.325 63.0436 56.1444C62.9979 56.2218 62.9944 56.2815 63.005 56.3132C63.0119 56.3308 63.026 56.3413 63.0471 56.3483L63.0717 56.3519Z" fill="#060607"/>
<path d="M63.0602 56.4363H63.0672C63.1867 56.4363 63.3309 56.345 63.4082 56.2148C65.0324 53.5817 67.43 51.6024 69.8241 50.9205C70.4007 50.7552 70.9667 50.6743 71.5045 50.6743C73.2377 50.6743 74.6368 51.5427 75.3399 53.0544C75.3752 53.1281 75.463 53.1563 75.5615 53.1247C75.6037 53.1141 75.6494 53.0895 75.6915 53.0579C75.8392 52.9489 75.9166 52.7731 75.8673 52.6642C75.115 51.047 73.6138 50.1189 71.7435 50.1189C71.1565 50.1189 70.5378 50.2103 69.9085 50.3896C67.307 51.1313 64.709 53.2688 62.9618 56.1058C62.909 56.1938 62.8914 56.2852 62.9196 56.3519C62.9372 56.3941 62.9687 56.4223 63.018 56.4363H63.0602ZM71.5045 50.5056C70.949 50.5056 70.369 50.5899 69.7784 50.7587C67.3457 51.4512 64.9094 53.4587 63.2676 56.127C63.2184 56.2113 63.127 56.2675 63.0707 56.2711C63.0707 56.2535 63.0777 56.2254 63.1023 56.1902C64.8285 53.3883 67.3913 51.279 69.9542 50.5478C70.5694 50.372 71.1706 50.2841 71.7435 50.2841C73.5435 50.2841 74.9919 51.1771 75.7162 52.7345C75.7232 52.7591 75.6915 52.854 75.5966 52.9243C75.5685 52.9418 75.5439 52.9559 75.5193 52.963C75.5052 52.9664 75.4947 52.97 75.4877 52.97C74.7494 51.402 73.2974 50.5056 71.5045 50.5056Z" fill="#060607"/>
<path d="M62.259 61.221C62.2766 61.221 62.2942 61.2175 62.3117 61.214C62.4453 61.1718 62.5614 61.0382 62.5719 60.9222C62.5824 60.7921 62.6 60.6621 62.6176 60.5319C62.8566 58.8235 63.6477 57.0305 64.85 55.4801C64.9133 55.3993 64.9238 55.329 64.9168 55.2868C64.9097 55.2622 64.8956 55.2516 64.8887 55.2446C64.8781 55.2446 64.8711 55.2446 64.8641 55.2446C64.7515 55.2446 64.6602 55.3008 64.5968 55.3817C63.3242 57.0269 62.484 58.9218 62.2344 60.7218C62.2168 60.8589 62.1993 60.996 62.1887 61.1296C62.1852 61.1507 62.1887 61.1823 62.2063 61.1999C62.2133 61.2175 62.2379 61.221 62.259 61.221Z" fill="#060607"/>
<path d="M62.2639 61.3056C62.2885 61.3056 62.3131 61.3021 62.3412 61.2951C62.5065 61.2423 62.6506 61.0771 62.6612 60.9329C62.6717 60.8064 62.6893 60.6763 62.7069 60.5462C62.9424 58.8517 63.7299 57.0729 64.9216 55.5331C64.9885 55.4451 65.0201 55.3502 65.0025 55.2729C64.9955 55.2412 64.9779 55.1991 64.9287 55.1744L64.9006 55.1639C64.7529 55.1463 64.6229 55.2131 64.5314 55.3327C63.2518 56.9885 62.4046 58.8974 62.1514 60.7115C62.1303 60.8486 62.1163 60.9892 62.1022 61.1227C62.0987 61.179 62.1092 61.2247 62.1409 61.2564C62.169 61.288 62.2147 61.3056 62.2639 61.3056ZM64.8373 55.3292C64.8338 55.3502 64.8197 55.3854 64.788 55.4276C63.5788 56.9885 62.7807 58.799 62.5416 60.5216C62.5241 60.6552 62.5065 60.7852 62.496 60.9189C62.4889 60.9927 62.401 61.1017 62.2921 61.1368C62.285 61.1368 62.278 61.1403 62.2709 61.1403C62.2815 60.9998 62.299 60.8661 62.3166 60.7361C62.5663 58.9502 63.3994 57.0693 64.665 55.4346C64.6897 55.396 64.7494 55.3397 64.8373 55.3292Z" fill="#060607"/>
<path d="M65.1376 54.984C65.1552 54.984 65.1728 54.9806 65.1938 54.9771C65.2536 54.9594 65.3204 54.9172 65.3696 54.861C66.0446 54.1017 66.7829 53.4583 67.5669 52.9521C67.6934 52.8713 67.7602 52.7271 67.7356 52.6533C67.732 52.6427 67.7215 52.6111 67.6618 52.6111C67.6196 52.6111 67.5703 52.6287 67.5211 52.6603C66.6704 53.2088 65.8724 53.9012 65.1482 54.7204C65.0779 54.8013 65.0567 54.8786 65.0638 54.9243C65.0673 54.9559 65.0814 54.97 65.0884 54.9735C65.0989 54.9806 65.1165 54.984 65.1376 54.984Z" fill="#060607"/>
<path d="M65.1329 55.0684C65.1574 55.0684 65.1821 55.0648 65.2102 55.0578C65.2876 55.0367 65.3614 54.984 65.4247 54.9172C66.0926 54.1614 66.8274 53.5251 67.6078 53.0224C67.759 52.9239 67.8504 52.7482 67.8117 52.6287C67.7695 52.5126 67.6149 52.4986 67.4742 52.59C66.6199 53.1419 65.8149 53.8415 65.0837 54.6676C65.0098 54.752 64.9676 54.8504 64.9782 54.9347C64.9817 54.9804 65.0028 55.0156 65.0344 55.0403C65.0591 55.0578 65.0942 55.0684 65.1329 55.0684ZM67.6535 52.6919C67.65 52.7341 67.6043 52.8219 67.5164 52.8781C66.7254 53.3879 65.9801 54.0384 65.3017 54.8012C65.263 54.847 65.2102 54.8785 65.1645 54.8926C65.1574 54.8961 65.1469 54.8961 65.1399 54.8961C65.1434 54.8679 65.1574 54.8224 65.2032 54.7697C65.9239 53.9576 66.7184 53.2685 67.5586 52.7236C67.5937 52.706 67.6289 52.6954 67.6535 52.6919Z" fill="#060607"/>
<path d="M75.6015 60.841C75.6191 60.841 75.6367 60.8376 75.6577 60.8341C75.6964 60.8235 75.7386 60.8024 75.7773 60.7708C75.8933 60.6793 75.9425 60.5423 75.9074 60.4825L75.6648 60.0677C75.1938 59.2556 75.039 58.1833 75.2113 56.9634C75.4609 55.1775 75.1129 53.6377 74.2269 52.6217C73.5238 51.8132 72.5254 51.3843 71.3477 51.3843C70.845 51.3843 70.3141 51.4616 69.7693 51.6198C69.6462 51.655 69.5267 51.785 69.5091 51.9011C69.5055 51.9362 69.5091 51.9608 69.5231 51.9784C69.5372 51.996 69.5653 51.9995 69.5829 51.9995C69.6005 51.9995 69.6181 51.996 69.6391 51.9925C70.1454 51.8483 70.6411 51.7745 71.1121 51.7745C72.2371 51.7745 73.1899 52.1858 73.8718 52.9698C74.7261 53.9506 75.0636 55.4307 74.8246 57.1427C74.6417 58.4329 74.8035 59.5579 75.2957 60.4017L75.5382 60.8165C75.5453 60.8305 75.5664 60.841 75.6015 60.841Z" fill="#060607"/>
<path d="M75.6051 60.9218C75.6297 60.9218 75.6544 60.9183 75.6824 60.9113C75.7317 60.8972 75.7844 60.8691 75.8301 60.8339C75.9742 60.718 76.041 60.5422 75.9812 60.4402L75.7387 60.0254C75.2781 59.2309 75.1235 58.1762 75.2957 56.9738C75.5488 55.1633 75.1938 53.5989 74.2938 52.5653C73.5731 51.7357 72.5572 51.2998 71.3513 51.2998C70.8415 51.2998 70.3036 51.3806 69.7517 51.5353C69.597 51.581 69.4529 51.7357 69.4318 51.8869C69.4247 51.9431 69.4353 51.9959 69.4669 52.031C69.5091 52.0802 69.5795 52.0943 69.6673 52.0697C70.1665 51.9256 70.6552 51.8552 71.1157 51.8552C72.2161 51.8552 73.1477 52.2595 73.8122 53.0189C74.6489 53.9822 74.9793 55.4376 74.7438 57.125C74.5575 58.4329 74.7262 59.5789 75.2254 60.4366L75.468 60.8515C75.482 60.8797 75.5207 60.9218 75.6051 60.9218ZM71.3513 51.4615C72.5043 51.4615 73.4781 51.8798 74.1672 52.6709C75.0355 53.6657 75.3766 55.188 75.1305 56.9457C74.9547 58.1832 75.1164 59.2765 75.5946 60.1027L75.8371 60.5175C75.8441 60.5386 75.8125 60.6265 75.7246 60.6968C75.693 60.7214 75.6649 60.739 75.6332 60.746C75.6015 60.7566 75.591 60.7495 75.591 60.7495L75.3625 60.3453C74.8809 59.5156 74.7227 58.4082 74.902 57.1391C75.1445 55.4059 74.8001 53.9013 73.9317 52.9029C73.2356 52.1049 72.2618 51.6795 71.1122 51.6795C70.6341 51.6795 70.1314 51.7533 69.6181 51.901C69.6041 51.9044 69.5935 51.908 69.5865 51.908C69.6041 51.8166 69.699 51.7181 69.7939 51.69C70.3353 51.5388 70.8591 51.4615 71.3513 51.4615Z" fill="#060607"/>
<path d="M74.7606 62.2612C74.7782 62.2612 74.7957 62.2576 74.8169 62.2505C74.852 62.24 74.8837 62.226 74.9188 62.2014C75.0419 62.1135 75.1017 61.9764 75.0735 61.9096L74.5567 60.7038C74.2298 59.9374 74.1279 59.0057 74.2684 58.0144L74.4055 57.0335C74.62 55.4867 74.3177 54.1507 73.5512 53.2718C72.9361 52.5653 72.0677 52.1926 71.0412 52.1926C70.6017 52.1926 70.1411 52.2629 69.6631 52.3965C67.2409 53.0855 64.8397 55.4093 63.6902 58.1761C63.6691 58.2288 63.6655 58.2815 63.6831 58.3097C63.6936 58.3273 63.7182 58.3378 63.7464 58.3378C63.8554 58.3378 63.9925 58.2324 64.0452 58.1093C65.1069 55.55 67.3146 53.4055 69.533 52.7726C69.9724 52.6461 70.3978 52.5828 70.8021 52.5828C71.776 52.5828 72.5986 52.9414 73.1892 53.6164C73.9274 54.4636 74.2192 55.7468 74.0118 57.2269L73.8747 58.2077C73.7306 59.2483 73.8325 60.2256 74.1735 61.0236L74.6903 62.2295C74.6938 62.233 74.7044 62.2612 74.7606 62.2612Z" fill="#060607"/>
<path d="M74.7666 62.3454C74.7912 62.3454 74.8193 62.342 74.8439 62.3349C74.8861 62.3244 74.9283 62.3033 74.9705 62.2716C75.1182 62.1662 75.199 61.9904 75.1533 61.8779L74.6365 60.672C74.3131 59.9198 74.2181 59.0022 74.3553 58.0249L74.4924 57.044C74.7104 55.476 74.401 54.1156 73.617 53.2156C72.9877 52.4914 72.0983 52.1082 71.0436 52.1082C70.5971 52.1082 70.1261 52.1785 69.6445 52.3156C67.1977 53.0117 64.7754 55.3565 63.6188 58.1444C63.5837 58.2252 63.5872 58.3025 63.6188 58.3553C63.6364 58.38 63.6715 58.4186 63.7524 58.4186C63.893 58.4186 64.0617 58.292 64.1286 58.1374C65.1833 55.5991 67.3664 53.4723 69.5636 52.8465C69.9925 52.7234 70.4144 52.6602 70.8116 52.6602C71.7608 52.6602 72.5624 53.0082 73.1353 53.6655C73.8561 54.4952 74.1444 55.7538 73.9405 57.2092L73.8033 58.1901C73.6557 59.2482 73.7611 60.2361 74.1092 61.0517L74.626 62.2576C74.64 62.3138 74.6963 62.3454 74.7666 62.3454ZM71.0436 52.2699C72.0456 52.2699 72.8928 52.632 73.4904 53.3211C74.2428 54.1823 74.5381 55.4972 74.3237 57.0159L74.1866 57.9967C74.0459 59.0057 74.1479 59.9514 74.4819 60.7318L74.9987 61.9377C75.0056 61.9623 74.974 62.0607 74.8756 62.131C74.851 62.1486 74.8229 62.1627 74.7982 62.1696C74.7877 62.1732 74.7771 62.1767 74.7666 62.1767L74.2568 60.9849C73.9193 60.1974 73.8209 59.2412 73.9615 58.2112L74.0986 57.2304C74.3096 55.7257 74.0108 54.4214 73.255 53.5531C72.6502 52.857 71.803 52.4914 70.8081 52.4914C70.3932 52.4914 69.9608 52.5547 69.5144 52.6812C67.2714 53.3211 65.0461 55.4831 63.9739 58.0671C63.9317 58.1655 63.8262 58.2428 63.7559 58.2464C63.7594 58.2393 63.7594 58.2217 63.77 58.2006C64.909 55.455 67.2891 53.1523 69.6901 52.4668C70.1578 52.3402 70.6112 52.2699 71.0436 52.2699Z" fill="#060607"/>
<path d="M64.5328 67.8723C64.5504 67.8723 64.568 67.8687 64.589 67.8652C64.6277 67.8547 64.6665 67.8336 64.7051 67.8055C64.8246 67.714 64.8738 67.577 64.8422 67.5172C62.9367 64.0403 63.8754 59.3048 63.9176 59.108C63.9246 59.0694 63.9212 59.0377 63.9071 59.0166C63.893 58.999 63.8649 58.9919 63.8437 58.9919C63.682 59.0236 63.5555 59.1502 63.5309 59.2697C63.4887 59.4736 62.5114 64.2759 64.4695 67.8442C64.4766 67.8652 64.5012 67.8723 64.5328 67.8723Z" fill="#060607"/>
<path d="M64.5308 67.9558C64.5589 67.9558 64.5835 67.9524 64.6116 67.9453C64.6609 67.9312 64.7101 67.9066 64.7558 67.8715C64.8999 67.759 64.9703 67.5832 64.914 67.4777C63.0191 64.0255 63.9543 59.3217 63.9965 59.1248C64.0105 59.0615 64 59.0052 63.9683 58.9666C63.9402 58.9314 63.8945 58.9138 63.8417 58.9138C63.6414 58.9525 63.4832 59.0967 63.448 59.2549C63.4058 59.4588 62.418 64.2856 64.3937 67.8856C64.4077 67.9102 64.4465 67.9558 64.5308 67.9558ZM63.8312 59.0791C63.8312 59.0826 63.8312 59.0861 63.8312 59.0896C63.789 59.29 62.8433 64.05 64.7664 67.5551C64.7733 67.5762 64.7418 67.6676 64.6538 67.7379C64.6257 67.759 64.5941 67.7766 64.566 67.7836C64.5484 67.7906 64.5238 67.7871 64.5238 67.7871C62.5938 64.254 63.5676 59.4834 63.6097 59.283C63.6238 59.2057 63.7117 59.1108 63.8312 59.0791Z" fill="#060607"/>
<path d="M62.9373 67.5911C62.9549 67.5911 62.9725 67.5876 62.9935 67.5841C63.0287 67.5736 63.0674 67.556 63.1025 67.5278C63.222 67.44 63.2783 67.2993 63.2466 67.2361C62.2658 65.2005 62.417 62.0506 62.417 62.0189C62.417 61.9873 62.4135 61.9662 62.3994 61.9521C62.3854 61.9381 62.3608 61.9346 62.3467 61.9346C62.3256 61.9346 62.2974 61.9381 62.2694 61.9521C62.1428 61.9979 62.0303 62.135 62.0267 62.244C62.0197 62.374 61.8756 65.4924 62.8705 67.5629C62.874 67.5629 62.8846 67.5911 62.9373 67.5911Z" fill="#060607"/>
<path d="M62.936 67.6718C62.9606 67.6718 62.9853 67.6683 63.0134 67.6612C63.0591 67.6471 63.1048 67.6226 63.147 67.5945C63.2946 67.4855 63.3684 67.3096 63.3157 67.2006C62.3524 65.2003 62.4931 62.054 62.4966 62.0223C62.5001 61.9696 62.486 61.9239 62.458 61.8922C62.4087 61.8395 62.3243 61.836 62.2364 61.8677C62.0817 61.924 61.9481 62.089 61.9412 62.2332C61.9341 62.3668 61.7864 65.4992 62.7919 67.591C62.82 67.6438 62.8692 67.6718 62.936 67.6718ZM62.3454 62.0118C62.3314 62.0435 62.1873 65.225 63.1716 67.2711C63.1786 67.2957 63.147 67.3906 63.0521 67.4609C63.0239 67.482 62.9994 67.496 62.9712 67.503C62.9431 67.5135 62.929 67.5066 62.929 67.5066C61.9552 65.4675 62.1029 62.3738 62.1064 62.2438C62.1098 62.1734 62.1942 62.0645 62.2962 62.0259C62.3208 62.0154 62.3349 62.0118 62.3454 62.0118Z" fill="#060607"/>
<path d="M66.015 68.0056C66.0326 68.0056 66.0501 68.0022 66.0713 67.9986C66.1099 67.9881 66.1486 67.9669 66.1837 67.9388C66.3033 67.8474 66.356 67.7103 66.3208 67.6471L65.6529 66.3815C64.7705 64.7046 64.4717 62.6058 64.7916 60.3101L65.0095 58.7457C65.2978 56.6891 67.2701 54.5236 69.4075 53.9118C69.7837 53.8028 70.1528 53.7501 70.4973 53.7501C71.2531 53.7501 71.9001 54.0173 72.3219 54.5024C72.7754 55.0228 72.9512 55.7469 72.8317 56.5941L72.5856 58.366C72.3711 59.8988 72.5539 61.3085 73.1129 62.4441L73.6438 63.5198C73.6543 63.5409 73.6789 63.5515 73.714 63.5515C73.7633 63.5515 73.823 63.5269 73.8793 63.4882C73.9988 63.4003 74.055 63.2596 74.0235 63.1964L73.4926 62.1206C72.9477 61.0167 72.7719 59.6527 72.9758 58.1727L73.2219 56.4009C73.3485 55.4833 73.1621 54.7063 72.684 54.1544C72.2305 53.6341 71.5555 53.3599 70.7364 53.3599C70.3567 53.3599 69.9525 53.4196 69.5376 53.5391C67.147 54.2212 64.9392 56.6399 64.6193 58.9355L64.4014 60.5C64.0744 62.8483 64.3768 64.9963 65.2767 66.7049L65.9447 67.9705C65.9588 67.9951 65.9798 68.0056 66.015 68.0056Z" fill="#060607"/>
<path d="M66.0199 68.0902C66.0445 68.0902 66.0726 68.0867 66.0972 68.0797C66.143 68.0656 66.1921 68.041 66.2379 68.0058C66.382 67.8934 66.4559 67.7176 66.3996 67.6121L65.7316 66.3465C64.8563 64.6837 64.561 62.6025 64.8808 60.3243L65.0988 58.7599C65.38 56.735 67.3277 54.5976 69.437 53.9963C70.6006 53.6624 71.6729 53.8768 72.267 54.5624C72.703 55.0651 72.8717 55.7647 72.7592 56.5874L72.5131 58.3592C72.2952 59.906 72.4815 61.3334 73.051 62.4864L73.5819 63.5622C73.5959 63.5903 73.6346 63.6431 73.726 63.6431C73.7928 63.6431 73.8701 63.6149 73.9404 63.5622C74.0881 63.4532 74.1619 63.2774 74.1092 63.1684L73.5783 62.0927C73.0405 61.0064 72.8681 59.6564 73.072 58.194L73.3182 56.4221C73.4482 55.48 73.2549 54.6819 72.7592 54.1089C72.2916 53.571 71.5956 53.2827 70.7483 53.2827C70.3616 53.2827 69.9503 53.3425 69.5284 53.4656C67.1097 54.1546 64.8773 56.6049 64.5504 58.9287L64.3325 60.4931C64.002 62.8591 64.3078 65.0211 65.2148 66.7472L65.8828 68.0129C65.8933 68.041 65.932 68.0902 66.0199 68.0902ZM70.5057 53.6695C70.1506 53.6695 69.778 53.7256 69.3948 53.8346C67.2292 54.4534 65.2289 56.6506 64.9371 58.7354L64.7191 60.2997C64.3957 62.613 64.6981 64.7294 65.5875 66.4204L66.2554 67.6859C66.2625 67.707 66.2308 67.8019 66.1394 67.8722C66.1113 67.8934 66.0796 67.9109 66.055 67.918C66.034 67.925 66.0128 67.9215 66.0128 67.9215L65.359 66.6664C64.466 64.972 64.1672 62.8415 64.4942 60.5107L64.7122 58.9462C65.0285 56.6823 67.2081 54.2917 69.5706 53.6202C69.9784 53.5042 70.3757 53.4444 70.7483 53.4444C71.5463 53.4444 72.1967 53.7081 72.6327 54.2108C73.0967 54.7452 73.276 55.4975 73.1529 56.3904L72.9069 58.1623C72.6994 59.6564 72.8788 61.0381 73.4307 62.1595L73.9615 63.2352C73.9685 63.2598 73.9369 63.3547 73.8419 63.4215C73.7928 63.4568 73.7506 63.4708 73.726 63.4708L73.2022 62.4091C72.6503 61.2876 72.4709 59.8955 72.6818 58.3803L72.9279 56.6084C73.051 55.7366 72.8681 54.9878 72.3971 54.4499C71.9577 53.9472 71.2861 53.6695 70.5057 53.6695Z" fill="#060607"/>
<path d="M67.4752 67.5916C67.4929 67.5916 67.5105 67.5881 67.5315 67.5846C67.5773 67.5705 67.6229 67.5459 67.6651 67.5108C67.7776 67.4159 67.8198 67.2822 67.7812 67.2295L67.4401 66.7409C65.9882 64.6562 65.4539 61.9034 65.8898 58.7781L65.939 58.4372C66.1534 56.9149 67.6159 55.3047 69.1979 54.8548C69.4791 54.774 69.7498 54.7352 70.0065 54.7352C70.569 54.7352 71.0541 54.9357 71.3705 55.2978C71.708 55.688 71.8415 56.2258 71.7537 56.8586L71.3705 59.6113C71.1069 61.4991 71.4373 63.1515 72.3232 64.389L72.5236 64.6702C72.5341 64.6877 72.5587 64.6948 72.5869 64.6948C72.6431 64.6948 72.7135 64.6631 72.7767 64.6104C72.8892 64.5155 72.9279 64.3819 72.8928 64.3292L72.6923 64.048C71.831 62.8421 71.5076 61.2425 71.7642 59.4179L72.1475 56.6653C72.2459 55.9622 72.1017 55.3715 71.7361 54.9497C71.3916 54.5524 70.8748 54.3416 70.249 54.3416C69.9573 54.3416 69.6479 54.3872 69.3315 54.4786C67.4929 55.0025 65.7983 56.8621 65.5523 58.6235L65.503 58.9645C65.0566 62.1531 65.6015 64.955 67.0781 67.0748L67.419 67.5635C67.4225 67.581 67.4437 67.5916 67.4752 67.5916Z" fill="#060607"/>
<path d="M67.4716 67.6716C67.4962 67.6716 67.5208 67.6682 67.5489 67.6611C67.6052 67.6435 67.6614 67.6154 67.7106 67.5697C67.8512 67.4502 67.9075 67.2744 67.8407 67.176L67.4997 66.6873C66.0619 64.6201 65.5274 61.8886 65.9634 58.7844L66.0126 58.4433C66.22 56.9492 67.6579 55.3707 69.2118 54.9278C70.0731 54.6817 70.8606 54.8399 71.3 55.3461C71.6235 55.7153 71.7464 56.2356 71.6621 56.8437L71.2789 59.5965C71.0118 61.5019 71.3457 63.1753 72.2456 64.4338L72.4461 64.7151C72.4672 64.7432 72.5058 64.7749 72.5761 64.7749C72.6535 64.7749 72.7414 64.7361 72.8187 64.6693C72.9594 64.5498 73.0156 64.374 72.9453 64.2791L72.7449 63.9979C71.8941 62.8097 71.5777 61.2277 71.8308 59.4277L72.2141 56.6751C72.316 55.9508 72.1683 55.3321 71.7817 54.8926C71.4196 54.4778 70.8852 54.2563 70.2312 54.2563C69.9325 54.2563 69.6161 54.302 69.2891 54.3969C67.4223 54.9278 65.6998 56.8192 65.4501 58.612L65.4009 58.9531C64.9545 62.1628 65.5029 64.9858 66.9899 67.1232L67.331 67.6119C67.3591 67.64 67.3977 67.6716 67.4716 67.6716ZM70.0027 54.6466C69.7391 54.6466 69.4579 54.6888 69.1696 54.7696C67.5559 55.2301 66.0654 56.8683 65.8509 58.4222L65.8017 58.7632C65.3623 61.9096 65.9036 64.6834 67.3661 66.7857L67.7071 67.2744C67.7106 67.2885 67.6895 67.3728 67.6052 67.4466C67.5735 67.4748 67.5384 67.4924 67.5032 67.5029C67.4857 67.5099 67.461 67.5065 67.461 67.5065L67.1341 67.0283C65.6716 64.926 65.1337 62.1452 65.5732 58.9777L65.6224 58.6367C65.8649 56.9036 67.5349 55.0754 69.3418 54.5586C70.3227 54.2774 71.1804 54.4461 71.6621 55.0016C72.0137 55.4059 72.1473 55.9754 72.0524 56.6539L71.6691 59.4066C71.4125 61.2522 71.7359 62.8729 72.6113 64.0964L72.8117 64.3776C72.8152 64.3916 72.7941 64.476 72.7097 64.5463C72.657 64.592 72.6043 64.6096 72.5761 64.6096L72.3793 64.3389C71.5074 63.1155 71.1804 61.4843 71.4406 59.6211L71.8239 56.8683C71.9152 56.211 71.7781 55.6485 71.423 55.2407C71.0961 54.8575 70.5899 54.6466 70.0027 54.6466Z" fill="#060607"/>
<path d="M68.935 67.1724C68.9526 67.1724 68.9702 67.1689 68.9913 67.1654C69.0404 67.1513 69.0933 67.1197 69.1424 67.0739C69.2479 66.9756 69.2796 66.849 69.2374 66.8032L68.6151 66.1213C66.9592 64.3072 66.2843 61.6319 66.7097 58.591C66.8609 57.5082 67.9015 56.3656 69.0264 56.0457C69.2268 55.9894 69.4201 55.9613 69.603 55.9613C70.0073 55.9613 70.3553 56.1055 70.5838 56.3656C70.8263 56.6468 70.9213 57.0336 70.8616 57.487L70.4783 60.2292C70.2252 62.0362 70.3378 63.7026 70.8053 65.1756L71.0514 65.9525C71.0548 65.9631 71.0655 65.9947 71.1252 65.9947C71.1674 65.9947 71.2166 65.9771 71.2658 65.9455C71.3959 65.8611 71.4592 65.7204 71.4381 65.6467L71.192 64.8697C70.7314 63.4284 70.6224 61.8006 70.8685 60.0359L71.2518 57.2938C71.3255 56.7699 71.2201 56.3305 70.946 56.0176C70.6893 55.7223 70.3096 55.5676 69.842 55.5676C69.624 55.5676 69.392 55.6028 69.1565 55.6696C67.7784 56.0633 66.5058 57.4589 66.3229 58.7773C65.8871 61.8886 66.5761 64.6201 68.26 66.4657L68.8823 67.1478C68.8928 67.1689 68.9175 67.1724 68.935 67.1724Z" fill="#060607"/>
<path d="M68.9413 67.2531C68.9659 67.2531 68.9941 67.2496 69.0187 67.2425C69.082 67.225 69.1453 67.1863 69.2015 67.1336C69.3351 67.007 69.3807 66.8348 69.2999 66.7468L68.6776 66.0649C67.0395 64.2684 66.3715 61.6176 66.7934 58.6013C66.941 57.5467 67.9535 56.4358 69.0503 56.1229C69.6621 55.9471 70.214 56.0631 70.5233 56.4182C70.7518 56.6784 70.8398 57.044 70.78 57.4728L70.3967 60.215C70.1437 62.036 70.2526 63.7129 70.7272 65.1965L70.9734 65.9734C71.0085 66.0859 71.1666 66.107 71.3108 66.0121C71.462 65.9137 71.5534 65.7379 71.5148 65.6184L71.2687 64.8414C70.8117 63.4106 70.7061 61.797 70.9487 60.0427L71.3319 57.3006C71.4092 56.7557 71.2968 56.2881 71.0085 55.9576C70.6112 55.5006 69.9152 55.3635 69.1312 55.585C67.725 55.9858 66.4242 57.413 66.2379 58.7631C65.7984 61.899 66.4945 64.6551 68.196 66.5183L68.8183 67.2004C68.85 67.2391 68.8922 67.2531 68.9413 67.2531ZM69.6058 55.8732C69.416 55.8732 69.212 55.9049 69.0046 55.9612C67.8515 56.2916 66.7863 57.4623 66.6281 58.5767C66.1992 61.6423 66.8847 64.3422 68.5547 66.1738L69.1769 66.8558C69.1769 66.8664 69.1593 66.9402 69.0854 67.0106C69.0468 67.0457 69.0081 67.0703 68.9695 67.0808C68.9483 67.0879 68.9308 67.0879 68.9273 67.0843L68.3155 66.4094C66.6492 64.5813 65.9672 61.8743 66.3996 58.7877C66.5789 57.4974 67.8234 56.1299 69.1769 55.7467C69.894 55.5428 70.5303 55.6624 70.8819 56.0702C71.1385 56.3655 71.237 56.7838 71.1666 57.2795L70.7835 60.0216C70.5339 61.8005 70.6464 63.4388 71.1104 64.8942L71.3565 65.6711C71.3671 65.6993 71.3284 65.8047 71.2194 65.875C71.1843 65.8961 71.1491 65.9102 71.1244 65.9102L70.8819 65.1472C70.4144 63.6849 70.3054 62.0325 70.5585 60.2361L70.9417 57.4939C71.0085 57.0158 70.9066 56.6045 70.6464 56.3057C70.4074 56.028 70.0347 55.8732 69.6058 55.8732Z" fill="#060607"/>
<path d="M70.1172 66.5045C70.1348 66.5045 70.1524 66.501 70.1734 66.4975C70.2121 66.487 70.2508 66.4658 70.286 66.4412C70.4055 66.3499 70.4582 66.2127 70.4265 66.1495C69.6602 64.6484 69.4035 62.7745 69.6883 60.7391L70.1594 57.3571C70.198 57.0794 70.1419 56.8438 70.0012 56.6821C69.8676 56.5274 69.6637 56.4465 69.4176 56.4465C69.3016 56.4465 69.175 56.4641 69.0484 56.5028C68.2962 56.7172 67.6001 57.4766 67.5017 58.1973L67.3645 59.1887C67.2098 60.2855 67.1852 61.3508 67.2907 62.3492L67.3364 62.7886C67.34 62.8062 67.3434 62.8519 67.4137 62.8519C67.4454 62.8519 67.4805 62.8413 67.5157 62.8238C67.6528 62.757 67.7371 62.6128 67.7266 62.525L67.681 62.0855C67.579 61.1082 67.6036 60.0711 67.7548 58.9989L67.8919 58.0075C67.9587 57.5258 68.4192 57.0196 68.9184 56.8755C69.0098 56.8508 69.0977 56.8368 69.1786 56.8368C69.3684 56.8368 69.5301 56.9036 69.6391 57.0301C69.7516 57.1603 69.7973 57.3466 69.7692 57.5539L69.2981 60.9359C69.0063 63.0277 69.2664 64.9436 70.0504 66.4799C70.0575 66.494 70.0821 66.5045 70.1172 66.5045Z" fill="#060607"/>
<path d="M70.1164 66.5892C70.141 66.5892 70.1657 66.5857 70.1938 66.5787C70.2394 66.5646 70.2886 66.5399 70.3344 66.5084C70.4785 66.3994 70.5523 66.2236 70.4996 66.1146C69.7402 64.6275 69.4872 62.7713 69.7719 60.7499L70.243 57.3679C70.2852 57.0656 70.2218 56.8089 70.0637 56.6262C69.8457 56.373 69.4626 56.2957 69.0231 56.4187C68.2426 56.6402 67.5219 57.4312 67.4165 58.1835L67.2794 59.1749C67.1247 60.2788 67.1 61.351 67.202 62.3565L67.2477 62.7959C67.2618 62.9225 67.3989 62.9682 67.5465 62.8979C67.7048 62.8205 67.8172 62.6482 67.8067 62.5147L67.761 62.0753C67.659 61.1085 67.6836 60.0749 67.8348 59.0062L67.9719 58.0148C68.0352 57.5612 68.4676 57.0867 68.9422 56.953C69.2059 56.8793 69.445 56.9285 69.5785 57.0796C69.677 57.1922 69.7157 57.3539 69.6911 57.5366L69.22 60.9186C68.9246 63.0279 69.1883 64.9615 69.9793 66.5118C69.9864 66.5399 70.025 66.5892 70.1164 66.5892ZM69.4133 56.5242C69.6348 56.5242 69.8141 56.5945 69.9336 56.7316C70.0601 56.8793 70.1094 57.0902 70.0742 57.3434L69.6031 60.7252C69.3149 62.7818 69.575 64.6697 70.3484 66.1884C70.3555 66.2095 70.3238 66.3045 70.2325 66.3748C70.2043 66.3958 70.1762 66.4099 70.1481 66.4204C70.1164 66.431 70.1059 66.424 70.1059 66.424C69.343 64.9158 69.0863 63.0139 69.3782 60.9398L69.8492 57.5578C69.8809 57.3257 69.8282 57.1183 69.698 56.9706C69.5223 56.7667 69.2165 56.7 68.8895 56.7913C68.3622 56.9425 67.8735 57.4804 67.8032 57.9902L67.666 58.9815C67.5149 60.0643 67.4903 61.1085 67.5923 62.0893L67.638 62.5287C67.6414 62.5745 67.5817 62.6904 67.4727 62.7432C67.4516 62.7537 67.427 62.7608 67.4094 62.7608L67.3638 62.3353C67.2618 61.344 67.2864 60.2858 67.4375 59.196L67.5747 58.2046C67.6696 57.5156 68.3376 56.7843 69.0617 56.5769C69.1883 56.5418 69.3043 56.5242 69.4133 56.5242Z" fill="#060607"/>
<path d="M68.1945 64.5002C68.2121 64.5002 68.2297 64.4967 68.2472 64.4932C68.3984 64.4334 68.5074 64.2963 68.5109 64.1908L68.525 62.5807C68.5284 62.1834 68.5601 61.7722 68.6164 61.3538L69.1683 57.4128C69.1718 57.3777 69.1683 57.3531 69.1542 57.3355C69.1402 57.3179 69.112 57.3145 69.0945 57.3145C69.0769 57.3145 69.0593 57.3179 69.0383 57.3215C68.9152 57.3566 68.7957 57.4867 68.7781 57.6027L68.2262 61.5437C68.1664 61.9761 68.1348 62.4049 68.1313 62.8163L68.1172 64.4264C68.1172 64.4439 68.1207 64.4685 68.1348 64.4826C68.1523 64.4967 68.1769 64.5002 68.1945 64.5002Z" fill="#060607"/>
<path d="M68.1964 64.5851C68.221 64.5851 68.2457 64.5815 68.2703 64.5746C68.4566 64.5007 68.5937 64.339 68.5937 64.1913L68.6078 62.5812C68.6113 62.191 68.6429 61.7796 68.6992 61.3648L69.2511 57.4239C69.2582 57.3677 69.2476 57.315 69.216 57.2797C69.1738 57.2306 69.107 57.2165 69.0156 57.2411C68.8609 57.2868 68.7168 57.4415 68.6956 57.5926L68.1437 61.5336C68.084 61.973 68.0488 62.4019 68.0453 62.8168L68.0312 64.4269C68.0312 64.4866 68.0523 64.5253 68.0734 64.5429C68.1086 64.5675 68.1472 64.5851 68.1964 64.5851ZM69.0929 57.3923L68.5339 61.3367C68.4742 61.7621 68.4425 62.1769 68.4425 62.5742L68.4285 64.1843C68.4285 64.2546 68.3406 64.3636 68.221 64.4128C68.2176 64.4128 68.2105 64.4128 68.2035 64.4163L68.214 62.8097C68.2176 62.4019 68.2491 61.9801 68.3089 61.5477L68.8609 57.6067C68.8714 57.5259 68.9699 57.4204 69.0612 57.3923C69.0753 57.3923 69.0859 57.3923 69.0929 57.3923Z" fill="#060607"/>
<path d="M61.1121 64.4688C61.1296 64.4688 61.1472 64.4653 61.1649 64.4617C61.3159 64.4055 61.4249 64.2684 61.4249 64.1594L61.4425 62.9606C61.4425 62.9431 61.439 62.9184 61.4249 62.9009C61.4074 62.8868 61.3828 62.8833 61.3652 62.8833C61.3406 62.8833 61.3125 62.8903 61.2844 62.9009C61.1613 62.9501 61.0523 63.0872 61.0488 63.1962L61.0312 64.3949C61.0312 64.4125 61.0347 64.4371 61.0488 64.4547C61.0664 64.4653 61.091 64.4688 61.1121 64.4688Z" fill="#060607"/>
<path d="M61.1035 64.5536C61.1282 64.5536 61.1527 64.5502 61.1809 64.5431C61.3636 64.4728 61.5008 64.3111 61.5043 64.1634L61.5219 62.9647C61.5219 62.9154 61.5078 62.8767 61.4797 62.8452C61.427 62.7959 61.3461 62.7853 61.2512 62.8205C61.0929 62.8838 60.9629 63.0491 60.9629 63.1896L60.9453 64.3884C60.9453 64.4377 60.9594 64.4799 60.9875 64.508C61.0121 64.5396 61.0543 64.5536 61.1035 64.5536ZM61.3601 62.9647L61.3355 64.1565C61.3355 64.2267 61.2477 64.3357 61.1281 64.3814C61.1246 64.3814 61.1175 64.385 61.1105 64.385L61.1281 63.1896C61.1281 63.1228 61.2124 63.0103 61.3109 62.9717C61.3285 62.9682 61.3461 62.9647 61.3601 62.9647Z" fill="#060607"/>
<path d="M79.5639 53.0399L57.8203 65.2072V64.3599L79.5639 52.1926V53.0399Z" fill="#060607"/>
<path d="M77.6016 63.7478L77.809 63.3576L77.8055 63.354L77.6016 63.7478Z" fill="#060607"/>
<path d="M77.679 63.7872L77.925 63.3232L77.7773 63.2458L77.7351 63.3161L77.5312 63.7098L77.679 63.7872Z" fill="#060607"/>
<path d="M78.3848 62.1699L78.3882 62.1628L78.3707 62.1558L78.3672 62.1593L78.3848 62.1699Z" fill="#060607"/>
<path d="M78.4132 62.2719L78.466 62.1981L78.5011 62.1208L78.3499 62.054L78.2972 62.1243L78.2656 62.1981L78.4132 62.2719Z" fill="#060607"/>
<path d="M78.3926 62.1641L78.5684 61.7598L78.5472 61.7493L78.375 62.1571L78.3926 62.1641Z" fill="#060607"/>
<path d="M78.4167 62.265L78.4659 62.1982L78.6805 61.7166L78.5011 61.6428L78.2656 62.1982L78.4167 62.265Z" fill="#060607"/>
<path d="M79.0508 60.5327L79.0542 60.5257L79.0156 60.5151V60.5186L79.0508 60.5327Z" fill="#060607"/>
<path d="M79.1039 60.6372L79.1672 60.4755L78.9703 60.4087L78.9141 60.5633L79.1039 60.6372Z" fill="#060607"/>
<path d="M79.0543 60.5246L79.1985 60.1098L79.1563 60.0957L79.0156 60.514L79.0543 60.5246Z" fill="#060607"/>
<path d="M79.1074 60.6336L79.3113 60.057L79.111 59.9902L78.9141 60.5633L79.1074 60.6336Z" fill="#060607"/>
<path d="M79.5954 58.8477L79.5988 58.8407L79.5391 58.8267V58.8301L79.5954 58.8477Z" fill="#060607"/>
<path d="M79.6442 58.9499L79.6933 58.7846L79.4754 58.7249L79.4297 58.8831L79.6442 58.9499Z" fill="#060607"/>
<path d="M79.5988 58.8411L79.7113 58.4158L79.6481 58.3982L79.5391 58.8271L79.5988 58.8411Z" fill="#060607"/>
<path d="M79.6442 58.9434L79.8023 58.3528L79.5774 58.3L79.4297 58.8836L79.6442 58.9434Z" fill="#060607"/>
<path d="M79.9079 57.0999L79.9932 57.1212L79.9915 57.1279L79.9062 57.1066L79.9079 57.0999Z" fill="#060607"/>
<path d="M80.0515 57.2198L80.0937 57.0546L79.8406 57.0054L79.8125 57.1706L80.0515 57.2198Z" fill="#060607"/>
<path d="M79.9906 57.1188L80.075 56.6864L79.9766 56.6687L79.9062 57.1047L79.9906 57.1188Z" fill="#060607"/>
<path d="M80.0586 57.2166L80.1746 56.6154L79.9074 56.5732L79.8125 57.1708L80.0586 57.2166Z" fill="#060607"/>
<path d="M80.2769 55.3741V55.3705L80.1328 55.3564V55.36L80.2769 55.3741Z" fill="#060607"/>
<path d="M80.3449 55.466L80.3625 55.2973L80.0532 55.2656L80.0391 55.4309L80.3449 55.466Z" fill="#060607"/>
<path d="M80.277 55.3715L80.3226 54.9321L80.1644 54.918L80.1328 55.3574L80.277 55.3715Z" fill="#060607"/>
<path d="M80.3449 55.4627L80.4117 54.8545L80.0812 54.8298L80.0391 55.431L80.3449 55.4627Z" fill="#060607"/>
<path d="M80.3992 53.6064V53.6029L80.1953 53.5994V53.6064H80.3992Z" fill="#060607"/>
<path d="M80.4792 53.6906L80.4898 53.5184L80.1172 53.5149V53.6801L80.198 53.6871L80.4792 53.6906Z" fill="#060607"/>
<path d="M80.3984 53.6025L80.4055 53.156L80.1875 53.1596L80.1945 53.599L80.3984 53.6025Z" fill="#060607"/>
<path d="M80.4813 53.6835L80.4883 53.0718L80.1016 53.0788L80.1121 53.6835H80.4813ZM80.323 53.2405L80.3195 53.5183H80.2808L80.2738 53.244L80.323 53.2405Z" fill="#060607"/>
<path d="M80.3617 51.8308V51.8237L80.1016 51.8483V51.8518L80.3617 51.8308Z" fill="#060607"/>
<path d="M80.0262 51.936H80.1106L80.4516 51.9043L80.4411 51.7356L80.0156 51.7707L80.0262 51.936Z" fill="#060607"/>
<path d="M80.364 51.8245L80.3289 51.3816L80.0547 51.4132L80.1038 51.8491L80.364 51.8245Z" fill="#060607"/>
<path d="M80.0312 51.9367L80.4531 51.9016L80.4039 51.2898L79.9609 51.339L80.0312 51.9367ZM80.2773 51.7504L80.1789 51.7574L80.1473 51.4832L80.2527 51.4726L80.2773 51.7504Z" fill="#060607"/>
<path d="M80.1578 50.0591L80.1543 50.0557L79.8203 50.1189V50.1259L80.1578 50.0591Z" fill="#060607"/>
<path d="M79.7574 50.2167L79.8383 50.2062L80.2531 50.1253L80.2214 49.9565L79.7188 50.055L79.7574 50.2167Z" fill="#060607"/>
<path d="M80.1591 50.0557L80.0816 49.6162L79.7266 49.6935L79.825 50.1189L80.1591 50.0557Z" fill="#060607"/>
<path d="M79.7585 50.2174L80.2542 50.1225L80.1453 49.5178L79.625 49.6339L79.7585 50.2174ZM80.0609 49.9889L79.8851 50.0241L79.8218 49.7569L80.0116 49.7147L80.0609 49.9889Z" fill="#060607"/>
<path d="M79.7742 48.3158L79.7706 48.3123L79.3594 48.4388L79.3628 48.4459L79.7742 48.3158Z" fill="#060607"/>
<path d="M79.3027 48.5433L79.3836 48.5223L79.8687 48.3711L79.8265 48.2058L79.25 48.3852L79.3027 48.5433Z" fill="#060607"/>
<path d="M79.7664 48.3116L79.6363 47.8792L79.2109 48.0303L79.3551 48.4381L79.7664 48.3116Z" fill="#060607"/>
<path d="M79.3098 48.5401L79.8758 48.3643L79.6964 47.7737L79.1094 47.9776L79.3098 48.5401ZM79.6683 48.2553L79.4117 48.3362L79.3203 48.0795L79.5875 47.9882L79.6683 48.2553Z" fill="#060607"/>
<path d="M79.1699 46.621L79.1664 46.6174L78.6953 46.8354L78.6988 46.8389L79.1699 46.621Z" fill="#060607"/>
<path d="M78.6519 46.9443L78.7257 46.9161L79.2777 46.663L79.2003 46.5083L78.5781 46.7966L78.6519 46.9443Z" fill="#060607"/>
<path d="M79.168 46.6177L78.9816 46.2063L78.5 46.4524L78.6969 46.8356L79.168 46.6177Z" fill="#060607"/>
<path d="M78.6571 46.9443L79.2758 46.6595L79.0192 46.0935L78.3828 46.4134L78.6571 46.9443ZM79.0578 46.5787L78.7344 46.7298L78.6114 46.4908L78.9419 46.3256L79.0578 46.5787Z" fill="#060607"/>
<path d="M78.3372 45.0142L78.3336 45.0107L77.8203 45.3517V45.3553L78.3372 45.0142Z" fill="#060607"/>
<path d="M77.8023 45.4639L77.8726 45.4217L78.4562 45.0384L78.3683 44.8943L77.7109 45.3268L77.8023 45.4639Z" fill="#060607"/>
<path d="M78.3324 45.0104L78.0863 44.6272L77.5625 45.0033L77.8191 45.3514L78.3324 45.0104Z" fill="#060607"/>
<path d="M77.8012 45.4644L78.4515 45.0355L78.114 44.5117L77.4531 44.9863L77.8012 45.4644ZM78.223 44.9863L77.8398 45.2359L77.6816 45.0214L78.0648 44.7437L78.223 44.9863Z" fill="#060607"/>
<path d="M77.2496 43.5517L77.2461 43.5481L76.7188 44.0473H76.7222L77.2496 43.5517Z" fill="#060607"/>
<path d="M76.7254 44.1637L76.7886 44.111L77.3688 43.5555L77.2563 43.429L76.6094 44.0442L76.7254 44.1637Z" fill="#060607"/>
<path d="M77.2473 43.548L76.9309 43.2104L76.4141 43.7553L76.72 44.0472L77.2473 43.548Z" fill="#060607"/>
<path d="M76.7179 44.16L77.3578 43.5483L76.9254 43.0913L76.2891 43.7593L76.7179 44.16ZM77.1222 43.5448L76.7144 43.9315L76.5245 43.7522L76.9218 43.3339L77.1222 43.5448Z" fill="#060607"/>
<path d="M75.9035 42.3259L75.9064 42.3281L75.3933 42.9802L75.3906 42.978L75.9035 42.3259Z" fill="#060607"/>
<path d="M75.4296 43.1093L75.4789 43.046L75.9886 42.2937L75.8515 42.1882L75.2891 43.0179L75.4296 43.1093Z" fill="#060607"/>
<path d="M75.8731 42.3073L75.4828 42.0471L75.0469 42.7819L75.4055 42.9963L75.8731 42.3073Z" fill="#060607"/>
<path d="M75.4289 43.1054L75.9844 42.2863L75.4535 41.9277L74.9297 42.8101L75.4289 43.1054ZM75.7559 42.332L75.3797 42.884L75.1582 42.7539L75.5097 42.1633L75.7559 42.332Z" fill="#060607"/>
<path d="M74.2445 41.4109L74.2409 41.4075L73.9141 42.2864H73.9175L74.2445 41.4109Z" fill="#060607"/>
<path d="M73.9628 42.3916L73.9945 42.3142L74.3461 41.3651L74.1913 41.2947L73.8047 42.3353L73.9628 42.3916Z" fill="#060607"/>
<path d="M74.2399 41.4078L73.8004 41.2461L73.5156 42.1636L73.9129 42.2867L74.2399 41.4078Z" fill="#060607"/>
<path d="M73.9624 42.3884L74.3457 41.3618L73.748 41.1404L73.4141 42.2232L73.9624 42.3884ZM74.1312 41.4567L73.8605 42.1845L73.6214 42.1107L73.857 41.3548L74.1312 41.4567Z" fill="#060607"/>
<path d="M72.4515 40.9009H72.4481L72.2969 41.9309H72.3004L72.4515 40.9009Z" fill="#060607"/>
<path d="M72.2031 42.0119H72.3683L72.3824 41.9416L72.5477 40.8342L72.3789 40.7991L72.2031 42.0119Z" fill="#060607"/>
<path d="M72.4488 40.9007L71.9883 40.8303L71.8828 41.8921L72.2976 41.9307L72.4488 40.9007Z" fill="#060607"/>
<path d="M72.3621 42.0189L72.5379 40.8271L71.9121 40.7322L71.7891 41.9662L72.3621 42.0189ZM72.3481 40.9677L72.2216 41.8396L71.9684 41.815L72.0563 40.922L72.3481 40.9677Z" fill="#060607"/>
<path d="M70.6051 40.7432H70.6016L70.6332 41.8893H70.6367L70.6051 40.7432Z" fill="#060607"/>
<path d="M70.5508 41.9805L70.716 41.9629L70.7195 41.8856L70.6844 40.6587H70.5156L70.5508 41.9805Z" fill="#060607"/>
<path d="M70.5969 40.7432L70.1328 40.7502L70.2137 41.9244L70.6285 41.8893L70.5969 40.7432Z" fill="#060607"/>
<path d="M70.1382 42.0122L70.7183 41.9664L70.6796 40.6587L70.0469 40.6692L70.1382 42.0122ZM70.5461 41.8118L70.293 41.8329L70.2262 40.8309L70.5215 40.8239L70.5461 41.8118Z" fill="#060607"/>
<path d="M68.757 40.8835H68.75L68.968 42.1105H68.9715L68.757 40.8835Z" fill="#060607"/>
<path d="M68.9023 42.2087L69.0676 42.1771L69.057 42.0962L68.825 40.7954L68.6562 40.8095L68.9023 42.2087Z" fill="#060607"/>
<path d="M68.7504 40.8835L68.2969 40.9609L68.5606 42.2019L68.9684 42.1105L68.7504 40.8835Z" fill="#060607"/>
<path d="M68.5019 42.3035L69.0715 42.1769L68.8254 40.7917L68.2031 40.8973L68.5019 42.3035ZM68.8781 42.0469L68.6285 42.1031L68.4 41.0273L68.6882 40.9781L68.8781 42.0469Z" fill="#060607"/>
<path d="M66.9252 41.29L67.3826 42.5452L67.3793 42.5464L66.9219 41.2913L66.9252 41.29Z" fill="#060607"/>
<path d="M67.3016 42.659L67.4598 42.6098L67.4387 42.5289L67.0168 41.179L66.8516 41.2246L67.3016 42.659Z" fill="#060607"/>
<path d="M66.9551 41.2808L66.5156 41.4144L66.9586 42.6976L67.3523 42.5534L66.9551 41.2808Z" fill="#060607"/>
<path d="M66.9055 42.8031L67.4539 42.6062L67.0074 41.179L66.4062 41.3617L66.9055 42.8031ZM67.25 42.5043L67.0074 42.5922L66.6207 41.4707L66.8984 41.3863L67.25 42.5043Z" fill="#060607"/>
<path d="M65.2144 41.8855H65.2109L65.7839 43.1898L65.7875 43.1863L65.2144 41.8855Z" fill="#060607"/>
<path d="M65.745 43.2988L65.8997 43.232L65.868 43.1547L65.2634 41.78L65.1016 41.8398L65.745 43.2988Z" fill="#060607"/>
<path d="M65.2188 41.8855L64.7969 42.0648L65.4156 43.3726L65.7917 43.1898L65.2188 41.8855Z" fill="#060607"/>
<path d="M65.3766 43.4849L65.9039 43.2283L65.264 41.7764L64.6875 42.0224L65.3766 43.4849ZM65.6895 43.1509L65.4574 43.2635L64.9125 42.1103L65.1797 41.9944L65.6895 43.1509Z" fill="#060607"/>
<path d="M63.5582 42.6729L63.5547 42.6764L64.3 43.9842L64.3035 43.9807L63.5582 42.6729Z" fill="#060607"/>
<path d="M64.2679 44.0929L64.4155 44.0155L64.3769 43.9417L63.5929 42.5601L63.4453 42.6444L64.2679 44.0929Z" fill="#060607"/>
<path d="M63.5535 42.6765L63.1562 42.9015L63.9367 44.2022L64.2988 43.9842L63.5535 42.6765Z" fill="#060607"/>
<path d="M63.9117 44.3179L64.4144 44.012L63.5918 42.5601L63.0469 42.8695L63.9117 44.3179ZM64.1894 43.9557L63.9679 44.0893L63.2718 42.9328L63.5249 42.7887L64.1894 43.9557Z" fill="#060607"/>
<path d="M61.9957 43.6289L61.9922 43.6325L62.8887 44.9121L62.8921 44.9085L61.9957 43.6289Z" fill="#060607"/>
<path d="M62.8706 45.0251L63.0113 44.9372L62.9656 44.8633L62.0234 43.5134L61.8828 43.6119L62.8706 45.0251Z" fill="#060607"/>
<path d="M61.9933 43.6326L61.6172 43.8927L62.5488 45.1653L62.8898 44.9122L61.9933 43.6326Z" fill="#060607"/>
<path d="M62.5337 45.281L63.0047 44.9295L62.0133 43.5161L61.5 43.8748L62.5337 45.281ZM62.7762 44.8942L62.5688 45.049L61.7356 43.9134L61.9747 43.7482L62.7762 44.8942Z" fill="#060607"/>
<path d="M60.5269 44.7253H60.5234L61.564 45.9664L61.5675 45.9629L60.5269 44.7253Z" fill="#060607"/>
<path d="M61.5551 46.0863L61.6781 45.9739L61.6288 45.9106L60.5355 44.6099L60.3984 44.7118L61.5551 46.0863Z" fill="#060607"/>
<path d="M60.5269 44.7253L60.1719 45.0207L61.2547 46.2476L61.5676 45.9664L60.5269 44.7253Z" fill="#060607"/>
<path d="M61.2387 46.3677L61.6781 45.9739L60.5285 44.6099L60.0469 45.0106L61.2387 46.3677ZM61.4496 45.9599L61.2562 46.1321L60.2895 45.0317L60.5145 44.8454L61.4496 45.9599Z" fill="#060607"/>
<path d="M59.152 45.9421L59.1484 45.9457L60.3332 47.1339L60.3367 47.1304L59.152 45.9421Z" fill="#060607"/>
<path d="M60.332 47.2501L60.4481 47.1341L60.3918 47.0708L59.1473 45.8228L59.0312 45.9458L60.332 47.2501Z" fill="#060607"/>
<path d="M59.1515 45.9458L58.8281 46.2657L60.0445 47.4399L60.3363 47.134L59.1515 45.9458Z" fill="#060607"/>
<path d="M60.0503 47.556L60.4546 47.1307L59.1539 45.8264L58.7109 46.2659L60.0503 47.556ZM60.2226 47.1341L60.0433 47.3205L58.9464 46.2659L59.1504 46.062L60.2226 47.1341Z" fill="#060607"/>
<path d="M57.902 47.2744L57.8984 47.2779L59.1992 48.3853V48.3818L57.902 47.2744Z" fill="#060607"/>
<path d="M59.2059 48.4983L59.3218 48.3823L59.2586 48.3191L57.8946 47.1589L57.7891 47.2925L59.2059 48.4983Z" fill="#060607"/>
<path d="M57.9012 47.2781L57.6094 47.6296L58.9313 48.7124L59.202 48.3855L57.9012 47.2781Z" fill="#060607"/>
<path d="M58.9398 48.8289L59.3125 48.3754L57.8887 47.1626L57.4844 47.6407L58.9398 48.8289ZM59.0839 48.3965L58.9187 48.5969L57.7234 47.6196L57.9097 47.3981L59.0839 48.3965Z" fill="#060607"/>
<path d="M56.7614 48.7058L56.7578 48.7093L58.1535 49.7253L58.1571 49.7218L56.7614 48.7058Z" fill="#060607"/>
<path d="M58.1734 49.8411L58.2683 49.7075L58.2051 49.6547L56.746 48.593L56.6406 48.7266L58.1734 49.8411Z" fill="#060607"/>
<path d="M56.7594 48.7087L56.4922 49.0814L57.9125 50.0728L58.1551 49.7247L56.7594 48.7087Z" fill="#060607"/>
<path d="M57.9324 50.1892L58.2699 49.7076L56.7406 48.5967L56.375 49.1028L57.9324 50.1892ZM58.0414 49.7427L57.8902 49.9571L56.6071 49.0607L56.7758 48.8252L58.0414 49.7427Z" fill="#060607"/>
<path d="M55.7301 50.217L55.7266 50.2206L57.2102 51.1416L57.2137 51.1381L55.7301 50.217Z" fill="#060607"/>
<path d="M57.2414 51.2545L57.3257 51.1139L57.2589 51.0683L55.705 50.1016L55.6172 50.2492L57.2414 51.2545Z" fill="#060607"/>
<path d="M55.7312 50.2207L55.4922 50.6109L56.9968 51.5074L57.2147 51.1418L55.7312 50.2207Z" fill="#060607"/>
<path d="M57.0238 51.6196L57.3262 51.1134L55.702 50.1079L55.375 50.6388L57.0238 51.6196ZM57.1011 51.1697L56.9676 51.3946L55.6071 50.5861L55.7583 50.3399L57.1011 51.1697Z" fill="#060607"/>
<path d="M54.8238 51.7991L54.8203 51.8061L56.3847 52.6252V52.6217L54.8238 51.7991Z" fill="#060607"/>
<path d="M56.4153 52.7376L56.4961 52.59L56.4222 52.5478L54.7911 51.6899L54.7031 51.8376L56.4153 52.7376Z" fill="#060607"/>
<path d="M54.8168 51.8064L54.6094 52.2142L56.1843 53.0017L56.3813 52.6254L54.8168 51.8064Z" fill="#060607"/>
<path d="M56.2269 53.1139L56.5011 52.5901L54.789 51.6936L54.5078 52.2526L56.2269 53.1139ZM56.2761 52.6604L56.1565 52.8924L54.7328 52.1787L54.8628 51.9185L56.2761 52.6604Z" fill="#060607"/>
<path d="M54.0419 53.4543L55.6403 54.1512L55.6375 54.1575L54.0391 53.4607L54.0419 53.4543Z" fill="#060607"/>
<path d="M55.6769 54.2635L55.7472 54.1159L55.6734 54.0737L53.9965 53.3459L53.9297 53.5042L55.6769 54.2635Z" fill="#060607"/>
<path d="M54.0386 53.459L53.8594 53.8844L55.4695 54.5488L55.6382 54.1586L54.0386 53.459Z" fill="#060607"/>
<path d="M55.5148 54.6578L55.7468 54.1164L53.9926 53.3535L53.75 53.9301L55.5148 54.6578ZM55.5324 54.2008L55.4305 54.4399L53.975 53.8387L54.0875 53.5715L55.5324 54.2008Z" fill="#060607"/>
<path d="M53.3786 55.1638L53.375 55.1709L55.0062 55.7369V55.7333L53.3786 55.1638Z" fill="#060607"/>
<path d="M55.0593 55.8423L55.1121 55.6877L55.0383 55.6525L53.3297 55.0583L53.2734 55.2201L55.0593 55.8423Z" fill="#060607"/>
<path d="M53.3785 55.1711L53.2344 55.6035L54.8691 56.138L55.0097 55.7372L53.3785 55.1711Z" fill="#060607"/>
<path d="M54.9222 56.2425L55.1155 55.687L53.3297 55.0647L53.1328 55.6589L54.9222 56.2425ZM54.9011 55.7889L54.8168 56.035L53.3403 55.5499L53.4316 55.2756L54.9011 55.7889Z" fill="#060607"/>
<path d="M52.8516 56.9209V56.9244L54.4969 57.3603L54.5004 57.3533L52.8516 56.9209Z" fill="#060607"/>
<path d="M54.5569 57.459L54.5991 57.3007L54.5218 57.2726L52.7922 56.8191L52.75 56.9844L54.5569 57.459Z" fill="#060607"/>
<path d="M52.8547 56.9246L52.7422 57.3711L54.3945 57.7683L54.4999 57.3605L52.8547 56.9246Z" fill="#060607"/>
<path d="M54.4546 57.8705L54.6022 57.301L52.7917 56.8264L52.6406 57.4345L54.4546 57.8705ZM54.4019 57.417L54.3351 57.6701L52.8445 57.308L52.9148 57.0267L54.4019 57.417Z" fill="#060607"/>
<path d="M52.4688 58.7148V58.7219L54.121 59.0136V59.0102L52.4688 58.7148Z" fill="#060607"/>
<path d="M54.1855 59.1115L54.2172 58.9463L54.1363 58.9252L52.4032 58.6194L52.375 58.7881L54.1855 59.1115Z" fill="#060607"/>
<path d="M52.4731 58.7222L52.4062 59.1757L54.048 59.4323L54.1253 59.014L52.4731 58.7222Z" fill="#060607"/>
<path d="M54.1117 59.5266L54.2171 58.9465L52.3996 58.623L52.3047 59.2418L54.1117 59.5266ZM54.0238 59.0801L53.9745 59.3368L52.4945 59.1047L52.5367 58.8164L54.0238 59.0801Z" fill="#060607"/>
<path d="M52.2578 60.5388V60.5423L53.8679 60.69V60.6864L52.2578 60.5388Z" fill="#060607"/>
<path d="M53.9472 60.7813L53.9578 60.616L53.877 60.602L52.1824 60.4473L52.1719 60.6196L53.9472 60.7813Z" fill="#060607"/>
<path d="M52.2504 60.5417L52.2188 61.0023L53.8183 61.1113L53.8605 60.6895L52.2504 60.5417Z" fill="#060607"/>
<path d="M53.8976 61.1998L53.9538 60.6127L52.175 60.4509L52.1328 61.0767L53.8976 61.1998ZM53.7746 60.7638L53.75 61.0205L52.3157 60.922L52.3332 60.6303L53.7746 60.7638Z" fill="#060607"/>
<path d="M52.1953 62.374V62.381H53.7527V62.3775L52.1953 62.374Z" fill="#060607"/>
<path d="M53.8355 62.4653V62.3001L53.7511 62.293L52.1094 62.2896V62.4618L53.8355 62.4653Z" fill="#060607"/>
<path d="M52.1953 62.3813L52.2058 62.8384L53.7492 62.8067L53.7527 62.3813H52.1953Z" fill="#060607"/>
<path d="M52.1269 62.9264L53.8355 62.8878L53.839 62.3006L52.1094 62.2971L52.1269 62.9264ZM53.6702 62.7259L52.2886 62.7576L52.2816 62.4659L53.6737 62.4693L53.6702 62.7259Z" fill="#060607"/>
<path d="M52.3125 64.2095V64.2166L53.8066 64.0759V64.0688L52.3125 64.2095Z" fill="#060607"/>
<path d="M52.2293 64.3078L53.8886 64.1496L53.8781 63.9844L53.7937 63.9879L52.2188 64.1356L52.2293 64.3078Z" fill="#060607"/>
<path d="M52.3125 64.2167L52.3687 64.6738L53.8453 64.4945L53.8066 64.0762L52.3125 64.2167Z" fill="#060607"/>
<path d="M52.2918 64.7648L53.9265 64.568L53.8738 63.9844L52.2109 64.1426L52.2918 64.7648ZM53.7473 64.4238L52.436 64.5821L52.4008 64.2902L53.7261 64.1636L53.7473 64.4238Z" fill="#060607"/>
<path d="M52.625 66.0273V66.0308L54.0136 65.753V65.7461L52.625 66.0273Z" fill="#060607"/>
<path d="M52.5614 66.1289L54.1047 65.816L54.0766 65.6543L53.9922 65.6648L52.5156 65.9637L52.5614 66.1289Z" fill="#060607"/>
<path d="M52.6172 66.0304L52.7262 66.4804L54.0831 66.1675L54.0058 65.7527L52.6172 66.0304Z" fill="#060607"/>
<path d="M52.671 66.5789L54.1898 66.2308L54.0808 65.6543L52.5234 65.9672L52.671 66.5789ZM53.9964 66.1043L52.7941 66.382L52.7273 66.0972L53.9508 65.8511L53.9964 66.1043Z" fill="#060607"/>
<path d="M53.125 67.7991V67.8062L54.3906 67.3948L54.3871 67.3914L53.125 67.7991Z" fill="#060607"/>
<path d="M53.0769 67.9109L54.5008 67.4468L54.4515 67.2886L54.3706 67.3097L53.0312 67.7456L53.0769 67.9109Z" fill="#060607"/>
<path d="M53.125 67.8063L53.2867 68.2387L54.5136 67.7992L54.3906 67.395L53.125 67.8063Z" fill="#060607"/>
<path d="M53.2449 68.3433L54.6266 67.8475L54.4508 67.2886L53.0234 67.7526L53.2449 68.3433ZM54.4191 67.7456L53.3434 68.1323L53.2414 67.8582L54.3418 67.5031L54.4191 67.7456Z" fill="#060607"/>
<path d="M53.8516 69.4996L53.855 69.5067L54.973 68.9722V68.9688L53.8516 69.4996Z" fill="#060607"/>
<path d="M53.8152 69.6156L55.0772 69.0145L55.0104 68.8633L54.9296 68.8949L53.7344 69.4644L53.8152 69.6156Z" fill="#060607"/>
<path d="M53.8516 69.5068L54.066 69.9146L55.1453 69.3557L54.9695 68.9724L53.8516 69.5068Z" fill="#060607"/>
<path d="M54.0297 70.027L55.2531 69.3906L55.0071 68.8633L53.7344 69.468L54.0297 70.027ZM55.0352 69.3168L54.1001 69.8019L53.963 69.5418L54.9262 69.0847L55.0352 69.3168Z" fill="#060607"/>
<path d="M54.8125 71.0922L54.8161 71.0957L55.7582 70.4559L55.7547 70.4524L54.8125 71.0922Z" fill="#060607"/>
<path d="M54.7974 71.2088L55.8695 70.481L55.7852 70.3369L55.7114 70.3827L54.6953 71.0717L54.7974 71.2088Z" fill="#060607"/>
<path d="M54.8125 71.0969L55.0902 71.4661L55.9831 70.8052L55.7546 70.457L54.8125 71.0969Z" fill="#060607"/>
<path d="M55.075 71.5814L56.098 70.8221L55.7781 70.3369L54.6953 71.0717L55.075 71.5814ZM55.8695 70.7834L55.1066 71.3494L54.9273 71.1139L55.7289 70.5725L55.8695 70.7834Z" fill="#060607"/>
<path d="M56.0312 72.5025L56.0347 72.506L56.7695 71.7818L56.7659 71.7783L56.0312 72.5025Z" fill="#060607"/>
<path d="M56.0337 72.6217L56.8844 71.785L56.7719 71.6619L56.7086 71.7181L55.9141 72.4986L56.0337 72.6217Z" fill="#060607"/>
<path d="M56.0312 72.5062L56.3758 72.8191L57.0578 72.0773L56.766 71.782L56.0312 72.5062Z" fill="#060607"/>
<path d="M56.3852 72.9345L57.1727 72.0767L56.7719 71.6619L55.9141 72.5056L56.3852 72.9345ZM56.9441 72.0803L56.3747 72.7025L56.1567 72.5021L56.7683 71.8974L56.9441 72.0803Z" fill="#060607"/>
<path d="M57.5078 73.6445L57.5149 73.648L58.0175 72.8711H58.0141L57.5078 73.6445Z" fill="#060607"/>
<path d="M57.5375 73.7567L58.1246 72.8497L57.9875 72.7583L57.9383 72.8251L57.3828 73.6794L57.5375 73.7567Z" fill="#060607"/>
<path d="M57.5156 73.648L57.9234 73.88L58.3664 73.0996L58.0184 72.8711L57.5156 73.648Z" fill="#060607"/>
<path d="M57.9538 73.9923L58.4777 73.0712L57.996 72.7583L57.3984 73.6794L57.9538 73.9923ZM58.2527 73.1275L57.8906 73.7708L57.6304 73.6231L58.0418 72.9904L58.2527 73.1275Z" fill="#060607"/>
<path d="M59.2031 74.4182L59.2067 74.4217L59.4774 73.6483L59.4738 73.6448L59.2031 74.4182Z" fill="#060607"/>
<path d="M59.2633 74.5236L59.5867 73.5954L59.432 73.5427L59.4004 73.6201L59.1016 74.4743L59.2633 74.5236Z" fill="#060607"/>
<path d="M59.2031 74.4218L59.6496 74.5484L59.8675 73.789L59.4738 73.6484L59.2031 74.4218Z" fill="#060607"/>
<path d="M59.7098 74.6501L59.9734 73.7361L59.4285 73.5427L59.1016 74.4778L59.7098 74.6501ZM59.7695 73.838L59.5937 74.4427L59.3125 74.3619L59.5269 73.7501L59.7695 73.838Z" fill="#060607"/>
<path d="M61.0078 74.7872H61.0113L61.1027 74.0806H61.0992L61.0078 74.7872Z" fill="#060607"/>
<path d="M61.0827 74.8789L61.1953 74.0176L61.0336 73.9824L61.0195 74.0703L60.9141 74.8613L61.0827 74.8789Z" fill="#060607"/>
<path d="M61.0078 74.7881L61.4614 74.8234L61.5175 74.1413L61.0992 74.0815L61.0078 74.7881Z" fill="#060607"/>
<path d="M61.5398 74.9144L61.6101 74.0706L61.0301 73.9897L60.9141 74.8652L61.5398 74.9144ZM61.4308 74.2113L61.3852 74.735L61.1004 74.714L61.1707 74.1761L61.4308 74.2113Z" fill="#060607"/>
<path d="M62.8215 74.8116L62.825 74.808L62.8004 74.2034H62.7969L62.8215 74.8116Z" fill="#060607"/>
<path d="M62.739 74.8998L62.9078 74.8858L62.8762 74.1228H62.7109V74.2072L62.739 74.8998Z" fill="#060607"/>
<path d="M62.8215 74.8086L63.2715 74.77L63.2257 74.1934L62.7969 74.204L62.8215 74.8086Z" fill="#060607"/>
<path d="M62.7425 74.8997L63.3612 74.8436L63.3015 74.1052L62.7109 74.1228L62.7425 74.8997ZM63.182 74.6924L62.9007 74.717L62.8832 74.2845L63.1504 74.2775L63.182 74.6924Z" fill="#060607"/>
<path d="M64.6027 74.5522H64.6062L64.5113 74.053H64.5078L64.6027 74.5522Z" fill="#060607"/>
<path d="M64.545 74.6605L64.7067 74.6113L64.5836 73.9539L64.4219 73.989L64.4325 74.0699L64.545 74.6605Z" fill="#060607"/>
<path d="M64.6105 74.5516L65.0465 74.4497L64.941 73.9751L64.5156 74.0524L64.6105 74.5516Z" fill="#060607"/>
<path d="M64.5406 74.6538L65.1418 74.5132L65.0012 73.8804L64.4141 73.9858L64.5406 74.6538ZM64.9449 74.3901L64.6708 74.4534L64.6074 74.123L64.8711 74.0737L64.9449 74.3901Z" fill="#060607"/>
<path d="M66.3297 74.0666L66.3333 74.063L66.2067 73.6658H66.2031L66.3297 74.0666Z" fill="#060607"/>
<path d="M66.2774 74.1686L66.4391 74.1194L66.2598 73.564L66.1016 73.6096L66.1226 73.694L66.2774 74.1686Z" fill="#060607"/>
<path d="M66.3297 74.0628L66.748 73.9116L66.618 73.5354L66.2031 73.6655L66.3297 74.0628Z" fill="#060607"/>
<path d="M66.2808 74.1728L66.8574 73.9619L66.671 73.4346L66.1016 73.6104L66.2808 74.1728ZM66.6464 73.8635L66.3863 73.9584L66.3089 73.7228L66.5656 73.6419L66.6464 73.8635Z" fill="#060607"/>
<path d="M67.9808 73.3809H67.9844L67.8473 73.0786L67.8438 73.0821L67.9808 73.3809Z" fill="#060607"/>
<path d="M67.9418 73.5002L68.0894 73.4123L67.889 72.9729L67.7344 73.0327L67.7695 73.1136L67.9418 73.5002Z" fill="#060607"/>
<path d="M67.9808 73.3806L68.3781 73.1802L68.2445 72.906L67.8438 73.0782L67.9808 73.3806Z" fill="#060607"/>
<path d="M67.9383 73.4939L68.4867 73.2197L68.2828 72.7979L67.7344 73.0369L67.9383 73.4939ZM68.2652 73.1459L68.0192 73.269L67.9524 73.1247L68.2019 73.0158L68.2652 73.1459Z" fill="#060607"/>
<path d="M69.5406 72.5339H69.5442L69.4176 72.3159H69.4141L69.5406 72.5339Z" fill="#060607"/>
<path d="M69.5078 72.6496L69.6519 72.5618L69.4445 72.2031L69.2969 72.2805L69.3391 72.3579L69.5078 72.6496Z" fill="#060607"/>
<path d="M69.5406 72.5346L69.9168 72.299L69.7938 72.0986L69.4141 72.3166L69.5406 72.5346Z" fill="#060607"/>
<path d="M69.5156 72.6501L70.0359 72.3267L69.8285 71.9856L69.3047 72.2845L69.5156 72.6501ZM69.8074 72.2739L69.5718 72.418L69.5296 72.3442L69.7652 72.2071L69.8074 72.2739Z" fill="#060607"/>
<path d="M71.0151 71.5502H71.0222L70.9062 71.3921L71.0151 71.5502Z" fill="#060607"/>
<path d="M70.9931 71.6656L71.1372 71.5707L70.9262 71.2754L70.7891 71.3703L70.9931 71.6656Z" fill="#060607"/>
<path d="M71.0223 71.5493L71.3738 71.2821L71.2684 71.1379L70.9062 71.3911L71.0223 71.5493Z" fill="#060607"/>
<path d="M70.9965 71.6656L71.4852 71.2964L71.2813 71.0222L70.7891 71.3702L70.9965 71.6656ZM71.2531 71.2647L71.0352 71.43L71.0211 71.4089L71.2461 71.2507L71.2531 71.2647Z" fill="#060607"/>
<path d="M72.3926 70.4388L72.3961 70.4352L72.3083 70.3333H72.3047L72.3926 70.4388Z" fill="#060607"/>
<path d="M72.3809 70.5548L72.5074 70.4424L72.3106 70.2139L72.1875 70.3229L72.3809 70.5548Z" fill="#060607"/>
<path d="M72.3925 70.4352L72.7195 70.1399L72.6422 70.0486L72.3047 70.3333L72.3925 70.4352Z" fill="#060607"/>
<path d="M72.3843 70.5544L72.8379 70.1431L72.6481 69.9321L72.1875 70.3223L72.3843 70.5544Z" fill="#060607"/>
<path d="M73.6657 69.2113L73.6691 69.2077L73.6129 69.155L73.6094 69.1585L73.6657 69.2113Z" fill="#060607"/>
<path d="M73.668 69.3346L73.7805 69.2046L73.6117 69.0393L73.4922 69.1553L73.668 69.3346Z" fill="#060607"/>
<path d="M73.6657 69.2077L73.968 68.8913L73.9153 68.842L73.6094 69.1549L73.6657 69.2077Z" fill="#060607"/>
<path d="M73.6644 69.3277L74.0863 68.8883L73.9141 68.7266L73.4922 69.1554L73.6644 69.3277Z" fill="#060607"/>
<path d="M74.8391 67.9008L74.8426 67.8973L74.8004 67.8621L74.7969 67.8656L74.8391 67.9008Z" fill="#060607"/>
<path d="M74.8555 68.02L74.9574 67.8828L74.7957 67.7493L74.6797 67.8688L74.8555 68.02Z" fill="#060607"/>
<path d="M74.8469 67.8961L75.1246 67.5551L75.0859 67.5234L74.8047 67.8609L74.8469 67.8961Z" fill="#060607"/>
<path d="M74.8598 68.0171L75.243 67.546L75.0742 67.4089L74.6875 67.873L74.8598 68.0171Z" fill="#060607"/>
<path d="M75.9223 66.5011V66.4976L75.8942 66.4766L75.8906 66.48L75.9223 66.5011Z" fill="#060607"/>
<path d="M75.9351 66.6175L76.0335 66.4804L75.8718 66.3645L75.7734 66.498L75.9351 66.6175Z" fill="#060607"/>
<path d="M75.9187 66.4983L76.1718 66.1362L76.1472 66.1187L75.8906 66.4772L75.9187 66.4983Z" fill="#060607"/>
<path d="M75.9387 66.6139L76.2867 66.1147L76.125 66.0022L75.7734 66.4979L75.9387 66.6139Z" fill="#060607"/>
<path d="M76.8899 65.0261V65.0224L76.875 65.0149V65.0186L76.8899 65.0261Z" fill="#060607"/>
<path d="M76.8949 65.1308L76.9547 65.0676L77.0003 64.9972L76.8562 64.9058L76.8 64.9726L76.7578 65.0429L76.8949 65.1308Z" fill="#060607"/>
<path d="M76.8813 65.0218L77.1063 64.6421L77.0957 64.6387L76.8672 65.0148L76.8813 65.0218Z" fill="#060607"/>
<path d="M76.8985 65.1297L76.9582 65.0629L77.2219 64.6129L77.0812 64.5286L77.0285 64.5919L76.7578 65.0419L76.8985 65.1297Z" fill="#060607"/>
<path d="M64.374 94.359L64.3704 94.3624L65.6887 95.1745L66.1247 94.5066C66.4305 94.4222 66.7505 94.2886 67.0844 94.0988C69.0953 92.9457 70.7054 90.2598 70.6913 88.1013C70.6913 87.9149 70.6738 87.7462 70.6491 87.581L71.1062 86.8779L69.8899 86.1361C69.7879 86.0552 69.6753 85.9884 69.5558 85.9322L69.5453 85.9251V85.9286C68.8879 85.6298 67.9984 85.7247 67.0212 86.2837C65.0137 87.4403 63.4002 90.1227 63.4142 92.2812C63.4212 93.2902 63.7868 94.0003 64.374 94.359Z" fill="#060607"/>
<path d="M72.0136 99.0057C72.0066 98.2324 71.8449 97.5433 71.5602 96.9703L71.7289 96.4957C71.7289 96.4957 70.4879 95.7293 70.4422 95.7012L70.2875 95.6097C69.4332 95.1563 68.3258 95.1703 67.113 95.8699C64.4165 97.4168 62.2369 101.716 62.258 104.613L63.6712 105.488L66.8106 102.571L66.1884 102.353L72.0136 99.0057Z" fill="#060607"/>
<path d="M68.4351 87.1587C66.4278 88.3153 64.8141 90.9977 64.8282 93.1562C64.8458 95.3148 66.4875 96.1305 68.4985 94.9738C70.5093 93.8207 72.1195 91.1348 72.1054 88.9763C72.0878 86.8212 70.4461 86.0092 68.4351 87.1587Z" fill="#C2C7CB"/>
<path d="M66.7692 95.5933C67.3106 95.5933 67.9188 95.414 68.5375 95.059C70.566 93.8918 72.2078 91.1672 72.1902 88.9806C72.1832 87.954 71.8105 87.1806 71.1461 86.8009C70.4254 86.3861 69.4164 86.488 68.3794 87.0821C66.3509 88.2493 64.7091 90.9774 64.7267 93.1606C64.7337 94.1871 65.1064 94.9641 65.7708 95.3437C66.0626 95.5089 66.4036 95.5933 66.7692 95.5933ZM70.1477 86.7341C70.4851 86.7341 70.7911 86.808 71.0547 86.9592C71.6593 87.3072 71.9968 88.0244 72.0039 88.9806C72.018 91.1075 70.4219 93.7617 68.4426 94.8972C67.4653 95.4562 66.5267 95.5616 65.8622 95.1819C65.2576 94.8339 64.9201 94.1168 64.9095 93.1606C64.8955 91.0372 66.4914 88.3829 68.4707 87.2439C69.0649 86.9029 69.6379 86.7341 70.1477 86.7341Z" fill="#060607"/>
<path d="M68.5192 96.7426C65.8228 98.2895 63.6431 102.589 63.6642 105.486L73.4199 99.882C73.3987 96.9887 71.2121 95.1923 68.5192 96.7426Z" fill="#C2C7CB"/>
<path d="M63.5783 105.643L63.7154 105.563L73.5202 99.9342V99.8815C73.5096 98.3276 72.8768 97.0409 71.8257 96.4398C70.8695 95.8913 69.6812 95.9686 68.4789 96.6612C65.6489 98.2819 63.5571 102.659 63.5783 105.485V105.643ZM73.3338 99.8288L63.7646 105.324C63.8244 102.596 65.8915 98.3593 68.5703 96.8229C69.7129 96.1656 70.8343 96.0883 71.7308 96.6015C72.7116 97.164 73.3093 98.3663 73.3338 99.8288Z" fill="#060607"/>
<path d="M78.9894 74.1687C79.4676 74.8367 82.1077 74.1793 82.1077 72.1086C82.1077 70.495 80.3465 65.5908 79.2707 66.1252C78.5043 66.5084 77.5234 69.8306 77.5234 69.8306C77.534 70.2348 77.6114 70.6321 77.7519 71.0118C78.1246 72.0137 78.8664 74 78.9894 74.1687Z" fill="#060607"/>
<path d="M67.5695 58.5172C67.3059 57.9091 67.2251 57.2236 67.7172 56.7841C68.357 56.2111 70.7581 57.9336 71.6968 58.679C73.2577 59.9235 78.8017 63.0418 78.8017 63.0418C78.8017 63.0418 79.8985 62.0574 80.6263 61.9203C82.4825 61.5793 83.0169 62.2262 83.6251 62.4476C84.1313 62.6305 84.2157 62.6903 84.7289 62.532C86.3601 62.0399 87.3551 62.314 88.2445 62.7605C88.4238 62.852 88.9686 63.2456 89.1656 63.2141C91.3768 62.8379 92.7128 64.1281 93.342 64.6906C96.2284 67.271 99.238 73.1771 104.838 76.1934L97.7046 85.5341C97.7046 85.5341 87.3058 80.4753 85.2598 79.4207C84.6762 79.1184 84.0575 78.9074 83.4107 78.7844C81.3892 78.4047 76.8084 77.5505 75.2334 77.35C73.0503 77.0723 70.3223 76.9071 70.5578 75.652C70.7652 74.5482 71.31 74.3196 72.4104 73.9329C74.7588 73.1068 77.4095 73.9611 79.3502 73.3247C80.454 72.9627 80.8724 71.4651 80.1517 70.3857C79.2271 69.0006 76.1158 66.2338 73.4546 64.1281C72.1187 63.0734 68.1391 59.8285 67.5695 58.5172Z" fill="#DBE0E6"/>
<path d="M97.7337 85.675L97.79 85.6011L105.001 76.1583L104.885 76.0951C101.204 74.1123 98.5953 70.8077 96.4962 68.15C95.3677 66.7226 94.3943 65.4886 93.4098 64.6063L93.3395 64.5429C92.6856 63.9559 91.3251 62.7324 89.1384 63.1016C89.033 63.1192 88.6638 62.8872 88.5056 62.7887C88.4143 62.7324 88.3368 62.6833 88.2877 62.6587C87.4298 62.2297 86.4033 61.9063 84.6877 62.4231C84.2448 62.5567 84.1604 62.5251 83.7561 62.3774L83.6542 62.3387C83.5311 62.2931 83.4046 62.2263 83.271 62.1559C82.7753 61.8922 82.0933 61.5301 80.5992 61.8044C79.9417 61.9274 79.0242 62.6868 78.7816 62.8977C78.1383 62.5356 73.2025 59.7337 71.761 58.5841C71.2091 58.1447 68.4213 55.9897 67.6373 56.6928C67.1803 57.1041 67.1171 57.765 67.4615 58.5524C68.0733 59.9622 72.5028 63.513 73.3817 64.209C75.9446 66.2339 79.1262 69.0499 80.0543 70.4421C80.4023 70.9624 80.4902 71.6198 80.2863 72.2069C80.1175 72.699 79.759 73.0682 79.3089 73.2158C78.4195 73.5076 77.3719 73.4796 76.2575 73.4479C74.9672 73.4127 73.6349 73.3775 72.3658 73.824C71.2513 74.2178 70.6572 74.4744 70.4428 75.6275C70.397 75.863 70.4462 76.081 70.5833 76.2673C71.0966 76.967 72.8122 77.1673 74.4751 77.3642C74.7247 77.3923 74.9743 77.424 75.2133 77.4555C76.7215 77.6489 80.9789 78.4364 83.3835 78.8899C84.0198 79.0095 84.6315 79.2204 85.201 79.5157C87.226 80.5598 97.5439 85.5801 97.65 85.6292L97.7337 85.675ZM104.667 76.2322L97.6669 85.3972C96.686 84.9191 87.2295 80.3173 85.3064 79.3258C84.7158 79.02 84.0831 78.8021 83.4291 78.679C81.021 78.2255 76.7602 77.438 75.245 77.2446C75.0025 77.213 74.7528 77.1849 74.5032 77.1533C72.9669 76.9704 71.2232 76.7631 70.7662 76.1442C70.6642 76.0072 70.6326 75.8525 70.6642 75.6767C70.8576 74.6397 71.3498 74.4252 72.4431 74.042C73.6736 73.6096 74.9849 73.6447 76.2539 73.6799C77.3859 73.7115 78.4511 73.7396 79.3793 73.4338C79.8961 73.265 80.3038 72.8467 80.4972 72.2878C80.7222 71.6374 80.6238 70.9061 80.2406 70.3295C79.2984 68.9199 76.0958 66.0828 73.5188 64.0437C72.6435 63.3513 68.256 59.8357 67.6619 58.4751C67.4475 57.983 67.2963 57.3045 67.7815 56.8685C68.2314 56.4643 70.0526 57.5189 71.6205 58.767C73.1708 60.0044 78.6832 63.1086 78.7394 63.1403L78.8098 63.1789L78.8695 63.1262C78.8801 63.1157 79.9523 62.1595 80.6413 62.0329C82.0616 61.7727 82.6769 62.0997 83.169 62.3598C83.3096 62.4336 83.4398 62.5039 83.5803 62.5532L83.6823 62.5919C84.1112 62.7501 84.2412 62.7992 84.7545 62.6411C86.3928 62.1454 87.3737 62.4548 88.1892 62.8626C88.2349 62.8872 88.3087 62.9294 88.3896 62.9821C88.7306 63.193 89.0048 63.3547 89.1771 63.3231C91.2583 62.968 92.5626 64.1457 93.1918 64.7082L93.2621 64.7715C94.2327 65.6398 95.2024 66.8668 96.3243 68.287C98.412 70.9377 101.007 74.2213 104.667 76.2322Z" fill="#060607"/>
<path d="M80.1523 70.3902C80.7253 71.2479 80.5812 72.3905 79.9379 72.9881C81.3089 72.053 80.9468 70.8366 80.6866 70.1229C80.1488 68.6429 77.9797 66.8184 76.7703 65.8586C74.7665 64.2626 74.422 63.9848 72.3196 62.5294C71.8803 62.227 70.72 61.1478 69.6619 60.1563C68.4103 58.9822 67.303 57.8221 67.7178 56.7815C67.2292 57.2349 67.303 57.91 67.5667 58.5182C68.1362 59.8295 72.1193 63.0743 73.4552 64.1324C76.1164 66.2383 79.2277 69.0086 80.1523 70.3902Z" fill="#060607"/>
<path d="M94.6166 81.5378C92.9893 81.2108 92.3389 80.68 90.8272 79.9944C89.6531 79.4637 88.4472 78.6585 83.7962 77.7481C82.8364 77.5582 77.0603 76.9852 75.401 76.8726C74.3745 76.8023 69.6004 77.2664 70.982 74.6614C70.7571 74.9391 70.5988 75.2696 70.5531 75.6598C70.402 76.9289 73.0456 77.0801 75.2288 77.3578C76.8037 77.5582 81.381 78.409 83.4059 78.7921C84.0528 78.9152 84.675 79.1262 85.2586 79.4284C87.3047 80.4831 92.3179 83.0424 93.1686 83.2077C95.0564 83.5803 96.1143 83.503 98.1392 81.6152C96.9553 81.7593 95.7704 81.7698 94.6166 81.5378Z" fill="#060607"/>
<path d="M120.041 78.7695L107.192 71.5662C105.856 70.8244 104.028 70.9475 102.01 72.1111C97.9215 74.47 94.6094 80.2074 94.6094 84.9288C94.6094 87.3158 95.4569 88.9858 96.8249 89.7451L109.65 96.9309L120.041 78.7695Z" fill="#00C5F6"/>
<path d="M109.696 97.0975L109.756 96.9921L120.204 78.7252L107.25 71.4621C105.819 70.6641 103.934 70.8609 101.945 72.007C97.8312 74.38 94.4844 80.1771 94.4844 84.9267C94.4844 87.2855 95.2934 89.0328 96.7629 89.8484L109.696 97.0975ZM119.874 78.8167L109.605 96.7705L96.886 89.641C95.4973 88.8675 94.7306 87.1942 94.7306 84.9302C94.7306 80.258 98.021 74.5558 102.071 72.218C103.984 71.114 105.783 70.9207 107.133 71.673L119.874 78.8167Z" fill="#060607"/>
<path d="M114.732 79.337C110.646 81.696 107.345 87.4123 107.359 92.1091C107.373 96.8059 110.695 98.6972 114.78 96.3383C118.866 93.9794 122.167 88.263 122.152 83.5663C122.138 78.873 118.816 76.9782 114.732 79.337Z" fill="#060607"/>
</g>
<defs>
<linearGradient id="paint0_linear_779_6" x1="57.6146" y1="121.537" x2="33.0457" y2="78.9817" gradientUnits="userSpaceOnUse">
<stop stop-color="#CBCDD1"/>
<stop offset="1" stop-color="#AFAFB5" stop-opacity="0"/>
</linearGradient>
</defs>
</svg>
