<svg width="140" height="140" viewBox="0 0 140 140" fill="none" xmlns="http://www.w3.org/2000/svg">
<path d="M34.9688 90.6913L72.7361 112.416L140.001 70.6769L103.301 49.6868L34.9688 90.6913Z" fill="url(#paint0_linear_779_6)"/>
<path d="M33.391 52.6641L71.4905 30.6684C71.8728 30.4471 72.0841 30.1554 72.1042 29.8638V41.5807C72.1343 41.9126 71.9231 42.2546 71.4804 42.506L41.7514 59.6742C38.2402 61.6959 33.8035 60.4084 31.8216 56.8783C31.8115 56.8581 31.8015 56.848 31.7914 56.828C30.9463 55.4098 31.5802 53.7001 33.391 52.6641Z" fill="#96999E"/>
<path d="M38.1883 60.7502C37.5444 60.7502 36.8905 60.6597 36.2567 60.4887C34.325 59.9557 32.7154 58.6985 31.7294 56.9384L31.7093 56.9083C31.327 56.2646 31.2163 55.5606 31.3974 54.8566C31.6288 53.9614 32.3129 53.1467 33.329 52.5634L71.4285 30.5676C71.7706 30.3765 71.9718 30.115 71.9919 29.8535L72.0019 29.7529H72.2233V29.8636V41.5806C72.2635 41.9628 72.012 42.3349 71.5492 42.6065L41.8101 59.7747C40.6934 60.4184 39.4459 60.7502 38.1883 60.7502ZM33.4397 52.7545C32.4739 53.3076 31.8301 54.072 31.6087 54.9068C31.4377 55.5404 31.5382 56.1841 31.8803 56.7674L31.9105 56.8278C32.8663 58.5375 34.4257 59.7546 36.297 60.2674C38.1279 60.7703 40.0395 60.5189 41.6793 59.5735L71.4084 42.4153C71.7907 42.1941 72.0019 41.8924 71.9718 41.5907V30.3866C71.8611 30.5274 71.7102 30.6481 71.5191 30.7587L33.4397 52.7545Z" fill="#060607"/>
<path d="M30.9642 59.0608C34.8777 61.3237 40.4412 61.3037 44.3549 59.0407L82.7058 37.1555C83.1182 36.9141 83.3295 36.6023 83.3295 36.2905V77.6773C83.3195 77.979 83.1082 78.2908 82.7058 78.5121L44.6768 100.498C40.7632 102.761 34.3848 102.761 30.4612 100.498C28.5697 99.4015 27.6643 97.9734 27.5335 96.5352C27.5335 96.4848 27.5234 54.736 27.5234 54.736C27.5234 56.2347 29.0124 57.9243 30.9642 59.0608Z" fill="#96999E"/>
<path d="M37.5652 102.308C34.9696 102.308 32.374 101.735 30.402 100.598C28.6213 99.5725 27.5649 98.1343 27.4141 96.5552C27.4141 96.4949 27.4141 67.2979 27.4141 54.7461H27.6354C27.6354 56.1139 28.9634 57.7734 31.0158 58.9602C34.9092 61.213 40.3721 61.2031 44.2957 58.94L82.6568 37.0549C83.0189 36.8437 83.2201 36.5621 83.2201 36.2905H83.4415V77.6772C83.4314 78.0393 83.19 78.3712 82.7674 78.6126L44.7283 100.588C42.7565 101.735 40.1608 102.308 37.5652 102.308ZM27.6354 55.8121C27.6354 62.3395 27.6354 96.3139 27.6455 96.5352C27.7863 98.0337 28.8024 99.4015 30.5128 100.397C34.3961 102.64 40.7242 102.64 44.6076 100.397L82.6467 78.4014C82.9989 78.2002 83.2 77.9387 83.2101 77.6572V36.8738C83.0994 37.0147 82.9485 37.1354 82.7573 37.246L44.4164 59.1312C40.4325 61.4343 34.879 61.4444 30.9151 59.1513C29.2953 58.216 28.1083 56.989 27.6354 55.8121Z" fill="#060607"/>
<path d="M30.3726 50.9236L68.4821 28.9277C69.3172 28.445 70.6653 28.445 71.4902 28.9277C72.3252 29.4105 72.3252 30.1849 71.4902 30.6677L33.3908 52.6635C31.1272 53.9709 31.1272 56.0931 33.3908 57.4006C35.6544 58.7081 39.3366 58.7081 41.6002 57.4006L79.6997 35.4048C80.5347 34.9221 81.8828 34.9221 82.7079 35.4048C83.5429 35.8876 83.5429 36.6619 82.7079 37.1447L44.6084 59.1406C40.6847 61.4035 35.0609 62.5199 30.3726 59.1406C26.7005 56.4854 26.449 53.1865 30.3726 50.9236Z" fill="#060607"/>
<mask id="mask0_779_6" style="mask-type:luminance" maskUnits="userSpaceOnUse" x="31" y="24" width="52" height="35">
<path d="M33.3852 57.4011C35.6488 58.7086 39.331 58.7086 41.5947 57.4011L79.6941 35.4053C80.5291 34.9225 81.8773 34.9225 82.7022 35.4053L71.4847 28.9282L66.1425 24L33.3349 43.2903L33.3852 52.664C31.1216 53.9714 31.1216 56.0936 33.3852 57.4011Z" fill="white"/>
</mask>
<g mask="url(#mask0_779_6)">
<path d="M38.0011 44.3762L59.1383 32.1663V56.3446L33.8359 70.9582V51.5874C33.8359 48.6103 35.4256 45.8646 38.0011 44.3762Z" fill="#DBE0E6"/>
<path d="M33.7266 71.1491V51.5873C33.7266 48.5801 35.3463 45.7841 37.9419 44.2855L59.2603 31.9751V56.4149L59.1999 56.4451L33.7266 71.1491ZM38.0526 44.4766C35.5173 45.935 33.9478 48.6605 33.9478 51.5873V70.767L59.0289 56.2841V32.3673L38.0526 44.4766Z" fill="#060607"/>
<path d="M34.0796 71.2601C33.9288 71.1696 33.8281 71.0086 33.8281 70.8376V53.4382C33.8281 51.487 34.8443 49.6767 36.4841 48.7211L55.3478 37.8389C55.4987 37.7484 55.6898 37.7484 55.8407 37.8389C55.9916 37.9294 56.0922 38.0903 56.0922 38.2714V58.5675C56.0922 58.7385 56.0017 58.9094 55.8407 58.9899L34.5727 71.2601C34.4922 71.3003 34.4116 71.3305 34.3212 71.3305C34.2406 71.3204 34.1601 71.3003 34.0796 71.2601ZM55.0963 39.1162L36.9771 49.576C35.6491 50.3505 34.8242 51.829 34.8242 53.4382V69.9828L55.1063 58.2758V39.1162H55.0963Z" fill="#060607"/>
<path d="M40.1261 41.3592L61.2734 29.1594V53.3377L35.9609 67.9413V48.5705C35.9609 45.5935 37.5506 42.8478 40.1261 41.3592Z" fill="#DBE0E6"/>
<path d="M35.8516 68.1419V48.57C35.8516 45.5628 37.4714 42.7667 40.0669 41.2682L61.3853 28.9578V53.3975L61.325 53.4277L35.8516 68.1419ZM40.1273 41.3587L40.1876 41.4593C37.6524 42.9176 36.0829 45.6432 36.0829 48.57V67.7496L61.164 53.2769V29.35L40.1776 41.4593L40.1273 41.3587Z" fill="#060607"/>
<path d="M36.2025 68.2437C36.0515 68.1532 35.9609 67.9923 35.9609 67.8213V50.4217C35.9609 48.4706 36.9771 46.6603 38.6169 45.7048L57.4705 34.8225C57.6214 34.732 57.8126 34.732 57.9635 34.8225C58.1144 34.9131 58.215 35.074 58.215 35.255V55.5511C58.215 55.7322 58.1244 55.8931 57.9635 55.9836L36.6954 68.2437C36.6149 68.2839 36.5344 68.3142 36.4439 68.3142C36.3634 68.3142 36.2829 68.294 36.2025 68.2437ZM57.219 36.0999L39.0999 46.5597C37.7718 47.3341 36.9469 48.8126 36.9469 50.4217V66.9664L57.2291 55.2595V36.0999H57.219Z" fill="#060607"/>
<path d="M42.7197 40.6145L63.857 28.4148V52.593L38.5547 67.2067V47.8258C38.5547 44.8488 40.1341 42.1031 42.7197 40.6145Z" fill="#DBE0E6"/>
<path d="M38.4453 67.3983V47.8263C38.4453 44.8191 40.0651 42.0232 42.6607 40.5245L63.969 28.2141V52.654L63.9087 52.6841L38.4453 67.3983ZM42.7713 40.7157C40.2361 42.174 38.6667 44.8996 38.6667 47.8263V67.006L63.7477 52.5333V28.6064L42.7713 40.7157Z" fill="#060607"/>
<path d="M38.7984 67.4991C38.6475 67.4085 38.5469 67.2476 38.5469 67.0766V49.6771C38.5469 47.726 39.563 45.9157 41.203 44.9601L60.0665 34.0779C60.2174 33.9874 60.4086 33.9874 60.5595 34.0779C60.7104 34.1684 60.811 34.3293 60.811 34.5104V54.8065C60.811 54.9876 60.7204 55.1485 60.5595 55.239L39.2914 67.5091C39.2109 67.5494 39.1305 67.5795 39.0399 67.5795C38.9594 67.5695 38.879 67.5494 38.7984 67.4991ZM59.815 35.3552L41.6959 45.8151C40.3679 46.5895 39.5429 48.068 39.5429 49.6771V66.2217L59.825 54.5148V35.3552H59.815Z" fill="#060607"/>
<path d="M50.5603 48.4495L73.8405 35.1636V64.6522L50.7816 77.9786C47.9949 79.5878 43.4475 79.5878 40.6607 77.9786C39.3126 77.1941 38.6687 76.1782 38.5781 75.1623C38.5781 75.1221 38.5781 47.5042 38.5781 47.5042C38.5681 48.5703 42.0994 52.3016 50.5603 48.4495Z" fill="#DBE0E6"/>
<path d="M45.7191 79.3065C43.868 79.3065 42.0168 78.8941 40.5983 78.0794C39.3206 77.3352 38.566 76.3093 38.4554 75.1728C38.4554 75.1427 38.4554 57.8236 38.4453 47.5146H38.6667C38.6667 47.7963 39.0087 48.46 39.9443 49.0635C41.0611 49.7877 44.3408 51.1655 50.4879 48.3594L73.939 34.9829V64.7231L50.8399 78.0794C49.4315 78.8941 47.5703 79.3065 45.7191 79.3065ZM38.6867 48.1382C38.6867 52.2517 38.6867 74.9918 38.6867 75.1528C38.7874 76.2088 39.5017 77.1743 40.719 77.8783C43.4756 79.4674 47.9627 79.4674 50.7293 77.8783L73.7278 64.5822V35.3651L50.5985 48.5606C44.3509 51.4069 40.9907 49.9888 39.8337 49.2445C39.2803 48.8824 38.898 48.4902 38.6867 48.1382Z" fill="#060607"/>
<path d="M45.9108 75.2433C47.1081 75.2433 48.255 74.9918 48.9995 74.5593L70.0865 62.3696V41.9729L52.7118 51.8897C50.75 53.0262 48.416 53.6296 45.9612 53.6296C42.9229 53.6296 40.7095 53.529 38.7678 51.8293C38.7678 51.4069 38.7678 50.9844 38.7678 50.5721C39.9952 51.6583 41.6653 52.644 45.9612 52.644C48.2348 52.644 50.408 52.0807 52.2189 51.0347L71.0724 40.2732V62.9429L49.4924 75.4143C48.5971 75.9271 47.2992 76.2288 45.9108 76.2288C40.9913 76.2288 38.808 73.6038 38.7578 73.5334C38.7578 73.3222 38.7578 72.9802 38.7578 72.5074C40.1763 74.0061 42.2991 75.2433 45.9108 75.2433Z" fill="#901957"/>
<path d="M47.9643 49.1943L71.2445 35.9082V65.3969L48.1957 78.7231C45.4089 80.3324 40.8616 80.3324 38.0748 78.7231C36.7266 77.9387 36.0828 76.9229 35.9922 75.9071C35.9922 75.8668 35.9922 48.0376 35.9922 48.0376C35.9821 49.0937 39.5134 53.0462 47.9643 49.1943Z" fill="#DBE0E6"/>
<path d="M43.1388 80.0406C41.2876 80.0406 39.4365 79.6283 38.0179 78.8136C36.7403 78.0693 35.9756 77.0434 35.875 75.9069C35.875 75.8667 35.875 56.3953 35.875 48.0275H36.0964C36.0964 48.3493 36.529 49.0935 37.4847 49.7071C38.8932 50.6122 42.1125 51.7287 47.9175 49.0935L71.3687 35.717V65.4572L48.2495 78.8236C46.841 79.6383 44.9899 80.0406 43.1388 80.0406ZM36.0964 48.6711C36.0964 52.835 36.0964 75.736 36.0964 75.8969C36.1667 76.6412 36.5692 77.7173 38.1286 78.6225C40.8851 80.2216 45.3823 80.2116 48.1389 78.6225L71.1374 65.3265V36.1093L48.0181 49.2948C42.1125 51.9801 38.8127 50.8234 37.3741 49.8982C36.7603 49.516 36.3378 49.0634 36.0964 48.6711Z" fill="#060607"/>
<path d="M43.1375 75.9875C44.3347 75.9875 45.4817 75.7361 46.2261 75.3036L67.313 63.1138V42.7071L49.9385 52.6238C47.9766 53.7603 45.6426 54.3638 43.1878 54.3638C40.1495 54.3638 37.9362 54.2632 35.9945 52.5635C35.9945 52.1411 35.9945 51.7187 35.9945 51.3062C37.2219 52.3925 38.892 53.3781 43.1878 53.3781C45.4615 53.3781 47.6346 52.8149 49.4455 51.7689L68.299 41.0073V63.6871L46.719 76.1585C45.8236 76.6713 44.5258 76.9731 43.1375 76.9731C38.2179 76.9731 36.0347 74.3481 35.9844 74.2777C35.9844 74.0664 35.9844 73.7245 35.9844 73.2518C37.403 74.7504 39.5258 75.9875 43.1375 75.9875Z" fill="#060607"/>
<path d="M45.8236 52.765L69.1039 39.479V68.9676L46.0551 82.2939C43.2683 83.9031 38.7208 83.9031 35.9341 82.2939C34.5859 81.5094 33.942 80.4936 33.8516 79.4778C33.8516 79.4476 33.8516 50.9546 33.8516 50.9546C33.8415 52.0208 37.3727 56.617 45.8236 52.765Z" fill="#DBE0E6"/>
<path d="M40.9925 83.6209C39.1414 83.6209 37.2902 83.2086 35.8717 82.404C34.594 81.6597 33.8395 80.6338 33.7288 79.4973C33.7288 79.4571 33.7288 61.605 33.7188 50.9641H33.9501C33.9501 51.3162 34.4632 52.2918 35.7007 53.0863C37.1192 54.0015 40.3184 55.1582 45.7713 52.674L69.2226 39.2974V69.0375L46.1033 82.3939C44.6948 83.2086 42.8437 83.6209 40.9925 83.6209ZM33.9501 51.6279C33.9501 55.9426 33.9501 79.2962 33.9602 79.4672C34.0608 80.5232 34.7751 81.4888 35.9924 82.1928C38.7491 83.7819 43.2461 83.7819 46.0027 82.1928L69.0012 68.8967V39.6796L45.8719 52.8751C40.3184 55.4096 37.0387 54.2127 35.58 53.2674C34.7549 52.7343 34.2218 52.1308 33.9501 51.6279Z" fill="#060607"/>
<path d="M40.9891 79.5577C42.1862 79.5577 43.3331 79.3063 44.0777 78.8839L65.1646 66.6942V46.2874L47.79 56.2041C45.8282 57.3406 43.4941 57.9441 41.0394 57.9441C38.0011 57.9441 35.7877 57.8435 33.846 56.1438C33.846 55.7214 33.846 55.299 33.846 54.8866C35.0734 55.9728 36.7434 56.9584 41.0394 56.9584C43.3131 56.9584 45.4861 56.3953 47.297 55.3492L66.1506 44.5876V67.2674L44.5706 79.7388C43.6752 80.2516 42.3774 80.5534 40.9891 80.5534C36.0694 80.5534 33.8863 77.9284 33.8359 77.858C33.8359 77.6468 33.8359 77.3048 33.8359 76.8321C35.2545 78.3206 37.3773 79.5577 40.9891 79.5577Z" fill="#060607"/>
</g>
<path d="M73.8396 57.924L83.0551 52.5532C83.8499 52.0906 84.8258 52.0704 85.6307 52.5029L86.1739 52.7946L72.6122 67.4987L71.2038 66.7544C70.5297 66.3622 70.1172 65.5375 70.1172 64.3507C70.1172 61.9872 71.7772 59.1107 73.8396 57.924Z" fill="#060607"/>
<path d="M75.5045 58.4171L85.2331 52.7949C85.8267 52.4529 86.5813 52.8854 86.5813 53.5693V58.3769C86.5813 59.7446 85.8569 61.0119 84.6697 61.6857L75.1524 67.1772C74.1262 67.7706 73.2007 67.8209 72.5266 67.4387C71.591 66.8956 71.1483 65.4976 71.6413 63.486C72.1644 61.3438 73.593 59.5233 75.5045 58.4171Z" fill="#C2C7CB"/>
<path d="M73.4883 67.8106C73.1161 67.8106 72.774 67.72 72.4621 67.549C71.4058 66.9356 71.0537 65.4068 71.5265 63.4657C72.0396 61.3336 73.4682 59.4528 75.4501 58.3163L85.1787 52.7042C85.4906 52.5231 85.873 52.5231 86.1848 52.7042C86.4967 52.8852 86.6878 53.2171 86.6878 53.5791V58.3866C86.6878 59.7846 85.9333 61.0921 84.7159 61.7962L75.1986 67.2876C74.605 67.6295 74.0215 67.8106 73.4883 67.8106ZM75.5608 58.5074C73.6392 59.6137 72.2509 61.4442 71.7478 63.516C71.3052 65.3565 71.617 66.7847 72.5828 67.3479C73.2469 67.7301 74.1422 67.6396 75.098 67.0864L84.6153 61.595C85.7622 60.9312 86.4765 59.7042 86.4765 58.3766V53.5692C86.4765 53.2875 86.3257 53.026 86.0842 52.8852C85.8427 52.7444 85.5409 52.7444 85.2994 52.8852L75.5608 58.5074Z" fill="#060607"/>
<path d="M74.9698 60.639C76.0965 59.9953 77.002 60.5183 77.002 61.8158C77.002 63.1132 76.0965 64.6921 74.9698 65.3358C73.8429 65.9796 72.9375 65.4565 72.9375 64.1591C72.9375 62.8718 73.853 61.2927 74.9698 60.639Z" fill="#060607"/>
<path d="M75.4301 61.3232C76.3558 60.7902 77.1103 61.2227 77.1103 62.2887C77.1103 63.3548 76.3558 64.6623 75.4301 65.1953C74.5045 65.7284 73.75 65.2959 73.75 64.2298C73.75 63.1537 74.5045 61.8563 75.4301 61.3232Z" fill="white"/>
<path d="M74.6846 65.5369C74.5035 65.5369 74.3426 65.4967 74.1917 65.4062C73.8395 65.205 73.6484 64.7826 73.6484 64.2195C73.6484 63.1131 74.423 61.7654 75.3789 61.2122C75.8617 60.9307 76.3245 60.8903 76.6766 61.0916C77.0288 61.2927 77.2199 61.7151 77.2199 62.2784C77.2199 63.3846 76.4452 64.7323 75.4895 65.2855C75.2078 65.4565 74.9361 65.5369 74.6846 65.5369ZM75.4895 61.4134C74.5941 61.9263 73.8697 63.1936 73.8697 64.2195C73.8697 64.6921 74.0207 65.0441 74.3023 65.205C74.584 65.3659 74.9663 65.3257 75.3789 65.0844C76.2742 64.5714 76.9986 63.3042 76.9986 62.2784C76.9986 61.8056 76.8477 61.4536 76.5659 61.2927C76.2843 61.1419 75.9019 61.1821 75.4895 61.4134Z" fill="#060607"/>
<path d="M57.9674 99.9246C60.7542 99.9246 63.3599 100.176 65.7241 100.608H79.6379V105.929H79.6178C79.2757 110.515 70.4828 115.494 57.9674 115.494C45.4521 115.494 36.6591 110.505 36.317 105.929H36.2969V100.608H50.2107C52.575 100.176 55.1806 99.9246 57.9674 99.9246Z" fill="#060607"/>
<path d="M77.1751 110.002C76.7627 110.364 76.31 110.716 75.7969 111.048V100.608H77.1751V110.002Z" fill="#060607"/>
<path d="M51.4799 100.407V115.021C51.0171 114.951 50.5543 114.87 50.1016 114.79V100.609H50.2123C50.6248 100.528 51.0473 100.468 51.4799 100.407Z" fill="#060607"/>
<path d="M53.8081 115.302C53.3453 115.261 52.8825 115.211 52.4297 115.151V100.266C52.8825 100.205 53.3352 100.155 53.8081 100.115V115.302Z" fill="#060607"/>
<path d="M42.1283 112.214C41.6454 111.973 41.1826 111.711 40.75 111.45V100.608H42.1283V112.214Z" fill="#060607"/>
<path d="M56.1439 115.464C55.6811 115.443 55.2183 115.423 54.7656 115.393V100.045C55.2183 100.015 55.671 99.9849 56.1439 99.9648V115.464Z" fill="#060607"/>
<path d="M39.8001 110.816C39.287 110.454 38.8343 110.082 38.4219 109.7V100.618H39.8001V110.816Z" fill="#060607"/>
<path d="M46.8002 114.015C46.3274 113.884 45.8747 113.733 45.4219 113.582V100.608H46.8002V114.015Z" fill="#060607"/>
<path d="M49.1361 114.598C48.6632 114.497 48.2105 114.387 47.7578 114.276V100.608H49.1361V114.598Z" fill="#060607"/>
<path d="M44.4643 113.24C43.9914 113.059 43.5287 112.868 43.0859 112.677V100.608H44.4643V113.24Z" fill="#060607"/>
<path d="M70.1595 113.703C69.7169 113.844 69.2541 113.984 68.7812 114.115V100.608H70.1595V113.703Z" fill="#060607"/>
<path d="M60.8135 115.403C60.3608 115.433 59.9081 115.453 59.4453 115.463V99.9543C59.9081 99.9744 60.3709 99.9946 60.8135 100.025V115.403Z" fill="#060607"/>
<path d="M58.4799 99.9346V115.494C58.3089 115.494 58.1379 115.504 57.9668 115.504C57.6751 115.504 57.3933 115.494 57.1016 115.494V99.9447C57.3933 99.9447 57.665 99.9246 57.9668 99.9246C58.1379 99.9246 58.3089 99.9346 58.4799 99.9346Z" fill="#060607"/>
<path d="M79.6342 105.929H79.614C79.5335 106.965 79.0204 108.031 78.125 109.047V100.599H79.6342V105.929Z" fill="#060607"/>
<path d="M37.4539 108.634C36.7697 107.749 36.3774 106.834 36.307 105.928H36.2969V100.608H37.464V108.634H37.4539Z" fill="#060607"/>
<path d="M74.8314 111.651C74.3988 111.903 73.9461 112.144 73.4531 112.385V100.608H74.8314V111.651Z" fill="#060607"/>
<path d="M63.1439 115.202C62.6912 115.252 62.2385 115.302 61.7656 115.342V100.085C62.2284 100.125 62.6912 100.176 63.1439 100.226V115.202Z" fill="#060607"/>
<path d="M72.4955 112.818C72.0528 113.009 71.6001 113.19 71.1172 113.361V100.608H72.4955V112.818Z" fill="#060607"/>
<path d="M67.8236 114.367C67.3709 114.477 66.9181 114.578 66.4453 114.678V100.608H67.8236V114.367Z" fill="#060607"/>
<path d="M65.4956 114.86C65.0428 114.941 64.5901 115.011 64.1172 115.081V100.347C64.58 100.418 65.0428 100.488 65.4956 100.568V114.86Z" fill="#060607"/>
<path d="M57.9661 109.932C45.2595 109.932 36.4062 104.802 36.4062 100.196C36.4062 95.5898 45.2595 90.4604 57.9661 90.4604C70.6726 90.4604 79.526 95.5898 79.526 100.196C79.526 104.802 70.6726 109.932 57.9661 109.932Z" fill="#00C5F6"/>
<path d="M57.9673 90.5709C70.6034 90.5709 79.4165 95.6399 79.4165 100.196C79.4165 104.742 70.6135 109.821 57.9673 109.821C45.3313 109.821 36.5181 104.752 36.5181 100.196C36.5181 95.6399 45.3313 90.5709 57.9673 90.5709ZM57.9673 90.3496C45.2005 90.3496 36.2969 95.5393 36.2969 100.196C36.2969 104.853 45.2005 110.042 57.9673 110.042C70.7342 110.042 79.6378 104.853 79.6378 100.196C79.6378 95.5393 70.7342 90.3496 57.9673 90.3496Z" fill="#060607"/>
<path d="M43.7422 103.163L44.9394 104.048L66.127 64.7939L61.1369 67.8313L43.7422 103.163Z" fill="#060607"/>
<path d="M61.1797 67.8112L62.6485 68.6962L67.6084 65.679L66.1396 64.7939L61.1797 67.8112Z" fill="#060607"/>
<path d="M44.9375 104.048L50.2696 101.041L67.6041 65.679L62.624 68.7062L44.9375 104.048Z" fill="white"/>
<path d="M44.6797 104.33L62.5372 68.636L67.8795 65.3875L67.7084 65.7294L50.3539 101.122L50.3236 101.142L44.6797 104.33ZM62.7083 68.7869L45.2029 103.767L50.1829 100.961L67.3362 65.9808L62.7083 68.7869Z" fill="#060607"/>
<path d="M48.885 75.2634C48.5631 76.0981 47.6878 76.6513 46.8729 76.8324C45.887 77.0535 45.072 76.5306 44.5187 75.726C44.4483 75.6254 44.3779 75.5148 44.3175 75.4042C44.237 75.2634 45.1525 77.2548 45.1626 77.2849C45.6254 78.2504 46.3799 79.2662 47.5268 79.2361C48.4827 79.2159 49.5993 78.5522 49.9716 77.6067C50.2633 76.8524 50.1426 75.897 49.6094 74.7403L48.5229 72.397C49.0662 73.5535 49.1869 74.5091 48.885 75.2634Z" fill="#060607"/>
<path d="M45.9548 67.187C43.6107 67.6798 41.2263 69.3293 40.3511 71.723C39.7676 73.312 39.8984 75.0017 40.7233 76.7718L41.8098 79.1153C40.9849 77.3451 40.8642 75.6555 41.4376 74.0663C42.3128 71.6726 44.6972 70.0232 47.0413 69.5304C49.3251 69.0577 51.3372 70.1037 52.5042 72.1152C52.6149 72.3163 51.5283 69.9729 51.4177 69.7718C50.2506 67.7603 48.2385 66.7143 45.9548 67.187Z" fill="#060607"/>
<path d="M44.9761 70.2946C43.2055 71.22 42.0284 72.4772 41.4449 74.0662C40.8613 75.6553 40.9921 77.345 41.8171 79.1152C42.5716 80.7445 43.6682 81.7704 45.117 82.2128C46.5656 82.6554 48.105 82.4542 49.7347 81.5994C51.4954 80.6841 52.6725 79.4269 53.2459 77.8379C53.8194 76.2487 53.6986 74.5792 52.8838 72.8192C52.089 71.1194 51.0024 70.0432 49.614 69.6007C48.2358 69.1783 46.6864 69.4096 44.9761 70.2946ZM48.7086 78.8939C47.1995 79.6783 46.0023 79.1152 45.117 77.2143C44.1813 75.2027 44.4932 73.7947 46.0426 72.9901C46.7065 72.6482 47.3605 72.6179 47.9943 72.9197C48.6381 73.2113 49.1714 73.8249 49.6039 74.7401C50.5295 76.7214 50.2278 78.1093 48.7086 78.8939Z" fill="white"/>
<path d="M46.6303 82.5547C46.0971 82.5547 45.584 82.4743 45.081 82.3233C43.6122 81.8708 42.4753 80.8047 41.7107 79.1653C40.8757 77.375 40.7549 75.6451 41.3385 74.0259C41.922 72.4167 43.1292 71.1193 44.9201 70.194C46.6505 69.2989 48.24 69.0675 49.6485 69.5101C51.0569 69.9526 52.1838 71.0589 52.9786 72.7888C53.8035 74.5589 53.9243 76.2787 53.3407 77.888C52.7572 79.4972 51.5601 80.7846 49.7793 81.7099C48.7028 82.273 47.6464 82.5547 46.6303 82.5547ZM48.1998 69.5202C47.2138 69.5202 46.1575 69.8118 45.0307 70.3951C43.2902 71.3003 42.1232 72.5475 41.5498 74.1064C40.9863 75.6653 41.1071 77.3348 41.9119 79.0748C42.6464 80.6638 43.7329 81.6897 45.1414 82.1121C46.5498 82.5446 48.0791 82.3435 49.6787 81.5086C51.4091 80.6136 52.5661 79.3664 53.1294 77.8176C53.6929 76.2587 53.5722 74.5992 52.7673 72.8894C51.9926 71.2198 50.9162 70.1638 49.5681 69.7314C49.1455 69.5905 48.6827 69.5202 48.1998 69.5202ZM47.4754 79.3464C47.2541 79.3464 47.0429 79.3161 46.8416 79.2457C46.1374 79.0044 45.5237 78.3406 45.0206 77.2644C44.0548 75.2026 44.3868 73.7242 45.9965 72.8894C46.6907 72.5273 47.3848 72.5072 48.0489 72.809C48.7129 73.1106 49.2662 73.7442 49.7088 74.6897C50.6546 76.7314 50.3427 78.1796 48.7632 78.9943C48.3105 79.2257 47.8779 79.3464 47.4754 79.3464ZM47.1133 72.819C46.7813 72.819 46.4392 72.9095 46.0971 73.0805C44.598 73.8549 44.3164 75.1926 45.2219 77.1538C45.6947 78.1696 46.2682 78.8033 46.9121 79.0245C47.4251 79.1954 48.0187 79.115 48.6626 78.7831C50.1314 78.0187 50.4031 76.7112 49.5076 74.7701C49.0952 73.875 48.572 73.2816 47.9583 73C47.6767 72.8894 47.3949 72.819 47.1133 72.819Z" fill="#060607"/>
<path d="M66.76 91.1142C66.4381 91.9489 65.5628 92.5021 64.748 92.6832C63.762 92.9045 62.947 92.3814 62.3938 91.5768C62.3233 91.4763 62.2529 91.3656 62.1925 91.255C62.112 91.1142 63.0276 93.1056 63.0376 93.1357C63.5004 94.1013 64.2549 95.1171 65.4018 95.0869C66.3577 95.0669 67.4743 94.403 67.8465 93.4576C68.1383 92.7032 68.0176 91.7478 67.4844 90.5913L66.3979 88.2478C66.9311 89.4045 67.0518 90.3599 66.76 91.1142Z" fill="#060607"/>
<path d="M63.8298 83.0376C61.4857 83.5304 59.1013 85.1798 58.2261 87.5735C57.6426 89.1626 57.7733 90.8523 58.5983 92.6224L59.6848 94.9658C58.8599 93.1957 58.7392 91.506 59.3126 89.9169C60.1879 87.5232 62.5723 85.8738 64.9163 85.3809C67.2001 84.8982 69.2123 85.9543 70.3793 87.9658C70.4899 88.1669 69.4034 85.8235 69.2927 85.6223C68.1257 83.6108 66.1136 82.5649 63.8298 83.0376Z" fill="#060607"/>
<path d="M62.859 86.1457C61.0882 87.071 59.9011 88.3281 59.3276 89.9172C58.7441 91.5064 58.8749 93.196 59.6998 94.9662C60.4544 96.5954 61.551 97.6213 62.9997 98.0638C64.4485 98.5064 65.9877 98.3053 67.6176 97.4503C69.3782 96.5351 70.5451 95.2779 71.1287 93.6888C71.7022 92.0998 71.5814 90.4302 70.7665 88.6701C69.9717 86.9704 68.8852 85.8943 67.4969 85.4517C66.1085 85.0394 64.5591 85.2606 62.859 86.1457ZM66.5914 94.7449C65.0823 95.5293 63.8851 94.9662 62.9997 93.0653C62.0641 91.0538 62.376 89.6457 63.9253 88.8411C64.5894 88.4991 65.2433 88.469 65.8771 88.7707C66.521 89.0624 67.0542 89.6759 67.4868 90.5911C68.4023 92.5725 68.1105 93.9604 66.5914 94.7449Z" fill="white"/>
<path d="M64.5053 98.4055C63.9721 98.4055 63.459 98.325 62.956 98.1742C61.4872 97.7216 60.3503 96.6655 59.5857 95.0161C58.7507 93.2259 58.6299 91.496 59.2135 89.8767C59.797 88.2675 61.0042 86.9701 62.8051 86.0448C64.5356 85.1497 66.1251 84.9184 67.5336 85.3609C68.942 85.8035 70.0688 86.9097 70.8637 88.6396C71.6886 90.4097 71.8093 92.1296 71.2258 93.7388C70.6423 95.348 69.4451 96.6354 67.6643 97.5607C66.5778 98.1239 65.5214 98.4055 64.5053 98.4055ZM66.0748 85.371C65.0888 85.371 64.0324 85.6626 62.9057 86.2459C61.1652 87.1512 59.9982 88.3982 59.4248 89.9572C58.8613 91.5161 58.9821 93.1857 59.7869 94.9256C60.5214 96.5147 61.618 97.5406 63.0164 97.963C64.4248 98.3954 65.9541 98.1943 67.5537 97.3595C69.2841 96.4644 70.4411 95.2173 71.0044 93.6684C71.5679 92.1195 71.4471 90.46 70.6423 88.7402C69.8676 87.0707 68.7912 86.0147 67.443 85.5822C67.0104 85.4413 66.5476 85.371 66.0748 85.371ZM65.3504 95.1971C65.129 95.1971 64.9179 95.167 64.7166 95.0966C64.0124 94.8552 63.3986 94.1914 62.8956 93.1152C61.9298 91.0434 62.2618 89.575 63.8715 88.7402C64.5657 88.3782 65.2598 88.358 65.9239 88.6598C66.5879 88.9615 67.1412 89.5951 67.5838 90.5405C68.5296 92.5822 68.2177 94.0305 66.6382 94.8451C66.1854 95.0765 65.7529 95.1971 65.3504 95.1971ZM64.9882 88.6698C64.6563 88.6698 64.3142 88.7604 63.9721 88.9314C62.4731 89.7057 62.1914 91.0434 63.0969 93.0046C63.5696 94.0204 64.1331 94.6541 64.7871 94.8753C65.3001 95.0563 65.8937 94.9659 66.5376 94.6339C68.0064 93.8696 68.2781 92.5621 67.3826 90.621C66.9702 89.7259 66.447 89.1325 65.8333 88.8508C65.5516 88.7402 65.2699 88.6698 64.9882 88.6698Z" fill="#060607"/>
<defs>
<linearGradient id="paint0_linear_779_6" x1="67.8375" y1="112.696" x2="105.561" y2="51.2021" gradientUnits="userSpaceOnUse">
<stop stop-color="#CBCDD1"/>
<stop offset="1" stop-color="#AFAFB5" stop-opacity="0"/>
</linearGradient>
</defs>
</svg>
