<svg width="16" height="16" viewBox="0 0 16 16" fill="none" xmlns="http://www.w3.org/2000/svg">
<g clip-path="url(#clip0_3059_2217)">
<path d="M0 11.0697C0.0149996 11.0259 0.0304159 10.9822 0.0445822 10.938C0.197495 10.453 0.659566 10.1622 1.17289 10.228C1.64537 10.2884 2.02661 10.6959 2.03536 11.1897C2.0487 11.9442 2.04078 12.6992 2.04203 13.4538C2.04203 13.515 2.04203 13.5767 2.04203 13.6488C6.01651 13.6488 9.97474 13.6488 13.9584 13.6488C13.9584 13.5896 13.9584 13.5292 13.9584 13.4688C13.9584 12.7296 13.9526 11.9905 13.9605 11.2513C13.9671 10.6147 14.4471 10.1726 15.0771 10.2268C15.4996 10.263 15.7846 10.5009 15.9388 10.8951C15.9613 10.9526 15.9796 11.0113 16 11.0697C16 12.1009 16 13.1321 16 14.1633C15.9904 14.1925 15.9783 14.2208 15.9721 14.2504C15.7963 15.1137 15.0909 15.697 14.2084 15.6975C10.0689 15.6991 5.92901 15.697 1.78954 15.6995C1.17997 15.7 0.712065 15.4375 0.341241 14.97C0.158746 14.7404 0.0733314 14.4708 0 14.1946C0 13.1529 0 12.1113 0 11.0697Z" fill="white"/>
<path d="M9.02396 8.48955C9.09229 8.42538 9.13354 8.38872 9.17229 8.34997C9.74311 7.77957 10.3089 7.20333 10.8864 6.6396C11.4585 6.08128 12.3968 6.33877 12.6034 7.10667C12.7084 7.49666 12.6022 7.83665 12.3189 8.12164C11.8668 8.57538 11.4143 9.02829 10.9614 9.48161C10.2402 10.2037 9.51895 10.9257 8.79688 11.647C8.29315 12.1507 7.70483 12.1532 7.20484 11.6528C6.0307 10.4778 4.8574 9.30203 3.68326 8.12706C3.39452 7.83832 3.28369 7.49583 3.39286 7.09959C3.60327 6.33586 4.54699 6.08378 5.11614 6.64168C5.68905 7.20292 6.25195 7.77415 6.81818 8.34164C6.8586 8.38205 6.89151 8.42997 6.92776 8.47413C6.9436 8.46913 6.95901 8.46413 6.97485 8.45955C6.97485 8.40205 6.97485 8.34414 6.97485 8.28664C6.97485 5.89128 6.97443 3.49635 6.97526 1.10099C6.97526 0.57434 7.25526 0.1731 7.70941 0.0422704C8.35773 -0.144808 8.98229 0.309763 9.02188 0.997662C9.02563 1.06016 9.02396 1.12266 9.02396 1.18516C9.02396 3.54926 9.02396 5.91337 9.02396 8.27705C9.02396 8.33664 9.02396 8.39622 9.02396 8.48955Z" fill="white"/>
</g>
<defs>
<clipPath id="clip0_3059_2217">
<rect width="16" height="16" fill="white"/>
</clipPath>
</defs>
</svg>
