<svg width="120" height="135" viewBox="0 0 120 135" fill="none" xmlns="http://www.w3.org/2000/svg">
<path d="M77.9784 62.6414L78.4831 40.4885C78.4831 40.4797 78.4831 40.4797 78.4742 40.4797C71.2936 40.2937 64.0332 41.3031 57.6672 43.5078C57.6583 43.5078 57.6583 43.5166 57.6672 43.5255L77.9607 62.6503C77.9696 62.6503 77.9784 62.6503 77.9784 62.6414Z" fill="white"/>
<path d="M77.8544 63.2698L77.5977 63.0219L57.1005 43.7112L57.2067 43.1268L57.49 43.0206C63.8296 40.8336 71.0811 39.7623 78.4831 39.9659L78.9966 39.9748L79.0055 40.4972L78.5008 63.0042L77.8544 63.2698ZM58.6499 43.7289L77.4825 61.4813L77.9518 40.9841C71.2227 40.869 64.5379 41.8076 58.6499 43.7289Z" fill="#060607"/>
<path d="M77.9958 71.9284L103.85 56.4426C103.85 56.4337 103.85 56.4337 103.85 56.4249C96.9081 52.2192 87.7618 49.9968 78.5005 49.7578C78.4916 49.7578 78.4916 49.7578 78.4916 49.7666L77.9869 71.9284C77.9781 71.9195 77.9869 71.9284 77.9958 71.9284Z" fill="#00C5F6"/>
<path d="M78.0139 72.5306L77.4649 72.2296L77.4561 71.9108L77.9696 49.2267L78.492 49.2178C88.258 49.4746 97.3512 51.8652 104.116 55.9646L104.364 56.1151V56.7084L104.107 56.8766L78.0139 72.5306ZM78.9967 50.2892L78.5274 70.9988L102.841 56.4339C96.4392 52.7594 88.0278 50.5902 78.9967 50.2892Z" fill="#060607"/>
<path d="M77.9784 71.9204L78.005 89.5931C78.005 89.602 78.0138 89.602 78.0227 89.602L103.85 75.1167L103.859 75.1079V56.4435C103.859 56.4346 103.85 56.4346 103.841 56.4346L77.9784 71.9204Z" fill="#060607"/>
<path d="M78.0226 90.2123L77.5002 89.9113L77.4913 89.6014L77.4648 71.601L77.757 71.4505L103.823 55.8408L104.381 56.1152L104.39 56.4517V75.4703L104.054 75.6119L78.0226 90.2123ZM78.5096 72.212L78.5361 88.7248L103.336 74.8151V57.346L78.5096 72.212Z" fill="#060607"/>
<path d="M114.209 98.4912V81.3409C114.209 81.332 114.2 81.332 114.2 81.332L78.0845 81.9961C78.0756 81.9961 78.0756 82.0049 78.0756 82.0049L78.0314 104.114H78.1111L85.9204 124.239C85.9204 124.239 85.9292 124.239 85.9292 124.248C92.2864 123.336 98.3161 121.45 103.292 118.581C110.243 114.57 113.837 109.647 114.156 104.397L114.183 104.122C114.191 104.114 114.236 98.9428 114.209 98.4912Z" fill="#00C5F6"/>
<path d="M85.8407 124.788L85.5131 124.628L85.4334 124.434L77.7569 104.654L77.5001 104.663L77.5532 81.4914L114.723 80.8008L114.732 81.3409V98.4824C114.758 99.0313 114.714 103.6 114.705 104.131L114.67 104.459C114.333 109.984 110.482 115.031 103.549 119.042C98.6968 121.848 92.6229 123.832 86 124.779L85.8407 124.788ZM78.5538 103.804L78.6069 103.928L86.2657 123.672C92.6052 122.716 98.3957 120.803 103.035 118.13C109.658 114.305 113.324 109.55 113.642 104.37L113.678 104.069C113.696 102.051 113.722 98.8454 113.704 98.5266V98.4912V81.8633L78.6157 82.5096L78.5538 103.804Z" fill="#060607"/>
<path d="M114.138 104.397L114.165 104.123C114.165 104.123 114.218 98.9516 114.192 98.5V81.3497C114.192 81.3408 114.183 81.3408 114.183 81.3408L106.444 81.4825C106.444 81.4825 106.444 81.4825 106.435 81.4825C100.468 86.0423 88.0278 95.6667 87.9658 95.711L85.8939 102.219L85.8408 124.106L85.8939 124.239C85.8939 124.239 85.9028 124.248 85.9117 124.248C92.2689 123.336 98.2985 121.45 103.266 118.581C110.216 114.562 113.82 109.647 114.138 104.397Z" fill="#060607"/>
<path d="M85.5837 124.823L85.3269 124.106L85.4066 102.059L87.443 95.6579L87.4165 95.348L87.7264 95.2418C88.7623 94.4361 100.405 85.4315 106.125 81.0575L106.267 80.9513H106.453L114.714 80.8008L114.722 81.3409V98.4912C114.749 98.9162 114.705 103.591 114.696 104.122L114.66 104.432C114.315 109.975 110.472 115.022 103.531 119.024C98.6789 121.831 92.6138 123.814 85.991 124.761L85.5837 124.823ZM86.4248 102.298L86.3717 123.655C92.6492 122.698 98.3955 120.795 103.008 118.13C109.631 114.305 113.297 109.55 113.616 104.37L113.651 104.069C113.669 102.051 113.695 98.8454 113.678 98.5266V81.8633L106.621 81.9961C100.875 86.3877 89.7274 95.0116 88.4258 96.0298L86.4248 102.298Z" fill="#060607"/>
<path d="M78.058 82.0045L85.9027 102.218L85.9116 102.227C92.2688 101.315 98.2984 99.4293 103.274 96.5518C117.618 88.2732 117.831 74.9301 103.938 66.4922H103.93L78.0668 81.9868C78.058 81.9957 78.058 81.9957 78.058 82.0045Z" fill="white"/>
<path d="M85.575 102.803L85.4157 102.413L77.5001 82.0053L77.6241 81.66L77.8012 81.5449L103.611 66.0857L103.832 65.8643L104.177 66.0326C111.057 70.2117 114.785 75.6835 114.723 81.4829C114.661 87.3709 110.685 92.887 103.54 97.013C98.6879 99.8197 92.614 101.803 85.9912 102.75L85.575 102.803ZM78.7043 82.2178L86.2391 101.652C92.5875 100.696 98.3692 98.7838 103.009 96.1099C109.818 92.1786 113.607 86.9813 113.669 81.4741C113.731 76.1351 110.269 71.044 103.93 67.1128L78.7043 82.2178Z" fill="#060607"/>
<path d="M85.8499 115.881L79.5458 108.054L78.0229 104.122C78.0229 104.122 78.0229 104.122 78.0229 104.113L53.3466 89.8675L53.3289 88.929H51.7174C51.7174 88.929 51.7174 88.929 51.7086 88.929L50.4867 88.2207H50.4779C50.0794 88.4509 49.6898 88.6899 49.318 88.929L39.5696 94.8435L39.5608 94.8524V103.387C39.5342 108.921 43.1732 114.455 50.4867 118.678C60.0757 124.212 73.5959 126.107 85.8676 124.354C85.8765 124.354 85.8765 124.345 85.8765 124.345L85.8676 124.318L85.8499 115.881Z" fill="#00C5F6"/>
<path d="M76.7302 125.514C66.8756 125.514 57.3929 123.282 50.2033 119.13C42.9607 114.951 38.9941 109.364 39.0206 103.387V94.5512L39.2863 94.3918L49.0257 88.4861C49.3976 88.2471 49.7961 88.008 50.1945 87.7778L50.3184 87.707H50.6018L50.7346 87.7778L51.8325 88.4153H53.8247L53.8424 89.5752L78.4036 103.75L78.4744 103.892L79.9973 107.806L86.3634 115.668V115.889V124.23L86.4165 124.354L86.2129 124.805L85.9738 124.867C82.8926 125.301 79.7937 125.514 76.7302 125.514ZM40.0654 95.1444V103.396C40.0389 108.983 43.8284 114.242 50.7257 118.236C59.7126 123.424 72.9229 125.585 85.3186 123.911V116.075L79.0057 108.16L77.5802 104.485L52.8064 90.1773L52.7976 89.4512H51.5403L51.4075 89.3627L50.469 88.8226C50.1679 88.9997 49.8669 89.1856 49.5747 89.3715L40.0654 95.1444Z" fill="#060607"/>
<path d="M64.5201 123.628C70.4966 124.77 76.8716 125.009 83.0163 124.363V112.844L78.9434 107.788L77.9518 105.229H64.5201V123.628Z" fill="#060607"/>
<path d="M76.2608 125.239C72.2499 125.239 68.239 124.868 64.414 124.142L63.989 124.062V104.707H78.2972L79.3951 107.531L83.53 112.658V124.832L83.0607 124.885C80.8206 125.115 78.5451 125.239 76.2608 125.239ZM65.0426 123.194C70.665 124.221 76.6769 124.46 82.494 123.894V113.03L78.4212 107.974V107.885L77.5977 105.752H65.0426V123.194Z" fill="#060607"/>
<path d="M52.8596 119.768C54.9669 120.795 57.2247 121.662 59.5976 122.371V104.052H52.8596V119.768Z" fill="#060607"/>
<path d="M60.111 123.079L59.4381 122.875C57.021 122.149 54.7278 121.255 52.6293 120.237L52.3372 120.095V103.538H60.1199V123.079H60.111ZM53.3819 119.44C55.1528 120.281 57.0652 121.033 59.0751 121.671V104.583H53.3819V119.44Z" fill="#060607"/>
<path d="M85.8584 115.863L78.0137 95.649C78.0137 95.649 78.0137 95.649 78.0137 95.6402L50.4775 79.7471H50.4687C35.9037 88.1585 35.9037 101.794 50.4775 110.205C60.0665 115.739 73.5867 117.634 85.8584 115.88C85.8584 115.88 85.8584 115.872 85.8584 115.863Z" fill="white"/>
<path d="M76.7388 117.04C66.8843 117.04 57.4015 114.809 50.212 110.657C42.996 106.495 39.0205 100.926 39.0205 94.9756C39.0205 89.0257 42.9871 83.4564 50.2032 79.295L50.4599 79.1445L50.7344 79.295L78.4034 95.2678L78.4742 95.4094L86.4341 115.854L86.2127 116.323L85.9559 116.385C82.8924 116.828 79.7935 117.04 76.7388 117.04ZM50.4688 80.3487C43.7574 84.2976 40.0653 89.4861 40.0653 94.9756C40.0653 100.536 43.8548 105.778 50.7344 109.753C59.6682 114.915 72.7988 117.076 85.1325 115.447L77.5888 96.0027L50.4688 80.3487Z" fill="#060607"/>
<path d="M57.6842 37.292C55.1165 38.1774 52.6994 39.2576 50.4859 40.5326C50.477 40.5414 50.477 40.5414 50.4859 40.5503L77.9335 56.3991C77.9424 56.4079 77.9512 56.3902 77.9424 56.3814L57.6931 37.292H57.6842Z" fill="#00C5F6"/>
<path d="M78.0844 57.0894L77.6683 56.8415L49.9638 40.851L49.955 40.2401L50.2295 40.0807C52.4076 38.8235 54.8513 37.7255 57.481 36.8136L57.7908 36.6631L58.0653 36.9287L78.6511 56.328L78.0844 57.0894ZM51.531 40.55L74.3922 53.7514L57.5606 37.8849C55.4002 38.6552 53.3727 39.5495 51.531 40.55Z" fill="#060607"/>
<path d="M50.4773 40.5584V79.7465C50.4773 79.7465 50.4773 79.7554 50.4861 79.7554L77.9958 95.6396C78.0046 95.6396 78.0135 95.6396 78.0135 95.6307L77.9604 56.3983C77.9604 56.3983 77.9604 56.3895 77.9515 56.3895L50.495 40.5495C50.4861 40.5407 50.4773 40.5495 50.4773 40.5584Z" fill="#00C5F6"/>
<path d="M78.0136 96.2424L77.7391 96.1007L49.9638 80.066L49.955 79.7561V40.2669L50.4862 39.957L50.7607 40.1075L78.474 56.098L78.4828 56.4079L78.5359 95.9325L78.0136 96.2424ZM50.9998 79.4462L77.4823 94.7372L77.4292 56.6912L50.9998 41.4445V79.4462Z" fill="#060607"/>
<path d="M97.1652 70.5479L100.025 68.7771V58.8516L97.1652 60.5693V70.5479Z" fill="#00C5F6"/>
<path d="M96.6427 71.4863V60.2682L100.547 57.9307V69.0691L96.6427 71.4863ZM97.6875 60.8614V69.6092L99.5026 68.4847V59.7812L97.6875 60.8614Z" fill="#060607"/>
<path d="M111.987 91.125H110.942V109.47H111.987V91.125Z" fill="#00C5F6"/>
<path d="M95.2435 62.4727H94.1987V71.0169H95.2435V62.4727Z" fill="#00C5F6"/>
<path d="M53.3818 42.0908H52.337V81.2878H53.3818V42.0908Z" fill="#060607"/>
<path d="M69.4872 51.4141H68.4424V90.6111H69.4872V51.4141Z" fill="#060607"/>
<path d="M83.1404 93.7627H82.0956V107.531H83.1404V93.7627Z" fill="#060607"/>
<path d="M89.6391 102.228H88.5944V122.379H89.6391V102.228Z" fill="#00C5F6"/>
<path d="M45.369 120.246C39.366 116.961 37.055 111.657 36.2139 108.797C35.8863 107.682 35.7181 106.495 35.7181 105.273V99.1201H36.7629V105.273C36.7629 106.389 36.9134 107.478 37.2144 108.505C38.0113 111.214 40.1982 116.226 45.8737 119.334L45.369 120.246Z" fill="#060607"/>
<path d="M36.7629 92.417H35.7181V97.03H36.7629V92.417Z" fill="#060607"/>
<path d="M101.291 56.0179C101.291 56.0179 104.266 55.4866 104.956 58.1871C105.647 60.8788 106.524 67.1652 106.524 71.911C106.524 75.3552 107.745 80.5792 107.745 80.5792L98.4929 79.3396L96.4653 72.6017L101.291 56.0179Z" fill="white"/>
<path d="M98.2275 79.6406L96.1025 72.6016L101.025 55.7258L101.229 55.6903C102.362 55.4867 104.673 55.7346 105.275 58.1075C105.922 60.6309 106.851 66.997 106.851 71.911C106.851 75.2756 108.056 80.4463 108.064 80.4995L108.18 80.9776L98.2275 79.6406ZM101.557 56.3278L96.8109 72.6016L98.7499 79.0297L107.303 80.1719C107.002 78.7995 106.178 74.7797 106.178 71.911C106.178 67.0501 105.258 60.7637 104.62 58.2757C104.186 56.5669 102.708 56.319 101.893 56.319C101.76 56.3101 101.645 56.319 101.557 56.3278Z" fill="#060607"/>
<path d="M119.628 120.714C119.628 120.714 119.362 118.74 117.521 117.067C115.679 115.393 113.253 111.887 113.253 111.887L112.554 111.152L111.934 111.356C111.934 111.356 112.235 115.765 111.934 117.739L113.351 118.572L113.554 118.032C113.554 118.032 115.307 119.935 117.007 120.555C118.707 121.148 119.628 120.714 119.628 120.714Z" fill="#060607"/>
<path d="M116.892 120.856C115.599 120.387 114.307 119.236 113.678 118.634L113.519 119.059L111.562 117.908L111.597 117.678C111.89 115.765 111.597 111.418 111.597 111.373L111.58 111.108L112.651 110.763L113.536 111.692C113.563 111.728 115.954 115.19 117.751 116.819C119.663 118.554 119.956 120.591 119.964 120.67L120 120.918L119.779 121.024C119.752 121.033 119.38 121.21 118.698 121.21C118.238 121.202 117.627 121.122 116.892 120.856ZM117.299 117.315C115.449 115.641 113.085 112.215 113.014 112.117L112.456 111.533L112.288 111.586C112.35 112.533 112.518 115.756 112.297 117.545L113.173 118.058L113.43 117.377L113.802 117.775C113.82 117.793 115.529 119.625 117.122 120.21C118.158 120.591 118.884 120.537 119.238 120.467C119.097 119.9 118.628 118.519 117.299 117.315Z" fill="#060607"/>
<path d="M115.546 111.577C115.546 111.577 115.856 115.048 117.52 117.067C117.52 117.067 116.777 118.563 114.749 117.067C112.73 115.57 112.58 110.568 112.58 110.568L115.546 111.577Z" fill="#00C5F6"/>
<path d="M114.555 117.341C112.43 115.765 112.252 110.789 112.244 110.577L112.226 110.09L115.856 111.329L115.874 111.551C115.874 111.586 116.193 114.942 117.777 116.854L117.919 117.022L117.822 117.217C117.813 117.244 117.503 117.846 116.768 118.023C116.635 118.058 116.502 118.067 116.361 118.067C115.821 118.067 115.21 117.819 114.555 117.341ZM115.236 111.825L112.952 111.046C113.049 112.312 113.448 115.677 114.953 116.792C115.599 117.27 116.166 117.465 116.6 117.368C116.839 117.315 116.998 117.182 117.096 117.076C115.741 115.269 115.325 112.604 115.236 111.825Z" fill="#060607"/>
<path d="M115.785 122.379C115.785 122.379 115.519 120.405 113.678 118.731C111.836 117.058 109.41 113.552 109.41 113.552L108.711 112.817L108.091 113.02C108.091 113.02 108.392 117.43 108.091 119.404L109.507 120.236L109.711 119.696C109.711 119.696 111.464 121.6 113.164 122.22C114.864 122.813 115.785 122.379 115.785 122.379Z" fill="#060607"/>
<path d="M113.049 122.521C111.757 122.052 110.455 120.901 109.835 120.299L109.676 120.724L107.719 119.573L107.754 119.342C108.047 117.43 107.754 113.083 107.754 113.038L107.737 112.773L108.808 112.427L109.694 113.357C109.72 113.392 112.111 116.854 113.908 118.484C115.821 120.219 116.113 122.255 116.122 122.335L116.157 122.583L115.936 122.689C115.909 122.698 115.537 122.875 114.855 122.875C114.386 122.866 113.784 122.787 113.049 122.521ZM113.448 118.979C111.597 117.306 109.233 113.879 109.162 113.782L108.604 113.198L108.436 113.251C108.498 114.198 108.666 117.421 108.445 119.21L109.322 119.723L109.578 119.041L109.95 119.44C109.968 119.458 111.677 121.29 113.271 121.875C114.306 122.247 115.033 122.202 115.387 122.131C115.245 121.556 114.776 120.184 113.448 118.979Z" fill="#060607"/>
<path d="M111.694 113.233C111.694 113.233 112.004 116.704 113.669 118.723C113.669 118.723 112.925 120.219 110.897 118.723C108.878 117.226 108.728 112.224 108.728 112.224L111.694 113.233Z" fill="#00C5F6"/>
<path d="M110.703 118.997C108.578 117.421 108.401 112.445 108.392 112.233L108.374 111.746L112.004 112.985L112.022 113.206C112.022 113.242 112.341 116.598 113.926 118.51L114.067 118.678L113.97 118.873C113.961 118.9 113.651 119.502 112.916 119.679C112.784 119.714 112.651 119.723 112.509 119.723C111.969 119.732 111.367 119.484 110.703 118.997ZM111.385 113.49L109.1 112.711C109.198 113.977 109.596 117.341 111.101 118.457C111.748 118.935 112.314 119.13 112.748 119.032C112.978 118.979 113.147 118.847 113.244 118.74C111.889 116.934 111.482 114.269 111.385 113.49Z" fill="#060607"/>
<path d="M112.855 93.5765C116.21 91.7614 117.715 90.5926 117.016 88.1843L115.015 86.4844L108.047 85.5635L103.708 89.5656L103.124 92.3989L107.223 94.9311C107.223 94.9311 110.145 95.0374 112.855 93.5765Z" fill="#060607"/>
<path d="M107.215 95.2771H107.126L102.752 92.5677L103.407 89.398L107.941 85.21L115.157 86.1662L117.308 87.999L117.335 88.0964C118.141 90.8589 116.148 92.1781 113.014 93.8781C110.588 95.1885 108.029 95.2859 107.374 95.2859C107.285 95.2771 107.232 95.2771 107.215 95.2771ZM112.686 93.2761C116.113 91.4167 117.255 90.3896 116.706 88.3709L114.865 86.8037L108.153 85.9183L104.018 89.7433L103.505 92.2401L107.321 94.6042C107.33 94.6042 107.33 94.6042 107.33 94.6042C107.861 94.5953 110.376 94.5333 112.686 93.2761Z" fill="#060607"/>
<path d="M113.775 87.087C113.775 87.087 117.016 86.724 117.016 92.8687C117.016 99.0223 115.962 107.221 116.024 112.321C116.024 112.321 113.917 113.082 112.571 111.152C112.571 111.152 112.801 107.522 112.217 102.829C111.633 98.1457 111.863 93.577 112.217 92.4614C112.217 92.4614 107.241 92.5765 103.726 89.3005C100.211 86.0157 109.118 83.6162 109.118 83.6162L113.775 87.087Z" fill="white"/>
<path d="M112.279 111.338L112.208 111.241L112.217 111.126C112.217 111.09 112.438 107.469 111.872 102.874C111.349 98.7211 111.464 94.4711 111.783 92.7977C110.473 92.7446 106.488 92.355 103.487 89.5482C102.717 88.8311 102.424 88.0785 102.61 87.3082C103.212 84.8822 108.782 83.3504 109.012 83.2884L109.171 83.2441L113.881 86.7415C114.191 86.7415 114.953 86.8212 115.688 87.4764C116.794 88.4592 117.352 90.2743 117.352 92.8685C117.352 95.994 117.087 99.6242 116.821 103.13C116.564 106.566 116.325 109.806 116.352 112.312V112.551L116.122 112.631C116.113 112.631 115.661 112.79 115.024 112.79C114.218 112.799 113.111 112.533 112.279 111.338ZM116.139 103.086C116.396 99.5888 116.671 95.9763 116.671 92.8774C116.671 89.9201 115.9 88.592 115.254 88.0076C114.554 87.3702 113.846 87.4233 113.811 87.4321L113.678 87.4498L109.029 83.9968C107.418 84.4572 103.664 85.8384 103.257 87.4852C103.133 87.9988 103.354 88.5212 103.938 89.0613C107.303 92.2045 112.155 92.1336 112.19 92.1336L112.66 92.1248L112.518 92.5763C112.208 93.5503 111.934 98.0393 112.527 102.803C113.049 106.991 112.916 110.382 112.89 111.064C113.828 112.321 115.139 112.197 115.661 112.082C115.661 109.567 115.9 106.415 116.139 103.086Z" fill="#060607"/>
<path d="M108.914 88.3529C108.914 88.3529 113.04 88.282 113.04 94.4356C113.04 100.589 111.836 108.407 111.898 113.507C111.898 113.507 109.543 114.72 108.197 112.79C108.197 112.79 108.427 109.16 107.843 104.467C107.321 100.279 107.454 96.1887 107.737 94.5684C107.781 94.3205 107.595 94.0992 107.347 94.0903C106.001 94.0195 102.194 93.5945 99.3521 90.9383C95.837 87.6534 104.744 85.2539 104.744 85.2539L108.914 88.3529Z" fill="white"/>
<path d="M107.914 112.985L107.843 112.888L107.852 112.773C107.852 112.737 108.082 109.116 107.507 104.521C106.976 100.253 107.126 96.1008 107.401 94.5248L107.737 94.5868L107.33 94.4451C105.825 94.3743 102.008 93.905 99.1132 91.2045C98.3429 90.4873 98.0507 89.7347 98.2366 88.9644C98.8387 86.5384 104.408 85.0067 104.647 84.9447L104.806 84.9004L109.03 88.0348C109.41 88.0525 110.615 88.2118 111.659 89.2389C112.802 90.3545 113.377 92.1076 113.377 94.4451C113.377 97.5883 113.067 101.129 112.766 104.565C112.474 107.885 112.199 111.019 112.235 113.507V113.72L112.049 113.817C111.642 114.03 110.995 114.233 110.305 114.233C109.481 114.225 108.569 113.924 107.914 112.985ZM112.093 104.503C112.394 101.085 112.695 97.5529 112.695 94.4451C112.695 92.3024 112.191 90.7175 111.19 89.7347C110.163 88.7165 108.941 88.7077 108.906 88.7077H108.791L104.656 85.6353C103.044 86.0957 99.2991 87.4769 98.8829 89.1238C98.759 89.6373 98.9803 90.1597 99.5647 90.6998C102.292 93.2498 105.922 93.6925 107.347 93.7633C107.56 93.7722 107.764 93.8784 107.896 94.0467C108.029 94.2149 108.082 94.4274 108.047 94.6399C107.772 96.1805 107.631 100.235 108.153 104.441C108.676 108.629 108.543 112.02 108.516 112.702C109.49 113.977 111.004 113.516 111.535 113.304C111.544 110.798 111.819 107.735 112.093 104.503Z" fill="#060607"/>
<path d="M103.239 76.524C103.239 76.524 108.454 79.0474 112.324 83.0849C116.193 87.1224 117.007 88.1848 117.007 88.1848C117.007 88.1848 115.546 85.9625 111.031 87.6536C106.524 89.3536 106.179 91.328 106.064 93.1608C106.002 94.1702 106.94 94.6395 107.135 94.8431C107.162 94.8785 107.144 94.9228 107.1 94.914C106.312 94.8166 101.902 94.0905 96.0851 90.0088C89.6571 85.5021 91.2154 81.0927 93.0748 77.923C94.7039 75.1605 103.239 76.524 103.239 76.524Z" fill="#00C5F6"/>
<path d="M107.055 95.2596C106.223 95.1533 101.76 94.4096 95.89 90.2924C89.2495 85.6352 90.9317 80.9071 92.7822 77.7639C94.5088 74.8243 102.938 76.1347 103.301 76.1967L103.398 76.2233C103.451 76.2499 108.711 78.8175 112.58 82.855C115.626 86.0425 116.786 87.3706 117.149 87.8044C117.246 87.9107 117.299 87.9815 117.308 87.9992L116.759 88.3888C116.759 88.3888 116.715 88.3357 116.626 88.2206C116.21 87.7867 114.696 86.6357 111.172 87.9638C106.648 89.6638 106.524 91.6117 106.426 93.1788C106.391 93.7632 106.781 94.1174 107.188 94.4273C107.285 94.4981 107.365 94.5601 107.4 94.6043C107.515 94.7195 107.542 94.8965 107.462 95.0471L107.312 95.2773L107.055 95.2596ZM115.36 86.8216C114.643 86.0424 113.598 84.9091 112.084 83.3243C108.489 79.5701 103.655 77.1087 103.142 76.8519C100.786 76.4801 94.5973 76.0108 93.3666 78.1004C91.5073 81.2613 90.1703 85.4404 96.2796 89.7346C100.777 92.8867 104.399 94.0111 106.143 94.4007C105.895 94.0908 105.691 93.6835 105.727 93.1346C105.86 91.0539 106.356 89.044 110.907 87.3351C112.199 86.8482 113.253 86.6711 114.112 86.6711C114.59 86.6799 115.006 86.7331 115.36 86.8216Z" fill="#060607"/>
<path d="M100.317 55.788C100.317 55.788 103.894 54.9114 104.239 57.2489C104.594 59.5952 105.116 62.2869 105.939 65.1024C106.763 67.918 103.478 69.0868 103.478 69.0868C103.478 69.0868 103.416 73.6732 105.001 77.4805C105.001 77.4805 99.5645 83.6783 92.2422 80.5705L92.5255 78.9856C92.5255 78.9856 93.8093 71.6013 93.0744 68.3785C92.3484 65.1556 90.1969 63.8717 91.3922 60.7374C92.5875 57.603 97.227 56.3015 97.227 56.3015L100.317 55.788Z" fill="#060607"/>
<path d="M92.1093 80.889L91.8614 80.7828L92.189 78.9323C92.1979 78.8614 93.4463 71.5834 92.7468 68.4579C92.4989 67.3423 92.0739 66.4746 91.6578 65.6423C90.9052 64.1017 90.25 62.7736 91.0734 60.622C92.313 57.3637 96.9348 56.0356 97.165 55.9648L100.246 55.4512C100.45 55.407 102.477 54.9466 103.69 55.77C104.177 56.0976 104.478 56.5757 104.567 57.1955C104.983 59.9491 105.55 62.5699 106.258 65.0048C106.931 67.3246 105.063 68.7855 103.814 69.3167C103.832 70.2818 103.974 74.1245 105.311 77.3474L105.39 77.5422L105.249 77.7015C105.205 77.7547 101.601 81.7744 96.3505 81.7744C95.0312 81.7744 93.6057 81.5176 92.1093 80.889ZM103.142 69.0777V68.8386L103.363 68.7589C103.487 68.7146 106.338 67.6699 105.612 65.1907C104.895 62.7381 104.319 60.0819 103.903 57.2929C103.841 56.859 103.646 56.5491 103.319 56.3278C102.309 55.6549 100.414 56.1064 100.397 56.1064L97.3155 56.6111C97.2713 56.62 92.8265 57.9038 91.7021 60.8434C90.9849 62.7204 91.5515 63.8715 92.2687 65.3324C92.676 66.1647 93.1364 67.1032 93.402 68.2985C94.1369 71.5479 92.9062 78.7286 92.8531 79.0385L92.614 80.3578C98.8739 82.8369 103.726 78.2948 104.602 77.4005C103.097 73.6198 103.133 69.2636 103.142 69.0777Z" fill="#060607"/>
<path d="M101.45 56.1417C101.45 56.1417 102.3 55.4068 102.3 56.6641C102.3 57.9213 102.406 59.5151 102.406 62.0651C102.406 64.376 99.281 65.9343 96.9966 61.5958C94.7123 57.2573 93.0743 58.612 93.0743 58.612L94.4732 55.9203L98.2274 53.8662L101.45 56.1417Z" fill="white"/>
<path d="M96.6957 61.7465C95.5269 59.5241 94.5795 58.9043 93.9863 58.7715C93.5347 58.6741 93.2868 58.86 93.278 58.86L92.003 59.9048L94.2077 55.6549L98.2363 53.4502L101.441 55.7169C101.636 55.6106 101.911 55.5132 102.185 55.6283C102.637 55.832 102.637 56.4429 102.637 56.6465C102.637 57.1601 102.654 57.7356 102.672 58.4085C102.699 59.3559 102.734 60.5423 102.734 62.0475C102.734 63.2694 101.964 64.3142 100.857 64.5886C100.662 64.6329 100.476 64.6595 100.282 64.6595C98.9977 64.6683 97.6873 63.6147 96.6957 61.7465ZM101.672 56.3986L101.468 56.5757L98.2008 54.2559L94.7212 56.1596L93.7295 58.072C93.7295 58.072 93.7295 58.072 93.7384 58.072C93.8535 58.072 93.9686 58.0809 94.1014 58.1075C95.1728 58.3199 96.2441 59.4444 97.2977 61.4366C98.2805 63.2959 99.5467 64.2345 100.707 63.9511C101.512 63.7564 102.07 62.9772 102.07 62.0652C102.07 60.5777 102.035 59.4001 102.008 58.4528C101.99 57.771 101.973 57.1955 101.973 56.6731C101.973 56.3898 101.92 56.2924 101.928 56.2747C101.866 56.2658 101.751 56.3278 101.672 56.3986Z" fill="#060607"/>
<path d="M98.0596 71.2199C99.9367 71.2199 101.362 70.1574 101.38 70.1397L100.973 69.5996C100.857 69.6882 98.1482 71.6981 95.4034 69.5996L94.9961 70.1397C96.0586 70.9543 97.1211 71.2199 98.0596 71.2199Z" fill="#00C5F6"/>
<path d="M104.895 90.026L105.098 89.3797C105.036 89.362 98.6524 87.299 97.1029 83.8193L96.4832 84.0938C98.1654 87.8568 104.62 89.9464 104.895 90.026Z" fill="#060607"/>
<path d="M96.1203 82.7748L96.7666 82.5889C96.4213 81.4202 96.9968 80.8535 97.0234 80.827L96.563 80.3311C96.5364 80.3577 95.6599 81.1811 96.1203 82.7748Z" fill="#060607"/>
<path d="M99.8743 62.5873C100.069 62.5873 100.246 62.5341 100.414 62.4367C101.858 61.5513 101.273 57.8857 101.202 57.4785L100.538 57.5936C100.777 58.9837 100.857 61.3743 100.06 61.8612C99.9894 61.9055 99.8832 61.9498 99.6707 61.8789C98.5727 61.4805 97.0233 58.6649 96.6603 57.5847L96.0139 57.7972C96.3327 58.7534 97.9618 61.9852 99.4316 62.5164C99.591 62.5607 99.7326 62.5873 99.8743 62.5873Z" fill="#060607"/>
<path d="M102.159 49.2882C102.159 49.2882 104.133 55.9553 100.99 57.9652C100.928 58.0006 100.866 58.0272 100.795 58.0272C100.282 58.0626 98.0683 58.0626 96.1558 55.309C96.1026 55.2381 96.0318 55.185 95.9521 55.1585C95.5271 55.0434 94.1725 54.5741 94.0662 53.308C93.9954 52.4048 94.5001 52.1304 94.9251 52.0595C95.173 52.0153 95.3146 51.7496 95.2172 51.5194L94.1547 49.1997C94.0928 49.058 94.1193 48.8986 94.2167 48.7835L96.4125 46.3664C96.5011 46.2601 96.6427 46.2158 96.7756 46.2513L101.247 47.2341C101.38 47.2606 101.486 47.358 101.53 47.482L102.159 49.2882Z" fill="white"/>
<path d="M95.8545 55.4867C95.3852 55.3628 93.8446 54.8227 93.7207 53.3352C93.6498 52.4498 94.0571 51.8654 94.854 51.7237L94.8894 51.6618L93.8446 49.342C93.7295 49.0764 93.7738 48.7753 93.9686 48.554L96.1644 46.1368C96.3415 45.942 96.5983 45.8623 96.855 45.9155L101.326 46.8983C101.574 46.9514 101.778 47.1285 101.858 47.3675L102.477 49.1738L102.486 49.1915C102.566 49.4748 104.496 56.1242 101.176 58.2492C101.07 58.32 100.954 58.3555 100.822 58.3643C100.751 58.3732 100.671 58.3732 100.565 58.3732C99.6972 58.3732 97.6519 58.0633 95.8545 55.4867ZM101.185 47.5623L96.6691 46.5972L94.4644 49.0675L95.5092 51.3873C95.5977 51.5909 95.5977 51.8211 95.4915 52.0248C95.3852 52.2284 95.1993 52.3612 94.9691 52.3967C94.5264 52.4763 94.3493 52.7508 94.3936 53.2821C94.4821 54.3357 95.6686 54.7341 96.0316 54.8404C96.191 54.8847 96.3326 54.982 96.43 55.1237C98.2628 57.7534 100.361 57.7357 100.804 57.6825C103.655 55.8586 101.911 49.6519 101.84 49.3951L101.185 47.5623Z" fill="#060607"/>
<path d="M97.1738 44.1004C101.025 43.826 104.222 47.2613 103.814 51.104C103.744 51.7769 103.575 52.5118 103.292 53.2998C102.477 54.9467 102.787 51.1394 99.1394 50.1301L98.8649 50.7853C98.8383 50.8384 98.7764 50.865 98.7232 50.8384L97.0675 49.7405C97.0321 49.7228 96.9967 49.7228 96.9613 49.7493C96.6868 49.953 94.8806 50.5816 95.9785 52.2639C96.0139 52.3259 95.9962 52.4056 95.9254 52.4144C95.5092 52.4941 94.2254 52.5295 94.5795 53.3707C95.0045 54.3535 95.642 55.0441 95.7217 55.0972C95.7306 55.0972 95.7306 55.1061 95.7306 55.1061L96.8196 56.1685C96.8285 56.1774 96.8373 56.1951 96.8462 56.204C96.9259 56.4076 97.4305 57.9128 94.6769 58.9664C92.5077 59.7987 91.3921 60.8346 90.9494 61.3216C90.8785 61.4013 90.7546 61.3393 90.7723 61.2331C90.9051 60.3034 91.3389 57.8597 92.2952 56.7086C93.4905 55.2654 92.9858 53.2556 91.9853 51.8123C90.9848 50.3691 90.8077 47.04 94.7655 44.8442C95.5889 44.3749 96.4035 44.1536 97.1738 44.1004Z" fill="#00C5F6"/>
<path d="M90.7016 61.6487C90.5245 61.5691 90.4183 61.3743 90.4448 61.1795C90.5865 60.1701 91.0381 57.6998 92.0386 56.4868C93.1542 55.1321 92.561 53.2197 91.711 51.9978C91.2329 51.3072 90.8344 50.0499 91.1709 48.6155C91.4365 47.4822 92.2422 45.8531 94.6063 44.5427C95.412 44.0911 96.2708 43.8343 97.1562 43.7723C99.0599 43.6395 100.928 44.3656 102.292 45.7734C103.691 47.2254 104.372 49.1822 104.16 51.1478C104.08 51.8915 103.903 52.653 103.602 53.4587C103.451 53.7686 103.266 54.0519 102.956 54.0608C102.61 54.0696 102.433 53.7243 102.185 53.2639C101.769 52.4671 101.087 51.1567 99.3343 50.5546L99.1838 50.9264C99.1395 51.0415 99.0422 51.1301 98.9271 51.1744C98.8119 51.2186 98.688 51.2098 98.5375 51.1301L97.0146 50.1207C96.988 50.1296 96.9614 50.1473 96.9349 50.165C96.6427 50.3244 96.1026 50.6166 95.9875 51.077C95.9167 51.3603 96.0052 51.6967 96.262 52.0863C96.3417 52.2103 96.3594 52.3697 96.2974 52.5025C96.2443 52.6353 96.1292 52.7238 95.9875 52.7592C95.9255 52.7681 95.8458 52.7858 95.7484 52.7947C95.5271 52.8212 94.9516 52.9009 94.863 53.0691C94.8365 53.1134 94.8719 53.2108 94.8896 53.2462C95.2792 54.1405 95.8547 54.778 95.9078 54.8222L97.0588 55.9379L97.1385 56.0264L97.1651 56.0884C97.2271 56.2389 97.413 56.7967 97.112 57.4696C96.7932 58.2134 96.0141 58.8243 94.8011 59.2935C92.7292 60.0904 91.6579 61.0555 91.2063 61.5602C91.1178 61.6576 91.0026 61.7107 90.8787 61.7107C90.8256 61.6842 90.7547 61.6753 90.7016 61.6487ZM95.5094 55.3446C95.3057 55.1764 94.6859 54.4592 94.2698 53.4941C94.1104 53.1311 94.1901 52.8743 94.2787 52.715C94.5089 52.3077 95.0844 52.1837 95.5182 52.1217C95.3057 51.6879 95.2438 51.2718 95.3411 50.891C95.5271 50.1384 96.2708 49.74 96.625 49.5452C96.687 49.5098 96.7401 49.4832 96.7667 49.4655C96.8995 49.3681 97.0766 49.3504 97.2625 49.4478L98.6703 50.3863L98.9448 49.7134L99.2369 49.7931C101.486 50.4218 102.336 52.0509 102.787 52.9275C102.841 53.0249 102.903 53.14 102.947 53.2374C102.956 53.2197 102.965 53.2019 102.982 53.1754C103.248 52.4582 103.416 51.7499 103.487 51.0593C103.673 49.2884 103.062 47.5265 101.805 46.2249C100.583 44.9588 98.9182 44.3036 97.2094 44.4276C96.4213 44.4807 95.6599 44.7197 94.9427 45.1182C92.8 46.3135 92.0651 47.7567 91.8349 48.7572C91.5516 49.9791 91.8792 51.0238 92.2776 51.5994C93.2604 53.016 93.9334 55.2561 92.5787 56.9029C91.8615 57.7706 91.4454 59.4972 91.2506 60.5597C91.8881 59.993 92.9505 59.2581 94.5886 58.6295C95.6068 58.2399 96.2708 57.7352 96.5187 57.1686C96.687 56.7878 96.6161 56.4691 96.5719 56.354L95.5094 55.3446Z" fill="#060607"/>
<path d="M100.379 55.0528L101.078 54.8492C101.291 54.7872 101.468 54.6456 101.574 54.4419C101.68 54.2471 101.698 54.0169 101.636 53.8044L101.229 52.5117L100.583 52.7154L100.99 54.0081C101.008 54.0612 100.99 54.1055 100.981 54.1232C100.972 54.1409 100.946 54.1763 100.892 54.194L100.193 54.3976L100.379 55.0528Z" fill="#060607"/>
<path d="M99.6884 52.3346C99.8566 52.857 99.7504 53.3705 99.4493 53.4679C99.1483 53.5653 98.7587 53.22 98.5905 52.6976C98.4222 52.1752 98.5285 51.6617 98.8295 51.5643C99.1306 51.4669 99.5113 51.8122 99.6884 52.3346Z" fill="#060607"/>
<path d="M96.5364 54.1943C96.5984 54.1943 96.6426 54.1854 96.6869 54.1765L96.5629 53.5125C96.5364 53.5125 96.315 53.5391 96.1025 53.2734L95.5713 53.6984C95.89 54.088 96.2708 54.1943 96.5364 54.1943Z" fill="#060607"/>
<path d="M100.406 56.8767C100.45 56.8767 100.494 56.8767 100.547 56.8679C101.061 56.8059 101.362 56.4163 101.397 56.372L100.857 55.9648L101.132 56.1684L100.866 55.9648C100.866 55.9648 100.698 56.1772 100.468 56.195C100.317 56.2127 100.158 56.1507 99.9894 56.009L99.5644 56.5314C99.83 56.7616 100.113 56.8767 100.406 56.8767Z" fill="#060607"/>
<path d="M103.301 52.1753L103.974 52.1133C103.965 52.0513 103.283 45.579 97.5722 45.9066L97.6165 46.5795C102.681 46.2696 103.283 51.9273 103.301 52.1753Z" fill="#060607"/>
<path d="M92.4371 53.4235L93.1012 53.2996C92.3751 49.4215 94.2345 48.0402 94.2522 48.0225L93.8626 47.4736C93.7652 47.5444 91.6314 49.1293 92.4371 53.4235Z" fill="#060607"/>
<path d="M91.1001 61.3392C91.7376 59.5329 92.6495 58.7715 93.836 58.1783C94.9782 57.6028 95.1375 56.5757 95.0578 56.1064L94.3938 56.2215C94.4026 56.2569 94.5089 57.0804 93.535 57.5762C92.3839 58.1517 91.2152 58.984 90.4626 61.1178L91.1001 61.3392Z" fill="#060607"/>
<path d="M92.6404 60.7545C91.5248 60.1082 90.2232 62.6493 89.6123 67.5013C89.0102 72.3622 89.5769 72.9112 89.4972 77.896C89.4529 80.747 89.5592 85.1652 89.4795 86.3871C89.4175 87.2636 89.0722 88.1047 88.5763 88.7865L86.7081 90.9026C86.1769 91.6287 86.23 92.399 87.018 92.6823C87.8946 93.0011 88.8508 92.7443 89.4972 92.0183L91.2768 90.0349L91.631 90.3271C91.631 90.7787 91.4982 91.2125 91.2591 91.5756C91.0378 91.912 90.8076 92.2927 90.8076 92.2927C91.6487 92.213 92.3925 91.6287 92.7555 90.761C92.9414 90.3183 92.9414 89.8047 92.7732 89.3532L92.481 88.6006C92.056 87.4938 91.8701 86.2897 91.9498 85.0855C92.0914 82.9605 92.3482 79.3127 92.6581 75.957C93.1539 70.8216 95.1018 62.1712 92.6404 60.7545Z" fill="white"/>
<path d="M86.8945 93.0015C86.3544 92.8067 86.1419 92.4526 86.0622 92.187C85.9206 91.7354 86.0534 91.213 86.443 90.6817L88.2935 88.5833C88.7804 87.9104 89.0815 87.1224 89.1346 86.361C89.1789 85.7058 89.17 84.0323 89.1612 82.2615C89.1523 80.7475 89.1434 79.1803 89.1612 77.8876C89.1877 75.984 89.1257 74.7356 89.0638 73.6288C88.9752 71.8668 88.8955 70.4767 89.2763 67.4575C89.7544 63.6148 90.7018 60.9852 91.8085 60.4362C92.145 60.268 92.4814 60.2769 92.809 60.4628C94.9163 61.6758 94.1903 66.9971 93.4908 72.1325C93.3049 73.5225 93.1189 74.8418 93.0127 75.9928C92.7116 79.2157 92.4637 82.7308 92.3044 85.1125C92.2247 86.2636 92.4017 87.4235 92.809 88.4771L93.1012 89.2297C93.3049 89.7609 93.296 90.363 93.0835 90.8943C92.6762 91.8771 91.8262 92.5411 90.8611 92.6385L90.2059 92.7005L90.5424 92.1338C90.5424 92.1338 90.7726 91.7442 91.0028 91.3989C91.171 91.1422 91.2773 90.8411 91.3038 90.5312L89.7632 92.2489C89.2231 92.8421 88.5148 93.1609 87.7888 93.1609C87.4789 93.1609 87.1867 93.1078 86.8945 93.0015ZM91.9768 90.1682V90.3276C91.9768 90.8057 91.8528 91.2661 91.6137 91.6734C91.9768 91.4432 92.2778 91.0802 92.4549 90.6375C92.6054 90.2745 92.6142 89.8495 92.4637 89.4776L92.1715 88.725C91.7288 87.5828 91.5429 86.3167 91.6226 85.0683C91.782 82.6865 92.0387 79.1626 92.3398 75.9309C92.446 74.771 92.6319 73.4429 92.8179 72.0439C93.4288 67.5815 94.1814 62.03 92.4726 61.0472C92.3486 60.9763 92.2424 60.9763 92.1184 61.0383C91.4012 61.3925 90.4538 63.544 89.9492 67.5372C89.5773 70.4945 89.6481 71.858 89.7455 73.5845C89.8075 74.7001 89.8695 75.9574 89.8429 77.8876C89.8252 79.1626 89.8341 80.7298 89.8429 82.2438C89.8518 84.1032 89.8695 85.7146 89.8164 86.3964C89.7544 87.2818 89.4091 88.2026 88.8247 88.9995L86.9742 91.0979C86.7351 91.4255 86.6377 91.7531 86.7174 91.9833C86.7706 92.1515 86.9034 92.2755 87.1336 92.3552C87.8773 92.6296 88.6919 92.4083 89.2497 91.7797L91.2507 89.5573L91.9768 90.1682Z" fill="#060607"/>
<path d="M109.304 119.865L109.977 119.856C109.959 118.528 110.207 118.165 110.216 118.156L109.702 117.713C109.605 117.819 109.277 118.297 109.304 119.865Z" fill="#00C5F6"/>
<path d="M114.227 121.972C114.847 121.972 115.228 121.715 115.254 121.697L114.874 121.14C114.847 121.157 114.307 121.503 113.457 121.113L113.174 121.724C113.563 121.91 113.917 121.972 114.227 121.972Z" fill="#00C5F6"/>
<path d="M117.928 120.307C118.548 120.307 118.929 120.05 118.955 120.033L118.575 119.475C118.548 119.493 118.008 119.838 117.158 119.448L116.875 120.059C117.273 120.245 117.627 120.307 117.928 120.307Z" fill="#00C5F6"/>
<path d="M102.986 68.5576L101.874 69.0408L102.142 69.658L103.254 69.1748L102.986 68.5576Z" fill="#00C5F6"/>
<path d="M96.935 69.441L97.0678 68.7769C97.0058 68.7681 95.6157 68.4582 95.2261 67.1035L94.5709 67.2894C95.0756 69.0514 96.8641 69.4233 96.935 69.441Z" fill="#00C5F6"/>
<path d="M95.9167 80.6147L96.5808 80.473C96.5808 80.4642 96.3948 79.5079 96.6162 76.7632L95.9433 76.71C95.7131 79.5876 95.9079 80.5793 95.9167 80.6147Z" fill="#00C5F6"/>
<path d="M96.1198 74.6494L95.9922 76.0247L96.6622 76.0869L96.7898 74.7116L96.1198 74.6494Z" fill="#00C5F6"/>
<path d="M90.8522 71.92C90.9231 69.6268 91.2064 68.8122 91.2153 68.8034L90.5778 68.5732C90.5689 68.6086 90.259 69.4674 90.1793 71.9023L90.8522 71.92Z" fill="#060607"/>
<path d="M115.635 83.731L104.018 90.4335C103.682 90.6283 103.274 90.6283 102.938 90.4335L96.4214 86.6794C96.1115 86.5023 95.8901 84.7138 96.4214 84.4925L108.578 78.8613L116.325 81.9425C116.635 82.1196 115.936 83.5451 115.635 83.731Z" fill="#060607"/>
<path d="M103.469 90.9114C103.221 90.9114 102.982 90.8494 102.761 90.7254L96.2444 86.9713C95.8194 86.7323 95.7397 85.6786 95.7662 85.2359C95.8105 84.5364 96.0673 84.2797 96.2798 84.1911L108.56 78.5068L116.441 81.6412C116.573 81.712 116.724 81.8448 116.724 82.1458C116.724 82.6859 116.166 83.8104 115.785 84.0318L104.169 90.7343C103.965 90.8494 103.717 90.9114 103.469 90.9114ZM108.587 79.224L96.5631 84.7932C96.5366 84.8109 96.4746 84.9083 96.448 85.1562C96.386 85.6786 96.5277 86.3073 96.6251 86.4224L103.106 90.1499C103.336 90.2827 103.62 90.2827 103.859 90.1499L115.475 83.4474C115.653 83.3146 116.051 82.5177 116.086 82.199L108.587 79.224Z" fill="#060607"/>
<path d="M115.634 82.3414L104.018 89.044C103.681 89.2388 103.274 89.2388 102.938 89.044L96.421 85.2898C96.1111 85.1128 96.1111 84.6701 96.421 84.493L108.578 77.4717L115.634 81.5357C115.935 81.7128 115.935 82.1644 115.634 82.3414Z" fill="white"/>
<path d="M103.469 89.5211C103.221 89.5211 102.982 89.4591 102.761 89.3352L96.2443 85.581C95.9964 85.4394 95.8459 85.1826 95.8459 84.8904C95.8459 84.6071 95.9964 84.3415 96.2443 84.1998L108.569 77.0811L115.785 81.2425C116.033 81.3842 116.184 81.641 116.184 81.9332C116.184 82.2165 116.033 82.4733 115.785 82.6238L104.169 89.3263C103.965 89.4591 103.717 89.5211 103.469 89.5211ZM108.578 77.8603L96.5896 84.7842C96.5365 84.8196 96.5276 84.8727 96.5276 84.8993C96.5276 84.9258 96.5365 84.979 96.5896 85.0144L103.106 88.7685C103.336 88.9013 103.62 88.9013 103.859 88.7685L115.475 82.0571C115.529 82.0217 115.537 81.9686 115.537 81.942C115.537 81.9154 115.529 81.8623 115.475 81.8269L108.578 77.8603Z" fill="#060607"/>
<path d="M116.325 81.9419L103.478 89.3616V79.0643C103.478 78.8518 103.593 78.657 103.77 78.5507L116.068 71.4498C116.183 71.379 116.334 71.4675 116.334 71.6003V81.9419H116.325Z" fill="#00C5F6"/>
<path d="M103.141 89.9376V79.0648C103.141 78.7372 103.319 78.4273 103.602 78.268L115.9 71.167C116.051 71.0785 116.246 71.0785 116.405 71.167C116.564 71.2555 116.662 71.4238 116.662 71.6097V82.1372L103.141 89.9376ZM115.989 71.8753L103.929 78.8346C103.85 78.8789 103.797 78.9674 103.797 79.056V88.7778L115.98 81.7388V71.8753H115.989Z" fill="#060607"/>
<path d="M110.508 81.4649L109.286 82.1731C109.101 82.2793 108.959 82.1642 108.959 81.9252V80.6326C108.959 80.3935 109.109 80.1102 109.286 80.0039L110.508 79.2955C110.694 79.1893 110.836 79.3044 110.836 79.5434V80.8362C110.836 81.0753 110.694 81.3586 110.508 81.4649Z" fill="white"/>
<path d="M109.153 82.5451C109.065 82.5451 108.976 82.5185 108.905 82.4743C108.728 82.368 108.622 82.1732 108.622 81.9164V80.6237C108.622 80.2696 108.835 79.8711 109.118 79.7118L110.34 79.0035C110.526 78.8972 110.721 78.8884 110.889 78.9857C111.066 79.092 111.172 79.2868 111.172 79.5436V80.8362C111.172 81.1993 110.96 81.5888 110.676 81.7571L109.454 82.4654C109.357 82.5097 109.26 82.5451 109.153 82.5451ZM110.508 79.6852L109.454 80.2961C109.392 80.3316 109.295 80.4998 109.295 80.6326V81.7925L110.349 81.1816C110.411 81.1461 110.508 80.9779 110.508 80.8451V79.6852Z" fill="#060607"/>
<path d="M7.2041 61.8105C7.2041 44.1112 19.6352 22.5781 34.9616 13.7241C42.0449 9.63349 48.5084 8.96943 53.4135 11.1829L53.8651 11.4308L58.9031 14.2287L61.7275 19.1339C64.3395 22.5162 62.728 23.5964 62.728 29.7588C62.728 47.4581 50.2969 68.9912 34.9705 77.8453C29.5429 80.9796 31.0039 80.7937 26.7273 80.1562L20.2107 82.5291L15.4738 79.8552L15.04 79.5984C10.1968 76.6234 7.2041 70.4875 7.2041 61.8105Z" fill="white"/>
<path d="M20.1667 83.1395L26.7896 80.7223C27.126 80.7754 27.4359 80.8197 27.7015 80.864C30.2426 81.2624 30.3843 81.2358 32.9431 79.6864C33.5452 79.3234 34.289 78.8718 35.2541 78.314C50.7133 69.3979 63.2861 47.6081 63.2861 29.7582C63.2861 27.7572 63.4631 26.2963 63.596 25.1187C63.8793 22.7015 64.0564 21.2406 62.1705 18.7969L59.3106 13.8209L53.6794 10.7043C48.3847 8.31365 41.6556 9.22562 34.6785 13.2542C19.2193 22.1791 6.6377 43.969 6.6377 61.8188C6.6377 70.3984 9.51528 76.8796 14.748 80.0848L15.1819 80.3416L20.1667 83.1395ZM26.6656 79.5713L20.2641 81.9087L15.3324 79.1109C10.4538 76.127 7.77102 69.9735 7.77102 61.81C7.77102 44.3143 20.0959 22.9583 35.2541 14.2105C41.9035 10.3678 48.2784 9.47353 53.1924 11.6959L58.5049 14.6355L61.2496 19.4078C62.8965 21.5505 62.7725 22.6218 62.4981 24.977C62.3564 26.1812 62.1793 27.6864 62.1793 29.7494C62.1793 47.245 49.8544 68.6011 34.6962 77.3489C33.7223 77.9067 32.9697 78.3671 32.3676 78.7301C30.0921 80.1114 30.0921 80.1114 27.8875 79.7572C27.5776 79.7041 27.2234 79.651 26.825 79.589L26.6656 79.5713Z" fill="#060607"/>
<path d="M48.7212 65.4492C44.6395 70.5226 39.9114 74.8168 34.8646 77.7386C29.437 80.873 30.8979 80.6871 26.6214 80.0496L20.1048 82.4224L15.3679 79.7485L14.934 79.4917C10.082 76.5168 7.09814 70.3809 7.09814 61.7039C7.09814 53.7441 9.62155 45.0051 13.783 37.001L37.2906 49.99L48.7212 65.4492Z" fill="#060607"/>
<path d="M19.629 82.2058C8.78809 75.9466 8.78825 55.651 19.6293 36.8743C30.4704 18.0977 48.0471 7.95013 58.888 14.2092C69.7288 20.4684 69.7287 40.764 58.8876 59.5407C48.0465 78.3175 30.4698 88.465 19.629 82.2058Z" fill="white"/>
<path d="M26.8606 84.6275C30.7652 84.6275 35.0772 83.3259 39.5396 80.7494C54.9989 71.8245 67.5805 50.0346 67.5805 32.1848C67.5805 23.4104 64.5967 16.8584 59.1691 13.724C53.7416 10.5897 46.5786 11.2803 38.9818 15.6719C23.5138 24.5969 10.941 46.3867 10.941 64.2366C10.941 73.011 13.9248 79.563 19.3523 82.6973C21.5836 83.99 24.1247 84.6275 26.8606 84.6275ZM51.652 12.9183C54.202 12.9183 56.5395 13.5115 58.6025 14.698C63.667 17.6198 66.456 23.8265 66.456 32.1848C66.456 49.6805 54.1312 71.0276 38.973 79.7843C31.7392 83.9634 24.9658 84.6541 19.9013 81.7322C14.8368 78.8104 12.0477 72.5948 12.0477 64.2454C12.0477 46.7498 24.3726 25.3937 39.5308 16.6459C43.825 14.1667 47.951 12.9183 51.652 12.9183Z" fill="#060607"/>
<path d="M22.5636 77.1554C13.3362 71.8278 13.3381 54.5497 22.5679 38.5636C31.7978 22.5776 46.7603 13.9372 55.9878 19.2648C65.2152 24.5924 65.2133 41.8706 55.9835 57.8566C46.7537 73.8427 31.7911 82.4831 22.5636 77.1554Z" fill="#00C5F6"/>
<path d="M28.72 79.297C32.058 79.297 35.7413 78.1814 39.5574 75.9855C52.7411 68.371 63.4722 49.7952 63.4722 34.5662C63.4722 27.0668 60.9134 21.4621 56.2739 18.7793C51.6343 16.0966 45.4984 16.6898 38.9996 20.4351C25.8158 28.0496 15.0847 46.6254 15.0847 61.8544C15.0847 69.3538 17.6435 74.9585 22.2831 77.6413C24.2044 78.748 26.3736 79.297 28.72 79.297ZM49.8281 18.2481C51.9796 18.2481 53.9629 18.7439 55.7072 19.7533C59.9926 22.2236 62.3478 27.4829 62.3478 34.5662C62.3478 49.4322 51.8734 67.5742 38.9996 75.0116C32.8637 78.5532 27.1351 79.1376 22.8497 76.6673C18.5643 74.197 16.2092 68.9377 16.2092 61.8544C16.2092 46.9884 26.6835 28.8464 39.5574 21.409C43.1875 19.3106 46.6849 18.2481 49.8281 18.2481Z" fill="#060607"/>
<path d="M39.3453 35.5668L40.638 49.3615L37.9552 50.9109L39.1948 35.6465C39.2125 35.5491 39.3364 35.4694 39.3453 35.5668Z" fill="white"/>
<path d="M37.3173 51.9383L41.2397 49.6716L39.8673 35.0004L39.3183 34.9561C38.973 34.9561 38.6808 35.2395 38.6543 35.6025L37.3173 51.9383ZM40.0444 49.0607L38.6011 49.893L39.3095 41.2071L40.0444 49.0607Z" fill="#060607"/>
<path d="M39.0885 50.3486L39.1882 51.4687L27.4582 52.512L27.3585 51.3919L39.0885 50.3486Z" fill="#060607"/>
<path d="M39.6953 24.3711L39.7216 27.3815L38.8539 27.3891L38.8276 24.3787L39.6953 24.3711Z" fill="#060607"/>
<path d="M37.529 25.7119L37.8326 28.5466L36.9787 28.6381L36.6751 25.8033L37.529 25.7119Z" fill="#060607"/>
<path d="M35.3862 27.292L35.9577 29.9133L35.1185 30.0963L34.5471 27.4749L35.3862 27.292Z" fill="#060607"/>
<path d="M33.2933 29.0928L34.1288 31.4739L33.3184 31.7582L32.4829 29.3772L33.2933 29.0928Z" fill="#060607"/>
<path d="M31.247 31.0947L32.3365 33.2128L31.5727 33.6057L30.4833 31.4876L31.247 31.0947Z" fill="#060607"/>
<path d="M29.2827 33.2871L30.6171 35.1195L29.9156 35.6303L28.5813 33.7979L29.2827 33.2871Z" fill="#060607"/>
<path d="M27.4304 35.6367L28.9948 37.165L28.3884 37.7856L26.8241 36.2574L27.4304 35.6367Z" fill="#060607"/>
<path d="M25.6907 38.1299L27.4651 39.3311L26.9787 40.0496L25.2043 38.8484L25.6907 38.1299Z" fill="#060607"/>
<path d="M24.0889 40.7354L26.0584 41.6014L25.7127 42.3876L23.7432 41.5216L24.0889 40.7354Z" fill="#060607"/>
<path d="M22.6626 43.4385L24.7962 43.9574L24.5912 44.8005L22.4575 44.2816L22.6626 43.4385Z" fill="#060607"/>
<path d="M21.4144 46.2002L23.7017 46.3658L23.6397 47.2224L21.3524 47.0568L21.4144 46.2002Z" fill="#060607"/>
<path d="M22.7726 48.7969L22.8401 49.662L20.4302 49.8501L20.3627 48.985L22.7726 48.7969Z" fill="#060607"/>
<path d="M22.0371 51.2402L22.2201 52.0884L19.7188 52.6281L19.5358 51.7799L22.0371 51.2402Z" fill="#060607"/>
<path d="M21.4983 53.6309L21.7811 54.4513L19.2113 55.3371L18.9285 54.5168L21.4983 53.6309Z" fill="#060607"/>
<path d="M21.1643 55.9834L21.5285 56.7613L18.9222 57.9814L18.5581 57.2035L21.1643 55.9834Z" fill="#060607"/>
<path d="M23.5531 56.7734L23.986 57.5152L18.8394 60.519L18.4065 59.7773L23.5531 56.7734Z" fill="#060607"/>
<path d="M21.0908 60.3691L21.5938 61.0761L18.9891 62.9291L18.4861 62.222L21.0908 60.3691Z" fill="#060607"/>
<path d="M21.3581 62.376L21.9088 63.035L19.3544 65.17L18.8036 64.511L21.3581 62.376Z" fill="#060607"/>
<path d="M21.8222 64.2197L22.4251 64.8437L19.942 67.2433L19.3391 66.6193L21.8222 64.2197Z" fill="#060607"/>
<path d="M22.4812 65.8848L23.1249 66.4667L20.7439 69.1005L20.1003 68.5186L22.4812 65.8848Z" fill="#060607"/>
<path d="M23.3199 67.3535L23.9927 67.8873L21.7366 70.7311L21.0638 70.1974L23.3199 67.3535Z" fill="#060607"/>
<path d="M24.3215 68.6123L25.0335 69.1084L22.9277 72.1305L22.2158 71.6345L24.3215 68.6123Z" fill="#060607"/>
<path d="M25.4958 69.6514L26.2366 70.1033L24.3091 73.2629L23.5683 72.811L25.4958 69.6514Z" fill="#060607"/>
<path d="M26.8196 70.4336L27.5784 70.8357L25.8456 74.1059L25.0867 73.7038L26.8196 70.4336Z" fill="#060607"/>
<path d="M28.2661 70.9863L29.0562 71.345L27.5372 74.6909L26.7471 74.3322L28.2661 70.9863Z" fill="#060607"/>
<path d="M29.8422 71.293L30.6531 71.6017L29.3682 74.9779L28.5572 74.6692L29.8422 71.293Z" fill="#060607"/>
<path d="M31.5171 71.334L32.3379 71.5868L31.2978 74.9631L30.477 74.7103L31.5171 71.334Z" fill="#060607"/>
<path d="M33.2753 71.1367L34.1115 71.3328L33.3292 74.6688L32.4931 74.4728L33.2753 71.1367Z" fill="#060607"/>
<path d="M35.0819 70.6719L35.939 70.8078L35.4218 74.0697L34.5648 73.9339L35.0819 70.6719Z" fill="#060607"/>
<path d="M36.9452 69.9736L37.8014 70.0404L37.5555 73.1918L36.6992 73.125L36.9452 69.9736Z" fill="#060607"/>
<path d="M39.6903 66.123L39.7134 72.0463L38.8457 72.0497L38.8226 66.1264L39.6903 66.123Z" fill="#060607"/>
<path d="M41.5714 67.79L41.8722 70.6251L41.0182 70.7157L40.7174 67.8807L41.5714 67.79Z" fill="#060607"/>
<path d="M43.4288 66.3311L44.0003 68.9524L43.1611 69.1353L42.5897 66.514L43.4288 66.3311Z" fill="#060607"/>
<path d="M45.2402 64.6689L46.076 67.05L45.2656 67.3345L44.4298 64.9534L45.2402 64.6689Z" fill="#060607"/>
<path d="M46.9802 62.8145L48.0696 64.9326L47.3058 65.3254L46.2164 63.2073L46.9802 62.8145Z" fill="#060607"/>
<path d="M48.625 60.7988L49.958 62.6321L49.2634 63.1372L47.9304 61.3039L48.625 60.7988Z" fill="#060607"/>
<path d="M50.1641 58.6357L51.7273 60.165L51.1205 60.7852L49.5573 59.2559L50.1641 58.6357Z" fill="#060607"/>
<path d="M51.5688 56.3809L53.3425 57.5832L52.8606 58.2941L51.0869 57.0919L51.5688 56.3809Z" fill="#060607"/>
<path d="M52.8258 54.0264L54.7953 54.8926L54.4495 55.6788L52.48 54.8126L52.8258 54.0264Z" fill="#060607"/>
<path d="M53.9501 51.6289L56.0838 52.148L55.8787 52.9911L53.745 52.472L53.9501 51.6289Z" fill="#060607"/>
<path d="M54.9098 49.1924L57.1971 49.358L57.1351 50.2146L54.8478 50.049L54.9098 49.1924Z" fill="#060607"/>
<path d="M58.1041 46.5664L58.1716 47.4315L55.7617 47.6196L55.6942 46.7545L58.1041 46.5664Z" fill="#060607"/>
<path d="M58.8224 43.8008L59.0053 44.6489L56.5041 45.1883L56.3211 44.3402L58.8224 43.8008Z" fill="#060607"/>
<path d="M59.3281 41.0781L59.6109 41.8984L57.0411 42.7843L56.7583 41.9639L59.3281 41.0781Z" fill="#060607"/>
<path d="M59.6302 38.4473L59.9946 39.225L57.389 40.4459L57.0246 39.6682L59.6302 38.4473Z" fill="#060607"/>
<path d="M59.7059 35.9043L60.1387 36.6461L54.9921 39.6494L54.5593 38.9076L59.7059 35.9043Z" fill="#060607"/>
<path d="M59.5547 33.4912L60.0576 34.1984L57.4526 36.0506L56.9497 35.3435L59.5547 33.4912Z" fill="#060607"/>
<path d="M59.1942 31.25L59.7449 31.909L57.1905 34.044L56.6397 33.385L59.1942 31.25Z" fill="#060607"/>
<path d="M58.608 29.1758L59.2109 29.7998L56.7274 32.199L56.1245 31.575L58.608 29.1758Z" fill="#060607"/>
<path d="M57.807 27.3203L58.4506 27.9022L56.0697 30.536L55.426 29.9541L57.807 27.3203Z" fill="#060607"/>
<path d="M56.8139 25.6895L57.4867 26.2233L55.2305 29.0672L54.5577 28.5334L56.8139 25.6895Z" fill="#060607"/>
<path d="M55.6222 24.3018L56.3268 24.7928L54.2211 27.8145L53.5165 27.3235L55.6222 24.3018Z" fill="#060607"/>
<path d="M54.2469 23.168L54.9802 23.6151L53.0534 26.775L52.3201 26.3279L54.2469 23.168Z" fill="#060607"/>
<path d="M52.7012 22.3105L53.4601 22.7125L51.7277 25.9831L50.9687 25.5811L52.7012 22.3105Z" fill="#060607"/>
<path d="M51.0149 21.7354L51.7969 22.0904L50.2783 25.4364L49.4962 25.0814L51.0149 21.7354Z" fill="#060607"/>
<path d="M49.1889 21.4482L49.9916 21.7538L48.7063 25.13L47.9036 24.8244L49.1889 21.4482Z" fill="#060607"/>
<path d="M47.2502 21.46L48.071 21.7128L47.0313 25.089L46.2105 24.8363L47.2502 21.46Z" fill="#060607"/>
<path d="M45.2293 21.7578L46.0654 21.9538L45.2832 25.2899L44.447 25.0938L45.2293 21.7578Z" fill="#060607"/>
<path d="M43.1231 22.3447L43.9801 22.4805L43.4629 25.7425L42.6059 25.6066L43.1231 22.3447Z" fill="#060607"/>
<path d="M40.9914 23.2236L41.8477 23.2904L41.6018 26.4418L40.7455 26.375L40.9914 23.2236Z" fill="#060607"/>
<path d="M39.6924 24.3799L39.7216 30.3033L38.8539 30.3076L38.8247 24.3842L39.6924 24.3799Z" fill="#060607"/>
<path d="M37.3613 51.9377C37.3613 53.0711 38.1581 53.5226 39.1321 52.956C40.106 52.3893 40.9029 51.0169 40.9029 49.8924C40.9029 48.7591 40.106 48.3076 39.1321 48.8742C38.1581 49.432 37.3613 50.8044 37.3613 51.9377Z" fill="white"/>
<path d="M38.3442 53.7617C38.6895 53.7617 39.0525 53.6554 39.4155 53.4429C40.5665 52.7789 41.4697 51.2206 41.4697 49.8925C41.4697 49.1487 41.1775 48.5555 40.6728 48.2633C40.1681 47.9711 39.5041 48.0154 38.8577 48.3873C37.7067 49.0513 36.8036 50.6096 36.8036 51.9377C36.8036 52.6815 37.0958 53.2747 37.6004 53.5669C37.8218 53.6997 38.0786 53.7617 38.3442 53.7617ZM39.9291 49.193C39.9999 49.193 40.0619 49.2107 40.1061 49.2373C40.2567 49.3258 40.3452 49.5737 40.3452 49.9013C40.3452 50.831 39.6634 52.0174 38.8577 52.4778C38.5744 52.6461 38.3176 52.6903 38.1671 52.6018C38.0166 52.5133 37.928 52.2653 37.928 51.9377C37.928 51.0081 38.6098 49.8216 39.4155 49.3612C39.6015 49.2461 39.7874 49.193 39.9291 49.193Z" fill="#060607"/>
<path d="M36.0561 12.7832L40.3355 15.2171L39.7796 16.1946L35.5002 13.7607L36.0561 12.7832Z" fill="#060607"/>
<path d="M15.9184 33.3604L20.1979 35.7943L19.6419 36.7718L15.3625 34.3379L15.9184 33.3604Z" fill="#060607"/>
<path d="M44.297 9.91504L48.5765 12.3489L48.0205 13.3264L43.7411 10.8925L44.297 9.91504Z" fill="#060607"/>
<path d="M14.4383 84.0521L14.9164 83.0339C12.1805 81.7412 9.90504 79.8198 8.33787 77.4824C6.02696 74.0204 3.53011 67.8668 4.79624 58.2159L3.68063 58.0742C2.37023 68.0705 4.98218 74.4897 7.4082 78.111C9.09047 80.6167 11.5165 82.6708 14.4383 84.0521Z" fill="#060607"/>
<path d="M17.2737 84.1777L24.9176 87.752L24.4413 88.7707L16.7974 85.1964L17.2737 84.1777Z" fill="#060607"/>
<path d="M26.0816 90.3555H27.206V109.897H26.0816V90.3555Z" fill="#060607"/>
<path d="M8.59494 40.2768C20.424 12.5724 41.3639 7.30423 41.5764 7.25995L41.3196 6.1709C41.1071 6.22403 19.6271 11.5896 7.56787 39.8341L8.59494 40.2768Z" fill="#060607"/>
<path d="M16.068 21.0635C17.343 19.6025 18.6445 18.2213 19.9283 16.9375L19.1315 16.1406C17.8299 17.4421 16.5107 18.8499 15.2268 20.3286L16.068 21.0635Z" fill="#060607"/>
<path d="M21.7253 15.1937C37.6095 0.416224 49.3057 3.7188 49.4208 3.75421L49.7484 2.68287C49.2526 2.5235 37.3616 -0.885324 20.9638 14.3791L21.7253 15.1937Z" fill="#060607"/>
<path d="M21.575 10.359C24.6385 7.56999 28.0385 5.28564 31.6775 3.57681L31.1994 2.55859C27.463 4.31169 23.9656 6.65802 20.8224 9.51789L21.575 10.359Z" fill="#060607"/>
<path d="M33.5812 2.74476C36.7864 1.45207 38.9645 1.10676 38.991 1.10676L38.8228 0C38.7343 0.0177082 36.503 0.354163 33.165 1.70884L33.5812 2.74476Z" fill="#060607"/>
<path d="M82.8321 133.745C83.2898 134.008 83.2898 134.443 82.8321 134.706C82.3744 134.969 81.6191 134.969 81.1614 134.706C80.7037 134.443 80.7037 134.008 81.1614 133.745C81.6191 133.482 82.3629 133.482 82.8321 133.745Z" fill="#16110D"/>
<path d="M87.2034 131.216C87.6611 131.479 87.6611 131.914 87.2034 132.177C86.7456 132.44 85.9904 132.44 85.5327 132.177C85.075 131.914 85.075 131.479 85.5327 131.216C85.9904 130.953 86.7342 130.953 87.2034 131.216Z" fill="#16110D"/>
<path d="M90.7393 129.866C91.3902 129.866 91.9179 129.558 91.9179 129.179C91.9179 128.8 91.3902 128.493 90.7393 128.493C90.0884 128.493 89.5607 128.8 89.5607 129.179C89.5607 129.558 90.0884 129.866 90.7393 129.866Z" fill="#16110D"/>
<path d="M95.9459 126.169C96.4036 126.433 96.4036 126.867 95.9459 127.131C95.4881 127.394 94.7329 127.394 94.2752 127.131C93.8175 126.867 93.8175 126.433 94.2752 126.169C94.7329 125.906 95.4767 125.906 95.9459 126.169Z" fill="#16110D"/>
<path d="M74.0785 133.745C74.5362 134.008 74.5362 134.443 74.0785 134.706C73.6208 134.969 72.8655 134.969 72.4078 134.706C71.9501 134.443 71.9501 134.008 72.4078 133.745C72.877 133.482 73.6208 133.482 74.0785 133.745Z" fill="#16110D"/>
<path d="M78.4497 131.216C78.9074 131.479 78.9074 131.914 78.4497 132.177C77.992 132.44 77.2367 132.44 76.779 132.177C76.3213 131.914 76.3213 131.479 76.779 131.216C77.2482 130.953 77.992 130.953 78.4497 131.216Z" fill="#16110D"/>
<path d="M82.8321 128.699C83.2898 128.962 83.2898 129.397 82.8321 129.66C82.3744 129.923 81.6191 129.923 81.1614 129.66C80.7037 129.397 80.7037 128.962 81.1614 128.699C81.6191 128.424 82.3629 128.424 82.8321 128.699Z" fill="#16110D"/>
<path d="M86.368 127.337C87.019 127.337 87.5467 127.029 87.5467 126.65C87.5467 126.271 87.019 125.964 86.368 125.964C85.7171 125.964 85.1894 126.271 85.1894 126.65C85.1894 127.029 85.7171 127.337 86.368 127.337Z" fill="#16110D"/>
<path d="M64.5006 134.912C65.1515 134.912 65.6792 134.605 65.6792 134.225C65.6792 133.846 65.1515 133.539 64.5006 133.539C63.8497 133.539 63.322 133.846 63.322 134.225C63.322 134.605 63.8497 134.912 64.5006 134.912Z" fill="#16110D"/>
<path d="M68.8719 132.395C69.5228 132.395 70.0505 132.087 70.0505 131.708C70.0505 131.329 69.5228 131.022 68.8719 131.022C68.2209 131.022 67.6932 131.329 67.6932 131.708C67.6932 132.087 68.2209 132.395 68.8719 132.395Z" fill="#16110D"/>
<path d="M74.0785 128.699C74.5362 128.962 74.5362 129.397 74.0785 129.66C73.6208 129.923 72.8655 129.923 72.4078 129.66C71.9501 129.397 71.9501 128.962 72.4078 128.699C72.877 128.424 73.6208 128.424 74.0785 128.699Z" fill="#16110D"/>
<path d="M60.9647 131.216C61.4224 131.479 61.4224 131.914 60.9647 132.177C60.507 132.44 59.7518 132.44 59.294 132.177C58.8363 131.914 58.8363 131.479 59.294 131.216C59.7518 130.953 60.507 130.953 60.9647 131.216Z" fill="#16110D"/>
<path d="M65.3359 128.699C65.7937 128.962 65.7937 129.397 65.3359 129.66C64.8782 129.923 64.123 129.923 63.6653 129.66C63.2075 129.397 63.2075 128.962 63.6653 128.699C64.1344 128.424 64.8782 128.424 65.3359 128.699Z" fill="#16110D"/>
<path d="M56.5591 128.664C57.0168 128.928 57.0168 129.362 56.5591 129.626C56.1014 129.889 55.3461 129.889 54.8884 129.626C54.4307 129.362 54.4307 128.928 54.8884 128.664C55.3461 128.401 56.1014 128.401 56.5591 128.664Z" fill="#16110D"/>
<path d="M60.9304 126.147C61.3881 126.41 61.3881 126.845 60.9304 127.108C60.4726 127.371 59.7174 127.371 59.2597 127.108C58.802 126.845 58.802 126.41 59.2597 126.147C59.7174 125.884 60.4726 125.884 60.9304 126.147Z" fill="#16110D"/>
</svg>
