<svg width="50" height="50" viewBox="0 0 50 50" fill="none" xmlns="http://www.w3.org/2000/svg">
<g clip-path="url(#clip0_1441_6)">
<path d="M45.8333 0H4.16667C1.86548 0 0 1.86548 0 4.16667V45.8333C0 48.1345 1.86548 50 4.16667 50H45.8333C48.1345 50 50 48.1345 50 45.8333V4.16667C50 1.86548 48.1345 0 45.8333 0Z" fill="#F5F5F7"/>
<path d="M26.75 26.476V26.7868C26.75 29.2076 26.75 31.6278 26.75 34.0477C26.75 34.7315 26.6835 34.7987 25.9872 34.7987C25.1032 34.7987 24.2193 34.7987 23.3353 34.7987C22.8442 34.7987 22.7298 34.6849 22.7298 34.1982C22.7298 31.7389 22.7298 29.2798 22.7298 26.821V26.5189C22.6347 26.5133 22.5539 26.5046 22.4725 26.504C21.7973 26.504 21.1228 26.504 20.4477 26.504C19.9796 26.504 19.8671 26.394 19.8652 25.9303C19.862 25.0226 19.862 24.115 19.8652 23.2074C19.8652 22.725 19.9771 22.6168 20.454 22.6163C21.1212 22.6163 21.7882 22.6163 22.4551 22.6163H22.7298C22.7298 22.5012 22.7298 22.4098 22.7298 22.3191C22.746 21.4357 22.7142 20.548 22.7889 19.6696C22.9754 17.4584 24.6781 15.857 26.8992 15.7738C27.8316 15.7389 28.7604 15.7594 29.691 15.7619C29.9987 15.7619 30.1311 15.8962 30.133 16.2058C30.138 17.1292 30.138 18.0523 30.133 18.9753C30.133 19.2861 30.0025 19.4103 29.6656 19.4216C29.0376 19.4365 28.4091 19.4371 27.7813 19.4464C27.0527 19.457 26.7656 19.733 26.7525 20.4634C26.7406 21.1523 26.7525 21.8417 26.7525 22.5553C26.8507 22.5597 26.9321 22.5665 27.0142 22.5665C27.8223 22.5665 28.6274 22.5665 29.4336 22.5665C29.9223 22.5665 30.0435 22.6908 30.0441 23.1676C30.0441 24.091 30.0441 25.0141 30.0441 25.9371C30.0441 26.3648 29.9366 26.4729 29.5064 26.4748C28.684 26.4779 27.8621 26.4748 27.0397 26.4748L26.75 26.476Z" fill="#060707"/>
</g>
<defs>
<clipPath id="clip0_1441_6">
<rect width="50" height="50" fill="white"/>
</clipPath>
</defs>
</svg>
