<svg width="148" height="44" viewBox="0 0 148 44" fill="none" xmlns="http://www.w3.org/2000/svg">
<g id="Badge" clip-path="url(#clip0_690_714)">
<g id="Vector">
<path d="M142.489 0.000244141H5.48035C2.45364 0.000244141 0 2.45388 0 5.48059V38.3627C0 41.3894 2.45364 43.843 5.48035 43.843H142.489C145.516 43.843 147.969 41.3894 147.969 38.3627V5.48059C147.969 2.45388 145.516 0.000244141 142.489 0.000244141Z" fill="black" fill-opacity="0.85"/>
<path d="M5.48035 0.250244H142.489C145.378 0.250244 147.719 2.59195 147.719 5.48059V38.3627C147.719 41.2513 145.378 43.593 142.489 43.593H5.48035C2.59171 43.593 0.25 41.2513 0.25 38.3627V5.48059C0.25 2.59195 2.59171 0.250244 5.48035 0.250244Z" stroke="white" stroke-opacity="0.1" stroke-width="0.5"/>
</g>
<path id="Vector_2" d="M51.9762 11.2241C51.9942 11.626 51.9306 12.0275 51.7894 12.4042C51.6481 12.781 51.432 13.1252 51.1542 13.4162C50.8428 13.7377 50.467 13.9898 50.0515 14.156C49.6359 14.3222 49.19 14.3988 48.7428 14.3808C48.293 14.3908 47.846 14.3084 47.4293 14.1387C47.0127 13.9691 46.6353 13.7157 46.3205 13.3943C45.6818 12.741 45.3242 11.8637 45.3242 10.9501C45.3242 10.0365 45.6818 9.15913 46.3205 8.50584C46.8088 8.0287 47.4272 7.70651 48.0981 7.57976C48.7689 7.453 49.4622 7.52732 50.091 7.79339C50.4862 7.95586 50.8388 8.20714 51.1213 8.52776L50.5404 9.10867C50.3227 8.84646 50.0469 8.63861 49.7349 8.50162C49.4228 8.36463 49.0832 8.30228 48.7428 8.31951C48.3132 8.32248 47.8908 8.43064 47.5126 8.63453C47.1344 8.83843 46.812 9.13185 46.5734 9.48915C46.3348 9.84645 46.1873 10.2568 46.1439 10.6842C46.1005 11.1117 46.1624 11.5432 46.3243 11.9412C46.4862 12.3392 46.7431 12.6914 47.0726 12.9672C47.402 13.243 47.794 13.4338 48.2143 13.5231C48.6346 13.6124 49.0703 13.5974 49.4834 13.4794C49.8966 13.3614 50.2745 13.1441 50.5842 12.8463C50.919 12.4792 51.1131 12.0055 51.1322 11.5091H48.7428V10.7199H51.9324C51.9573 10.8869 51.972 11.0553 51.9762 11.2241Z" fill="white"/>
<path id="Vector_3" d="M56.996 8.4837H54.0366V10.5662H56.7329V11.3554H54.0366V13.4379H56.996V14.249H53.1816V7.67261H56.996V8.4837Z" fill="white"/>
<path id="Vector_4" d="M60.5916 14.249H59.7476V8.4837H57.9062V7.67261H62.4769V8.4837H60.5916V14.249Z" fill="white"/>
<path id="Vector_5" d="M65.6992 14.249V7.67261H66.5432V14.249H65.6992Z" fill="white"/>
<path id="Vector_6" d="M70.2908 14.249H69.4469V8.4837H67.6055V7.67261H72.1213V8.4837H70.2908V14.249Z" fill="white"/>
<path id="Vector_7" d="M80.6819 13.3941C80.3653 13.7109 79.9894 13.9623 79.5756 14.1338C79.1619 14.3053 78.7184 14.3935 78.2705 14.3935C77.8226 14.3935 77.3791 14.3053 76.9654 14.1338C76.5516 13.9623 76.1757 13.7109 75.8592 13.3941C75.2395 12.7354 74.8945 11.8652 74.8945 10.9608C74.8945 10.0565 75.2395 9.18626 75.8592 8.52758C76.1689 8.20182 76.5436 7.94472 76.959 7.77291C77.3743 7.60109 77.8212 7.51839 78.2705 7.53015C78.7192 7.52305 79.1647 7.60788 79.5794 7.77942C79.9941 7.95096 80.3693 8.20557 80.6819 8.52758C80.997 8.84816 81.2448 9.22866 81.4104 9.64658C81.5761 10.0645 81.6563 10.5114 81.6464 10.9608C81.6608 11.4109 81.5826 11.859 81.4167 12.2776C81.2508 12.6962 81.0007 13.0762 80.6819 13.3941ZM76.4839 12.8461C76.7174 13.0827 76.9956 13.2706 77.3023 13.3988C77.609 13.527 77.9381 13.5931 78.2705 13.5931C78.6029 13.5931 78.9321 13.527 79.2388 13.3988C79.5455 13.2706 79.8236 13.0827 80.0571 12.8461C80.5301 12.3322 80.7926 11.6593 80.7926 10.9608C80.7926 10.2624 80.5301 9.58953 80.0571 9.07561C79.8236 8.83899 79.5455 8.65111 79.2388 8.52288C78.9321 8.39465 78.6029 8.32861 78.2705 8.32861C77.9381 8.32861 77.609 8.39465 77.3023 8.52288C76.9956 8.65111 76.7174 8.83899 76.4839 9.07561C76.011 9.58953 75.7485 10.2624 75.7485 10.9608C75.7485 11.6593 76.011 12.3322 76.4839 12.8461Z" fill="white"/>
<path id="Vector_8" d="M82.8418 14.249V7.67261H83.8611L87.0617 12.7913V11.5198V7.67261H87.9056V14.249H87.0288L83.6858 8.88925V10.1497V14.249H82.8418Z" fill="white"/>
<path id="Vector_9" d="M74.6854 23.8399C73.7619 23.842 72.8598 24.118 72.0932 24.6329C71.3265 25.1477 70.7298 25.8784 70.3784 26.7324C70.027 27.5864 69.9367 28.5255 70.119 29.4308C70.3013 30.3361 70.748 31.167 71.4025 31.8185C72.057 32.47 72.8901 32.9127 73.7962 33.0908C74.7024 33.2688 75.641 33.1741 76.4934 32.8187C77.3457 32.4633 78.0736 31.8632 78.5848 31.0941C79.0961 30.325 79.3678 29.4217 79.3656 28.4982C79.3746 27.8821 79.2595 27.2705 79.0271 26.6999C78.7948 26.1292 78.4501 25.6112 78.0134 25.1765C77.5767 24.7419 77.057 24.3996 76.4853 24.1699C75.9135 23.9403 75.3014 23.828 74.6854 23.8399ZM74.6854 31.326C74.1194 31.3656 73.5545 31.234 73.0643 30.9483C72.5741 30.6626 72.1811 30.236 71.9365 29.7241C71.6919 29.2121 71.607 28.6383 71.6928 28.0774C71.7786 27.5165 72.0312 26.9944 72.4176 26.579C72.8041 26.1635 73.3066 25.874 73.8598 25.7479C74.4131 25.6218 74.9914 25.6651 75.5197 25.8721C76.048 26.0791 76.5019 26.4402 76.8222 26.9085C77.1426 27.3769 77.3146 27.9308 77.316 28.4982C77.3336 28.8577 77.2791 29.2171 77.1557 29.5552C77.0322 29.8934 76.8423 30.2033 76.5971 30.4669C76.352 30.7305 76.0565 30.9423 75.7282 31.0898C75.3998 31.2374 75.0453 31.3177 74.6854 31.326ZM64.4701 23.8399C63.5466 23.842 62.6445 24.118 61.8778 24.6329C61.1112 25.1477 60.5144 25.8784 60.163 26.7324C59.8116 27.5864 59.7213 28.5255 59.9036 29.4308C60.0859 30.3361 60.5326 31.167 61.1871 31.8185C61.8417 32.47 62.6747 32.9127 63.5809 33.0908C64.487 33.2688 65.4256 33.1741 66.278 32.8187C67.1304 32.4633 67.8582 31.8632 68.3694 31.0941C68.8807 30.325 69.1524 29.4217 69.1503 28.4982C69.1592 27.8821 69.0441 27.2705 68.8118 26.6999C68.5795 26.1292 68.2347 25.6112 67.798 25.1765C67.3613 24.7419 66.8416 24.3996 66.2699 24.1699C65.6982 23.9403 65.0861 23.828 64.4701 23.8399ZM64.4701 31.326C63.904 31.3656 63.3392 31.234 62.8489 30.9483C62.3587 30.6626 61.9657 30.236 61.7211 29.7241C61.4765 29.2121 61.3916 28.6383 61.4774 28.0774C61.5632 27.5165 61.8158 26.9944 62.2022 26.579C62.5887 26.1635 63.0912 25.874 63.6445 25.7479C64.1977 25.6218 64.7761 25.6651 65.3044 25.8721C65.8327 26.0791 66.2865 26.4402 66.6068 26.9085C66.9272 27.3769 67.0992 27.9308 67.1006 28.4982C67.1183 28.8577 67.0638 29.2171 66.9403 29.5552C66.8168 29.8934 66.6269 30.2033 66.3818 30.4669C66.1366 30.7305 65.8411 30.9423 65.5128 31.0898C65.1845 31.2374 64.8299 31.3177 64.4701 31.326ZM52.3256 25.2757V27.2486H57.0606C56.9864 28.1779 56.6001 29.0547 55.9646 29.7367C55.4896 30.2207 54.9183 30.5995 54.2877 30.8487C53.6571 31.0979 52.9812 31.212 52.3037 31.1835C50.9083 31.1835 49.5701 30.6292 48.5835 29.6426C47.5968 28.6559 47.0425 27.3177 47.0425 25.9224C47.0425 24.5271 47.5968 23.1889 48.5835 22.2022C49.5701 21.2156 50.9083 20.6613 52.3037 20.6613C53.6414 20.6414 54.933 21.1494 55.8988 22.0752L57.2908 20.6832C56.6375 20.0371 55.8619 19.5278 55.0093 19.1853C54.1567 18.8427 53.2443 18.6738 52.3256 18.6883C51.3512 18.6504 50.3791 18.8096 49.4677 19.1563C48.5563 19.5031 47.7243 20.0302 47.0214 20.7062C46.3186 21.3822 45.7595 22.1931 45.3776 23.0904C44.9957 23.9876 44.7988 24.9527 44.7988 25.9279C44.7988 26.903 44.9957 27.8681 45.3776 28.7654C45.7595 29.6626 46.3186 30.4736 47.0214 31.1495C47.7243 31.8255 48.5563 32.3527 49.4677 32.6994C50.3791 33.0462 51.3512 33.2053 52.3256 33.1674C53.2632 33.2049 54.1981 33.0436 55.069 32.6941C55.9398 32.3446 56.7269 31.8149 57.3785 31.1397C58.5295 29.8753 59.1428 28.2123 59.0883 26.5033C59.0923 26.092 59.0593 25.6811 58.9897 25.2757H52.3256ZM101.989 26.8102C101.703 25.9692 101.168 25.2349 100.456 24.7045C99.7432 24.1741 98.8865 23.8726 97.9988 23.8399C97.3993 23.8387 96.8059 23.9605 96.2552 24.1978C95.7046 24.435 95.2085 24.7827 94.7976 25.2193C94.3867 25.6559 94.0697 26.1721 93.8662 26.7361C93.6627 27.3001 93.5771 27.8998 93.6146 28.4982C93.6052 29.4987 93.9197 30.4754 94.5113 31.2825C95.1028 32.0895 95.9395 32.6835 96.8965 32.9758C97.8534 33.268 98.8793 33.2429 99.8207 32.904C100.762 32.5652 101.569 31.9309 102.12 31.0958L100.531 29.9998C100.294 30.3947 99.9578 30.7208 99.556 30.9457C99.1541 31.1707 98.7005 31.2867 98.24 31.2822C97.7649 31.3018 97.295 31.1772 96.892 30.9249C96.4891 30.6725 96.1718 30.3042 95.9821 29.8683L102.219 27.2925L101.989 26.8102ZM95.6313 28.3666C95.6091 28.0262 95.655 27.6847 95.7664 27.3622C95.8778 27.0397 96.0525 26.7427 96.2801 26.4885C96.5077 26.2344 96.7837 26.0282 97.092 25.8821C97.4003 25.7359 97.7347 25.6527 98.0756 25.6374C98.4287 25.6159 98.7804 25.699 99.0865 25.8764C99.3926 26.0539 99.6396 26.3177 99.7964 26.6348L95.6313 28.3666ZM90.5675 32.8824H92.6171V19.1816H90.5675V32.8824ZM87.2135 24.8811H87.1368C86.8306 24.5324 86.4527 24.254 86.029 24.0648C85.6052 23.8756 85.1456 23.7802 84.6816 23.7851C83.4838 23.8432 82.3542 24.3599 81.5271 25.2281C80.6999 26.0964 80.2385 27.2496 80.2385 28.4488C80.2385 29.6481 80.6999 30.8013 81.5271 31.6696C82.3542 32.5378 83.4838 33.0545 84.6816 33.1126C85.1463 33.1219 85.6073 33.0285 86.0317 32.8391C86.4561 32.6496 86.8335 32.3687 87.1368 32.0165H87.2135V32.6851C87.2135 34.4717 86.2599 35.4253 84.7254 35.4253C84.2128 35.4141 83.7151 35.2507 83.2955 34.956C82.876 34.6614 82.5534 34.2486 82.3689 33.7703L80.5932 34.5046C80.9215 35.3291 81.4923 36.0346 82.2301 36.5278C82.9679 37.021 83.838 37.2786 84.7254 37.2667C87.1258 37.2667 89.1097 35.8528 89.1097 32.4111V24.1139H87.2135V24.8811ZM84.857 31.326C84.1388 31.2813 83.4647 30.9644 82.972 30.44C82.4793 29.9157 82.2051 29.2232 82.2051 28.5036C82.2051 27.7841 82.4793 27.0916 82.972 26.5673C83.4647 26.0429 84.1388 25.726 84.857 25.6813C85.208 25.6964 85.5523 25.782 85.8696 25.933C86.1868 26.0839 86.4705 26.2971 86.7036 26.56C86.9368 26.8228 87.1147 27.1298 87.2267 27.4628C87.3388 27.7957 87.3828 28.1479 87.356 28.4982C87.3859 28.8497 87.3442 29.2036 87.2334 29.5385C87.1226 29.8734 86.9451 30.1824 86.7115 30.4467C86.4779 30.7111 86.1931 30.9253 85.8743 31.0764C85.5556 31.2276 85.2095 31.3125 84.857 31.326ZM111.59 19.1816H106.68V32.8824H108.729V27.6871H111.59C112.174 27.729 112.761 27.6502 113.313 27.4555C113.865 27.2608 114.372 26.9544 114.8 26.5554C115.229 26.1564 115.571 25.6733 115.805 25.1363C116.039 24.5994 116.159 24.02 116.159 23.4343C116.159 22.8487 116.039 22.2693 115.805 21.7323C115.571 21.1953 115.229 20.7123 114.8 20.3133C114.372 19.9143 113.865 19.6079 113.313 19.4131C112.761 19.2184 112.174 19.1396 111.59 19.1816ZM111.59 25.758H108.729V21.0887H111.634C111.942 21.0887 112.247 21.1494 112.532 21.2673C112.816 21.3852 113.075 21.5579 113.293 21.7757C113.51 21.9935 113.683 22.2521 113.801 22.5367C113.919 22.8213 113.98 23.1263 113.98 23.4343C113.98 23.7423 113.919 24.0474 113.801 24.3319C113.683 24.6165 113.51 24.8751 113.293 25.0929C113.075 25.3107 112.816 25.4835 112.532 25.6014C112.247 25.7192 111.942 25.7799 111.634 25.7799L111.59 25.758ZM124.239 23.796C123.492 23.75 122.749 23.9238 122.1 24.2959C121.451 24.6679 120.926 25.222 120.589 25.8895L122.397 26.6458C122.58 26.3163 122.854 26.0468 123.187 25.8698C123.52 25.6928 123.896 25.6159 124.272 25.6484C124.532 25.618 124.795 25.6397 125.047 25.7123C125.299 25.7849 125.534 25.9069 125.738 26.0711C125.942 26.2354 126.111 26.4387 126.236 26.6691C126.36 26.8995 126.438 27.1524 126.464 27.4131V27.5446C125.805 27.1981 125.071 27.0176 124.326 27.0185C122.375 27.0185 120.381 28.1145 120.381 30.1094C120.4 30.5334 120.504 30.9492 120.687 31.3321C120.87 31.715 121.129 32.0572 121.447 32.3384C121.765 32.6195 122.136 32.8339 122.538 32.9688C122.941 33.1037 123.366 33.1563 123.789 33.1236C124.304 33.152 124.816 33.0432 125.275 32.8082C125.733 32.5732 126.121 32.2206 126.398 31.7864H126.464V32.8824H128.437V27.6103C128.437 25.21 126.617 23.8179 124.283 23.8179L124.239 23.796ZM123.987 31.3041C123.318 31.3041 122.386 30.9643 122.386 30.1423C122.386 29.0462 123.548 28.6735 124.579 28.6735C125.23 28.6575 125.873 28.8165 126.442 29.1339C126.373 29.7291 126.091 30.2792 125.647 30.6823C125.204 31.0854 124.63 31.3141 124.03 31.326L123.987 31.3041ZM135.627 24.1139L133.281 30.0546H133.216L130.782 24.1139H128.59L132.24 32.4221L130.158 37.0365H132.295L137.907 24.1139H135.627ZM117.213 32.8824H119.252V19.1816H117.213V32.8824Z" fill="white"/>
<path id="Vector_10" d="M11.4437 8.26471C11.0825 8.69177 10.8982 9.24072 10.9285 9.79921V34.0443C10.8912 34.6037 11.0764 35.1552 11.4437 35.5788L11.5204 35.6665L25.1007 22.0862V21.7573L11.5204 8.18799L11.4437 8.26471Z" fill="url(#paint0_linear_690_714)"/>
<path id="Vector_11" d="M29.5935 26.6128L25.0996 22.0861V21.7572L29.5935 17.2305L29.6921 17.2962L35.0738 20.3433C36.6083 21.2092 36.6083 22.6341 35.0738 23.5109L29.7141 26.558L29.5935 26.6128Z" fill="url(#paint1_linear_690_714)"/>
<path id="Vector_12" d="M29.7258 26.547L25.1004 21.9216L11.4434 35.5787C11.7531 35.8544 12.1495 36.013 12.5639 36.027C12.9783 36.041 13.3846 35.9095 13.7122 35.6554L29.7258 26.547Z" fill="url(#paint2_linear_690_714)"/>
<path id="Vector_13" d="M29.7258 17.2963L13.7122 8.19891C13.3867 7.94124 12.9808 7.80658 12.5658 7.81861C12.1508 7.83064 11.7534 7.98859 11.4434 8.26468L25.1004 21.9217L29.7258 17.2963Z" fill="url(#paint3_linear_690_714)"/>
<path id="Vector_14" opacity="0.2" d="M29.5943 26.4485L13.7122 35.4911C13.3965 35.7294 13.0117 35.8583 12.6162 35.8583C12.2206 35.8583 11.8358 35.7294 11.5201 35.4911L11.4434 35.5678L11.5201 35.6555C11.8358 35.8938 12.2206 36.0227 12.6162 36.0227C13.0117 36.0227 13.3965 35.8938 13.7122 35.6555L29.7258 26.5471L29.5943 26.4485Z" fill="black"/>
<path id="Vector_15" opacity="0.12" d="M11.4436 35.4251C11.0916 34.9904 10.919 34.4375 10.9614 33.8796V34.0441C10.9241 34.6035 11.1092 35.155 11.4765 35.5785L11.5532 35.5018L11.4436 35.4251Z" fill="black"/>
<path id="Vector_16" opacity="0.12" d="M35.0741 23.3465L29.5938 26.4484L29.6924 26.547L35.0741 23.5C35.3918 23.3656 35.6673 23.1482 35.8718 22.8704C36.0763 22.5926 36.2021 22.2649 36.2359 21.9216C36.1674 22.2335 36.0266 22.525 35.8248 22.7725C35.623 23.02 35.3658 23.2166 35.0741 23.3465Z" fill="black"/>
<path id="Vector_17" opacity="0.25" d="M13.7118 8.3524L35.0741 20.4969C35.3659 20.6268 35.623 20.8234 35.8248 21.0709C36.0266 21.3184 36.1675 21.6098 36.236 21.9217C36.2021 21.5785 36.0763 21.2507 35.8719 20.973C35.6674 20.6952 35.3918 20.4777 35.0741 20.3434L13.7118 8.19895C12.1882 7.3221 10.9277 8.0455 10.9277 9.79921V9.96362C10.9606 8.20991 12.1882 7.48651 13.7118 8.3524Z" fill="white"/>
</g>
<defs>
<linearGradient id="paint0_linear_690_714" x1="23.895" y1="9.54711" x2="5.503" y2="27.9392" gradientUnits="userSpaceOnUse">
<stop stop-color="#00A0FF"/>
<stop offset="0.01" stop-color="#00A1FF"/>
<stop offset="0.26" stop-color="#00BEFF"/>
<stop offset="0.51" stop-color="#00D2FF"/>
<stop offset="0.76" stop-color="#00DFFF"/>
<stop offset="1" stop-color="#00E3FF"/>
</linearGradient>
<linearGradient id="paint1_linear_690_714" x1="37.0796" y1="21.9216" x2="10.5657" y2="21.9216" gradientUnits="userSpaceOnUse">
<stop stop-color="#FFE000"/>
<stop offset="0.41" stop-color="#FFBD00"/>
<stop offset="0.78" stop-color="#FFA500"/>
<stop offset="1" stop-color="#FF9C00"/>
</linearGradient>
<linearGradient id="paint2_linear_690_714" x1="27.2158" y1="24.4426" x2="2.26924" y2="49.3782" gradientUnits="userSpaceOnUse">
<stop stop-color="#FF3A44"/>
<stop offset="1" stop-color="#C31162"/>
</linearGradient>
<linearGradient id="paint3_linear_690_714" x1="8.0017" y1="0.197609" x2="19.1378" y2="11.3337" gradientUnits="userSpaceOnUse">
<stop stop-color="#32A071"/>
<stop offset="0.07" stop-color="#2DA771"/>
<stop offset="0.48" stop-color="#15CF74"/>
<stop offset="0.8" stop-color="#06E775"/>
<stop offset="1" stop-color="#00F076"/>
</linearGradient>
<clipPath id="clip0_690_714">
<rect width="147.969" height="43.8428" fill="white" transform="translate(0 0.000244141)"/>
</clipPath>
</defs>
</svg>
