<svg width="100" height="50" viewBox="0 0 100 50" fill="none" xmlns="http://www.w3.org/2000/svg">
<g clip-path="url(#clip0_7_1295)">
<path fill-rule="evenodd" clip-rule="evenodd" d="M95.3826 42.3054H16.0476V7.58508H95.3826C97.8901 7.58508 99.9454 9.60346 99.9454 12.1112V37.7793C99.9454 40.2666 97.9107 42.3054 95.3826 42.3054ZM92.9366 39.4104H26.7761V10.4395H92.9366C95.0536 10.4395 96.7595 12.1519 96.7595 14.2315V35.6182C96.7595 37.7181 95.033 39.4104 92.9366 39.4104Z" fill="url(#paint0_linear_7_1295)"/>
<path d="M46.4041 0H7.02422C3.40687 0 0.467773 2.91544 0.467773 6.50368V43.3443C0.467773 46.9325 3.40687 49.848 7.02422 49.848H46.4245V0H46.4041Z" fill="url(#paint1_linear_7_1295)"/>
<path d="M42.9311 7.95206V41.9384H40.7731V7.95206H42.9311ZM43.1983 7.66663H42.9311H40.7731H40.4854V7.95206V41.9384V42.2238H40.7731H42.9311H43.2189V41.9384V7.95206V7.66663H43.1983Z" fill="url(#paint2_linear_7_1295)"/>
<path d="M42.9316 7.95142H40.7734V41.9378H42.9316V7.95142Z" fill="#FDFEFF"/>
<path d="M45.6769 0.387112V49.705H6.56427C3.09079 49.705 0.275003 46.9119 0.275003 43.4663V6.62575C0.275003 3.18023 3.09079 0.387112 6.56427 0.387112H45.6769ZM45.9441 0.101685H6.56427C2.94691 0.101685 0.0078125 3.01713 0.0078125 6.60537V43.446C0.0078125 47.0342 2.94691 49.9496 6.56427 49.9496H45.9646V0.101685H45.9441Z" fill="url(#paint3_linear_7_1295)"/>
<path d="M19.7605 41.3078C17.8944 41.3078 16.2304 41.0148 14.7687 40.4286C13.3069 39.8115 12.0628 38.9631 11.0364 37.8833C10.01 36.7726 9.23248 35.446 8.70375 33.9034C8.17502 32.33 7.91064 30.5714 7.91064 28.6277C7.91064 26.3139 8.25276 24.1388 8.93701 22.1026C9.65236 20.0355 10.5699 18.1536 11.6895 16.4567C12.8092 14.7291 14.0533 13.2019 15.4218 11.8752C16.8214 10.5178 18.2055 9.37624 19.5739 8.45068H27.8782C25.9499 9.80816 24.2237 11.1194 22.6997 12.3843C21.2068 13.6492 19.885 14.9296 18.7342 16.2253C17.6145 17.5211 16.6814 18.8786 15.935 20.2978C15.2197 21.6861 14.6754 23.1979 14.3021 24.833L14.6754 24.9255C14.9864 24.3085 15.344 23.7223 15.7484 23.167C16.1838 22.5808 16.697 22.0717 17.2879 21.6398C17.8789 21.177 18.5631 20.8222 19.3407 20.5754C20.1183 20.2978 21.0202 20.1589 22.0465 20.1589C23.384 20.1589 24.628 20.3903 25.7788 20.8531C26.9606 21.3159 27.9715 21.9946 28.8113 22.8893C29.6821 23.7532 30.3508 24.8021 30.8173 26.0362C31.315 27.2703 31.5638 28.6431 31.5638 30.1549C31.5638 31.79 31.2839 33.2864 30.724 34.6438C30.1642 36.0013 29.3711 37.1737 28.3447 38.1609C27.3184 39.1482 26.0742 39.9195 24.6125 40.4748C23.1817 41.0302 21.5645 41.3078 19.7605 41.3078ZM19.7605 36.495C21.4712 36.495 22.8085 36.0322 23.7727 35.1066C24.7679 34.1502 25.2656 32.7927 25.2656 31.0342V30.34C25.2656 28.5815 24.7679 27.2394 23.7727 26.3139C22.8085 25.3574 21.4712 24.8793 19.7605 24.8793C18.0189 24.8793 16.6659 25.3574 15.7017 26.3139C14.7375 27.2394 14.2555 28.5815 14.2555 30.34V31.0342C14.2555 32.7927 14.7375 34.1502 15.7017 35.1066C16.6659 36.0322 18.0189 36.495 19.7605 36.495Z" fill="white"/>
<path d="M33.8274 9.99841H34.9238V12.5901H34.9666C35.058 12.3521 35.2008 12.1538 35.395 11.9952C35.5948 11.831 35.869 11.7488 36.2174 11.7488C36.6799 11.7488 37.034 11.8989 37.2795 12.1992C37.5251 12.4994 37.6479 12.9271 37.6479 13.4822V16.2863H36.5514V13.5927C36.5514 13.2755 36.4943 13.0375 36.3801 12.8789C36.2658 12.7203 36.0774 12.6411 35.8147 12.6411C35.7005 12.6411 35.5892 12.658 35.4806 12.692C35.3779 12.7203 35.2837 12.7656 35.198 12.828C35.1181 12.8846 35.0523 12.9583 35.0009 13.0489C34.9496 13.1338 34.9238 13.2358 34.9238 13.3548V16.2863H33.8274V9.99841Z" fill="white"/>
<path d="M32.0198 16.2862C31.6429 16.2862 31.3546 16.1899 31.1547 15.9973C30.9604 15.799 30.8634 15.5186 30.8634 15.1561V12.7174H30.2039V11.8507H30.5465C30.7121 11.8507 30.8234 11.8139 30.8805 11.7402C30.9433 11.661 30.9748 11.5448 30.9748 11.3919V10.6356H31.9598V11.8507H32.8765V12.7174H31.9598V15.4195H32.8079V16.2862H32.0198Z" fill="white"/>
<path d="M56.6338 26.1213V29.2431H54.4095V26.0978L51.4043 20.5582H53.7706L55.64 24.0087L57.5094 20.5582H59.6627L56.6338 26.1213Z" fill="#1E2329"/>
<path d="M68.5365 27.3418V29.2431H62.1948V20.5582H68.3709V22.4595H64.3955V23.9149H67.8977V25.7457H64.3955V27.3418H68.5365Z" fill="#1E2329"/>
<path d="M77.0784 27.5531H73.7419L73.1266 29.2431H70.855L74.3335 20.5582H76.5341L80.0362 29.2431H77.7173L77.0784 27.5531ZM76.4158 25.7222L75.3983 22.9525L74.3807 25.7222H76.4158Z" fill="#1E2329"/>
<path d="M86.1181 26.9193H84.9114V29.2196H82.687V20.5347H86.2838C86.9937 20.5347 87.6089 20.6755 88.1531 20.9338C88.6737 21.1919 89.0761 21.5675 89.36 22.0604C89.6439 22.5534 89.7859 23.1167 89.7859 23.7739C89.7859 24.4077 89.644 24.9475 89.3837 25.417C89.1234 25.8865 88.7447 26.262 88.2479 26.5202L89.9516 29.243H87.5617L86.1181 26.9193ZM87.183 22.8115C86.9463 22.5768 86.6151 22.483 86.1418 22.483H84.9114V25.018H86.1418C86.5914 25.018 86.9463 24.9006 87.183 24.6894C87.4197 24.4781 87.5379 24.1495 87.5379 23.7505C87.5379 23.3514 87.4197 23.0462 87.183 22.8115Z" fill="#1E2329"/>
</g>
<defs>
<linearGradient id="paint0_linear_7_1295" x1="38.2922" y1="6.71229" x2="87.3467" y2="56.1647" gradientUnits="userSpaceOnUse">
<stop stop-color="#FFF3A6"/>
<stop offset="0.3275" stop-color="#F9DF7B"/>
<stop offset="0.3404" stop-color="#F5D974"/>
<stop offset="0.4304" stop-color="#D9B249"/>
<stop offset="0.5115" stop-color="#C5952A"/>
<stop offset="0.5799" stop-color="#B98417"/>
<stop offset="0.6274" stop-color="#B57E10"/>
<stop offset="0.7729" stop-color="#E5C35C"/>
<stop offset="0.8422" stop-color="#F9DF7B"/>
<stop offset="0.8687" stop-color="#F6DA76"/>
<stop offset="0.9013" stop-color="#ECCD67"/>
<stop offset="0.937" stop-color="#DCB64E"/>
<stop offset="0.9747" stop-color="#C6972B"/>
<stop offset="1" stop-color="#B57E10"/>
</linearGradient>
<linearGradient id="paint1_linear_7_1295" x1="2.38168" y1="2.14825" x2="46.697" y2="46.8231" gradientUnits="userSpaceOnUse">
<stop stop-color="#FFF3A6"/>
<stop offset="0.3275" stop-color="#F9DF7B"/>
<stop offset="0.3404" stop-color="#F5D974"/>
<stop offset="0.4304" stop-color="#D9B249"/>
<stop offset="0.5115" stop-color="#C5952A"/>
<stop offset="0.5799" stop-color="#B98417"/>
<stop offset="0.6274" stop-color="#B57E10"/>
<stop offset="0.7729" stop-color="#E5C35C"/>
<stop offset="0.8422" stop-color="#F9DF7B"/>
<stop offset="0.8687" stop-color="#F6DA76"/>
<stop offset="0.9013" stop-color="#ECCD67"/>
<stop offset="0.937" stop-color="#DCB64E"/>
<stop offset="0.9747" stop-color="#C6972B"/>
<stop offset="1" stop-color="#B57E10"/>
</linearGradient>
<linearGradient id="paint2_linear_7_1295" x1="32.4713" y1="15.6315" x2="51.0836" y2="34.3949" gradientUnits="userSpaceOnUse">
<stop stop-color="#FFF3A6"/>
<stop offset="0.3275" stop-color="#F9DF7B"/>
<stop offset="0.3404" stop-color="#F5D974"/>
<stop offset="0.4304" stop-color="#D9B249"/>
<stop offset="0.5115" stop-color="#C5952A"/>
<stop offset="0.5799" stop-color="#B98417"/>
<stop offset="0.6274" stop-color="#B57E10"/>
<stop offset="0.7729" stop-color="#E5C35C"/>
<stop offset="0.8422" stop-color="#F9DF7B"/>
<stop offset="0.8687" stop-color="#F6DA76"/>
<stop offset="0.9013" stop-color="#ECCD67"/>
<stop offset="0.937" stop-color="#DCB64E"/>
<stop offset="0.9747" stop-color="#C6972B"/>
<stop offset="1" stop-color="#B57E10"/>
</linearGradient>
<linearGradient id="paint3_linear_7_1295" x1="-2.88751" y1="25.0388" x2="49.12" y2="25.0388" gradientUnits="userSpaceOnUse">
<stop stop-color="#FFF3A6"/>
<stop offset="0.3275" stop-color="#F9DF7B"/>
<stop offset="0.3404" stop-color="#F5D974"/>
<stop offset="0.4304" stop-color="#D9B249"/>
<stop offset="0.5115" stop-color="#C5952A"/>
<stop offset="0.5799" stop-color="#B98417"/>
<stop offset="0.6274" stop-color="#B57E10"/>
<stop offset="0.7729" stop-color="#E5C35C"/>
<stop offset="0.8422" stop-color="#F9DF7B"/>
<stop offset="0.8687" stop-color="#F6DA76"/>
<stop offset="0.9013" stop-color="#ECCD67"/>
<stop offset="0.937" stop-color="#DCB64E"/>
<stop offset="0.9747" stop-color="#C6972B"/>
<stop offset="1" stop-color="#B57E10"/>
</linearGradient>
<clipPath id="clip0_7_1295">
<rect width="100" height="50" fill="white"/>
</clipPath>
</defs>
</svg>
