<svg width="22" height="22" viewBox="0 0 22 22" fill="none" xmlns="http://www.w3.org/2000/svg">
<g clip-path="url(#clip0_11_1597)">
<mask id="mask0_11_1597" style="mask-type:luminance" maskUnits="userSpaceOnUse" x="0" y="0" width="22" height="22">
<path d="M22 0H0V22H22V0Z" fill="white"/>
</mask>
<g mask="url(#mask0_11_1597)">
<mask id="mask1_11_1597" style="mask-type:luminance" maskUnits="userSpaceOnUse" x="0" y="0" width="22" height="22">
<path d="M21.6207 0H0V21.6207H21.6207V0Z" fill="white"/>
</mask>
<g mask="url(#mask1_11_1597)">
<path d="M1.68458e-05 11.364C0.758637 10.3171 1.44898 9.20189 2.27588 8.23845C3.05808 7.39906 3.9193 6.63691 4.8476 5.9626C5.90209 5.16605 7.17656 5.20398 8.58758 5.3026C8.35241 5.62881 8.16275 5.87914 7.98827 6.13707C7.07036 7.495 6.17519 8.8681 5.22691 10.2033C5.01328 10.52 4.70541 10.7615 4.34691 10.8936C3.21657 11.2122 2.07105 11.4778 0.910361 11.7053C0.590015 11.7062 0.271877 11.6523 -0.0303345 11.546L1.68458e-05 11.364Z" fill="#00C5F6"/>
<path d="M10.0669 21.6203C10.0669 21.5596 9.99103 21.4989 9.99103 21.4534C10.12 20.4975 10.1731 19.5265 10.3931 18.601C10.6131 17.6755 10.5676 16.7196 11.7055 16.1355C13.2749 15.2319 14.7943 14.2442 16.2572 13.1768C16.7731 15.7106 15.4152 17.5162 13.6628 19.0789C12.6083 20.0196 11.3869 20.7782 10.2414 21.6203H10.0669Z" fill="#00C5F6"/>
<path d="M21.6207 1.67657L20.9152 4.46069L17.16 0.705512L19.9441 0H21.6207V1.67657Z" fill="#00C5F6"/>
<path d="M0 20.3153C0.366053 19.3135 0.820479 18.3463 1.35792 17.4249C1.90449 16.8101 2.60298 16.3497 3.38344 16.0898C2.29103 17.205 1.40345 18.3656 1.51724 20.0877C3.21655 20.2318 4.38482 19.3898 5.34827 18.1153L5.57585 18.2746C5.38734 18.7112 5.16937 19.1345 4.92344 19.5415C4.05103 20.8008 2.70828 21.2636 1.30483 21.6201H0V20.3153Z" fill="#00C5F6"/>
<path d="M20.3614 5.71241C20.3044 5.88757 20.2386 6.05976 20.1641 6.22828C17.8136 10.8286 13.8481 14.3997 9.02759 16.2572C8.86562 16.3006 8.69577 16.3059 8.53137 16.2731C8.3669 16.2402 8.21222 16.1698 8.07931 16.0676C7.20188 15.2798 6.36625 14.4468 5.57589 13.5717C5.46909 13.4409 5.39316 13.2878 5.35376 13.1236C5.31435 12.9594 5.31249 12.7884 5.34829 12.6234C7.20006 7.77313 10.8066 3.79558 15.4531 1.47931C15.5946 1.4305 15.7459 1.41673 15.8939 1.43919C16.0418 1.46165 16.1821 1.51966 16.3028 1.60826C17.5621 2.79929 18.7759 4.04346 20.0048 5.28001C20.1344 5.41495 20.2537 5.55948 20.3614 5.71241ZM14.1786 9.01241C14.4868 9.00938 14.7871 8.91539 15.0419 8.74219C15.2968 8.569 15.4947 8.32434 15.6108 8.03903C15.727 7.75363 15.7562 7.44029 15.6949 7.13836C15.6335 6.83642 15.4842 6.55937 15.2658 6.34202C15.0474 6.12469 14.7697 5.97674 14.4674 5.91681C14.1652 5.85687 13.852 5.88762 13.5672 6.00517C13.2824 6.12273 13.0387 6.32187 12.8667 6.57752C12.6948 6.83318 12.6022 7.13395 12.6007 7.44206C12.5933 7.65092 12.629 7.85908 12.7057 8.05352C12.7825 8.24795 12.8985 8.42441 13.0467 8.57188C13.1948 8.71928 13.3719 8.83452 13.5666 8.91038C13.7615 8.98616 13.9698 9.02091 14.1786 9.01241Z" fill="#00C5F6"/>
<path d="M7.23723 17.0312C6.24344 17.5395 6.2662 17.5167 4.76413 16.0526C4.63782 15.9542 4.53248 15.8316 4.45435 15.6919C4.3762 15.5522 4.32683 15.3982 4.30915 15.2392C4.29147 15.0801 4.30584 14.919 4.35142 14.7656C4.39698 14.6121 4.47283 14.4693 4.57447 14.3457L7.23723 17.0312Z" fill="#00C5F6"/>
<path d="M14.1786 9.01257C13.8694 9.02145 13.5644 8.93845 13.3025 8.77391C13.0405 8.60936 12.8332 8.37078 12.707 8.08842C12.5807 7.80598 12.5411 7.49243 12.5931 7.18748C12.6451 6.88254 12.7865 6.59991 12.9993 6.37538C13.2122 6.15086 13.4868 5.99454 13.7886 5.92625C14.0903 5.85795 14.4055 5.88075 14.6942 5.99174C14.9831 6.10274 15.2323 6.29695 15.4107 6.54976C15.589 6.80257 15.6882 7.10262 15.6959 7.41189C15.7072 7.61807 15.6764 7.82434 15.6052 8.01817C15.534 8.212 15.4241 8.38929 15.2821 8.53911C15.14 8.68894 14.9689 8.80821 14.7791 8.88961C14.5894 8.97108 14.3851 9.01287 14.1786 9.01257Z" fill="#1E2329"/>
</g>
</g>
</g>
<defs>
<clipPath id="clip0_11_1597">
<rect width="22" height="22" fill="white"/>
</clipPath>
</defs>
</svg>
