<svg width="50" height="50" viewBox="0 0 50 50" fill="none" xmlns="http://www.w3.org/2000/svg">
<g clip-path="url(#clip0_1441_25)">
<path d="M45.8333 0H4.16667C1.86548 0 0 1.86548 0 4.16667V45.8333C0 48.1345 1.86548 50 4.16667 50H45.8333C48.1345 50 50 48.1345 50 45.8333V4.16667C50 1.86548 48.1345 0 45.8333 0Z" fill="#F5F5F7"/>
<path d="M15.8335 29.5088C15.8335 26.5019 15.8335 23.4947 15.8335 20.4874C15.8635 20.3 15.8832 20.1103 15.9254 19.9256C16.3899 17.8703 17.6364 16.5524 19.6662 15.9843C19.933 15.9095 20.2132 15.8826 20.4877 15.8333C23.4949 15.8333 26.5022 15.8333 29.5094 15.8333C29.8932 15.9126 30.2887 15.9553 30.6587 16.0772C32.7884 16.7798 34.1519 18.6478 34.1609 20.8811C34.1717 23.6247 34.1649 26.3688 34.1627 29.1124C34.1622 29.9813 33.9722 30.8099 33.5332 31.5605C32.5355 33.2648 31.0362 34.1458 29.0606 34.1584C26.3528 34.1754 23.6447 34.166 20.9365 34.1584C20.5984 34.1575 20.2522 34.1387 19.9236 34.0656C17.87 33.6087 16.5536 32.3591 15.9855 30.3324C15.9097 30.0652 15.8828 29.7841 15.8335 29.5088ZM30.0224 24.9985C30.0237 22.2329 27.7881 19.9924 25.0082 19.974C22.2502 19.9557 19.9761 22.2248 19.9747 24.9972C19.9733 27.7628 22.209 30.0033 24.9889 30.0217C27.7468 30.0401 30.021 27.7708 30.0224 24.9985ZM31.8495 19.6647C31.8446 18.8243 31.155 18.1397 30.321 18.1464C29.4839 18.1532 28.7898 18.8499 28.7983 19.6754C28.8068 20.5076 29.5081 21.2039 30.3317 21.1977C31.1657 21.1913 31.8544 20.4955 31.8495 19.6647Z" fill="#060707"/>
<path d="M22.0752 24.991C22.0809 23.3742 23.4004 22.0636 25.0116 22.0745C26.6255 22.0859 27.9268 23.3961 27.9214 25.0044C27.9158 26.6212 26.5962 27.9318 24.9854 27.9209C23.3714 27.9099 22.0695 26.5993 22.0752 24.991Z" fill="#060707"/>
<path d="M30.3219 19.2294C30.5654 19.2273 30.7663 19.4258 30.7663 19.6688C30.7663 19.9097 30.5609 20.1146 30.3224 20.1118C30.0938 20.1092 29.8888 19.9065 29.8834 19.6778C29.8776 19.4393 30.0816 19.2317 30.3219 19.2294Z" fill="#060707"/>
</g>
<defs>
<clipPath id="clip0_1441_25">
<rect width="50" height="50" fill="white"/>
</clipPath>
</defs>
</svg>
