<svg width="148" height="44" viewBox="0 0 148 44" fill="none" xmlns="http://www.w3.org/2000/svg">
<g clip-path="url(#clip0_391_2)">
<path d="M9.50344 43.9977C9.12103 43.9977 8.74787 43.9932 8.36846 43.9854C7.58249 43.976 6.79836 43.9133 6.02249 43.7978C5.29903 43.6836 4.59819 43.4712 3.9431 43.1675C3.29401 42.8664 2.70199 42.4716 2.18972 41.9982C1.67003 41.5304 1.23736 40.9877 0.908874 40.3919C0.57676 39.7921 0.346917 39.1492 0.227344 38.4856C0.0982221 37.7726 0.0283679 37.0516 0.0183728 36.3288C0.0104191 36.0863 0 35.2786 0 35.2786V8.70676C0 8.70676 0.0110884 7.91146 0.0184397 7.6778C0.0280109 6.95621 0.0974634 6.23635 0.226195 5.52442C0.34598 4.85902 0.576001 4.21429 0.908294 3.61256C1.23558 3.01709 1.66585 2.47407 2.1824 2.00455C2.69838 1.53057 3.29229 1.13371 3.94249 0.828435C4.59607 0.525782 5.29559 0.314865 6.01758 0.202757C6.79599 0.086078 7.58285 0.0229966 8.37155 0.0140454L9.50411 0H138.489L139.636 0.0146093C140.417 0.0231196 141.196 0.0856371 141.968 0.20163C142.698 0.315141 143.404 0.527535 144.066 0.831808C145.367 1.44702 146.428 2.42034 147.096 3.61537C147.423 4.21294 147.65 4.85241 147.768 5.51207C147.898 6.22983 147.971 6.95536 147.987 7.68287C147.99 8.00862 147.99 8.35853 147.99 8.70676C148 9.13812 148 9.54864 148 9.96262V34.0362C148 34.454 148 34.8619 147.99 35.273C147.99 35.647 147.99 35.9897 147.986 36.3424C147.97 37.0568 147.898 37.7695 147.77 38.4743C147.653 39.1427 147.424 39.7906 147.093 40.3952C146.762 40.9847 146.331 41.5227 145.818 41.9893C145.305 42.4652 144.713 42.8623 144.062 43.1654C143.403 43.4713 142.697 43.6845 141.968 43.7978C141.192 43.9139 140.408 43.9766 139.622 43.9854C139.254 43.9932 138.869 43.9977 138.496 43.9977L137.135 44L9.50344 43.9977Z" fill="black" fill-opacity="0.85"/>
<path d="M33.0884 22.0821C33.1014 21.074 33.3699 20.0857 33.8689 19.209C34.3678 18.3323 35.0811 17.5958 35.9423 17.0678C35.3953 16.2887 34.6735 15.6474 33.8345 15.1951C32.9954 14.7428 32.0621 14.4918 31.1088 14.462C29.0752 14.2491 27.1035 15.6755 26.0672 15.6755C25.0109 15.6755 23.4153 14.4832 21.6971 14.5184C20.5857 14.5542 19.5026 14.8765 18.5534 15.4538C17.604 16.0311 16.8209 16.8439 16.2801 17.8127C13.9381 21.8566 15.6851 27.7996 17.9287 31.0683C19.0511 32.6688 20.3631 34.4567 22.0797 34.3933C23.7595 34.3238 24.3869 33.3251 26.4146 33.3251C28.4235 33.3251 29.012 34.3933 30.7635 34.353C32.5661 34.3238 33.7017 32.7453 34.7849 31.1295C35.5914 29.9891 36.212 28.7287 36.6238 27.3949C35.5765 26.9532 34.6829 26.2138 34.0542 25.2691C33.4255 24.3243 33.0896 23.2159 33.0884 22.0821Z" fill="white"/>
<path d="M29.7795 12.3122C30.7623 11.1357 31.2465 9.62346 31.1292 8.09668C29.6277 8.25394 28.2407 8.96955 27.2447 10.1009C26.7576 10.6537 26.3846 11.2967 26.147 11.9932C25.9093 12.6898 25.8116 13.4261 25.8595 14.1604C26.6106 14.1681 27.3535 14.0058 28.0326 13.6856C28.7116 13.3655 29.3088 12.8959 29.7795 12.3122Z" fill="white"/>
<path d="M52.6151 29.757H47.4837L46.2515 33.3854H44.0781L48.9383 19.9612H51.1965L56.0568 33.3854H53.8464L52.6151 29.757ZM48.0153 28.0826H52.0827L50.0775 22.194H50.0213L48.0153 28.0826Z" fill="white"/>
<path d="M66.5539 28.4925C66.5539 31.5339 64.9215 33.488 62.4579 33.488C61.8339 33.5206 61.2133 33.3772 60.6671 33.0744C60.121 32.7715 59.6714 32.3214 59.3699 31.7756H59.3233V36.6234H57.3086V23.5982H59.2587V25.2261H59.2957C59.6111 24.683 60.0683 24.2352 60.6186 23.9305C61.1689 23.6258 61.7917 23.4755 62.4208 23.4958C64.912 23.4958 66.5539 25.4594 66.5539 28.4925ZM64.4831 28.4925C64.4831 26.5109 63.4562 25.2082 61.8894 25.2082C60.3502 25.2082 59.3148 26.5383 59.3148 28.4925C59.3148 30.4645 60.3502 31.7852 61.8894 31.7852C63.4562 31.7852 64.4831 30.4919 64.4831 28.4925Z" fill="white"/>
<path d="M77.3591 28.4925C77.3591 31.5339 75.7262 33.488 73.2626 33.488C72.6385 33.5206 72.018 33.3772 71.4718 33.0744C70.9257 32.7715 70.4761 32.3214 70.1745 31.7756H70.128V36.6234H68.1133V23.5982H70.0634V25.2261H70.1004C70.4158 24.683 70.873 24.2352 71.4233 23.9305C71.9736 23.6258 72.5964 23.4755 73.2255 23.4958C75.7167 23.4958 77.3591 25.4594 77.3591 28.4925ZM75.2878 28.4925C75.2878 26.5109 74.2609 25.2082 72.6941 25.2082C71.1549 25.2082 70.1195 26.5383 70.1195 28.4925C70.1195 30.4645 71.1549 31.7852 72.6941 31.7852C74.2609 31.7852 75.2878 30.4919 75.2878 28.4925Z" fill="white"/>
<path d="M84.496 29.6458C84.6452 30.977 85.9421 31.8512 87.7143 31.8512C89.4124 31.8512 90.6341 30.977 90.6341 29.7767C90.6341 28.7346 89.8972 28.1108 88.1526 27.6832L86.4079 27.2641C83.9359 26.6687 82.7883 25.5159 82.7883 23.6452C82.7883 21.329 84.8125 19.738 87.6857 19.738C90.5314 19.738 92.4814 21.329 92.547 23.6452H90.5133C90.3916 22.3054 89.2811 21.4968 87.6582 21.4968C86.0353 21.4968 84.9247 22.315 84.9247 23.5058C84.9247 24.4549 85.6341 25.0133 87.3692 25.4409L88.8523 25.804C91.6143 26.4554 92.7609 27.5618 92.7609 29.5253C92.7609 32.0368 90.7558 33.6099 87.565 33.6099C84.5795 33.6099 82.5638 32.0738 82.4336 29.6457L84.496 29.6458Z" fill="white"/>
<path d="M97.1075 21.2821V23.5983H98.974V25.1892H97.1075V30.5849C97.1075 31.4231 97.4813 31.8137 98.3017 31.8137C98.5233 31.8099 98.7445 31.7944 98.9645 31.7673V33.3486C98.5955 33.4174 98.2206 33.4485 97.8454 33.4416C95.8583 33.4416 95.0833 32.6973 95.0833 30.7991V25.1892H93.6562V23.5983H95.0833V21.2821H97.1075Z" fill="white"/>
<path d="M100.059 28.4934C100.059 25.414 101.877 23.4789 104.714 23.4789C107.559 23.4789 109.369 25.414 109.369 28.4934C109.369 31.5814 107.569 33.508 104.714 33.508C101.859 33.508 100.059 31.5814 100.059 28.4934ZM107.317 28.4934C107.317 26.381 106.346 25.1342 104.713 25.1342C103.081 25.1342 102.11 26.3905 102.11 28.4934C102.11 30.6143 103.081 31.8516 104.713 31.8516C106.346 31.8516 107.317 30.6143 107.317 28.4934Z" fill="white"/>
<path d="M111.031 23.5981H112.952V25.264H112.999C113.129 24.7437 113.435 24.2839 113.864 23.9619C114.295 23.6399 114.823 23.4752 115.36 23.4957C115.592 23.4949 115.824 23.52 116.05 23.5707V25.4499C115.756 25.3605 115.451 25.3195 115.145 25.3284C114.852 25.3165 114.56 25.3681 114.29 25.4792C114.018 25.5905 113.775 25.7588 113.575 25.9728C113.377 26.1867 113.226 26.4411 113.135 26.7185C113.042 26.9961 113.012 27.29 113.046 27.5802V33.3855H111.031V23.5981Z" fill="white"/>
<path d="M125.335 30.5119C125.063 32.2886 123.328 33.508 121.108 33.508C118.253 33.508 116.48 31.6003 116.48 28.5399C116.48 25.47 118.262 23.4789 121.023 23.4789C123.738 23.4789 125.446 25.339 125.446 28.3066V28.9949H118.514V29.1163C118.482 29.4765 118.528 29.8393 118.647 30.1808C118.766 30.5223 118.957 30.8345 119.207 31.0967C119.456 31.3588 119.76 31.565 120.095 31.7016C120.431 31.8381 120.793 31.9018 121.155 31.8886C121.631 31.933 122.108 31.8231 122.517 31.5751C122.925 31.3271 123.243 30.9541 123.421 30.5119H125.335ZM118.524 27.5908H123.431C123.449 27.267 123.4 26.9429 123.286 26.6389C123.172 26.3349 122.997 26.0575 122.772 25.8243C122.545 25.5911 122.273 25.4069 121.973 25.2834C121.671 25.16 121.348 25.0998 121.023 25.1067C120.695 25.1048 120.37 25.1677 120.066 25.2917C119.763 25.4157 119.487 25.5985 119.254 25.8294C119.023 26.0604 118.838 26.335 118.712 26.6372C118.587 26.9396 118.523 27.2636 118.524 27.5908Z" fill="white"/>
<path d="M48.0334 9.12346C48.4872 9.09099 48.9425 9.15935 49.3666 9.3236C49.7906 9.48788 50.1728 9.74386 50.4856 10.0733C50.7984 10.4027 51.034 10.7972 51.1754 11.2284C51.3168 11.6595 51.3604 12.1166 51.3032 12.5666C51.3032 14.7805 50.1034 16.053 48.0334 16.053H45.5234V9.12346H48.0334ZM46.6027 15.073H47.9129C48.2371 15.0923 48.5616 15.0393 48.8627 14.9178C49.1638 14.7963 49.434 14.6094 49.6534 14.3707C49.8729 14.132 50.0363 13.8474 50.1316 13.5377C50.227 13.2281 50.2519 12.9012 50.2046 12.5808C50.2485 12.2616 50.221 11.9367 50.1243 11.6294C50.0275 11.3219 49.8636 11.0398 49.6446 10.803C49.4256 10.5661 49.1568 10.3804 48.8574 10.2594C48.558 10.1383 48.2355 10.0848 47.9129 10.1027H46.6027V15.073Z" fill="white"/>
<path d="M52.5234 13.4359C52.4904 13.0922 52.5298 12.7455 52.6392 12.4179C52.7485 12.0903 52.9251 11.7892 53.158 11.5336C53.3909 11.2782 53.6748 11.074 53.9913 10.9344C54.3079 10.7947 54.6503 10.7225 54.9964 10.7225C55.3427 10.7225 55.6851 10.7947 56.0017 10.9344C56.3182 11.074 56.6021 11.2782 56.835 11.5336C57.0677 11.7892 57.2445 12.0903 57.3538 12.4179C57.4631 12.7455 57.5025 13.0922 57.4696 13.4359C57.5032 13.7798 57.4642 14.1271 57.3552 14.4552C57.2462 14.7834 57.0696 15.0851 56.8366 15.3411C56.6037 15.597 56.3197 15.8016 56.0027 15.9415C55.6859 16.0816 55.3431 16.1538 54.9964 16.1538C54.6499 16.1538 54.3071 16.0816 53.9901 15.9415C53.6733 15.8016 53.3893 15.597 53.1563 15.3411C52.9234 15.0851 52.7468 14.7834 52.6378 14.4552C52.5288 14.1271 52.4898 13.7798 52.5234 13.4359ZM56.405 13.4359C56.405 12.3024 55.8944 11.6394 54.9982 11.6394C54.0986 11.6394 53.5926 12.3024 53.5926 13.4359C53.5926 14.5785 54.0986 15.2363 54.9982 15.2363C55.8944 15.2363 56.405 14.574 56.405 13.4359Z" fill="white"/>
<path d="M64.0423 16.0528H62.9688L61.8849 12.2014H61.803L60.7238 16.0528H59.6603L58.2148 10.8234H59.2646L60.204 14.8137H60.2814L61.3595 10.8234H62.3524L63.4305 14.8137H63.5124L64.4473 10.8234H65.4822L64.0423 16.0528Z" fill="white"/>
<path d="M66.6992 10.8232H67.6955V11.654H67.7729C67.9041 11.3556 68.1254 11.1055 68.4059 10.9384C68.6864 10.7715 69.0121 10.6959 69.3377 10.7223C69.593 10.7032 69.8492 10.7415 70.0874 10.8345C70.3257 10.9276 70.54 11.0728 70.7143 11.2596C70.8886 11.4465 71.0185 11.6699 71.0945 11.9136C71.1703 12.1572 71.1903 12.4149 71.153 12.6673V16.0526H70.118V12.9264C70.118 12.086 69.7518 11.6682 68.9863 11.6682C68.8132 11.6601 68.6402 11.6895 68.4794 11.7543C68.3186 11.8192 68.1738 11.9179 68.0549 12.0438C67.9359 12.1697 67.8457 12.3196 67.7903 12.4836C67.735 12.6475 67.7159 12.8213 67.7342 12.9934V16.0527H66.6992V10.8232Z" fill="white"/>
<path d="M72.8008 8.78198H73.8358V16.0528H72.8008V8.78198Z" fill="white"/>
<path d="M75.2734 13.436C75.2405 13.0922 75.2799 12.7455 75.3892 12.418C75.4985 12.0904 75.6753 11.7892 75.9081 11.5337C76.141 11.2782 76.4249 11.074 76.7414 10.9344C77.0581 10.7947 77.4005 10.7225 77.7467 10.7225C78.0929 10.7225 78.4354 10.7947 78.752 10.9344C79.0686 11.074 79.3524 11.2782 79.5853 11.5337C79.8182 11.7892 79.9949 12.0904 80.1042 12.418C80.2135 12.7455 80.2531 13.0922 80.22 13.436C80.2536 13.78 80.2147 14.1272 80.1056 14.4553C79.9966 14.7835 79.8199 15.0852 79.587 15.3412C79.354 15.5971 79.07 15.8017 78.753 15.9416C78.4361 16.0816 78.0934 16.1539 77.7467 16.1539C77.4001 16.1539 77.0574 16.0816 76.7404 15.9416C76.4235 15.8017 76.1394 15.5971 75.9064 15.3412C75.6736 15.0852 75.4969 14.7835 75.3879 14.4553C75.2788 14.1272 75.2399 13.78 75.2734 13.436ZM79.1549 13.436C79.1549 12.3024 78.6443 11.6395 77.7482 11.6395C76.8486 11.6395 76.3425 12.3025 76.3425 13.436C76.3425 14.5786 76.8486 15.2364 77.7482 15.2364C78.6443 15.2364 79.1549 14.5741 79.1549 13.436Z" fill="white"/>
<path d="M81.3086 14.574C81.3086 13.6327 82.0114 13.0901 83.2591 13.0129L84.6795 12.9313V12.4799C84.6795 11.9276 84.3133 11.6157 83.6059 11.6157C83.0282 11.6157 82.6279 11.8272 82.513 12.1969H81.511C81.6168 11.2987 82.4642 10.7225 83.6537 10.7225C84.9684 10.7225 85.71 11.3753 85.71 12.4799V16.0529H84.7137V15.318H84.6318C84.4656 15.5816 84.2322 15.7965 83.9555 15.9408C83.6787 16.085 83.3686 16.1535 83.0566 16.1391C82.8365 16.1619 82.614 16.1385 82.4035 16.0703C82.193 16.0022 81.9991 15.8907 81.8344 15.7433C81.6697 15.5958 81.5379 15.4156 81.4473 15.2142C81.3567 15.0128 81.3094 14.7947 81.3086 14.574ZM84.6795 14.1271V13.69L83.3989 13.7717C82.6768 13.8198 82.3493 14.0648 82.3493 14.5258C82.3493 14.9965 82.7586 15.2704 83.3216 15.2704C83.4866 15.287 83.6533 15.2704 83.8116 15.2215C83.97 15.1727 84.117 15.0924 84.2437 14.9858C84.3704 14.8792 84.4742 14.7482 84.5491 14.6007C84.624 14.4532 84.6684 14.2921 84.6795 14.1271Z" fill="white"/>
<path d="M87.0703 13.4358C87.0703 11.7834 87.9222 10.7367 89.2471 10.7367C89.5749 10.7216 89.9001 10.7999 90.1849 10.9623C90.4697 11.1248 90.7022 11.3648 90.8553 11.6541H90.9326V8.78198H91.9676V16.0528H90.9759V15.2266H90.8939C90.729 15.514 90.4885 15.751 90.1981 15.9118C89.9079 16.0726 89.5789 16.1512 89.2471 16.139C87.9131 16.1391 87.0703 15.0923 87.0703 13.4358ZM88.1394 13.4358C88.1394 14.545 88.6637 15.2125 89.5406 15.2125C90.4129 15.2125 90.952 14.5354 90.952 13.4404C90.952 12.3505 90.4072 11.6638 89.5406 11.6638C88.6694 11.6638 88.1394 12.3358 88.1394 13.4358Z" fill="white"/>
<path d="M96.25 13.4359C96.217 13.0922 96.2565 12.7455 96.3658 12.4179C96.475 12.0903 96.6518 11.7892 96.8846 11.5336C97.1175 11.2782 97.4013 11.074 97.7179 10.9344C98.0344 10.7947 98.3768 10.7225 98.7231 10.7225C99.0693 10.7225 99.4116 10.7947 99.7282 10.9344C100.045 11.074 100.329 11.2782 100.561 11.5336C100.794 11.7892 100.971 12.0903 101.08 12.4179C101.19 12.7455 101.229 13.0922 101.196 13.4359C101.23 13.7798 101.191 14.1271 101.082 14.4552C100.973 14.7834 100.796 15.0851 100.563 15.3411C100.33 15.597 100.046 15.8016 99.7294 15.9415C99.4124 16.0816 99.0697 16.1538 98.7231 16.1538C98.3764 16.1538 98.0337 16.0816 97.7168 15.9415C97.3998 15.8016 97.1158 15.597 96.8829 15.3411C96.65 15.0851 96.4733 14.7834 96.3643 14.4552C96.2553 14.1271 96.2164 13.7798 96.25 13.4359ZM100.132 13.4359C100.132 12.3024 99.6209 11.6394 98.7247 11.6394C97.8251 11.6394 97.3191 12.3024 97.3191 13.4359C97.3191 14.5785 97.8252 15.2363 98.7247 15.2363C99.621 15.2363 100.132 14.574 100.132 13.4359Z" fill="white"/>
<path d="M102.586 10.8232H103.582V11.654H103.66C103.791 11.3556 104.012 11.1055 104.293 10.9384C104.573 10.7715 104.899 10.6959 105.224 10.7223C105.48 10.7032 105.736 10.7415 105.974 10.8345C106.212 10.9276 106.427 11.0728 106.601 11.2596C106.776 11.4465 106.905 11.6699 106.982 11.9136C107.057 12.1572 107.077 12.4149 107.04 12.6673V16.0526H106.005V12.9264C106.005 12.086 105.638 11.6682 104.873 11.6682C104.7 11.6601 104.527 11.6895 104.366 11.7543C104.205 11.8192 104.061 11.9179 103.942 12.0438C103.823 12.1697 103.732 12.3196 103.677 12.4836C103.622 12.6475 103.602 12.8213 103.621 12.9934V16.0527H102.586V10.8232Z" fill="white"/>
<path d="M112.888 9.52136V10.8472H114.024V11.7165H112.888V14.4055C112.888 14.9533 113.115 15.1931 113.629 15.1931C113.761 15.1927 113.893 15.1847 114.024 15.1693V16.0289C113.838 16.0621 113.65 16.0797 113.461 16.0817C112.31 16.0817 111.852 15.6779 111.852 14.6697V11.7165H111.02V10.8471H111.852V9.52136H112.888Z" fill="white"/>
<path d="M115.438 8.78198H116.463V11.6638H116.545C116.683 11.3626 116.91 11.1111 117.196 10.9435C117.483 10.7758 117.814 10.7002 118.144 10.727C118.399 10.7133 118.652 10.7555 118.887 10.8507C119.123 10.9461 119.335 11.092 119.507 11.2782C119.68 11.4644 119.809 11.6862 119.885 11.928C119.962 12.1697 119.985 12.4253 119.95 12.6765V16.0528H118.914V12.9311C118.914 12.0958 118.524 11.6728 117.793 11.6728C117.615 11.6583 117.436 11.6827 117.269 11.7443C117.102 11.8059 116.95 11.9033 116.823 12.0296C116.698 12.1559 116.602 12.308 116.541 12.4754C116.48 12.6428 116.457 12.8213 116.473 12.9986V16.0528H115.438V8.78198Z" fill="white"/>
<path d="M125.986 14.641C125.846 15.1189 125.541 15.5323 125.126 15.8089C124.711 16.0855 124.211 16.2076 123.714 16.1539C123.369 16.163 123.026 16.0971 122.708 15.9605C122.39 15.824 122.107 15.6203 121.877 15.3635C121.646 15.1067 121.474 14.8029 121.373 14.4733C121.272 14.1437 121.245 13.7961 121.292 13.4547C121.246 13.1122 121.275 12.7639 121.375 12.4333C121.475 12.1027 121.646 11.7975 121.876 11.5385C122.105 11.2795 122.387 11.0725 122.704 10.9318C123.021 10.791 123.363 10.7197 123.71 10.7226C125.169 10.7226 126.049 11.7167 126.049 13.3589V13.719H122.346V13.7768C122.33 13.9687 122.354 14.1619 122.417 14.3439C122.48 14.5259 122.581 14.6929 122.712 14.834C122.844 14.9749 123.003 15.087 123.181 15.163C123.358 15.239 123.55 15.2771 123.743 15.2749C123.991 15.3046 124.241 15.2601 124.464 15.1473C124.685 15.0343 124.869 14.8581 124.99 14.6409L125.986 14.641ZM122.346 12.9557H124.995C125.008 12.7801 124.984 12.6039 124.924 12.4382C124.865 12.2724 124.772 12.1209 124.65 11.9933C124.529 11.8658 124.382 11.7649 124.218 11.6974C124.056 11.6298 123.881 11.597 123.704 11.601C123.525 11.5987 123.348 11.6322 123.181 11.6995C123.016 11.7668 122.865 11.8666 122.738 11.9929C122.612 12.119 122.512 12.2693 122.445 12.4346C122.377 12.6 122.344 12.7773 122.346 12.9557Z" fill="white"/>
</g>
<defs>
<clipPath id="clip0_391_2">
<rect width="148" height="44" fill="white"/>
</clipPath>
</defs>
</svg>
