<svg width="760" height="260" viewBox="0 0 760 260" fill="none" xmlns="http://www.w3.org/2000/svg">
<path d="M147.302 142.462C165.174 153.484 165.174 179.47 147.302 190.492L43.049 254.787C24.251 266.38 0.0234365 252.857 0.0234375 230.771L0.0234431 102.183C0.0234441 80.098 24.251 66.5752 43.049 78.1682L147.302 142.462Z" fill="url(#paint0_linear_3054_1241)"/>
<path d="M147.304 68.5386C165.176 79.5608 165.176 105.547 147.304 116.569L43.0511 180.863C-2.515 205.696 0.0255707 231.371 0.0255707 231.371L0.0255643 28.2596C0.0255653 6.17422 24.2531 -7.34866 43.0511 4.24435L147.304 68.5386Z" fill="url(#paint1_linear_3054_1241)"/>
<path fill-rule="evenodd" clip-rule="evenodd" d="M236.32 63.8906V174.883H246.766V151.274L259.906 138.235L295.182 175H309.886L267.322 130.903L311.21 87.4453H296.443L258.592 124.938L254.025 129.448L246.766 136.627V63.8906H236.32ZM336.203 105.332C343.367 98.1683 351.96 94.6094 362.094 94.6094C372.227 94.6094 380.82 98.1683 387.984 105.332C395.148 112.496 398.707 121.089 398.707 131.223C398.707 141.356 395.148 149.949 387.984 157.113C380.82 164.277 372.227 167.836 362.094 167.836C351.96 167.836 343.367 164.277 336.203 157.113C329.039 149.949 325.48 141.356 325.48 131.223C325.48 121.089 329.039 112.496 336.203 105.332ZM328.804 164.453C338.005 173.654 349.138 178.281 362.094 178.281C375.048 178.281 386.162 173.655 395.324 164.453C404.526 155.291 409.152 144.177 409.152 131.223C409.152 118.269 404.526 107.155 395.324 97.992C386.162 88.7902 375.048 84.1641 362.094 84.1641C349.138 84.1641 338.005 88.791 328.804 97.992C319.641 107.156 315.035 118.27 315.035 131.223C315.035 144.175 319.641 155.289 328.804 164.453ZM423.164 87.3281V175H433.609V87.3281H423.164ZM450.258 175.117H460.703V124.484C460.703 116.108 463.637 109.019 469.551 103.106C475.464 97.1922 482.553 94.2578 490.93 94.2578C499.265 94.2578 506.334 97.1904 512.25 103.106L512.254 103.11C518.205 109.024 521.156 116.112 521.156 124.484V175.117H531.543V124.484C531.543 113.29 527.563 103.662 519.652 95.7105L519.645 95.7032C511.694 87.7939 502.087 83.8125 490.93 83.8125C479.735 83.8125 470.108 87.7923 462.156 95.7032L462.148 95.7105C454.238 103.662 450.258 113.29 450.258 124.484V175.117ZM558.695 101.741V63.9492H548.25V131.223C548.25 144.175 552.855 155.307 562.016 164.509L562.022 164.515C571.224 173.676 582.356 178.281 595.308 178.281C608.261 178.281 619.375 173.676 628.539 164.512C637.74 155.311 642.367 144.178 642.367 131.223C642.367 118.269 637.742 107.156 628.541 97.9938C619.378 88.7908 608.263 84.1641 595.308 84.1641C586.908 84.1641 579.062 86.2889 571.804 90.5284C566.672 93.4956 562.299 97.236 558.695 101.741ZM558.695 131.223C558.695 121.089 562.254 112.496 569.418 105.332C576.582 98.1683 585.175 94.6094 595.308 94.6094C605.442 94.6094 614.035 98.1683 621.199 105.332C628.363 112.496 631.922 121.089 631.922 131.223C631.922 141.356 628.363 149.949 621.199 157.113C614.035 164.277 605.442 167.836 595.308 167.836C585.175 167.836 576.582 164.277 569.418 157.113C562.254 149.949 558.695 141.356 558.695 131.223ZM722.136 87.2109H709.612L684.687 122.319L659.763 87.2109H647.239L678.425 131.105L647.239 175H659.762L684.687 139.947L709.613 175H722.136L690.949 131.105L722.136 87.2109Z" fill="url(#paint2_linear_3054_1241)"/>
<defs>
<linearGradient id="paint0_linear_3054_1241" x1="133.498" y1="196.5" x2="41.9979" y2="148.5" gradientUnits="userSpaceOnUse">
<stop stop-color="#425DF3"/>
<stop offset="1" stop-color="#182B96"/>
</linearGradient>
<linearGradient id="paint1_linear_3054_1241" x1="92.288" y1="37.5346" x2="0.0243726" y2="209.928" gradientUnits="userSpaceOnUse">
<stop stop-color="#00C5F6"/>
<stop offset="1" stop-color="#00C5F6"/>
</linearGradient>
<linearGradient id="paint2_linear_3054_1241" x1="535.496" y1="129" x2="540.996" y2="129" gradientUnits="userSpaceOnUse">
<stop stop-color="white"/>
<stop offset="1" stop-color="#00C5F6"/>
</linearGradient>
</defs>
</svg>
