<svg width="30" height="30" viewBox="0 0 30 30" fill="none" xmlns="http://www.w3.org/2000/svg">
<g clip-path="url(#clip0_795_10736)">
<mask id="mask0_795_10736" style="mask-type:luminance" maskUnits="userSpaceOnUse" x="0" y="0" width="30" height="30">
<path d="M30 0H0V30H30V0Z" fill="white"/>
</mask>
<g mask="url(#mask0_795_10736)">
<path d="M15 30C23.2843 30 30 23.2843 30 15C30 6.71573 23.2843 0 15 0C6.71573 0 0 6.71573 0 15C0 23.2843 6.71573 30 15 30Z" fill="#59E1FF"/>
<path d="M13.0332 12.7461H15.7016V13.9604C15.7386 13.9416 15.7571 13.9384 15.7633 13.9279C16.3588 12.9693 17.2492 12.5524 18.3481 12.527C18.9643 12.5128 19.5647 12.5899 20.1276 12.8593C20.8564 13.2082 21.2653 13.8152 21.492 14.567C21.6742 15.1722 21.7372 15.7953 21.7415 16.4216C21.753 18.157 21.7486 19.893 21.7504 21.6283C21.7504 21.6552 21.7468 21.6816 21.7438 21.7195H18.9506V21.5346C18.9506 20.0628 18.9551 18.5906 18.945 17.1188C18.9448 16.784 18.9154 16.4498 18.8569 16.1202C18.687 15.1959 18.0868 14.8851 17.2284 14.9856C16.4468 15.077 16.0159 15.5343 15.8935 16.3803C15.8502 16.69 15.8281 17.0024 15.8275 17.3151C15.8209 18.7213 15.8249 20.1276 15.8249 21.5337V21.7419H13.0332V12.7461Z" fill="#1E2329"/>
<path d="M11.2607 21.7498H8.48438V12.75H11.2607V21.7498Z" fill="#1E2329"/>
<path d="M11.4884 9.86439C11.4955 10.7583 10.7697 11.5021 9.88464 11.5078C8.99954 11.5135 8.25176 10.7711 8.25001 9.87408C8.24872 9.44463 8.41808 9.03226 8.72084 8.72769C9.0236 8.42312 9.43494 8.25129 9.86439 8.25001C10.2938 8.24872 10.7062 8.41809 11.0108 8.72084C11.3153 9.0236 11.4872 9.43495 11.4884 9.86439Z" fill="#1E2329"/>
</g>
</g>
<defs>
<clipPath id="clip0_795_10736">
<rect width="30" height="30" fill="white"/>
</clipPath>
</defs>
</svg>
