<svg width="50" height="50" viewBox="0 0 50 50" fill="none" xmlns="http://www.w3.org/2000/svg">
<g clip-path="url(#clip0_1441_12)">
<path d="M45.8333 0H4.16667C1.86548 0 0 1.86548 0 4.16667V45.8333C0 48.1345 1.86548 50 4.16667 50H45.8333C48.1345 50 50 48.1345 50 45.8333V4.16667C50 1.86548 48.1345 0 45.8333 0Z" fill="#F5F5F7"/>
<path d="M22.5718 22.2171H25.8662V23.7162C25.9119 23.6929 25.9347 23.689 25.9423 23.676C26.6774 22.4925 27.7767 21.978 29.1334 21.9465C29.8941 21.9291 30.6353 22.0242 31.3302 22.3567C32.23 22.7876 32.7348 23.5369 33.0146 24.465C33.2396 25.2121 33.3173 25.9815 33.3227 26.7547C33.3369 28.8971 33.3314 31.0402 33.3336 33.1826C33.3336 33.2158 33.3293 33.2484 33.3254 33.2951H29.8773V33.0669C29.8773 31.2499 29.8827 29.4324 29.8702 27.6154C29.8699 27.202 29.8336 26.7895 29.7615 26.3825C29.5518 25.2415 28.8107 24.8578 27.7511 24.9817C26.7861 25.0947 26.2542 25.6593 26.1031 26.7036C26.0496 27.086 26.0224 27.4716 26.0216 27.8577C26.0134 29.5937 26.0184 31.3298 26.0184 33.0658V33.3228H22.5718V22.2171Z" fill="#060707"/>
<path d="M20.3845 33.3323H16.957V22.2217H20.3845V33.3323Z" fill="#060707"/>
<path d="M20.6646 18.6598C20.6733 19.7633 19.7773 20.6817 18.6846 20.6887C17.5918 20.6958 16.6687 19.7791 16.6665 18.6718C16.6649 18.1416 16.874 17.6325 17.2478 17.2565C17.6216 16.8805 18.1294 16.6683 18.6596 16.6668C19.1898 16.6652 19.6988 16.8743 20.0748 17.248C20.4508 17.6218 20.663 18.1297 20.6646 18.6598Z" fill="#060707"/>
</g>
<defs>
<clipPath id="clip0_1441_12">
<rect width="50" height="50" fill="white"/>
</clipPath>
</defs>
</svg>
