<svg width="50" height="50" viewBox="0 0 50 50" fill="none" xmlns="http://www.w3.org/2000/svg">
<g clip-path="url(#clip0_1441_38)">
<path d="M45.8333 0H4.16667C1.86548 0 0 1.86548 0 4.16667V45.8333C0 48.1345 1.86548 50 4.16667 50H45.8333C48.1345 50 50 48.1345 50 45.8333V4.16667C50 1.86548 48.1345 0 45.8333 0Z" fill="#F5F5F7"/>
<path d="M19.6408 17.5001C23.5824 17.5147 26.7511 20.7036 26.7383 24.6435C26.7254 28.552 23.5383 31.7226 19.6215 31.7235C15.6679 31.7253 12.4808 28.5161 12.5001 24.5552C12.5194 20.6541 15.7258 17.4853 19.6408 17.5001Z" fill="#060707"/>
<path d="M27.4653 24.5958C27.5728 22.9913 27.7567 21.4243 28.4827 19.9916C28.7859 19.3943 29.2178 18.8235 29.7095 18.3695C30.3583 17.7694 31.1845 17.8246 31.8922 18.3658C32.507 18.8355 32.9067 19.4714 33.1787 20.1773C34.3092 23.1134 34.3183 26.0643 33.1558 28.9878C32.9252 29.5676 32.5318 30.1172 32.1026 30.5767C31.3215 31.413 30.2857 31.39 29.4605 30.5997C28.6223 29.7973 28.1877 28.7653 27.9477 27.6662C27.7282 26.6553 27.6225 25.6196 27.4653 24.5958Z" fill="#060707"/>
<path d="M34.8809 24.1992C35.0435 22.9816 35.2429 21.3917 35.4773 19.8073C35.5232 19.4995 35.6712 19.1934 35.8283 18.9177C36.07 18.4922 36.399 18.4812 36.6187 18.9122C36.8245 19.3157 36.9945 19.7558 37.0782 20.1997C37.647 23.1938 37.6525 26.1907 37.023 29.1784C36.9541 29.5037 36.8319 29.8263 36.6765 30.1204C36.5865 30.2913 36.3853 30.5092 36.2309 30.511C36.0774 30.5128 35.8357 30.2996 35.7805 30.1323C35.5563 29.4542 35.3146 28.7667 35.2172 28.0637C35.0591 26.914 35.0085 25.7487 34.8809 24.1992Z" fill="#060707"/>
</g>
<defs>
<clipPath id="clip0_1441_38">
<rect width="50" height="50" fill="white"/>
</clipPath>
</defs>
</svg>
