<svg width="50" height="50" viewBox="0 0 50 50" fill="none" xmlns="http://www.w3.org/2000/svg">
<g clip-path="url(#clip0_1441_43)">
<path d="M45.8333 0H4.16667C1.86548 0 0 1.86548 0 4.16667V45.8333C0 48.1345 1.86548 50 4.16667 50H45.8333C48.1345 50 50 48.1345 50 45.8333V4.16667C50 1.86548 48.1345 0 45.8333 0Z" fill="#F5F5F7"/>
<path d="M20.5378 35.3701C20.1259 35.206 19.9917 34.8453 19.9191 34.4573C19.7524 33.5642 19.8319 32.6702 19.9378 31.778C20.1328 30.1371 20.6216 28.5586 20.9771 26.9518C21.1763 26.0502 21.4028 25.1554 21.6078 24.2554C21.6318 24.1503 21.6173 24.0247 21.5839 23.9196C21.1626 22.5983 21.1301 21.3001 21.8514 20.0634C22.248 19.384 22.8198 18.9216 23.6223 18.7952C24.7649 18.6148 25.7631 19.4352 25.8417 20.5933C25.8982 21.4197 25.6631 22.1897 25.4443 22.9649C25.2443 23.6742 25.0281 24.3785 24.8298 25.0887C24.7127 25.5092 24.7316 25.922 24.97 26.3049C25.3281 26.8792 25.8785 27.0723 26.5127 27.0262C27.3339 26.9664 27.9313 26.5023 28.4117 25.869C29.021 25.0665 29.3517 24.1427 29.5475 23.1675C29.7372 22.224 29.8355 21.2693 29.6919 20.3096C29.4534 18.7173 28.5553 17.6473 27.0314 17.1662C25.4871 16.679 23.9478 16.7593 22.4915 17.5106C21.0275 18.2661 20.1592 19.4977 19.8011 21.0907C19.6157 21.9162 19.5798 22.7504 19.9199 23.5503C20.0422 23.8375 20.2224 24.1076 20.4122 24.3572C20.6301 24.6443 20.7088 24.9392 20.6148 25.2853C20.5318 25.5912 20.4643 25.9015 20.3754 26.2049C20.2071 26.7775 19.784 26.9655 19.2362 26.7219C18.132 26.2305 17.444 25.3597 17.0637 24.2469C16.4433 22.4342 16.5509 20.6403 17.3782 18.9173C18.5943 16.3876 20.6549 14.9364 23.3735 14.3767C24.6435 14.1151 25.9221 14.0937 27.1972 14.3365C28.6501 14.6133 29.9483 15.221 31.0431 16.2261C32.2302 17.3157 33.019 18.6482 33.2353 20.248C33.5438 22.5333 33.1276 24.7084 31.9242 26.6861C30.879 28.4047 29.3501 29.4645 27.328 29.7243C26.0853 29.8842 24.9409 29.6252 23.9632 28.7962C23.9384 28.7748 23.9094 28.7594 23.8633 28.7287C23.7043 29.3457 23.5462 29.9431 23.3966 30.5422C23.0744 31.8378 22.6488 33.0942 21.9745 34.2539C21.7523 34.6368 21.4976 34.9992 21.1053 35.2342C21.0172 35.2863 20.9207 35.3247 20.8284 35.3701C20.731 35.3701 20.6344 35.3701 20.5378 35.3701Z" fill="#060707"/>
</g>
<defs>
<clipPath id="clip0_1441_43">
<rect width="50" height="50" fill="white"/>
</clipPath>
</defs>
</svg>
