<svg width="28" height="28" viewBox="0 0 28 28" fill="none" xmlns="http://www.w3.org/2000/svg">
<g clip-path="url(#clip0_11_2132)">
<path d="M0.0015877 13.9995C0.0015877 12.1039 -0.000356498 10.2093 0.0015877 8.31366C0.00644819 4.15016 2.79443 0.821695 6.89085 0.107203C7.33121 0.0304068 7.78518 0.00804855 8.23332 0.00707645C12.0721 -0.000700342 15.911 -0.00264454 19.7498 0.00416015C23.8705 0.0119369 27.2233 2.85532 27.8979 6.9187C27.9727 7.3717 27.9932 7.83733 27.9941 8.29811C28.0019 12.101 28.0009 15.9028 27.9971 19.7057C27.9932 23.8595 25.1789 27.2006 21.0903 27.8976C20.6383 27.9744 20.1717 27.9948 19.7119 27.9957C15.909 28.0035 12.1071 28.0035 8.30428 27.9996C4.14662 27.9957 0.805513 25.1883 0.10463 21.1016C0.0268623 20.6496 0.00839239 20.183 0.00644819 19.7232C-0.00424489 17.814 0.0015877 15.9067 0.0015877 13.9995ZM16.4388 15.1679C15.3112 16.2946 14.2594 17.3367 13.2173 18.3895C12.7293 18.8833 12.7254 19.589 13.1862 20.0547C13.6469 20.5203 14.3614 20.5291 14.8514 20.042C16.5924 18.3127 18.3276 16.5784 20.056 14.8374C20.5449 14.3446 20.5498 13.6641 20.0647 13.1751C18.3276 11.4253 16.5817 9.68432 14.8348 7.94329C14.5607 7.67013 14.2205 7.55251 13.8355 7.61861C13.3796 7.69638 13.0598 7.95593 12.913 8.3992C12.7614 8.85706 12.8702 9.26534 13.2066 9.60461C14.1826 10.5874 15.1634 11.5644 16.1423 12.5442C16.2201 12.622 16.293 12.7046 16.4174 12.8359C16.1929 12.8359 16.0597 12.8359 15.9265 12.8359C13.5701 12.8359 11.2138 12.8349 8.8574 12.8368C8.27512 12.8368 7.85517 13.0993 7.66756 13.5688C7.35357 14.3533 7.92419 15.165 8.80783 15.167C11.1885 15.1738 13.5692 15.1689 15.9498 15.1689C16.0791 15.1679 16.2074 15.1679 16.4388 15.1679Z" fill="#00C5F6"/>
<path d="M16.4388 15.1679C16.2084 15.1679 16.0791 15.1679 15.9498 15.1679C13.5691 15.1679 11.1885 15.1718 8.80781 15.1659C7.92417 15.164 7.35355 14.3523 7.66754 13.5678C7.85515 13.0983 8.2751 12.8368 8.85739 12.8358C11.2138 12.8339 13.5701 12.8349 15.9265 12.8349C16.0597 12.8349 16.1928 12.8349 16.4174 12.8349C16.2939 12.7027 16.2201 12.621 16.1423 12.5432C15.1634 11.5634 14.1825 10.5864 13.2066 9.60361C12.8702 9.26532 12.7613 8.85607 12.913 8.39821C13.0598 7.9559 13.3796 7.69635 13.8355 7.61761C14.2205 7.55151 14.5607 7.66913 14.8348 7.94229C16.5807 9.68332 18.3276 11.4243 20.0647 13.1741C20.5498 13.6631 20.5459 14.3436 20.056 14.8364C18.3266 16.5774 16.5924 18.3126 14.8513 20.041C14.3614 20.528 13.6469 20.5193 13.1861 20.0537C12.7254 19.588 12.7293 18.8813 13.2172 18.3885C14.2593 17.3366 15.3111 16.2936 16.4388 15.1679Z" fill="white"/>
</g>
<defs>
<clipPath id="clip0_11_2132">
<rect width="28" height="28" fill="white"/>
</clipPath>
</defs>
</svg>
