<svg width="30" height="30" viewBox="0 0 30 30" fill="none" xmlns="http://www.w3.org/2000/svg">
<g clip-path="url(#clip0_795_10768)">
<mask id="mask0_795_10768" style="mask-type:luminance" maskUnits="userSpaceOnUse" x="0" y="0" width="30" height="30">
<path d="M30 0H0V30H30V0Z" fill="white"/>
</mask>
<g mask="url(#mask0_795_10768)">
<path d="M15 30C23.2843 30 30 23.2843 30 15C30 6.71572 23.2843 0 15 0C6.71573 0 0 6.71572 0 15C0 23.2843 6.71573 30 15 30Z" fill="#59E1FF"/>
<path d="M22.7996 20.5108C22.6859 20.852 22.5199 20.9906 22.1504 21.0024C21.3428 21.0287 20.5333 21.0189 19.727 21.066C19.0261 21.1071 18.4703 20.8389 17.9991 20.3631C17.6161 19.9768 17.2646 19.5588 16.8893 19.1644C16.7531 19.0212 16.5977 18.8916 16.4337 18.7817C16.1536 18.5931 15.9501 18.6287 15.7221 18.8777C15.4625 19.161 15.3923 19.5166 15.3489 19.8796C15.3275 20.0596 15.3289 20.2421 15.317 20.4234C15.2936 20.77 15.1221 20.9751 14.7772 21.0012C14.3986 21.0299 14.0169 21.0234 13.6363 21.0209C13.3676 21.0194 13.0965 21.0168 12.8308 20.9824C11.9539 20.8684 11.1821 20.4956 10.4402 20.0268C9.5203 19.4453 8.81981 18.6566 8.17715 17.7974C6.82581 15.9909 5.78369 14.0124 4.87774 11.9565C4.69893 11.5505 4.8314 11.3253 5.27843 11.288C5.55813 11.2646 5.8403 11.2716 6.12123 11.2691C6.68924 11.2646 7.25767 11.2634 7.82609 11.2613C8.20996 11.2601 8.46629 11.4307 8.63731 11.7859C9.09377 12.7341 9.56336 13.6757 10.0469 14.6104C10.2487 15.0004 10.5083 15.3588 10.8565 15.6394C10.9332 15.7013 11.0181 15.7583 11.1079 15.7977C11.3334 15.8966 11.5475 15.837 11.6238 15.6078C11.728 15.2952 11.803 14.968 11.8465 14.6411C11.9482 13.8762 11.9265 13.1127 11.7702 12.3527C11.6783 11.9052 11.406 11.6653 10.975 11.5726C10.9065 11.5578 10.8438 11.5156 10.7785 11.4861C10.815 11.4213 10.8413 11.3479 10.8897 11.2937C11.071 11.0899 11.301 10.9632 11.5701 10.9234C12.5839 10.7737 13.5993 10.7507 14.6135 10.9123C15.1213 10.9931 15.2915 11.1695 15.3391 11.7252C15.3789 12.1899 15.3382 12.6611 15.3333 13.1298C15.3268 13.7388 15.3124 14.348 15.319 14.957C15.3211 15.1346 15.3604 15.3203 15.424 15.4864C15.5597 15.8416 15.8566 15.9129 16.1207 15.6418C16.4091 15.3458 16.6916 15.0369 16.9295 14.7002C17.566 13.7979 18.07 12.8214 18.4781 11.7949C18.6557 11.3479 18.7406 11.2995 19.2242 11.2958C20.1674 11.2884 21.1102 11.274 22.0535 11.2667C22.1753 11.2658 22.3 11.2769 22.4189 11.3028C22.5953 11.3413 22.7462 11.4237 22.8008 11.6169C22.8008 11.6989 22.8008 11.781 22.8008 11.863C22.6871 12.13 22.5928 12.4068 22.4571 12.6618C22.0043 13.512 21.3949 14.2557 20.8215 15.0238C20.5246 15.4216 20.2359 15.8264 19.966 16.2426C19.8069 16.4883 19.8266 16.7627 20.0001 17.0014C20.1194 17.1658 20.2622 17.3151 20.4057 17.4603C20.9031 17.9636 21.4244 18.4442 21.8997 18.9675C22.2968 19.4046 22.7065 19.8504 22.8008 20.4755C22.7996 20.4869 22.7996 20.4989 22.7996 20.5108Z" fill="#1E2329"/>
</g>
</g>
<defs>
<clipPath id="clip0_795_10768">
<rect width="30" height="30" fill="white"/>
</clipPath>
</defs>
</svg>
