<svg width="50" height="50" viewBox="0 0 50 50" fill="none" xmlns="http://www.w3.org/2000/svg">
<g clip-path="url(#clip0_1441_22)">
<path d="M45.8333 0H4.16667C1.86548 0 0 1.86548 0 4.16667V45.8333C0 48.1345 1.86548 50 4.16667 50H45.8333C48.1345 50 50 48.1345 50 45.8333V4.16667C50 1.86548 48.1345 0 45.8333 0Z" fill="#F5F5F7"/>
<path d="M34.9998 18.0144C34.8787 18.561 34.7537 19.1065 34.6369 19.6542C33.7458 23.8229 32.8557 27.9918 31.9664 32.1609C31.9002 32.4722 31.8398 32.7847 31.7594 33.0922C31.459 34.2359 30.625 34.1669 29.9779 33.7029C28.6457 32.7477 27.3303 31.7697 26.0078 30.801C25.8112 30.657 25.6085 30.5201 25.4194 30.3663C25.3108 30.2794 25.2467 30.2897 25.1478 30.3837C24.3822 31.1227 23.6102 31.8545 22.8419 32.5907C22.6132 32.808 22.3529 32.9444 22.0057 32.9313C22.0258 32.6326 22.0443 32.344 22.0649 32.0555C22.1546 30.7923 22.2426 29.5285 22.3409 28.2653C22.3543 28.1559 22.4052 28.0545 22.4849 27.9784C25.3609 25.3882 28.2389 22.8015 31.1188 20.2182C31.1542 20.1867 31.2014 20.1638 31.2221 20.122C31.2683 20.0328 31.3009 19.9367 31.3395 19.8432C31.24 19.8177 31.1319 19.7531 31.0439 19.7737C30.8802 19.8131 30.7241 19.8787 30.5815 19.9682C26.9978 22.2056 23.4162 24.4467 19.8368 26.6913C19.7803 26.7305 19.7151 26.7554 19.6468 26.7637C19.5786 26.7721 19.5093 26.7636 19.445 26.7391C17.9476 26.2681 16.4492 25.8073 14.9518 25.3335C14.7522 25.271 14.5638 25.1771 14.3938 25.0553C14.1221 24.8571 14.0857 24.5712 14.3297 24.3425C14.5335 24.1462 14.7718 23.9893 15.0327 23.8796C16.5236 23.2901 18.021 22.7228 19.52 22.1497C24.1948 20.3599 28.8697 18.5713 33.5448 16.7838C33.6953 16.7235 33.8538 16.6852 34.0153 16.6702C34.5043 16.6344 34.8276 16.8756 34.9563 17.3521C34.9683 17.3972 34.9852 17.4412 34.9998 17.4857V18.0144Z" fill="#060707"/>
</g>
<defs>
<clipPath id="clip0_1441_22">
<rect width="50" height="50" fill="white"/>
</clipPath>
</defs>
</svg>
