<svg width="50" height="50" viewBox="0 0 50 50" fill="none" xmlns="http://www.w3.org/2000/svg">
<g clip-path="url(#clip0_1441_35)">
<path d="M45.8333 0H4.16667C1.86548 0 0 1.86548 0 4.16667V45.8333C0 48.1345 1.86548 50 4.16667 50H45.8333C48.1345 50 50 48.1345 50 45.8333V4.16667C50 1.86548 48.1345 0 45.8333 0Z" fill="#F5F5F7"/>
<path d="M34.9998 20.1583C34.3123 20.3397 33.6757 20.5084 33.0454 20.6739C32.7494 19.9768 32.5171 19.3179 32.1988 18.7036C30.9478 16.2845 28.8693 15.0527 26.2274 14.7662C25.1738 14.6516 24.0757 14.6612 23.0253 14.8076C19.8741 15.25 17.821 17.0739 16.9107 20.1042C15.9844 23.1917 15.9844 26.3047 16.9967 29.3763C18.0184 32.4702 20.2528 34.119 23.4487 34.4755C25.0178 34.6506 26.5871 34.5806 28.1023 34.0458C30.5563 33.1768 32.0714 31.0856 31.8741 28.8193C31.7659 27.5652 31.1293 26.6484 30.0725 25.9864C29.8019 26.7885 29.6205 27.5652 29.2831 28.2686C27.8889 31.1779 23.5759 31.9164 21.2396 29.6724C19.4221 27.928 19.7882 24.9678 21.9813 23.6533C23.6428 22.6569 25.4635 22.7556 27.2905 22.8575C27.437 22.867 27.5834 22.8798 27.7298 22.8893C27.7489 22.8893 27.7712 22.8638 27.8412 22.8129C27.6916 21.788 27.2588 20.919 26.2147 20.5466C24.6391 19.9863 23.2194 20.2442 22.0577 21.5811C21.5133 21.2118 20.9818 20.849 20.3707 20.4352C21.2842 19.0442 22.5638 18.3376 24.1458 18.1943C27.5038 17.8951 29.5028 19.563 30.0503 23.0134C30.0916 23.2808 30.2763 23.6468 30.4958 23.7519C34.7929 25.789 35.1526 31.3816 31.5081 34.4723C29.42 36.2453 26.9595 36.7674 24.3272 36.6782C20.9945 36.5636 18.1425 35.4241 16.2104 32.5371C14.9595 30.6654 14.4088 28.5488 14.2433 26.3365C14.0109 23.2649 14.2497 20.2474 15.7425 17.4654C17.5378 14.1264 20.5075 12.7482 24.1553 12.5253C29.2736 12.2134 33.2555 14.7948 34.812 19.4548C34.8789 19.6617 34.9234 19.875 34.9998 20.1583ZM27.9844 25.1461C27.5293 25.0697 27.1918 24.9869 26.8481 24.9646C25.6545 24.8883 24.4513 24.8087 23.3213 25.337C22.6433 25.6553 22.1945 26.1774 22.1945 26.9604C22.1945 27.7466 22.6561 28.2495 23.3436 28.5583C25.2407 29.4145 27.1505 28.5329 27.7043 26.5403C27.8253 26.1105 27.8826 25.6681 27.9844 25.1461Z" fill="#060707"/>
</g>
<defs>
<clipPath id="clip0_1441_35">
<rect width="50" height="50" fill="white"/>
</clipPath>
</defs>
</svg>
