<svg width="140" height="140" viewBox="0 0 140 140" fill="none" xmlns="http://www.w3.org/2000/svg">
<g clip-path="url(#clip0_779_6)">
<mask id="mask0_779_6" style="mask-type:luminance" maskUnits="userSpaceOnUse" x="0" y="12" width="140" height="116">
<path d="M140 12H0V128H140V12Z" fill="white"/>
</mask>
<g mask="url(#mask0_779_6)">
<path d="M101.539 78.7551L33.3502 115.574L0 96.2571L68.0125 59.4553L101.539 78.7551Z" fill="url(#paint0_linear_779_6)"/>
<path d="M116.628 87.5213L90.725 72.4693C89.0989 71.6541 87.1672 71.6627 85.597 72.5723C85.597 72.5723 27.019 106.109 26.933 106.186C24.9496 107.718 25.3541 110.945 27.6126 112.258L53.5159 127.271C55.1163 128.069 57.0092 128.014 58.558 127.117C58.558 127.117 116.796 93.6957 116.891 93.6185C119.081 92.1595 118.96 88.8729 116.628 87.5213Z" fill="#060607"/>
<path d="M114.587 94.4939L113.713 94.9917C113.459 95.1375 113.258 94.9831 113.258 94.6484C113.258 94.3137 113.464 93.9233 113.713 93.7816L114.591 93.2796C114.845 93.1337 115.047 93.2882 115.047 93.6229C115.042 93.9618 114.841 94.3481 114.587 94.4939Z" fill="#060607"/>
<path d="M113.714 93.7864C113.46 93.9323 113.258 94.3185 113.258 94.6532C113.258 94.7347 113.279 94.7991 113.301 94.8591C113.34 94.8505 113.37 94.8419 113.409 94.8163L114.282 94.3185C114.536 94.1726 114.739 93.7864 114.739 93.4517C114.739 93.3702 114.726 93.3016 114.704 93.2458C114.665 93.2543 114.627 93.2672 114.588 93.2887L113.714 93.7864Z" fill="#96999E"/>
<path d="M113.245 94.9579L113.318 94.9408C113.365 94.9322 113.403 94.915 113.451 94.8893L114.324 94.3915C114.604 94.2328 114.824 93.8166 114.824 93.4519C114.824 93.3661 114.811 93.2846 114.785 93.2159L114.759 93.1472L114.686 93.1644C114.634 93.1773 114.587 93.1945 114.544 93.2201L113.67 93.7179C113.39 93.8766 113.172 94.2928 113.172 94.6576C113.172 94.752 113.198 94.8249 113.219 94.8893L113.245 94.9579ZM114.643 93.3532C114.647 93.3832 114.652 93.4176 114.652 93.4519C114.652 93.7565 114.462 94.117 114.238 94.25L113.365 94.7477C113.36 94.752 113.356 94.752 113.353 94.7563C113.344 94.7262 113.34 94.6962 113.34 94.6619C113.34 94.3573 113.528 93.9968 113.757 93.8638L114.63 93.3661C114.634 93.3575 114.639 93.3575 114.643 93.3532Z" fill="#060607"/>
<path d="M114.826 94.8212C114.887 94.8212 114.956 94.8082 115.02 94.7826C115.325 94.6581 115.575 94.2892 115.588 93.9417C115.592 93.7872 115.549 93.6498 115.463 93.5598C115.394 93.4868 115.299 93.4482 115.192 93.4482C115.132 93.4482 115.063 93.4611 114.999 93.4868C114.693 93.6113 114.443 93.9801 114.43 94.3277C114.426 94.4864 114.469 94.6196 114.555 94.7097C114.628 94.7827 114.723 94.8212 114.826 94.8212Z" fill="white"/>
<path d="M115.188 93.5284C115.136 93.5284 115.085 93.5413 115.024 93.5627C114.754 93.67 114.521 94.0176 114.508 94.3308C114.5 94.5796 114.629 94.7341 114.819 94.7341C114.87 94.7341 114.922 94.7212 114.981 94.6998C115.253 94.5925 115.485 94.2449 115.498 93.9317C115.511 93.6872 115.382 93.5284 115.188 93.5284ZM115.188 93.3611C115.317 93.3611 115.433 93.4082 115.52 93.4984C115.623 93.6057 115.675 93.7601 115.666 93.9403C115.653 94.3222 115.377 94.7255 115.046 94.8586C114.969 94.8885 114.896 94.9057 114.823 94.9057C114.694 94.9057 114.577 94.8586 114.491 94.7684C114.388 94.6611 114.336 94.5067 114.345 94.3265C114.358 93.9446 114.633 93.5412 114.965 93.4082C115.041 93.3782 115.115 93.3611 115.188 93.3611Z" fill="#060607"/>
<path d="M114.525 94.3399C114.538 94.0267 114.767 93.6791 115.042 93.5718C115.158 93.5247 115.261 93.5331 115.343 93.5761L114.926 93.2629C114.844 93.2113 114.758 93.2156 114.633 93.2629C114.362 93.3744 114.13 93.7177 114.117 94.0309C114.113 94.1854 114.215 94.3528 114.215 94.3528L114.633 94.6703C114.564 94.6016 114.521 94.4857 114.525 94.3399Z" fill="#060607"/>
<path d="M97.3194 104.328C97.3194 103.994 97.5259 103.603 97.7754 103.462L100.387 101.96C100.507 101.891 100.619 101.891 100.701 101.947L100.271 101.651L100.228 101.621C100.137 101.552 100.021 101.535 99.8877 101.612L97.2764 103.11C97.0226 103.256 96.8203 103.646 96.8203 103.981C96.8203 104.144 96.8462 104.243 96.9236 104.307L96.9493 104.328H96.9536C96.9579 104.333 96.9622 104.333 96.9666 104.337L97.457 104.68C97.3709 104.616 97.3194 104.496 97.3194 104.328Z" fill="#060607"/>
<path d="M97.5958 104.813C97.6689 104.813 97.742 104.792 97.8195 104.749L100.431 103.247C100.711 103.084 100.93 102.672 100.93 102.307C100.93 102.14 100.883 102.003 100.797 101.917C100.736 101.857 100.655 101.823 100.569 101.823C100.495 101.823 100.422 101.844 100.345 101.887L97.7334 103.389C97.4539 103.552 97.2344 103.964 97.2344 104.328C97.2344 104.496 97.2818 104.629 97.3678 104.719C97.4323 104.779 97.5097 104.813 97.5958 104.813Z" fill="white"/>
<path d="M100.569 101.905C100.513 101.905 100.452 101.922 100.388 101.961L97.7765 103.462C97.5227 103.608 97.3205 103.995 97.3205 104.333C97.3205 104.582 97.4323 104.732 97.5958 104.732C97.6518 104.732 97.712 104.715 97.7765 104.677L100.388 103.175C100.642 103.029 100.844 102.643 100.844 102.308C100.844 102.055 100.728 101.905 100.569 101.905ZM100.569 101.738C100.68 101.738 100.779 101.78 100.857 101.858C100.96 101.961 101.012 102.115 101.012 102.308C101.012 102.703 100.775 103.149 100.47 103.321L97.8582 104.823C97.7679 104.874 97.6818 104.9 97.5915 104.9C97.4797 104.9 97.3807 104.857 97.3033 104.78C97.2 104.677 97.1484 104.522 97.1484 104.333C97.1484 103.939 97.385 103.492 97.6905 103.321L100.302 101.819C100.392 101.763 100.483 101.738 100.569 101.738Z" fill="#060607"/>
<path d="M103.05 101.021C103.05 100.686 103.257 100.295 103.506 100.15L104.999 99.2915C105.12 99.2228 105.231 99.2228 105.313 99.2786L104.883 98.9825L104.84 98.9525C104.75 98.8838 104.633 98.8667 104.5 98.9439L103.003 99.802C102.749 99.948 102.547 100.338 102.547 100.673C102.547 100.836 102.573 100.935 102.65 100.999L102.672 101.016H102.676C102.68 101.021 102.685 101.021 102.689 101.025L103.179 101.368C103.102 101.308 103.05 101.188 103.05 101.021Z" fill="#060607"/>
<path d="M103.326 101.501C103.399 101.501 103.472 101.48 103.55 101.437L105.047 100.575C105.326 100.416 105.546 99.9995 105.546 99.6347C105.546 99.4674 105.498 99.3301 105.412 99.2443C105.352 99.1843 105.27 99.1499 105.184 99.1499C105.111 99.1499 105.038 99.1714 104.961 99.2142L103.468 100.073C103.188 100.236 102.969 100.647 102.969 101.016C102.969 101.154 102.999 101.274 103.059 101.36C103.124 101.454 103.218 101.501 103.326 101.501Z" fill="white"/>
<path d="M105.181 99.2355C105.125 99.2355 105.065 99.2525 105 99.2912L103.507 100.149C103.254 100.295 103.051 100.686 103.051 101.02C103.051 101.269 103.163 101.419 103.327 101.419C103.383 101.419 103.443 101.402 103.507 101.364L105.005 100.501C105.258 100.355 105.461 99.9692 105.461 99.6345C105.456 99.3856 105.344 99.2355 105.181 99.2355ZM105.181 99.0681C105.293 99.0681 105.392 99.1067 105.469 99.1882C105.572 99.2912 105.624 99.4457 105.624 99.6345C105.624 100.029 105.387 100.475 105.082 100.647L103.585 101.505C103.494 101.557 103.408 101.582 103.318 101.582C103.099 101.582 102.875 101.406 102.875 101.016C102.875 100.621 103.116 100.175 103.417 99.9991L104.91 99.141C105.005 99.0938 105.095 99.0681 105.181 99.0681Z" fill="#060607"/>
<path d="M26.9347 106.187L85.5557 72.5943C87.1303 71.6847 89.0576 71.6289 90.6838 72.4442L116.853 87.6506C118.188 88.6246 118.441 90.5597 116.965 91.4136L58.5597 124.911C57.011 125.808 55.1181 125.864 53.5176 125.066L27.3521 109.885C25.5064 108.787 25.6139 107.062 26.9347 106.187Z" fill="#96999E"/>
<path d="M55.9003 125.713C56.8338 125.713 57.7674 125.469 58.602 124.984L117.008 91.4864C117.64 91.1217 118.011 90.5295 118.049 89.8302C118.092 88.9892 117.653 88.131 116.905 87.5818L90.7303 72.371C89.0697 71.5386 87.1208 71.5945 85.5205 72.5213L26.8909 106.114C26.2284 106.556 25.8584 107.203 25.8756 107.894C25.8971 108.679 26.4091 109.413 27.3168 109.958L53.4825 125.139C54.2439 125.525 55.0742 125.713 55.9003 125.713ZM88.2567 71.9505C89.074 71.9505 89.8871 72.1393 90.6443 72.517L116.81 87.7234C117.507 88.234 117.92 89.0406 117.877 89.8216C117.843 90.4652 117.502 91.0058 116.922 91.3405L58.5159 124.838C56.9887 125.722 55.1345 125.778 53.5513 124.988L27.3899 109.812C26.5296 109.302 26.0477 108.619 26.0305 107.89C26.0133 107.259 26.3575 106.663 26.9683 106.255L85.5979 72.6671C86.4239 72.1909 87.3403 71.9505 88.2567 71.9505Z" fill="#060607"/>
<path d="M114.673 88.3244L89.6945 73.9418C88.5545 73.3711 87.2036 73.4097 86.1022 74.0491L29.1721 106.702C28.2471 107.315 28.1697 108.525 29.4689 109.293L54.4471 123.654C55.5656 124.216 56.895 124.173 57.9791 123.547L114.755 90.9633C115.787 90.3626 115.74 88.8608 114.673 88.3244Z" fill="white"/>
<path d="M56.1129 124.173C56.7797 124.173 57.4422 123.997 58.0402 123.654L114.816 91.0697C115.34 90.765 115.646 90.2201 115.629 89.6151C115.611 89.01 115.275 88.4866 114.734 88.2163L89.7556 73.838C88.5682 73.2416 87.183 73.2844 86.0385 73.9452L29.1084 106.598C28.618 106.924 28.3469 107.4 28.3598 107.907C28.3727 108.481 28.7427 109.014 29.4009 109.404L54.3791 123.77C54.9298 124.04 55.5235 124.173 56.1129 124.173ZM87.996 73.6621C88.5553 73.6621 89.1188 73.7907 89.6394 74.0525L114.617 88.4351C115.078 88.6669 115.362 89.1087 115.375 89.6237C115.392 90.1386 115.134 90.5976 114.686 90.8551L57.9111 123.444C56.8614 124.053 55.5837 124.092 54.4952 123.547L29.5257 109.185C28.9449 108.842 28.618 108.383 28.605 107.894C28.5964 107.473 28.8244 107.074 29.2374 106.804L86.1633 74.1555C86.7312 73.8251 87.3636 73.6621 87.996 73.6621Z" fill="#060607"/>
<path d="M97.8541 77.9235L97.824 77.9063C97.6562 77.8119 97.6778 77.6446 97.8713 77.533C98.0606 77.4215 98.3489 77.4086 98.5167 77.503L98.5467 77.5201C98.7102 77.6145 98.693 77.7818 98.4995 77.8934C98.3101 78.005 98.0218 78.0178 97.8541 77.9235Z" fill="#060607"/>
<path d="M104.532 81.7468L98.7928 78.4601C98.625 78.3657 98.6465 78.1983 98.84 78.0867C99.0294 77.9751 99.3177 77.9624 99.4854 78.0567L105.224 81.3434C105.388 81.4378 105.371 81.6052 105.177 81.7167C104.984 81.8283 104.695 81.8412 104.532 81.7468Z" fill="#060607"/>
<path d="M46.5276 122.634C46.5793 122.634 46.6309 122.621 46.6739 122.595C46.7728 122.539 46.8288 122.428 46.8288 122.294C46.8288 122.084 46.6911 121.844 46.5062 121.737C46.4415 121.703 46.377 121.681 46.3168 121.681C46.2651 121.681 46.2136 121.694 46.1706 121.72C46.0716 121.776 46.0156 121.887 46.0156 122.019C46.0156 122.23 46.1534 122.471 46.3384 122.578C46.3986 122.617 46.4631 122.634 46.5276 122.634Z" fill="white"/>
<path d="M46.309 121.766C46.2703 121.766 46.2359 121.775 46.2058 121.792C46.1326 121.835 46.0939 121.917 46.0939 122.02C46.0939 122.2 46.2187 122.414 46.3735 122.504C46.4252 122.534 46.4768 122.547 46.5241 122.547C46.5629 122.547 46.5972 122.538 46.6274 122.521C46.7005 122.478 46.7393 122.397 46.7393 122.294C46.7393 122.114 46.6144 121.899 46.4596 121.809C46.408 121.779 46.3606 121.766 46.309 121.766ZM46.309 121.599C46.3865 121.599 46.4682 121.62 46.5413 121.667C46.7479 121.788 46.907 122.058 46.907 122.298C46.907 122.461 46.8339 122.599 46.7091 122.672C46.6532 122.706 46.5887 122.723 46.5198 122.723C46.4424 122.723 46.3606 122.702 46.2875 122.659C46.081 122.538 45.9219 122.268 45.9219 122.028C45.9219 121.865 45.995 121.728 46.1197 121.654C46.18 121.616 46.2445 121.599 46.309 121.599Z" fill="#060607"/>
<path d="M47.6178 123.263C47.6695 123.263 47.7211 123.25 47.7641 123.225C47.8631 123.169 47.9191 123.057 47.9191 122.925C47.9191 122.714 47.7813 122.474 47.5964 122.366C47.5318 122.332 47.4673 122.311 47.4028 122.311C47.3511 122.311 47.2995 122.323 47.2565 122.349C47.1576 122.405 47.1016 122.517 47.1016 122.65C47.1016 122.86 47.2393 123.1 47.4243 123.207C47.4888 123.246 47.5533 123.263 47.6178 123.263Z" fill="white"/>
<path d="M47.4028 122.398C47.3641 122.398 47.3297 122.406 47.2996 122.423C47.2265 122.466 47.1877 122.547 47.1877 122.65C47.1877 122.83 47.3125 123.045 47.4674 123.135C47.519 123.166 47.5706 123.178 47.6179 123.178C47.6566 123.178 47.6911 123.17 47.7212 123.153C47.7943 123.11 47.833 123.028 47.833 122.925C47.833 122.744 47.7083 122.53 47.5534 122.44C47.5017 122.415 47.4545 122.398 47.4028 122.398ZM47.4028 122.23C47.4802 122.23 47.5621 122.251 47.6352 122.294C47.8416 122.415 48.0008 122.684 48.0008 122.925C48.0008 123.088 47.9277 123.226 47.803 123.299C47.747 123.332 47.6825 123.349 47.6136 123.349C47.5362 123.349 47.4545 123.328 47.3813 123.286C47.1748 123.166 47.0156 122.895 47.0156 122.654C47.0156 122.492 47.0887 122.355 47.2136 122.282C47.2738 122.247 47.3383 122.23 47.4028 122.23Z" fill="#060607"/>
<path d="M48.7194 123.899C48.771 123.899 48.8183 123.886 48.8656 123.861C48.9646 123.805 49.0205 123.693 49.0205 123.56C49.0205 123.349 48.8829 123.11 48.6979 123.002C48.6334 122.968 48.5687 122.947 48.5042 122.947C48.4526 122.947 48.401 122.959 48.358 122.985C48.259 123.041 48.2031 123.153 48.2031 123.285C48.2031 123.495 48.3408 123.736 48.5258 123.843C48.5903 123.878 48.6591 123.899 48.7194 123.899Z" fill="white"/>
<path d="M48.5043 123.032C48.4657 123.032 48.4312 123.041 48.4011 123.058C48.3279 123.097 48.2893 123.182 48.2893 123.285C48.2893 123.465 48.414 123.68 48.5688 123.77C48.6205 123.8 48.6721 123.813 48.7195 123.813C48.7582 123.813 48.7926 123.805 48.8227 123.787C48.8959 123.744 48.9346 123.663 48.9346 123.56C48.9346 123.379 48.8099 123.165 48.6549 123.075C48.6033 123.045 48.556 123.032 48.5043 123.032ZM48.5043 122.865C48.5818 122.865 48.6635 122.886 48.7366 122.929C48.9475 123.049 49.1024 123.319 49.1024 123.56C49.1024 123.723 49.0292 123.86 48.9044 123.933C48.8485 123.968 48.784 123.985 48.7152 123.985C48.6378 123.985 48.556 123.964 48.4828 123.921C48.2764 123.8 48.1172 123.53 48.1172 123.289C48.1172 123.123 48.1903 122.989 48.3151 122.916C48.3753 122.882 48.4398 122.865 48.5043 122.865Z" fill="#060607"/>
<path d="M49.8167 124.53C49.8682 124.53 49.9199 124.517 49.9629 124.491C50.0619 124.435 50.1178 124.323 50.1178 124.19C50.1178 123.98 49.9801 123.74 49.7951 123.633C49.7349 123.598 49.6661 123.577 49.6058 123.577C49.5542 123.577 49.5026 123.59 49.4595 123.616C49.3606 123.671 49.3047 123.783 49.3047 123.916C49.3047 124.126 49.4423 124.366 49.6273 124.474C49.6875 124.508 49.7521 124.53 49.8167 124.53Z" fill="white"/>
<path d="M49.5981 123.663C49.5594 123.663 49.525 123.672 49.4948 123.689C49.4217 123.732 49.383 123.813 49.383 123.916C49.383 124.097 49.5077 124.311 49.6626 124.401C49.7143 124.431 49.7659 124.444 49.8133 124.444C49.8519 124.444 49.8864 124.435 49.9164 124.418C49.9896 124.375 50.0283 124.293 50.0283 124.191C50.0283 124.011 49.9035 123.796 49.7486 123.706C49.6971 123.676 49.6498 123.663 49.5981 123.663ZM49.5981 123.495C49.6755 123.495 49.7573 123.517 49.8304 123.564C50.0369 123.684 50.1961 123.955 50.1961 124.196C50.1961 124.358 50.123 124.495 49.9982 124.568C49.9423 124.603 49.8778 124.62 49.809 124.62C49.7314 124.62 49.6498 124.598 49.5766 124.555C49.3658 124.435 49.2109 124.166 49.2109 123.925C49.2109 123.762 49.2841 123.624 49.4045 123.551C49.4691 123.513 49.5336 123.495 49.5981 123.495Z" fill="#060607"/>
<path d="M50.9104 125.16C50.962 125.16 51.0137 125.147 51.0567 125.123C51.1556 125.067 51.2115 124.955 51.2115 124.822C51.2115 124.611 51.0739 124.371 50.8889 124.264C50.8287 124.23 50.7599 124.208 50.6995 124.208C50.648 124.208 50.5964 124.221 50.5533 124.247C50.4543 124.302 50.3984 124.414 50.3984 124.547C50.3984 124.757 50.5361 124.998 50.7211 125.105C50.7813 125.139 50.8459 125.16 50.9104 125.16Z" fill="white"/>
<path d="M50.6953 124.293C50.6566 124.293 50.6222 124.302 50.5921 124.319C50.5189 124.362 50.4803 124.444 50.4803 124.547C50.4803 124.727 50.605 124.942 50.7599 125.031C50.8115 125.061 50.8631 125.074 50.9104 125.074C50.9492 125.074 50.9835 125.066 51.0137 125.049C51.0868 125.006 51.1256 124.925 51.1256 124.822C51.1256 124.641 51.0008 124.427 50.8459 124.336C50.7943 124.306 50.7469 124.293 50.6953 124.293ZM50.6953 124.127C50.7728 124.127 50.8545 124.148 50.9276 124.19C51.1342 124.311 51.2934 124.581 51.2934 124.822C51.2934 124.985 51.2202 125.122 51.0997 125.195C51.0395 125.229 50.9793 125.246 50.9104 125.246C50.833 125.246 50.7512 125.225 50.6781 125.182C50.4717 125.061 50.3125 124.792 50.3125 124.551C50.3125 124.388 50.3856 124.25 50.5103 124.177C50.5662 124.144 50.6308 124.127 50.6953 124.127Z" fill="#060607"/>
<path d="M29.3635 112.708C29.4151 112.708 29.4668 112.695 29.5098 112.67C29.6087 112.614 29.6646 112.502 29.6646 112.369C29.6646 112.159 29.527 111.919 29.342 111.811C29.2818 111.777 29.213 111.756 29.1528 111.756C29.1011 111.756 29.0495 111.769 29.0064 111.794C28.9075 111.85 28.8516 111.962 28.8516 112.095C28.8516 112.305 28.9892 112.545 29.1742 112.652C29.2345 112.687 29.3033 112.708 29.3635 112.708Z" fill="white"/>
<path d="M29.1529 111.842C29.1141 111.842 29.0798 111.851 29.0496 111.868C28.9765 111.911 28.9377 111.992 28.9377 112.095C28.9377 112.276 29.0625 112.49 29.2174 112.58C29.269 112.61 29.3207 112.623 29.3679 112.623C29.4067 112.623 29.4411 112.615 29.4712 112.597C29.5443 112.554 29.5831 112.473 29.5831 112.37C29.5831 112.19 29.4583 111.975 29.3034 111.885C29.2519 111.855 29.2002 111.842 29.1529 111.842ZM29.1529 111.675C29.2303 111.675 29.3121 111.696 29.3852 111.743C29.5916 111.864 29.7509 112.134 29.7509 112.374C29.7509 112.537 29.6777 112.675 29.553 112.747C29.4971 112.782 29.4325 112.799 29.3636 112.799C29.2862 112.799 29.2045 112.778 29.1313 112.73C28.9248 112.61 28.7656 112.34 28.7656 112.1C28.7656 111.937 28.8387 111.799 28.9636 111.726C29.0195 111.692 29.0841 111.675 29.1529 111.675Z" fill="#060607"/>
<path d="M30.4616 113.34C30.5132 113.34 30.5648 113.327 30.6078 113.301C30.7068 113.245 30.7627 113.134 30.7627 113.001C30.7627 112.791 30.6251 112.55 30.4401 112.443C30.3755 112.409 30.3109 112.387 30.2464 112.387C30.1948 112.387 30.1431 112.4 30.1002 112.426C30.0012 112.482 29.9453 112.593 29.9453 112.726C29.9453 112.936 30.0829 113.177 30.268 113.284C30.3368 113.318 30.4013 113.34 30.4616 113.34Z" fill="white"/>
<path d="M30.2543 112.473C30.2157 112.473 30.1812 112.481 30.1511 112.498C30.0779 112.541 30.0393 112.623 30.0393 112.726C30.0393 112.906 30.164 113.121 30.3189 113.211C30.3705 113.241 30.4221 113.254 30.4695 113.254C30.5082 113.254 30.5426 113.245 30.5727 113.228C30.6459 113.185 30.6846 113.103 30.6846 113C30.6846 112.82 30.5599 112.606 30.4049 112.516C30.3533 112.486 30.3017 112.473 30.2543 112.473ZM30.2543 112.305C30.3318 112.305 30.4135 112.327 30.4866 112.37C30.6932 112.49 30.8524 112.76 30.8524 113C30.8524 113.163 30.7792 113.301 30.6544 113.374C30.5985 113.408 30.534 113.425 30.4652 113.425C30.3878 113.425 30.306 113.404 30.2328 113.361C30.0264 113.241 29.8672 112.97 29.8672 112.73C29.8672 112.567 29.9403 112.43 30.0608 112.357C30.121 112.322 30.1855 112.305 30.2543 112.305Z" fill="#060607"/>
<path d="M31.5632 113.97C31.6147 113.97 31.6663 113.957 31.7094 113.932C31.8084 113.876 31.8643 113.764 31.8643 113.631C31.8643 113.421 31.7266 113.181 31.5416 113.073C31.4771 113.039 31.4125 113.018 31.348 113.018C31.2964 113.018 31.2447 113.03 31.2017 113.056C31.1028 113.112 31.0469 113.223 31.0469 113.357C31.0469 113.567 31.1845 113.807 31.3695 113.914C31.434 113.953 31.5028 113.97 31.5632 113.97Z" fill="white"/>
<path d="M31.3481 113.103C31.3094 113.103 31.275 113.112 31.2448 113.129C31.1717 113.168 31.133 113.253 31.133 113.356C31.133 113.537 31.2577 113.751 31.4126 113.841C31.4643 113.871 31.5159 113.884 31.5632 113.884C31.6019 113.884 31.6364 113.876 31.6664 113.858C31.7396 113.815 31.7783 113.734 31.7783 113.631C31.7783 113.451 31.6535 113.236 31.4986 113.146C31.4471 113.12 31.3954 113.103 31.3481 113.103ZM31.3481 112.936C31.4255 112.936 31.5073 112.957 31.5804 113C31.7912 113.12 31.9461 113.391 31.9461 113.631C31.9461 113.794 31.873 113.931 31.7482 114.004C31.6923 114.039 31.6278 114.056 31.5588 114.056C31.4814 114.056 31.3997 114.034 31.3266 113.991C31.1201 113.871 30.9609 113.601 30.9609 113.361C30.9609 113.193 31.0341 113.06 31.1588 112.987C31.2148 112.953 31.2793 112.936 31.3481 112.936Z" fill="#060607"/>
<path d="M32.6604 114.601C32.712 114.601 32.7636 114.588 32.8067 114.562C32.9056 114.506 32.9615 114.395 32.9615 114.262C32.9615 114.051 32.8239 113.811 32.6389 113.704C32.5787 113.669 32.5097 113.648 32.4495 113.648C32.398 113.648 32.3463 113.661 32.3033 113.687C32.2043 113.742 32.1484 113.854 32.1484 113.987C32.1484 114.197 32.2861 114.438 32.4711 114.545C32.5313 114.583 32.6001 114.601 32.6604 114.601Z" fill="white"/>
<path d="M32.4497 113.734C32.411 113.734 32.3765 113.743 32.3464 113.76C32.2733 113.803 32.2346 113.885 32.2346 113.988C32.2346 114.168 32.3593 114.382 32.5142 114.472C32.5659 114.503 32.6174 114.515 32.6648 114.515C32.7035 114.515 32.7379 114.507 32.768 114.49C32.8411 114.447 32.8799 114.365 32.8799 114.262C32.8799 114.082 32.7552 113.868 32.6002 113.777C32.5486 113.752 32.497 113.734 32.4497 113.734ZM32.4497 113.567C32.5271 113.567 32.6088 113.589 32.6819 113.636C32.8885 113.756 33.0477 114.026 33.0477 114.267C33.0477 114.43 32.9745 114.567 32.8497 114.64C32.7938 114.674 32.7293 114.691 32.6605 114.691C32.5831 114.691 32.5013 114.67 32.4281 114.627C32.2174 114.507 32.0625 114.236 32.0625 113.996C32.0625 113.833 32.1356 113.696 32.2603 113.623C32.3163 113.584 32.3808 113.567 32.4497 113.567Z" fill="#060607"/>
<path d="M33.7585 115.236C33.81 115.236 33.8617 115.223 33.9047 115.197C34.0037 115.137 34.0596 115.03 34.0596 114.897C34.0596 114.687 33.9219 114.446 33.7369 114.339C33.6767 114.305 33.6079 114.283 33.5434 114.283C33.4917 114.283 33.4401 114.296 33.397 114.322C33.2982 114.378 33.2422 114.489 33.2422 114.622C33.2422 114.833 33.3799 115.073 33.5648 115.18C33.6294 115.215 33.6983 115.236 33.7585 115.236Z" fill="white"/>
<path d="M33.547 114.369C33.5082 114.369 33.4739 114.378 33.4437 114.395C33.3706 114.438 33.3318 114.519 33.3318 114.622C33.3318 114.802 33.4567 115.017 33.6115 115.107C33.6631 115.137 33.7148 115.15 33.7621 115.15C33.8008 115.15 33.8352 115.141 33.8654 115.124C33.9385 115.081 33.9772 115 33.9772 114.897C33.9772 114.717 33.8524 114.502 33.6976 114.412C33.646 114.382 33.5943 114.369 33.547 114.369ZM33.547 114.198C33.6244 114.198 33.7062 114.219 33.7793 114.262C33.9858 114.382 34.145 114.652 34.145 114.893C34.145 115.056 34.0718 115.193 33.9514 115.266C33.8955 115.3 33.8309 115.317 33.7621 115.317C33.6846 115.317 33.6029 115.296 33.5298 115.253C33.3232 115.133 33.1641 114.863 33.1641 114.622C33.1641 114.459 33.2372 114.322 33.362 114.249C33.4136 114.215 33.4782 114.198 33.547 114.198Z" fill="#060607"/>
<path d="M86.4307 65.008L80.7605 68.3376L75.0859 65.0852L80.7605 61.7556L86.4307 65.008Z" fill="#DBE0E6"/>
<path d="M80.7616 68.4969L80.8304 68.4583L86.7071 65.0086L80.7616 61.5974L80.6927 61.636L74.8203 65.0858L80.7616 68.4969ZM86.1607 65.0086L80.7616 68.1794L75.3623 65.0815L80.7616 61.9106L86.1607 65.0086Z" fill="#060607"/>
<path d="M80.7683 100.784L75.0938 97.5314V65.0847L80.7683 68.3371V100.784Z" fill="#C2C7CB"/>
<path d="M80.9065 101.025V68.261L74.9609 64.8499V97.6141L80.9065 101.025ZM80.6312 68.4198V100.553L75.2363 97.4596V65.3261L80.6312 68.4198Z" fill="#060607"/>
<path d="M86.4358 97.455L80.7656 100.785V68.3379L86.4358 65.0083V97.455Z" fill="#96999E"/>
<path d="M80.6562 100.969L86.5372 97.5151V64.8237L80.6562 68.2778V100.969ZM86.3308 97.3949L80.8713 100.604V68.3979L86.3308 65.1885V97.3949Z" fill="#060607"/>
<path d="M99.4264 47.0981L93.7562 50.4277L88.0859 47.1753L93.7562 43.8457L99.4264 47.0981Z" fill="#DBE0E6"/>
<path d="M93.7537 50.5868L93.8226 50.5481L99.6993 47.0984L93.7537 43.6873L93.6849 43.7258L87.8125 47.1756L93.7537 50.5868ZM99.1529 47.0984L93.7537 50.2693L88.3545 47.1713L93.7537 44.0005L99.1529 47.0984Z" fill="#060607"/>
<path d="M93.7562 92.9498L88.0859 89.6931V47.176L93.7562 50.4283V92.9498Z" fill="#C2C7CB"/>
<path d="M93.8909 93.1858V50.3511L87.9453 46.9399V89.7747L93.8909 93.1858ZM93.6155 50.5098V92.7138L88.2207 89.6158V47.412L93.6155 50.5098Z" fill="#060607"/>
<path d="M99.4202 89.6155L93.75 92.9494V50.428L99.4202 47.0984V89.6155Z" fill="#96999E"/>
<path d="M93.6484 93.1296L99.5295 89.6755V46.9138L93.6484 50.3679V93.1296ZM99.3187 89.5554L93.8593 92.7649V50.488L99.3187 47.2829V89.5554Z" fill="#060607"/>
<path d="M60.4541 90.9882L54.7839 94.3221L49.1094 91.0698L54.7839 87.7358L60.4541 90.9882Z" fill="#DBE0E6"/>
<path d="M54.7857 94.4811L54.8545 94.4425L60.727 90.9927L54.7814 87.5815L54.7126 87.6202L48.8359 91.0699L54.7857 94.4811ZM60.1807 90.9927L54.7814 94.1636L49.3823 91.0656L54.7814 87.8947L60.1807 90.9927Z" fill="#060607"/>
<path d="M54.7839 94.3227V115.734L49.1094 112.481V91.0703L54.7839 94.3227Z" fill="#C2C7CB"/>
<path d="M54.9221 115.969V94.2402L48.9766 90.8291V112.558L54.9221 115.969ZM54.6468 94.3991V115.497L49.2476 112.403V91.3054L54.6468 94.3991Z" fill="#060607"/>
<path d="M60.4515 90.9873V112.403L54.7812 115.732V94.3212L60.4515 90.9873Z" fill="#96999E"/>
<path d="M54.6797 115.918L60.5607 112.464V90.8081L54.6797 94.2621V115.918ZM60.3499 112.343L54.8904 115.553V94.3823L60.3499 91.177V112.343Z" fill="#060607"/>
<path d="M73.442 81.7077L67.7718 85.0374L62.1016 81.785L67.7718 78.4553L73.442 81.7077Z" fill="#DBE0E6"/>
<path d="M67.7694 85.1952L67.8382 85.1566L73.715 81.7068L67.7694 78.2957L67.7006 78.3343L61.8281 81.784L67.7694 85.1952ZM73.1686 81.7068L67.7694 84.8777L62.3702 81.7797L67.7694 78.6089L73.1686 81.7068Z" fill="#060607"/>
<path d="M67.7718 108.25L62.1016 104.997V81.7844L67.7718 85.0368V108.25Z" fill="#C2C7CB"/>
<path d="M67.9065 108.487V84.9605L61.9609 81.5493V105.076L67.9065 108.487ZM67.6312 85.1192V108.015L62.2363 104.917V82.0213L67.6312 85.1192Z" fill="#060607"/>
<path d="M73.4437 104.921L67.7734 108.25V85.0374L73.4437 81.7078V104.921Z" fill="#96999E"/>
<path d="M67.6719 108.435L73.553 104.981V81.5273L67.6719 84.9813V108.435ZM73.3421 104.861L67.8827 108.07V85.1015L73.3421 81.8963V104.861Z" fill="#060607"/>
<path d="M68.4042 60.2194L59.2578 55.1907L74.5735 56.7224L83.7198 61.7555L68.4042 60.2194Z" fill="#00C5F6"/>
<path d="M84.3671 61.9574L74.584 56.5897L58.6016 54.9893L68.3847 60.3571L84.3671 61.9574ZM74.5281 56.8558L83.0636 61.5498L68.4449 60.0867L59.9094 55.3926L74.5281 56.8558Z" fill="#060607"/>
<path d="M68.3984 60.22L68.4587 64.4206L83.7743 65.9524L83.7141 61.756L68.3984 60.22Z" fill="#060607"/>
<path d="M109.364 34.427L91.8594 24.8029L109.364 16.29V34.427Z" fill="#060607"/>
<path d="M59.2321 55.1812L68.3793 60.212L47.5065 97.9627L38.3594 92.9319L59.2321 55.1812Z" fill="#00C5F6"/>
<path d="M47.5513 98.1408L47.6159 98.0207L68.5844 60.1676L59.1972 55.0059L59.1327 55.1259L38.1641 92.979L47.5513 98.1408ZM68.2102 60.2749L47.4395 97.7718L38.534 92.8718L59.3047 55.3748L68.2102 60.2749Z" fill="#060607"/>
<path d="M91.8594 20.7322V24.8041L95.2925 26.6277L96.0883 23.0235L91.8594 20.7322Z" fill="#060607"/>
<path d="M47.5 97.9571L50.9202 96.095L68.4642 64.4206L68.404 60.22L47.5 97.9571Z" fill="#060607"/>
<path d="M83.6953 61.756L83.7727 65.9524L105 31.7936L104.922 27.593L83.6953 61.756Z" fill="#060607"/>
<path d="M109.475 12.2234L91.8578 20.732L95.6308 22.8044L74.5547 56.7229L83.701 61.7559L104.773 27.8375L108.984 30.1502L109.475 12.2234Z" fill="#00C5F6"/>
<path d="M83.7466 61.9359L104.823 28.0175L109.116 30.3773L109.615 12L91.5593 20.7231L95.4355 22.8557L74.3594 56.7741L83.7466 61.9359ZM104.724 27.6527L83.6476 61.5711L74.7422 56.6711L95.8185 22.757L92.1529 20.7403L109.332 12.4419L108.854 29.9225L104.724 27.6527Z" fill="#060607"/>
<path d="M109.363 34.4281L109.931 14.313L109.475 12.2234L108.984 30.1502L109.363 34.4281Z" fill="#060607"/>
<path d="M89.7876 33.3299C89.7876 41.86 83.7475 52.2522 76.2962 56.5429C68.8448 60.8337 62.8047 57.3968 62.8047 48.8711C62.8047 40.341 68.8448 29.9488 76.2962 25.6581C83.7475 21.3673 89.7876 24.7999 89.7876 33.3299Z" fill="#060607"/>
<path d="M88.3815 26.1555L85.9595 24.761L66.4062 57.3021L69.1381 58.8896L88.3815 26.1555Z" fill="#060607"/>
<path d="M92.2018 34.7236C92.2018 43.2537 86.1616 53.6459 78.7103 57.9366C71.259 62.2274 65.2188 58.7905 65.2188 50.2648C65.2188 41.7348 71.259 31.3426 78.7103 27.0518C86.1616 22.7567 92.2018 26.1937 92.2018 34.7236Z" fill="#96999E"/>
<path d="M72.653 59.8719C74.5244 59.8719 76.5981 59.2454 78.7491 58.0054C86.2134 53.7104 92.2837 43.2623 92.2837 34.7238C92.2837 30.5875 90.8769 27.4981 88.3213 26.0263C85.7444 24.5417 82.3156 24.8807 78.6674 26.9789C71.2031 31.2782 65.1328 41.722 65.1328 50.2649C65.1328 54.4011 66.5396 57.4905 69.0951 58.9623C70.1534 59.5672 71.3538 59.8719 72.653 59.8719ZM84.7635 25.2797C86.0327 25.2797 87.2072 25.5759 88.2353 26.168C90.7391 27.6096 92.1159 30.6475 92.1159 34.7238C92.1159 43.2109 86.0799 53.5945 78.6631 57.8638C75.0708 59.932 71.7021 60.2709 69.1769 58.8163C66.673 57.3747 65.2963 54.3368 65.2963 50.2606C65.2963 41.7734 71.3322 31.3941 78.7491 27.1205C80.8744 25.8977 82.9222 25.2797 84.7635 25.2797Z" fill="#060607"/>
<path d="M91.2199 35.5607C91.2199 43.3184 85.726 52.7752 78.9459 56.6755C72.1657 60.58 66.6719 57.4564 66.6719 49.6944C66.6719 41.9324 72.1657 32.4799 78.9459 28.5796C85.7218 24.675 91.2199 27.7987 91.2199 35.5607Z" fill="#060607"/>
<path d="M91.0006 35.6847C91.0006 43.305 85.6014 52.5946 78.9417 56.4304C75.3494 58.503 72.1228 58.5587 69.9114 56.9754C68.0272 55.6238 66.8828 53.0794 66.8828 49.5739C66.8828 49.3422 66.8871 49.1104 66.8999 48.8787C66.9129 48.5913 66.9301 48.3038 66.9602 48.0121C67.1453 45.9653 67.6787 43.8414 68.4917 41.7604C68.6166 41.4514 68.7413 41.1382 68.879 40.8293C69.7781 38.7526 70.9483 36.7445 72.3078 34.9338C72.5099 34.6635 72.7165 34.3974 72.9273 34.1357C74.334 32.3936 75.9258 30.8619 77.6209 29.6776C77.8618 29.506 78.107 29.3429 78.348 29.1928C78.5416 29.0683 78.7395 28.9482 78.9374 28.8366C82.0306 27.0559 84.8571 26.7642 86.991 27.7296C89.4518 28.828 91.0006 31.6042 91.0006 35.6847Z" fill="#060607"/>
<path d="M90.0326 35.1268C90.0326 42.7473 84.6334 52.0324 77.9737 55.8684C74.8719 57.6534 72.0497 57.9408 69.9114 56.9754C68.0271 55.6238 66.8828 53.0793 66.8828 49.5739C66.8828 49.3421 66.8871 49.1104 66.8999 48.8787C66.9129 48.5912 66.9301 48.3038 66.9602 48.012C67.1452 45.9653 67.6787 43.8414 68.4917 41.7604C68.6166 41.4514 68.7413 41.1382 68.879 40.8293C69.7781 38.7526 70.9483 36.7445 72.3078 34.9338C72.51 34.6635 72.7165 34.3974 72.9273 34.1357C74.334 32.3936 75.9258 30.8618 77.6209 29.6776C77.8618 29.506 78.107 29.3429 78.3479 29.1928C78.5416 29.0683 78.7394 28.9481 78.9374 28.8366C82.0306 27.0559 84.8571 26.7642 86.991 27.7296C88.8839 29.064 90.0326 31.6084 90.0326 35.1268Z" fill="#DBE0E6"/>
<path d="M72.5653 57.6027C74.2473 57.6027 76.1102 57.0406 78.0203 55.9422C84.6929 52.0977 90.1179 42.761 90.1179 35.1277C90.1179 31.7166 89.0252 29.0648 87.0462 27.6531C84.7919 26.632 81.9052 27.0267 78.9023 28.7559C78.6699 28.889 78.4807 29.0047 78.3086 29.1163C78.0591 29.2708 77.8139 29.4381 77.5771 29.6055C75.9037 30.7769 74.3162 32.2829 72.8664 34.0807C72.6641 34.3296 72.462 34.587 72.2425 34.8789C70.8659 36.711 69.7086 38.7019 68.8052 40.7915C68.6674 41.1047 68.5384 41.4265 68.4179 41.7268C67.579 43.8808 67.0627 45.9919 66.8821 48.0043C66.8563 48.266 66.8347 48.5534 66.8218 48.8752C66.8132 49.107 66.8047 49.3387 66.8047 49.5747C66.8047 52.9729 67.8931 55.6246 69.8678 57.0449C70.6895 57.4139 71.5972 57.6027 72.5653 57.6027ZM84.3617 27.2584C85.2952 27.2584 86.1685 27.4343 86.9602 27.7948C88.8832 29.1678 89.9501 31.7723 89.9501 35.1277C89.9501 42.7095 84.5596 51.9818 77.9343 55.7962C74.9744 57.4997 72.1393 57.8901 69.9495 56.899C68.0351 55.5217 66.9682 52.9172 66.9682 49.5704C66.9682 49.3387 66.9725 49.1113 66.981 48.8795C66.9939 48.5577 67.0154 48.2789 67.0413 48.0172C67.222 46.022 67.7339 43.9237 68.5685 41.787C68.689 41.4909 68.818 41.1734 68.9514 40.8602C69.8505 38.7834 70.9992 36.8053 72.3716 34.9818C72.5867 34.6943 72.7889 34.4326 72.9911 34.188C74.4323 32.403 76.0069 30.9055 77.6675 29.7427C77.9042 29.5754 78.1451 29.4124 78.3946 29.2579C78.5667 29.1463 78.756 29.0305 78.984 28.9017C80.8726 27.8119 82.714 27.2584 84.3617 27.2584Z" fill="#060607"/>
<path d="M77.5498 44.4251L77.0078 44.4809L81.5896 29.2315L82.1316 29.1758L77.5498 44.4251Z" fill="#060607"/>
<path d="M79.1753 39.5032L79.4937 39.6447L71.5605 54.4179L71.2422 54.2763L79.1753 39.5032Z" fill="#00C5F6"/>
<path d="M71.5916 54.5047L71.6218 54.4488L79.5893 39.6115L79.1461 39.4141L79.1161 39.4698L71.1484 54.3073L71.5916 54.5047ZM79.3999 39.6758L71.5314 54.3288L71.3378 54.2429L79.2064 39.59L79.3999 39.6758Z" fill="#060607"/>
<path d="M79.3449 42.8038L78.8287 43.5332L73.3047 38.0583L73.821 37.3289L79.3449 42.8038Z" fill="#060607"/>
<path d="M78.3563 29.1841V29.935C78.3563 30.1623 78.1929 30.4456 77.9906 30.5615C77.7885 30.6773 77.625 30.5828 77.625 30.3512V29.6689C77.8659 29.5016 78.1111 29.3385 78.3563 29.1841Z" fill="#060607"/>
<path d="M67.9344 47.8669C67.9344 48.0986 67.7709 48.3818 67.5688 48.4934L66.9062 48.8752C66.9191 48.5877 66.9363 48.3003 66.9665 48.0084L67.5688 47.661C67.7666 47.5451 67.9344 47.6395 67.9344 47.8669Z" fill="#060607"/>
<path d="M77.9906 53.59C77.7885 53.7058 77.625 53.989 77.625 54.2164V55.1346C77.625 55.3663 77.7885 55.4564 77.9906 55.3406C78.1929 55.2247 78.3563 54.9416 78.3563 54.7141V53.7959C78.3563 53.5642 78.1929 53.4741 77.9906 53.59Z" fill="#060607"/>
<path d="M89.2171 35.1914L88.4126 35.6547C88.2104 35.7706 88.0469 36.0538 88.0469 36.2811C88.0469 36.5129 88.2104 36.6031 88.4126 36.4872L89.2171 36.028C89.4193 35.9122 89.5828 35.629 89.5828 35.4016C89.5828 35.1699 89.4193 35.0755 89.2171 35.1914Z" fill="#060607"/>
<path d="M87.2039 31.1667L87.9009 30.3042C88.0773 30.0897 88.1332 29.7979 88.0342 29.6563C87.9353 29.5148 87.7116 29.5748 87.5352 29.7893L86.8382 30.6518C86.6618 30.8663 86.6059 31.1581 86.7049 31.2997C86.8038 31.4455 87.0275 31.3855 87.2039 31.1667Z" fill="#060607"/>
<path d="M83.0198 29.2104C83.1962 29.2233 83.4156 29.0258 83.5189 28.7685L83.9189 27.7387C84.0179 27.4812 83.9619 27.2581 83.7856 27.2452C83.6092 27.2323 83.3898 27.4255 83.2866 27.6872L82.8864 28.7169C82.7832 28.9744 82.8434 29.1932 83.0198 29.2104Z" fill="#060607"/>
<path d="M72.9544 35.0029C72.778 35.2174 72.5585 35.2776 72.4553 35.1402L72.3047 34.93C72.5069 34.6596 72.7135 34.3936 72.9242 34.1318L73.0834 34.3593C73.191 34.5009 73.1308 34.7883 72.9544 35.0029Z" fill="#060607"/>
<path d="M69.2752 41.3396C69.1762 41.5971 68.9526 41.7944 68.7762 41.7815L68.4922 41.7558C68.617 41.4468 68.7417 41.1336 68.8794 40.8247L69.1419 40.8462C69.3182 40.859 69.3785 41.0822 69.2752 41.3396Z" fill="#060607"/>
<path d="M68.7774 52.9847L68.0804 53.8471C67.904 54.0617 67.8481 54.3534 67.9471 54.4951C68.046 54.6366 68.2697 54.5766 68.4461 54.362L69.143 53.4996C69.3194 53.285 69.3754 52.9933 69.2764 52.8516C69.1774 52.7101 68.9538 52.7701 68.7774 52.9847Z" fill="#060607"/>
<path d="M72.9624 54.9415C72.786 54.9286 72.5666 55.1218 72.4634 55.3835L72.0633 56.4133C71.9643 56.6707 72.0246 56.8939 72.1967 56.9068C72.373 56.9195 72.5925 56.7222 72.6958 56.4648L73.0958 55.435C73.1948 55.1775 73.1345 54.9587 72.9624 54.9415Z" fill="#060607"/>
<path d="M83.5247 49.0074C83.4259 48.8658 83.2021 48.9259 83.0257 49.1405C82.8493 49.355 82.7934 49.6468 82.8924 49.7883L83.2968 50.3547C83.3957 50.4964 83.6194 50.4362 83.7958 50.2217C83.9722 50.0071 84.0281 49.7154 83.9292 49.5739L83.5247 49.0074Z" fill="#060607"/>
<path d="M87.8999 42.4255L87.203 42.3653C87.0266 42.3525 86.8071 42.5499 86.7039 42.8073C86.605 43.0648 86.6652 43.2879 86.8373 43.3008L87.5342 43.3608C87.7105 43.3737 87.93 43.1806 88.0333 42.9189C88.1365 42.6615 88.0763 42.4383 87.8999 42.4255Z" fill="#060607"/>
<path d="M78.8749 41.5633C78.8749 42.1254 78.479 42.8076 77.9843 43.0908C77.4938 43.374 77.0938 43.1466 77.0938 42.5844C77.0938 42.0224 77.4938 41.3401 77.9843 41.057C78.479 40.7781 78.8749 41.0012 78.8749 41.5633Z" fill="#00C5F6"/>
<path d="M77.5862 43.284C77.7195 43.284 77.8659 43.2411 78.0207 43.151C78.5284 42.8592 78.9414 42.1469 78.9414 41.5634C78.9414 41.2673 78.8381 41.0442 78.6488 40.9369C78.4596 40.8297 78.2101 40.8511 77.9519 41.0012C77.4443 41.293 77.0312 42.0053 77.0312 42.5888C77.0312 42.8849 77.1345 43.108 77.3237 43.2153C77.4012 43.2582 77.4915 43.284 77.5862 43.284ZM78.3821 41.0055C78.4553 41.0055 78.5198 41.0227 78.58 41.0571C78.7262 41.1386 78.8038 41.3231 78.8038 41.5677C78.8038 42.1083 78.4208 42.7647 77.9476 43.0394C77.7324 43.1638 77.5303 43.1852 77.3841 43.1037C77.2377 43.0222 77.1603 42.8377 77.1603 42.5931C77.1603 42.0525 77.5432 41.3961 78.0164 41.1214C78.1497 41.0442 78.2746 41.0055 78.3821 41.0055Z" fill="#060607"/>
</g>
</g>
<defs>
<linearGradient id="paint0_linear_779_6" x1="60.0489" y1="103.54" x2="42.2934" y2="72.7048" gradientUnits="userSpaceOnUse">
<stop stop-color="#CBCDD1"/>
<stop offset="1" stop-color="#AFAFB5" stop-opacity="0"/>
</linearGradient>
<clipPath id="clip0_779_6">
<rect width="140" height="116" fill="white" transform="translate(0 12)"/>
</clipPath>
</defs>
</svg>
