<svg width="50" height="50" viewBox="0 0 50 50" fill="none" xmlns="http://www.w3.org/2000/svg">
<g clip-path="url(#clip0_1441_9)">
<path d="M45.8333 0H4.16667C1.86548 0 0 1.86548 0 4.16667V45.8333C0 48.1345 1.86548 50 4.16667 50H45.8333C48.1345 50 50 48.1345 50 45.8333V4.16667C50 1.86548 48.1345 0 45.8333 0Z" fill="#F5F5F7"/>
<path d="M15.0507 15L23.0942 25.7548L15 34.4988H16.8218L23.9084 26.8431L29.634 34.4988H35.8333L27.3371 23.1393L34.8712 15H33.0494L26.5232 22.0506L21.25 15H15.0507ZM17.7297 16.3418H20.5777L33.1539 33.1571H30.306L17.7297 16.3418Z" fill="#060707"/>
</g>
<defs>
<clipPath id="clip0_1441_9">
<rect width="50" height="50" fill="white"/>
</clipPath>
</defs>
</svg>
