<svg width="50" height="50" viewBox="0 0 50 50" fill="none" xmlns="http://www.w3.org/2000/svg">
<g clip-path="url(#clip0_1441_46)">
<path d="M45.8333 0H4.16667C1.86548 0 0 1.86548 0 4.16667V45.8333C0 48.1345 1.86548 50 4.16667 50H45.8333C48.1345 50 50 48.1345 50 45.8333V4.16667C50 1.86548 48.1345 0 45.8333 0Z" fill="#F5F5F7"/>
<path d="M38.3314 31.8852C38.1631 32.3907 37.917 32.596 37.3695 32.6137C36.1732 32.6525 34.9739 32.6379 33.7794 32.7078C32.741 32.7686 31.9177 32.3712 31.2196 31.6664C30.6521 31.0941 30.1314 30.4749 29.5754 29.8904C29.3738 29.6784 29.1434 29.4864 28.9004 29.3236C28.4854 29.0441 28.1841 29.0969 27.8463 29.4657C27.4617 29.8856 27.3578 30.4123 27.2934 30.9501C27.2618 31.2168 27.2636 31.4872 27.246 31.7557C27.2114 32.2692 26.9574 32.5729 26.4464 32.6118C25.8856 32.6543 25.3199 32.6447 24.7561 32.641C24.3581 32.6386 23.9565 32.6349 23.5628 32.5838C22.2638 32.415 21.1204 31.8627 20.0212 31.1682C18.6584 30.3067 17.6206 29.1382 16.6685 27.8653C14.6665 25.189 13.1227 22.258 11.7805 19.2122C11.5156 18.6107 11.7119 18.2771 12.3741 18.2218C12.7885 18.1872 13.2065 18.1975 13.6228 18.1938C14.4643 18.1872 15.3064 18.1853 16.1484 18.1823C16.7172 18.1805 17.0969 18.4332 17.3503 18.9594C18.0265 20.3642 18.7222 21.7592 19.4385 23.1438C19.7374 23.7217 20.122 24.2527 20.6379 24.6682C20.7515 24.76 20.8773 24.8445 21.0104 24.9028C21.3445 25.0492 21.6617 24.9611 21.7747 24.6215C21.929 24.1585 22.0402 23.6737 22.1046 23.1894C22.2553 22.0562 22.2231 20.9249 21.9916 19.7991C21.8555 19.1362 21.4521 18.7807 20.8135 18.6434C20.712 18.6216 20.6191 18.559 20.5224 18.5152C20.5765 18.4192 20.6154 18.3105 20.6871 18.2303C20.9557 17.9283 21.2965 17.7406 21.6951 17.6817C23.197 17.4599 24.7014 17.4258 26.204 17.6652C26.9562 17.7849 27.2084 18.0462 27.2788 18.8695C27.3378 19.5578 27.2776 20.256 27.2703 20.9504C27.2606 21.8527 27.2393 22.755 27.249 23.6572C27.2521 23.9203 27.3104 24.1956 27.4046 24.4417C27.6057 24.9678 28.0456 25.0735 28.4369 24.6719C28.864 24.2332 29.2826 23.7757 29.635 23.2769C30.578 21.9402 31.3247 20.4936 31.9293 18.9727C32.1924 18.3105 32.3181 18.2388 33.0344 18.2333C34.4319 18.2224 35.8287 18.2012 37.2262 18.1902C37.4066 18.189 37.5914 18.2054 37.7675 18.2437C38.0288 18.3007 38.2524 18.4229 38.3332 18.7091C38.3332 18.8306 38.3332 18.9521 38.3332 19.0737C38.1649 19.4692 38.0251 19.8792 37.824 20.2572C37.1533 21.5167 36.2504 22.6182 35.401 23.7562C34.9611 24.3457 34.5334 24.9453 34.1336 25.562C33.8979 25.926 33.927 26.3324 34.184 26.6861C34.3608 26.9297 34.5723 27.1508 34.7849 27.3659C35.5219 28.1114 36.2941 28.8235 36.9984 29.5988C37.5864 30.2465 38.1934 30.9069 38.3332 31.8329C38.3314 31.8499 38.3314 31.8675 38.3314 31.8852Z" fill="#060707"/>
</g>
<defs>
<clipPath id="clip0_1441_46">
<rect width="50" height="50" fill="white"/>
</clipPath>
</defs>
</svg>
