<svg width="50" height="50" viewBox="0 0 50 50" fill="none" xmlns="http://www.w3.org/2000/svg">
<g clip-path="url(#clip0_1441_49)">
<path d="M45.8333 0H4.16667C1.86548 0 0 1.86548 0 4.16667V45.8333C0 48.1345 1.86548 50 4.16667 50H45.8333C48.1345 50 50 48.1345 50 45.8333V4.16667C50 1.86548 48.1345 0 45.8333 0Z" fill="#F5F5F7"/>
<path d="M37.5 20.8188V27.8523C37.4838 27.9545 37.4595 28.0568 37.4524 28.1601C37.3957 28.9824 37.2843 29.7946 37.0028 30.5734C36.6352 31.5922 35.9819 32.3528 34.9793 32.7983C34.1489 33.168 33.2678 33.3158 32.3726 33.3634C31.4712 33.411 30.5669 33.4212 29.6646 33.4222C25.9772 33.4252 22.291 33.4283 18.6037 33.41C17.4694 33.4039 16.3473 33.2581 15.2829 32.8288C14.411 32.4773 13.7152 31.9183 13.2595 31.0798C12.7704 30.1784 12.5739 29.1961 12.5507 28.1925C12.503 26.1498 12.5 24.1072 12.5 22.0645C12.5 21.2604 12.5385 20.4543 12.5963 19.6512C12.6428 18.999 12.8068 18.3701 13.136 17.7939C13.6687 16.8602 14.5457 16.4318 15.5331 16.1806C16.5883 15.9123 17.6689 15.8403 18.7525 15.8383C22.773 15.8333 26.7935 15.8333 30.815 15.8333C31.9716 15.8333 33.1251 15.8788 34.2603 16.131C34.9905 16.293 35.6802 16.5493 36.2453 17.0617C36.9542 17.7058 37.2276 18.5554 37.3552 19.4669C37.418 19.9155 37.4524 20.3683 37.5 20.8188ZM22.1188 24.5123C22.1188 25.3832 22.1168 26.2531 22.1188 27.1241C22.1208 27.9079 22.7163 28.2694 23.4121 27.9079C25.0841 27.038 26.754 26.163 28.426 25.2941C28.744 25.129 28.9678 24.9012 28.9719 24.5244C28.9759 24.1376 28.7542 23.9016 28.424 23.7314C26.7561 22.8707 25.0932 22.0018 23.4262 21.1389C22.7163 20.7713 22.1198 21.1308 22.1178 21.9258C22.1158 22.7886 22.1178 23.6504 22.1178 24.5133L22.1188 24.5123Z" fill="#060707"/>
</g>
<defs>
<clipPath id="clip0_1441_49">
<rect width="50" height="50" fill="white"/>
</clipPath>
</defs>
</svg>
